<svg id="Layer_1" data-name="Layer 1" xmlns="http://www.w3.org/2000/svg" viewBox="0 0 432.07 144.07"><defs><style>.cls-1{fill:#10a7e3;}.cls-2{fill:#93dbf7;}.cls-10,.cls-3,.cls-5{fill:#fff;}.cls-12,.cls-3{stroke:#10a7e3;}.cls-11,.cls-12,.cls-13,.cls-3,.cls-4{stroke-miterlimit:10;}.cls-3{stroke-width:0.5px;}.cls-4,.cls-8{fill:#14bf96;}.cls-4{stroke:#00e5ae;}.cls-5{font-size:7.06px;font-family:Monaco, Monaco;}.cls-6{font-family:Lato-Bold, Lato;font-weight:700;letter-spacing:0em;}.cls-7{font-size:7px;}.cls-9{fill:#0a2a66;}.cls-11,.cls-12,.cls-13{fill:none;stroke-linecap:round;}.cls-11{stroke:#37c5fd;}.cls-11,.cls-13{stroke-width:4.44px;}.cls-12{stroke-width:7.22px;}.cls-13{stroke:#c3eefe;}.cls-14{fill:#37c5fd;}.cls-15{fill:#65d0fa;}</style></defs><title>router -&amp;gt; desktop</title><path class="cls-1" d="M111.09,68.87h0l0-7.12H22.58v6.83a44.26,44.26,0,1,0,88.51.29Z"/><circle class="cls-2" cx="66.74" cy="59.6" r="44.35"/><circle class="cls-2" cx="66.74" cy="59.6" r="19.21"/><polygon class="cls-3" points="65.25 54.98 71.89 43.98 65.95 45.94 58.18 22.46 51.3 24.74 59.08 48.22 53.36 50.12 65.25 54.98"/><polygon class="cls-3" points="82.05 94.18 74.27 70.69 79.99 68.8 68.1 63.94 61.46 74.94 67.39 72.97 75.17 96.46 82.05 94.18"/><polygon class="cls-3" points="102.55 47.76 91.56 41.12 93.52 47.05 70.04 54.83 72.32 61.71 95.8 53.93 97.69 59.65 102.55 47.76"/><polygon class="cls-3" points="61 57.47 37.52 65.25 35.62 59.53 30.76 71.42 41.76 78.06 39.79 72.12 63.28 64.34 61 57.47"/><path d="M52.68,131.77H51.1a.7.7,0,0,1-.65-.36l-2-3a.8.8,0,0,0-.25-.24.94.94,0,0,0-.39-.07h-.75v3.68H45.35v-9.4h2.86a6,6,0,0,1,1.64.19,3.23,3.23,0,0,1,1.13.56,2.07,2.07,0,0,1,.64.86,2.75,2.75,0,0,1,.21,1.09,2.69,2.69,0,0,1-.54,1.66,2.71,2.71,0,0,1-.65.61,3.39,3.39,0,0,1-.88.41,1.39,1.39,0,0,1,.31.23,1.58,1.58,0,0,1,.26.31Zm-4.49-4.93a2.55,2.55,0,0,0,.86-.13,1.6,1.6,0,0,0,.6-.34,1.32,1.32,0,0,0,.36-.51,2,2,0,0,0,.11-.66,1.32,1.32,0,0,0-.47-1.1,2.27,2.27,0,0,0-1.44-.38H47.09v3.12Z"/><path d="M56,125a3.68,3.68,0,0,1,1.35.24A2.92,2.92,0,0,1,59,127a4.38,4.38,0,0,1,0,2.86,3.11,3.11,0,0,1-.66,1.08,3,3,0,0,1-1,.69,3.95,3.95,0,0,1-2.71,0,2.91,2.91,0,0,1-1-.69,3.11,3.11,0,0,1-.66-1.08,4.38,4.38,0,0,1,0-2.86,3,3,0,0,1,.66-1.07,2.91,2.91,0,0,1,1-.69A3.7,3.7,0,0,1,56,125Zm0,5.64a1.43,1.43,0,0,0,1.23-.56,3.56,3.56,0,0,0,0-3.28,1.63,1.63,0,0,0-2.48,0,3.48,3.48,0,0,0,0,3.28A1.44,1.44,0,0,0,56,130.63Z"/><path d="M66.23,125.1v6.67h-1a.39.39,0,0,1-.41-.3l-.11-.53a3.41,3.41,0,0,1-.9.67,2.51,2.51,0,0,1-1.16.26,2.27,2.27,0,0,1-1-.19,1.81,1.81,0,0,1-.7-.52,2.29,2.29,0,0,1-.44-.8,3.66,3.66,0,0,1-.14-1V125.1H62v4.23a1.42,1.42,0,0,0,.29.95,1.06,1.06,0,0,0,.85.33,1.71,1.71,0,0,0,.77-.18,2.37,2.37,0,0,0,.69-.51V125.1Z"/><path d="M70,131.87a1.75,1.75,0,0,1-1.34-.49,1.9,1.9,0,0,1-.46-1.36V126.3h-.68a.33.33,0,0,1-.23-.09.32.32,0,0,1-.09-.25v-.64l1.08-.17.33-1.82a.37.37,0,0,1,.13-.2.35.35,0,0,1,.23-.07h.83v2.09h1.78v1.15H69.84v3.61a.69.69,0,0,0,.16.49.52.52,0,0,0,.42.18.93.93,0,0,0,.25,0l.17-.07.13-.08a.28.28,0,0,1,.12,0,.21.21,0,0,1,.12,0,.57.57,0,0,1,.1.11l.48.78a2.65,2.65,0,0,1-.81.44A3,3,0,0,1,70,131.87Z"/><path d="M73.84,128.63a2.86,2.86,0,0,0,.18.89,1.89,1.89,0,0,0,.37.62,1.58,1.58,0,0,0,.56.36,2,2,0,0,0,.71.12,2.17,2.17,0,0,0,.67-.09,3.46,3.46,0,0,0,.5-.2l.37-.2a.61.61,0,0,1,.31-.09.34.34,0,0,1,.3.15l.46.58a2.67,2.67,0,0,1-.6.52,3.16,3.16,0,0,1-.69.34,3.2,3.2,0,0,1-.74.18,4.51,4.51,0,0,1-.72.05,3.45,3.45,0,0,1-1.3-.23,3,3,0,0,1-1-.68,3.22,3.22,0,0,1-.69-1.12,4.29,4.29,0,0,1-.25-1.54,3.64,3.64,0,0,1,.22-1.29,3,3,0,0,1,.63-1,3.07,3.07,0,0,1,1-.71,3.53,3.53,0,0,1,2.5-.06,2.6,2.6,0,0,1,.92.59,2.66,2.66,0,0,1,.6,1,3.44,3.44,0,0,1,.22,1.28,1.1,1.1,0,0,1-.08.5.33.33,0,0,1-.3.12Zm3.06-1a1.85,1.85,0,0,0-.09-.58,1.53,1.53,0,0,0-.26-.49,1.25,1.25,0,0,0-.45-.33,1.54,1.54,0,0,0-.63-.12,1.45,1.45,0,0,0-1.09.4,1.89,1.89,0,0,0-.51,1.12Z"/><path d="M81.06,126.25a2.74,2.74,0,0,1,.74-.94,1.6,1.6,0,0,1,1-.34,1.25,1.25,0,0,1,.74.2l-.1,1.21a.26.26,0,0,1-.1.16.25.25,0,0,1-.16,0l-.29,0-.37,0a1.43,1.43,0,0,0-.48.07,1.28,1.28,0,0,0-.37.23,1.72,1.72,0,0,0-.3.35,3.59,3.59,0,0,0-.23.48v4.11H79.54V125.1h.94a.6.6,0,0,1,.35.08.56.56,0,0,1,.13.32Z"/><rect class="cls-4" x="163.8" y="13.01" width="89.16" height="47.29" rx="4.42" ry="4.42"/><text class="cls-5" transform="translate(169.57 43.86)">FROM<tspan class="cls-6" x="16.94" y="0">:</tspan><tspan x="0" y="8.47">216.3.192.1</tspan></text><text class="cls-5" transform="translate(169.57 22.73)">TO:<tspan class="cls-7"><tspan x="0" y="8.4">91.198.174.192</tspan></tspan></text><rect class="cls-8" x="128.77" y="68.58" width="147.59" height="9.63"/><polygon class="cls-8" points="287.22 74.36 275.5 64.33 275.5 84.38 287.22 74.36"/><rect class="cls-9" x="297.6" y="2.23" width="130.44" height="130.44" rx="2.79" ry="2.79"/><rect class="cls-10" x="303.2" y="7.83" width="119.23" height="73.38"/><line class="cls-11" x1="335.63" y1="25.52" x2="350.58" y2="25.52"/><line class="cls-12" x1="325.89" y1="25.52" x2="325.89" y2="25.52"/><line class="cls-11" x1="335.63" y1="41.43" x2="350.58" y2="41.43"/><line class="cls-12" x1="325.89" y1="41.43" x2="325.89" y2="41.43"/><line class="cls-11" x1="335.63" y1="57.35" x2="350.58" y2="57.35"/><line class="cls-12" x1="325.89" y1="57.35" x2="325.89" y2="57.35"/><line class="cls-13" x1="359.54" y1="25.52" x2="401.53" y2="25.52"/><line class="cls-13" x1="359.54" y1="33.47" x2="392.32" y2="33.47"/><line class="cls-13" x1="359.54" y1="49.39" x2="392.32" y2="49.39"/><line class="cls-13" x1="359.54" y1="65.3" x2="392.32" y2="65.3"/><line class="cls-13" x1="359.54" y1="41.43" x2="401.53" y2="41.43"/><line class="cls-13" x1="359.54" y1="57.35" x2="401.53" y2="57.35"/><path class="cls-14" d="M297.6,81.21H428a0,0,0,0,1,0,0v56.64a4,4,0,0,1-4,4H301.6a4,4,0,0,1-4-4V81.21A0,0,0,0,1,297.6,81.21Z"/><rect class="cls-1" x="303.2" y="87.83" width="8.66" height="8.66" rx="1.11" ry="1.11"/><rect class="cls-1" x="314.26" y="87.83" width="8.66" height="8.66" rx="1.11" ry="1.11"/><rect class="cls-1" x="325.32" y="87.83" width="8.66" height="8.66" rx="1.11" ry="1.11"/><rect class="cls-1" x="336.37" y="87.83" width="8.66" height="8.66" rx="1.11" ry="1.11"/><rect class="cls-1" x="347.43" y="87.83" width="8.66" height="8.66" rx="1.11" ry="1.11"/><rect class="cls-1" x="358.49" y="87.83" width="8.66" height="8.66" rx="1.11" ry="1.11"/><rect class="cls-1" x="369.54" y="87.83" width="8.66" height="8.66" rx="1.11" ry="1.11"/><rect class="cls-1" x="380.6" y="87.83" width="8.66" height="8.66" rx="1.11" ry="1.11"/><rect class="cls-1" x="391.66" y="87.83" width="8.66" height="8.66" rx="1.11" ry="1.11"/><rect class="cls-1" x="402.72" y="87.83" width="8.66" height="8.66" rx="1.11" ry="1.11"/><rect class="cls-1" x="413.77" y="87.83" width="8.66" height="8.66" rx="1.11" ry="1.11"/><rect class="cls-1" x="314.26" y="99.55" width="8.66" height="8.66" rx="1.11" ry="1.11"/><rect class="cls-1" x="325.32" y="99.55" width="8.66" height="8.66" rx="1.11" ry="1.11"/><rect class="cls-1" x="336.37" y="99.55" width="8.66" height="8.66" rx="1.11" ry="1.11"/><rect class="cls-1" x="347.43" y="99.55" width="8.66" height="8.66" rx="1.11" ry="1.11"/><rect class="cls-1" x="358.49" y="99.55" width="8.66" height="8.66" rx="1.11" ry="1.11"/><rect class="cls-1" x="369.54" y="99.55" width="8.66" height="8.66" rx="1.11" ry="1.11"/><rect class="cls-1" x="380.6" y="99.55" width="8.66" height="8.66" rx="1.11" ry="1.11"/><rect class="cls-1" x="391.66" y="99.55" width="8.66" height="8.66" rx="1.11" ry="1.11"/><rect class="cls-1" x="402.72" y="99.55" width="8.66" height="8.66" rx="1.11" ry="1.11"/><rect class="cls-1" x="303.2" y="111.27" width="8.66" height="8.66" rx="1.11" ry="1.11"/><rect class="cls-1" x="314.26" y="111.27" width="8.66" height="8.66" rx="1.11" ry="1.11"/><rect class="cls-1" x="325.32" y="111.27" width="8.66" height="8.66" rx="1.11" ry="1.11"/><rect class="cls-1" x="336.37" y="111.27" width="8.66" height="8.66" rx="1.11" ry="1.11"/><rect class="cls-1" x="347.43" y="111.27" width="8.66" height="8.66" rx="1.11" ry="1.11"/><rect class="cls-1" x="358.49" y="111.27" width="8.66" height="8.66" rx="1.11" ry="1.11"/><rect class="cls-1" x="369.54" y="111.27" width="8.66" height="8.66" rx="1.11" ry="1.11"/><rect class="cls-1" x="380.6" y="111.27" width="8.66" height="8.66" rx="1.11" ry="1.11"/><rect class="cls-1" x="391.66" y="111.27" width="8.66" height="8.66" rx="1.11" ry="1.11"/><rect class="cls-1" x="402.72" y="111.27" width="8.66" height="8.66" rx="1.11" ry="1.11"/><rect class="cls-1" x="413.77" y="111.27" width="8.66" height="8.66" rx="1.11" ry="1.11"/><rect class="cls-1" x="338.36" y="111.27" width="48.92" height="8.66" rx="1.11" ry="1.11"/><rect class="cls-15" x="345.49" y="123.5" width="32.61" height="13.76" rx="2.29" ry="2.29"/></svg>