<svg id="Layer_1" data-name="Layer 1" xmlns="http://www.w3.org/2000/svg" width="520.67" height="379.56" viewBox="0 0 520.67 379.56"><defs><style>.cls-1{fill:#bfcdd1;opacity:0.59;}.cls-2,.cls-3,.cls-5,.cls-6{fill:none;stroke:#14bf96;stroke-linecap:round;stroke-miterlimit:10;}.cls-2{stroke-width:6px;}.cls-3{stroke-width:1.37px;}.cls-4{fill:#37c5fd;}.cls-5{stroke-width:1.52px;}.cls-6{stroke-width:1.66px;}</style></defs><title>WAN</title><path id="path2830" class="cls-1" d="M174.5,42.13l1.81-.86,1.72-.76,1.62-.48,1.62-.28h2.29l1.9.57,2.29,1.33,2.38,2.2L192,46.13l1.33,2.58,1.15,2.38,2.1,2.77L198.81,55l3.72.86,4.67-.29,4.29-.29h2.28l1.34-.47.47-.38.19-2.2-.28-1.62-.57-1.14s-.29-.57-.67-.57a11.07,11.07,0,0,1-1.53-.29l-.95-.38-.38-1.14.38-3.24.76-2.1,1.34-2.48,2-2.48,1.33-1.71.39-1,.85-.48,2-.19,1.34.1h.86l.47-.67-.47-1.33-.86-1.91-.1-2.19.39-2,.85-1.9,1.91-1.91,2.86-1.71,4-1L235,18.4l3.91-.38,2.76-.29,3.81-.38,3.34-.57,2.38-1.43,1.53-2,.57-1.9-.19-2.38-.67-1.34-1.14-1.43L250,5.15l-1-.38-1.63.09-1.14-.09-.67-.58.1-1.24.95-1.14L247.61,1,249,.67l1.43.28L253,2.38l3,2.39,1.91,1,1.24,1.34.57.57h.76l.48-1.24L261,4.86l-.2-1.33.67-.29.76.57L263,5.34l.66,1.24.19.76.86.57h1.81l1.43.57,2.77,1.24,2.19,1.15,2.19.28,9.25.1.67.09.47,1.05.57,1.53,1.24,1.14,1.62.67,2.39.09,3,.1,1.62.19,1.34.19.66-.57.19-.67,1.24-.38,1.34.09,1.05.1.28.57.29,1.53.38,1.24,1.14.47,1.05.19,1.05-.09.76-.29.57-1.14.39-1.15.76-.57,1.43-.57,1.43-.09,1.33.38,1.15.57.66.86.1,1.62-.38,2.86-.29,3.14-.57,3.05v.86l-.38.57-.48.48-2,.19-4.19-.19h-2.48l-1.15.19-.57.76L301,35.08,300,39.75l-1.72,3.33-2.86,3.82-2.38,2.48-1.53,1.23-.76.67L291,52l2.19-.38,2.77.38,3.43.95,4.19,1.81L312.14,60l4.48,3,3.24,2,4.2,1.81,3.9,1.43L331.21,70l2.19,1.81,2.86,2.67,3.05,2.29,2,1.53,2,.95,1.05.57.38,1.62,1.53,3L347.5,86,350,87.6l2.67.67h5.63l4.48-.1,2.38-.1.57-.28.57-1.91.67-3.52,1.05-4.2,2-4.48,1.91-4.57,1.33-4.1.57-4.2.38-5.62.1-6.39,1.81-12.67.48-3.91.19-3v-1.9l.57-1,.48-.38,1.24-.19.85-.38.19-1.05.48-5,.76-4.58,1.53-4,1.24-3.14,1.52-3.15.67-1.81.57-1.34.38-.76L388.3,0l2.1.1,1.62,1,1.43,2,1.14,3.05.48,3.05.19,2.19v2.38l.19.86.48.29,1.71-.2,1.53-.09.57.09.76.1.19.86L400.22,17l-.39,1.14v2.76l.2,2,1,2.86,1.43,3.43,1.72,4,1,3.15.66,3.33.2,3.72v3.15l.09,1.62.29,1,1.05.29h2.28l1.91-.48s1.33-.19,1.72-.19,2.28-.09,2.28-.09l1.81.47L419,50.33l1.53,2.1,1.71,3,1.82,3,.76,1.72.47,2.67.1,3.9.48,5.15.38,2.76.28,2,1.15,2.67,1.24,1.23,1,1.24,2,.67.76,1,.67,3.24.38,4.1.09,7.72.29,4.58,1,4.38,2,3.34,2.58,3.34,3.24,2.86,2.19,1.33,1.81.57h1.43l.57.1.48.86.48,2.66.85,1,1.91,1.15,3.15,1.81,2.38,1.52,2.1,2.29,2,2.86,1.62,4.19,2.57,5.53,2.58,4.86,1.81,4.2,1.9,4.76,1.05,4.58-.19,1.43.29.76.57-.28.19-1.62.38-1.34.76-.29,1.34.39.67.76.85,2.38.86,2.19.67,1.72.38,1,.95.19.57-1.71-.28-3.05.19-2.29.29-.86,1.23-.28h1.05l.57.57.29,2,.1,6.48.38,4,.66,4.1,1.15,3.63,1.43,2.28,2.1,2.29,1.71,2.19,2.38,3.15,3.34,5.43,2.86,4.39,2.19,2.67L506,205.6l1.14.57,1.24.1s.86-.1.86-.57.1-1.43.1-1.43.09-1.53.47-1.72a4.39,4.39,0,0,0,1-1l1.62-.57h1.81l.95.57.29.67-.58,1.52-.66,1.91-.29,1.9-.95,2.58-1.81,1.24-1.24.09-.86.1s-.67-.1-.76.38-.67,2.29-.67,2.29L508,218l.38,8.11-.19,7.91.48,6.29.38,3.14-.38,5.63-.67,5.14-1.62,5.15-2,6-2.1,4.38-1.43,3.15-.86,3.33-.85,6.49-.58,5.14-.76,3.82-1.71,3.71-3.91,3.34-4.29,2.95-2.86,2.1-2.76,2.57-1.63,2.2L479.33,311,478,314.36l-1.24,3.81-2.1,4.29-3.34,4.48-1.81,2.48-1.9,2.67-1.53,3.72-2.95,3.72-3.24,2.85-2.29,2.48-1.15,1.91-.09,3.34.09,3.52-.76,4.39-1.05,3.62-1.14,2.29-2.38,2.57-3.82,1.24-5.53.09-7.24.29-5,.86-3.91,1.14-4.19,2.39-2.1,1.23-1.53.2-1.33.38-.67,1.14-.28,2.67-.1.95-.76.48H412.8l-3.24-1.14-3-.58s-.86-.38-.86-.76V375l-.85-2.38-1.24-1.24-1-.47-.57.85.1,2.48.09,2.1-.38.57-1.05-.29-1.71-1.33-1.81-1.43-1.15-1.24.29-.38h1.43l.47-1.05.2-2.1-.58-1.52-1.62-2.48-.57-.29-1.05,1-.09,3.24.09,2.57-1,2-1.9,1.34-1.05.86h-6.67l-5.05-.29-1.43-.86a31,31,0,0,0-2-2.38c-.38-.29-1.9-.57-2.28-.86s-1.82-.19-2.29-.38a27.74,27.74,0,0,0-3.72-.19l-1.81-.1-3.72-1.52-2.95-1.72L356,366.31l-3-.29a12.24,12.24,0,0,1-3.14-.09c-.48-.29-2.86-1.24-2.86-1.24l-3-3.53-.86-2.67.19-4.1.1-5.14.19-5.05-1.15-3.53s-1.52-1.62-1.9-1.91-2.2-1.14-2.2-1.14l-2.47-.67-1.43-1.14-.1-.86v-1.43l.19-1.14-.38-.38-.86.38-2.95,1.81-1.62.95a5.83,5.83,0,0,1-1.72.57c-.57,0-2.1.1-2.48.1s-1.9-.19-1.9-.19l-.38-.67-.1-1.91.1-2.19.19-1.05,1.43-.95,1.23-1.43.58-2-.19-3.05-.29-2.86-.1-2.67-.28-1.62-.67-.76-1.33-.38-1.24.47-.67.29-.48,1.14.19,2.77-.38,2.38-.38,2.1-.86,1.43L318,326l-1.82.95-1.71.29-3.53.19-1.81-.1-.48-.76.29-1.33,1.62-1.53,2.1-2.09L315,319.7l2.57-2.77,1.53-2.09,1.43-3,1.05-4,.28-3.43-.19-3.71.29-3.15-.19-2.29-.19-1.62-.76-.28-.67,1.23-1.72,3.25L316,301.21l-4.76,5.72-2,2.47-3.44,3.15-2.28,1.81-1.34.95-.95,1.24-.95,1.34-.29,1.62.19,2.19v1.72l-.76.66-2.1.1L295,322.56l-2.38-2.67-1.91-4.29-1.23-5-1-4.19-1.53-3.05-2.95-3-2.2-.86-2.28-.09-1-.58-.57-1.33.67-1.53s.57-.38,1.14-.85a3.85,3.85,0,0,1,1.43-.67l.77-.38.38-.95.09-1.43-.67-.58-1.81-.38-1.33.1-1.24-.29a4.11,4.11,0,0,1-.67-1,17.48,17.48,0,0,1,0-2.19l-.19-1.05-1.9-.38-3.34-.09L268,284.62l-3.62-.47-5.15.19h-3.15l-1.81-.58-1.14-1-.38-1.24.09-1.81s.38-.77,0-1.15-1-1.14-1-1.14L249,276.14l-3.24-.76-2.86.09-3.53.19-2.28.57-5,1.34-7.91,3.14-4.48,2.2L215.2,285l-4.67,1.43-3.62.57h-5l-2.67.2-1.62.85L196,289.86s-.67,1.24-1.15,1.24-4.67,1-4.67,1l-6.48,1.05-5.24,1.91-5.72,2.28-4.77,2.77-3.33,2-1.81,2.29-1.34,2.67-1.33,2.48-.67,1.42-.57.86-2.48.86L151.62,314s-5.14.38-6,.48-6.58.09-6.58.09l-4.19-.38-5,.29-3.72.47-5,1.91-6.77,3.05-3.62,3.05-2.48,1.81-1.53,1.53-1.71,2.57-2.1,2.76L101,333l-1.81.77-3.62.09-9.82.1-3.34-.1L78.13,333l-2.95-2.1-3.24-2.48-1.62-1.05L66.6,327l-3.15-1.62L62,323.89l-.38-1.14.1-3.24.09-1.62s-.28-.76.1-1.15a16.78,16.78,0,0,1,2.19-1.33,4.71,4.71,0,0,0,1.43-.48c.38-.28,1.72-1.05,1.72-1.05l1-1.33v-3.72l-.1-2.48-.67-1.43-.66-1.62.09-2.86.1-4.95-.19-4.2v-.85L66.22,289l-2.86-3.24-2.57-2.48-2.1-1.91-1.62-1.71-.57-1.34-.67-2a12.72,12.72,0,0,0-.48-2.77c-.28-.47-1.14-2.76-1.14-2.76s-1.15-1.62-1.53-2S50.21,266,50.21,266l-1.63-1.71-.66-1.05a4.83,4.83,0,0,1-.48-1.62c.1-.38.29-2.67.29-2.67l-.29-2-.86-.86-2.09-1-2.29-1.53-1.43-1.24-1.34-1.52L38.58,249l-.29-2.57-.09-2.19.38-1.43-.29-.67-1.72-.1s-1.14-.28-1.62-.47a10.47,10.47,0,0,1-1.23-.67l-1-1.62v-3.62l-.48-1.24-.95-1.15-3-2.19-3.53-3.71-2-2.39-1.15-1.24-.38-1.05L21,221.52l.86-.86,1.62-.09,1.81.76L27,223.62,29.62,226l2.19,1.62,1.62.48,1.33-.19.48-.86.1-2.1-.1-3a7.3,7.3,0,0,0-.29-1.71c-.19-.38,0-.38-1-1a6.69,6.69,0,0,0-1.91-.76l-1.42.1-.86-.67.19-6.58-.1-.57-1-.76-1.33-.19-2.29-1.53-1.9-3L22,202.17l-.48-1.71.77-1.82,1.24-2.47.28-2.48.29-5-.1-9.82v-4.38l.29-3.15.19-1.43.29-.95.47-.1.86.39.76,2,.67,2.48.86,1.33.66.1L29.9,174l.48-2.29,1.24-3.34,2-4,5.15-4.86,4-4.77,2.48-2.38,3.33-2.57,3.91-2.1,3.72-1H60.6l3.33-.77s2.48-1.33,2.86-1.52a25,25,0,0,0,2.19-2l2.58-1.72,3-.86,2.67-1.52L79.56,136l1.15-1.72,2.09-2.19,2.77-1.52,2.29-.58,3-.09,3.9-.29,4.87-1,3.9-1,3.82-2.29,4.1-3.15,4.28-5.14,2.39-3,1.9-4.2,1-3.72.28-4.76.1-5.15.48-3.91,1.62-3.9,1.9-2.67L127,83.79l1.15-1.15.95-.09,1,.85,2.19,3,1.53,1.43,1.62,1.43,1.05.76s.38.48.67,0l.57-1,.19-3.62-.48-6,.1-2,.86-1,2.47-.19,3.72.19h2.1l.86-.48.38-2.19.09-3.15-.19-1.43-1.05-.38h-1.14l-1-.38a2,2,0,0,1,.09-1.24,18.84,18.84,0,0,1,1.81-1.91l1.62-1.81,1.05-1.9.48-1.15a3.28,3.28,0,0,1,.57-.76,3.6,3.6,0,0,1,1.62-.48l3.72.29h1.71l1-.57.09-3-.09-1.9s-.1-.86.28-1.15,1-.86,1.34-.86,1.9.19,1.9.19l2.1.29.76-.57V50.33l.1-2,1.71-1.53L169.16,45l5.34-2.86Z"/><circle class="cls-2" cx="297.68" cy="281.65" r="63.07"/><circle class="cls-2" cx="454.6" cy="145.05" r="63.07"/><circle class="cls-2" cx="66.07" cy="188.7" r="63.07"/><line class="cls-3" x1="88.48" y1="164.2" x2="71.4" y2="178.46"/><line class="cls-3" x1="43.77" y1="164.2" x2="60.86" y2="178.46"/><line class="cls-3" x1="94.48" y1="194.09" x2="70.54" y2="184.72"/><line class="cls-3" x1="65.62" y1="213.13" x2="65.62" y2="192.75"/><line class="cls-3" x1="35.46" y1="194.09" x2="59.4" y2="184.72"/><rect class="cls-4" x="57.41" y="175.53" width="17.42" height="17.42" rx="4.47"/><rect class="cls-4" x="31.55" y="148.83" width="17.42" height="17.42" rx="4.47"/><rect class="cls-4" x="83.28" y="148.83" width="17.42" height="17.42" rx="4.47"/><rect class="cls-4" x="22.42" y="186.42" width="17.42" height="17.42" rx="4.47"/><rect class="cls-4" x="57.41" y="211.15" width="17.42" height="17.42" rx="4.47"/><rect class="cls-4" x="92.3" y="186.42" width="17.42" height="17.42" rx="4.47"/><polygon class="cls-5" points="316.83 248.6 278.8 248.6 259.78 281.54 278.8 314.48 316.83 314.48 335.85 281.54 316.83 248.6"/><rect class="cls-4" x="269.94" y="239.5" width="19.28" height="19.28" rx="4.95"/><rect class="cls-4" x="306.94" y="304.52" width="19.28" height="19.28" rx="4.95"/><rect class="cls-4" x="250.3" y="272.37" width="19.28" height="19.28" rx="4.95"/><rect class="cls-4" x="306.94" y="239.5" width="19.28" height="19.28" rx="4.95"/><rect class="cls-4" x="325.78" y="272.37" width="19.28" height="19.28" rx="4.95"/><rect class="cls-4" x="269.94" y="304.52" width="19.28" height="19.28" rx="4.95"/><rect class="cls-4" x="406.51" y="154.45" width="21.08" height="21.08" rx="5.41"/><rect class="cls-4" x="439.2" y="154.45" width="21.08" height="21.08" rx="5.41"/><rect class="cls-4" x="473.29" y="154.45" width="21.08" height="21.08" rx="5.41"/><line class="cls-6" x1="499.17" y1="145.39" x2="407.89" y2="145.39"/><line class="cls-6" x1="425.37" y1="144.62" x2="425.37" y2="135.71"/><line class="cls-6" x1="458.05" y1="144.57" x2="458.05" y2="135.66"/><line class="cls-6" x1="492.15" y1="144.27" x2="492.15" y2="135.36"/><rect class="cls-4" x="414.83" y="114.57" width="21.08" height="21.08" rx="5.41"/><rect class="cls-4" x="447.51" y="114.57" width="21.08" height="21.08" rx="5.41"/><rect class="cls-4" x="481.61" y="114.57" width="21.08" height="21.08" rx="5.41"/><line class="cls-6" x1="417.05" y1="154.79" x2="417.05" y2="145.89"/><line class="cls-6" x1="449.74" y1="154.74" x2="449.74" y2="145.84"/><line class="cls-6" x1="483.83" y1="154.44" x2="483.83" y2="145.54"/><line class="cls-2" x1="126.81" y1="206.69" x2="236.11" y2="256.31"/><line class="cls-2" x1="130.06" y1="175.3" x2="390.34" y2="137.47"/><line class="cls-2" x1="345.91" y1="243.86" x2="412.67" y2="191.76"/></svg>