<svg id="Layer_1" data-name="Layer 1" xmlns="http://www.w3.org/2000/svg" width="496.13" height="168.69" viewBox="0 0 496.13 168.69"><defs><style>.cls-1{fill:#0a2a66;}.cls-2{fill:#fff;}.cls-12,.cls-14,.cls-3,.cls-4,.cls-5{fill:none;}.cls-3{stroke:#37c5fd;}.cls-12,.cls-13,.cls-3,.cls-4,.cls-5{stroke-linecap:round;}.cls-12,.cls-14,.cls-3,.cls-4,.cls-5,.cls-9{stroke-miterlimit:10;}.cls-3,.cls-5{stroke-width:4.44px;}.cls-4{stroke:#10a7e3;stroke-width:7.22px;}.cls-12,.cls-5{stroke:#c3eefe;}.cls-6{fill:#37c5fd;}.cls-7{fill:#10a7e3;}.cls-8{fill:#65d0fa;}.cls-11,.cls-9{fill:#14bf96;}.cls-13,.cls-9{stroke:#00e5ae;}.cls-9{stroke-width:1.29px;}.cls-10{isolation:isolate;}.cls-12{stroke-width:4.61px;}.cls-13{fill:#00e5ae;stroke-linejoin:round;stroke-width:1.56px;}.cls-14{stroke:#14bf96;stroke-width:2.62px;}</style></defs><title>packets</title><rect class="cls-1" y="23.12" width="136.01" height="136.01" rx="2.79"/><rect class="cls-2" x="5.84" y="28.96" width="124.32" height="76.5"/><line class="cls-3" x1="39.66" y1="47.4" x2="55.25" y2="47.4"/><line class="cls-4" x1="29.51" y1="47.4" x2="29.51" y2="47.4"/><line class="cls-3" x1="39.66" y1="63.99" x2="55.25" y2="63.99"/><line class="cls-4" x1="29.51" y1="63.99" x2="29.51" y2="63.99"/><line class="cls-3" x1="39.66" y1="80.59" x2="55.25" y2="80.59"/><line class="cls-4" x1="29.51" y1="80.59" x2="29.51" y2="80.59"/><line class="cls-5" x1="64.58" y1="47.4" x2="108.36" y2="47.4"/><line class="cls-5" x1="64.58" y1="55.7" x2="98.76" y2="55.7"/><line class="cls-5" x1="64.58" y1="72.29" x2="98.76" y2="72.29"/><line class="cls-5" x1="64.58" y1="88.88" x2="98.76" y2="88.88"/><line class="cls-5" x1="64.58" y1="63.99" x2="108.36" y2="63.99"/><line class="cls-5" x1="64.58" y1="80.59" x2="108.36" y2="80.59"/><path class="cls-6" d="M0,105.47H136v59.22a4,4,0,0,1-4,4H4a4,4,0,0,1-4-4V105.47Z"/><rect class="cls-7" x="5.84" y="112.37" width="9.03" height="9.03" rx="1.11"/><rect class="cls-7" x="17.37" y="112.37" width="9.03" height="9.03" rx="1.11"/><rect class="cls-7" x="28.9" y="112.37" width="9.03" height="9.03" rx="1.11"/><rect class="cls-7" x="40.43" y="112.37" width="9.03" height="9.03" rx="1.11"/><rect class="cls-7" x="51.96" y="112.37" width="9.03" height="9.03" rx="1.11"/><rect class="cls-7" x="63.49" y="112.37" width="9.03" height="9.03" rx="1.11"/><rect class="cls-7" x="75.02" y="112.37" width="9.03" height="9.03" rx="1.11"/><rect class="cls-7" x="86.55" y="112.37" width="9.03" height="9.03" rx="1.11"/><rect class="cls-7" x="98.07" y="112.37" width="9.03" height="9.03" rx="1.11"/><rect class="cls-7" x="109.6" y="112.37" width="9.03" height="9.03" rx="1.11"/><rect class="cls-7" x="121.13" y="112.37" width="9.03" height="9.03" rx="1.11"/><rect class="cls-7" x="17.37" y="124.59" width="9.03" height="9.03" rx="1.11"/><rect class="cls-7" x="28.9" y="124.59" width="9.03" height="9.03" rx="1.11"/><rect class="cls-7" x="40.43" y="124.59" width="9.03" height="9.03" rx="1.11"/><rect class="cls-7" x="51.96" y="124.59" width="9.03" height="9.03" rx="1.11"/><rect class="cls-7" x="63.49" y="124.59" width="9.03" height="9.03" rx="1.11"/><rect class="cls-7" x="75.02" y="124.59" width="9.03" height="9.03" rx="1.11"/><rect class="cls-7" x="86.55" y="124.59" width="9.03" height="9.03" rx="1.11"/><rect class="cls-7" x="98.07" y="124.59" width="9.03" height="9.03" rx="1.11"/><rect class="cls-7" x="109.6" y="124.59" width="9.03" height="9.03" rx="1.11"/><rect class="cls-7" x="5.84" y="136.81" width="9.03" height="9.03" rx="1.11"/><rect class="cls-7" x="17.37" y="136.81" width="9.03" height="9.03" rx="1.11"/><rect class="cls-7" x="28.9" y="136.81" width="9.03" height="9.03" rx="1.11"/><rect class="cls-7" x="40.43" y="136.81" width="9.03" height="9.03" rx="1.11"/><rect class="cls-7" x="51.96" y="136.81" width="9.03" height="9.03" rx="1.11"/><rect class="cls-7" x="63.49" y="136.81" width="9.03" height="9.03" rx="1.11"/><rect class="cls-7" x="75.02" y="136.81" width="9.03" height="9.03" rx="1.11"/><rect class="cls-7" x="86.55" y="136.81" width="9.03" height="9.03" rx="1.11"/><rect class="cls-7" x="98.07" y="136.81" width="9.03" height="9.03" rx="1.11"/><rect class="cls-7" x="109.6" y="136.81" width="9.03" height="9.03" rx="1.11"/><rect class="cls-7" x="121.13" y="136.81" width="9.03" height="9.03" rx="1.11"/><rect class="cls-7" x="42.5" y="136.81" width="51" height="9.03" rx="1.11"/><rect class="cls-8" x="49.94" y="149.56" width="34" height="14.34" rx="2.29"/><path class="cls-9" d="M194.09,16.74h97.62c3,0,5.37,2.72,5.37,6.08V63.56c0,3.36-2.41,6.08-5.37,6.08H194.09c-3,0-5.37-2.72-5.37-6.08V22.82C188.72,19.46,191.13,16.74,194.09,16.74Z"/><g class="cls-10"><g class="cls-10"><path class="cls-2" d="M197.27,24.87a2,2,0,0,1,1.78,1,4.94,4.94,0,0,1,.61,2.64,4.9,4.9,0,0,1-.61,2.63,2.1,2.1,0,0,1-3.55,0,4.9,4.9,0,0,1-.61-2.63,4.94,4.94,0,0,1,.61-2.64A2,2,0,0,1,197.27,24.87Zm-1.33,5.06,2.36-3.69a1.35,1.35,0,0,0-.49-.55,1.14,1.14,0,0,0-.54-.14,1.19,1.19,0,0,0-1.11.81,4.82,4.82,0,0,0-.38,2.07c0,.19,0,.39,0,.61A7.8,7.8,0,0,0,195.94,29.93Zm2.65-2.88-2.33,3.72a1.45,1.45,0,0,0,.43.48,1,1,0,0,0,.55.16,1.22,1.22,0,0,0,1.18-.93,5.77,5.77,0,0,0,.35-2.07A5.13,5.13,0,0,0,198.59,27.05Z"/><path class="cls-2" d="M202.47,31.2V26a8.63,8.63,0,0,1-.72.5,7,7,0,0,1-.95.42v-.74a5.81,5.81,0,0,0,1.67-1.06h.82V31.2h1.63v.68H200.8V31.2Z"/><path class="cls-2" d="M207.87,31.2V26a8.63,8.63,0,0,1-.72.5,7,7,0,0,1-1,.42v-.74a6,6,0,0,0,1.67-1.06h.81V31.2h1.64v.68H206.2V31.2Z"/><path class="cls-2" d="M213.46,24.87a2,2,0,0,1,1.78,1,5,5,0,0,1,.61,2.64,5,5,0,0,1-.61,2.63,2.1,2.1,0,0,1-3.55,0,4.9,4.9,0,0,1-.61-2.63,4.94,4.94,0,0,1,.61-2.64A2,2,0,0,1,213.46,24.87Zm-1.33,5.06,2.36-3.69a1.42,1.42,0,0,0-.49-.55,1.14,1.14,0,0,0-.54-.14,1.19,1.19,0,0,0-1.11.81,4.81,4.81,0,0,0-.39,2.07c0,.19,0,.39,0,.61A5,5,0,0,0,212.13,29.93Zm2.65-2.88-2.34,3.72a1.47,1.47,0,0,0,.44.48.93.93,0,0,0,.54.16,1.23,1.23,0,0,0,1.19-.93,6,6,0,0,0,.35-2.07A5.13,5.13,0,0,0,214.78,27.05Z"/><path class="cls-2" d="M218.66,31.2V26a8.63,8.63,0,0,1-.72.5,7,7,0,0,1-.95.42v-.74a5.81,5.81,0,0,0,1.67-1.06h.81V31.2h1.64v.68H217V31.2Z"/><path class="cls-2" d="M224.05,31.2V26a7.16,7.16,0,0,1-.71.5,6.71,6.71,0,0,1-1,.42v-.74a5.67,5.67,0,0,0,1.67-1.06h.82V31.2h1.64v.68h-4.13V31.2Z"/><path class="cls-2" d="M229.45,31.2V26a8.63,8.63,0,0,1-.72.5,7,7,0,0,1-.95.42v-.74a5.81,5.81,0,0,0,1.67-1.06h.81V31.2h1.64v.68h-4.12V31.2Z"/><path class="cls-2" d="M235.05,24.87a2,2,0,0,1,1.77,1,4.94,4.94,0,0,1,.61,2.64,4.9,4.9,0,0,1-.61,2.63,2.1,2.1,0,0,1-3.55,0,5,5,0,0,1-.61-2.63,5,5,0,0,1,.61-2.64A2,2,0,0,1,235.05,24.87Zm-1.33,5.06,2.35-3.69a1.41,1.41,0,0,0-.48-.55,1.16,1.16,0,0,0-1.66.67,5,5,0,0,0-.38,2.07c0,.19,0,.39,0,.61A5,5,0,0,0,233.72,29.93Zm2.64-2.88L234,30.77a1.45,1.45,0,0,0,.43.48,1,1,0,0,0,.55.16,1.22,1.22,0,0,0,1.18-.93,5.77,5.77,0,0,0,.35-2.07A5.13,5.13,0,0,0,236.36,27.05Z"/><path class="cls-2" d="M240.24,31.2V26a7.24,7.24,0,0,1-.72.5,6.51,6.51,0,0,1-1,.42v-.74a5.81,5.81,0,0,0,1.67-1.06h.82V31.2h1.63v.68h-4.12V31.2Z"/><path class="cls-2" d="M245.64,31.2V26a8.63,8.63,0,0,1-.72.5,7,7,0,0,1-.95.42v-.74a6,6,0,0,0,1.67-1.06h.81V31.2h1.64v.68H244V31.2Z"/><path class="cls-2" d="M251.23,24.87a2,2,0,0,1,1.78,1,5,5,0,0,1,.61,2.64,5,5,0,0,1-.61,2.63,2.1,2.1,0,0,1-3.55,0,4.9,4.9,0,0,1-.61-2.63,4.94,4.94,0,0,1,.61-2.64A2,2,0,0,1,251.23,24.87Zm-1.33,5.06,2.36-3.69a1.35,1.35,0,0,0-.49-.55,1.14,1.14,0,0,0-.54-.14,1.19,1.19,0,0,0-1.11.81,4.82,4.82,0,0,0-.38,2.07c0,.19,0,.39,0,.61A7.8,7.8,0,0,0,249.9,29.93Zm2.65-2.88-2.34,3.72a1.47,1.47,0,0,0,.44.48,1,1,0,0,0,.55.16,1.22,1.22,0,0,0,1.18-.93,6,6,0,0,0,.35-2.07A5.13,5.13,0,0,0,252.55,27.05Z"/><path class="cls-2" d="M256.43,31.2V26a8.63,8.63,0,0,1-.72.5,7,7,0,0,1-1,.42v-.74a5.81,5.81,0,0,0,1.67-1.06h.81V31.2h1.64v.68h-4.12V31.2Z"/><path class="cls-2" d="M262,24.87a2,2,0,0,1,1.78,1,5,5,0,0,1,.61,2.64,5,5,0,0,1-.61,2.63,2.1,2.1,0,0,1-3.55,0,4.9,4.9,0,0,1-.61-2.63,4.94,4.94,0,0,1,.61-2.64A2,2,0,0,1,262,24.87Zm-1.33,5.06,2.36-3.69a1.35,1.35,0,0,0-.49-.55,1.14,1.14,0,0,0-.54-.14,1.19,1.19,0,0,0-1.11.81,4.82,4.82,0,0,0-.38,2.07c0,.19,0,.39,0,.61A7.8,7.8,0,0,0,260.69,29.93Zm2.65-2.88L261,30.77a1.35,1.35,0,0,0,.43.48,1,1,0,0,0,.55.16,1.22,1.22,0,0,0,1.18-.93,6,6,0,0,0,.35-2.07A5.13,5.13,0,0,0,263.34,27.05Z"/><path class="cls-2" d="M267.22,31.2V26a8.63,8.63,0,0,1-.72.5,7,7,0,0,1-.95.42v-.74a5.81,5.81,0,0,0,1.67-1.06H268V31.2h1.63v.68h-4.12V31.2Z"/><path class="cls-2" d="M272.82,24.87a2,2,0,0,1,1.77,1,4.94,4.94,0,0,1,.61,2.64,4.9,4.9,0,0,1-.61,2.63,2.1,2.1,0,0,1-3.55,0,5,5,0,0,1-.61-2.63,5,5,0,0,1,.61-2.64A2,2,0,0,1,272.82,24.87Zm-1.33,5.06,2.35-3.69a1.41,1.41,0,0,0-.48-.55,1.16,1.16,0,0,0-1.66.67,5,5,0,0,0-.38,2.07c0,.19,0,.39,0,.61A5,5,0,0,0,271.49,29.93Zm2.64-2.88-2.33,3.72a1.45,1.45,0,0,0,.43.48,1,1,0,0,0,.55.16,1.22,1.22,0,0,0,1.18-.93,5.77,5.77,0,0,0,.35-2.07A5.13,5.13,0,0,0,274.13,27.05Z"/><path class="cls-2" d="M278,31.2V26a7.16,7.16,0,0,1-.71.5,7.26,7.26,0,0,1-1,.42v-.74A5.81,5.81,0,0,0,278,25.07h.82V31.2h1.64v.68h-4.13V31.2Z"/><path class="cls-2" d="M283.61,24.87a2,2,0,0,1,1.77,1,4.94,4.94,0,0,1,.61,2.64,4.9,4.9,0,0,1-.61,2.63,2.09,2.09,0,0,1-3.54,0,4.9,4.9,0,0,1-.62-2.63,4.93,4.93,0,0,1,.62-2.64A2,2,0,0,1,283.61,24.87Zm-1.33,5.06,2.35-3.69a1.41,1.41,0,0,0-.48-.55,1.16,1.16,0,0,0-1.66.67,5,5,0,0,0-.38,2.07c0,.19,0,.39,0,.61A5,5,0,0,0,282.28,29.93Zm2.65-2.88-2.34,3.72a1.45,1.45,0,0,0,.43.48,1,1,0,0,0,.55.16,1.21,1.21,0,0,0,1.18-.93,5.77,5.77,0,0,0,.36-2.07A5.13,5.13,0,0,0,284.93,27.05Z"/><path class="cls-2" d="M288.8,31.2V26a7.16,7.16,0,0,1-.71.5,6.71,6.71,0,0,1-1,.42v-.74a5.81,5.81,0,0,0,1.67-1.06h.82V31.2h1.64v.68h-4.13V31.2Z"/></g><g class="cls-10"><path class="cls-2" d="M197.27,35.66a2,2,0,0,1,1.78,1,4.9,4.9,0,0,1,.61,2.63,4.91,4.91,0,0,1-.61,2.64,2.1,2.1,0,0,1-3.55,0,4.91,4.91,0,0,1-.61-2.64,4.9,4.9,0,0,1,.61-2.63A2,2,0,0,1,197.27,35.66Zm-1.33,5.06L198.3,37a1.28,1.28,0,0,0-.49-.55,1,1,0,0,0-.54-.14,1.19,1.19,0,0,0-1.11.81,4.79,4.79,0,0,0-.38,2.07c0,.19,0,.39,0,.61A7.8,7.8,0,0,0,195.94,40.72Zm2.65-2.88-2.33,3.72a1.45,1.45,0,0,0,.43.48,1,1,0,0,0,.55.16,1.22,1.22,0,0,0,1.18-.94,5.69,5.69,0,0,0,.35-2.07A5.11,5.11,0,0,0,198.59,37.84Z"/><path class="cls-2" d="M202.47,42V36.74a6.59,6.59,0,0,1-.72.49,5.18,5.18,0,0,1-.95.42v-.73a6,6,0,0,0,1.67-1.06h.82V42h1.63v.68H200.8V42Z"/><path class="cls-2" d="M207.87,42V36.74a6.59,6.59,0,0,1-.72.49,5.18,5.18,0,0,1-1,.42v-.73a6.18,6.18,0,0,0,1.67-1.06h.81V42h1.64v.68H206.2V42Z"/><path class="cls-2" d="M213.46,35.66a2,2,0,0,1,1.78,1,5,5,0,0,1,.61,2.63,5,5,0,0,1-.61,2.64,2.1,2.1,0,0,1-3.55,0,4.91,4.91,0,0,1-.61-2.64,4.9,4.9,0,0,1,.61-2.63A2,2,0,0,1,213.46,35.66Zm-1.33,5.06L214.49,37a1.35,1.35,0,0,0-.49-.55,1,1,0,0,0-.54-.14,1.19,1.19,0,0,0-1.11.81,4.78,4.78,0,0,0-.39,2.07c0,.19,0,.39,0,.61A5,5,0,0,0,212.13,40.72Zm2.65-2.88-2.34,3.72a1.47,1.47,0,0,0,.44.48,1,1,0,0,0,.54.16,1.22,1.22,0,0,0,1.19-.94,5.91,5.91,0,0,0,.35-2.07A5.11,5.11,0,0,0,214.78,37.84Z"/><path class="cls-2" d="M218.86,35.66a2,2,0,0,1,1.77,1,4.9,4.9,0,0,1,.61,2.63,4.91,4.91,0,0,1-.61,2.64,2.09,2.09,0,0,1-3.54,0,4.91,4.91,0,0,1-.62-2.64,4.9,4.9,0,0,1,.62-2.63A2,2,0,0,1,218.86,35.66Zm-1.33,5.06L219.88,37a1.34,1.34,0,0,0-.48-.55,1.09,1.09,0,0,0-.54-.14,1.22,1.22,0,0,0-1.12.81,4.94,4.94,0,0,0-.38,2.07c0,.19,0,.39,0,.61A5,5,0,0,0,217.53,40.72Zm2.65-2.88-2.34,3.72a1.45,1.45,0,0,0,.43.48,1.07,1.07,0,0,0,.55.16,1.21,1.21,0,0,0,1.18-.94,5.69,5.69,0,0,0,.36-2.07A5.11,5.11,0,0,0,220.18,37.84Z"/><path class="cls-2" d="M224.25,35.66a2,2,0,0,1,1.78,1,5,5,0,0,1,.61,2.63A5,5,0,0,1,226,41.9a2.1,2.1,0,0,1-3.55,0,4.91,4.91,0,0,1-.61-2.64,4.9,4.9,0,0,1,.61-2.63A2,2,0,0,1,224.25,35.66Zm-1.33,5.06L225.28,37a1.28,1.28,0,0,0-.49-.55,1,1,0,0,0-.54-.14,1.19,1.19,0,0,0-1.11.81,4.79,4.79,0,0,0-.38,2.07c0,.19,0,.39,0,.61A7.8,7.8,0,0,0,222.92,40.72Zm2.65-2.88-2.33,3.72a1.35,1.35,0,0,0,.43.48,1,1,0,0,0,.55.16,1.22,1.22,0,0,0,1.18-.94,5.91,5.91,0,0,0,.35-2.07A5.11,5.11,0,0,0,225.57,37.84Z"/><path class="cls-2" d="M229.45,42V36.74a6.59,6.59,0,0,1-.72.49,5.18,5.18,0,0,1-.95.42v-.73a6,6,0,0,0,1.67-1.06h.81V42h1.64v.68h-4.12V42Z"/><path class="cls-2" d="M235.05,35.66a2,2,0,0,1,1.77,1,4.9,4.9,0,0,1,.61,2.63,4.91,4.91,0,0,1-.61,2.64,2.1,2.1,0,0,1-3.55,0,5,5,0,0,1-.61-2.64,5,5,0,0,1,.61-2.63A2,2,0,0,1,235.05,35.66Zm-1.33,5.06L236.07,37a1.34,1.34,0,0,0-.48-.55,1.1,1.1,0,0,0-.55-.14,1.2,1.2,0,0,0-1.11.81,4.94,4.94,0,0,0-.38,2.07c0,.19,0,.39,0,.61A5,5,0,0,0,233.72,40.72Zm2.64-2.88L234,41.56a1.45,1.45,0,0,0,.43.48,1.07,1.07,0,0,0,.55.16,1.22,1.22,0,0,0,1.18-.94,5.69,5.69,0,0,0,.35-2.07A5.11,5.11,0,0,0,236.36,37.84Z"/><path class="cls-2" d="M240.44,35.66a2,2,0,0,1,1.78,1,5,5,0,0,1,.61,2.63,5,5,0,0,1-.61,2.64,2.1,2.1,0,0,1-3.55,0,4.91,4.91,0,0,1-.61-2.64,4.9,4.9,0,0,1,.61-2.63A2,2,0,0,1,240.44,35.66Zm-1.33,5.06L241.46,37a1.27,1.27,0,0,0-.48-.55,1,1,0,0,0-.54-.14,1.19,1.19,0,0,0-1.11.81,4.78,4.78,0,0,0-.39,2.07c0,.19,0,.39,0,.61A5,5,0,0,0,239.11,40.72Zm2.65-2.88-2.34,3.72a1.47,1.47,0,0,0,.44.48,1,1,0,0,0,.54.16,1.23,1.23,0,0,0,1.19-.94,5.91,5.91,0,0,0,.35-2.07A5.11,5.11,0,0,0,241.76,37.84Z"/><path class="cls-2" d="M245.64,42V36.74a6.59,6.59,0,0,1-.72.49,5.18,5.18,0,0,1-.95.42v-.73a6.18,6.18,0,0,0,1.67-1.06h.81V42h1.64v.68H244V42Z"/><path class="cls-2" d="M251.23,35.66a2,2,0,0,1,1.78,1,5,5,0,0,1,.61,2.63A5,5,0,0,1,253,41.9a2.1,2.1,0,0,1-3.55,0,4.91,4.91,0,0,1-.61-2.64,4.9,4.9,0,0,1,.61-2.63A2,2,0,0,1,251.23,35.66Zm-1.33,5.06L252.26,37a1.28,1.28,0,0,0-.49-.55,1,1,0,0,0-.54-.14,1.19,1.19,0,0,0-1.11.81,4.79,4.79,0,0,0-.38,2.07c0,.19,0,.39,0,.61A7.8,7.8,0,0,0,249.9,40.72Zm2.65-2.88-2.34,3.72a1.47,1.47,0,0,0,.44.48,1,1,0,0,0,.55.16,1.22,1.22,0,0,0,1.18-.94,5.91,5.91,0,0,0,.35-2.07A5.11,5.11,0,0,0,252.55,37.84Z"/><path class="cls-2" d="M256.43,42V36.74a6.59,6.59,0,0,1-.72.49,5.18,5.18,0,0,1-1,.42v-.73a6,6,0,0,0,1.67-1.06h.81V42h1.64v.68h-4.12V42Z"/><path class="cls-2" d="M262,35.66a2,2,0,0,1,1.78,1,5,5,0,0,1,.61,2.63,5,5,0,0,1-.61,2.64,2.1,2.1,0,0,1-3.55,0,4.91,4.91,0,0,1-.61-2.64,4.9,4.9,0,0,1,.61-2.63A2,2,0,0,1,262,35.66Zm-1.33,5.06L263.05,37a1.28,1.28,0,0,0-.49-.55,1,1,0,0,0-.54-.14,1.19,1.19,0,0,0-1.11.81,4.79,4.79,0,0,0-.38,2.07c0,.19,0,.39,0,.61A7.8,7.8,0,0,0,260.69,40.72Zm2.65-2.88L261,41.56a1.35,1.35,0,0,0,.43.48,1,1,0,0,0,.55.16,1.22,1.22,0,0,0,1.18-.94,5.91,5.91,0,0,0,.35-2.07A5.11,5.11,0,0,0,263.34,37.84Z"/><path class="cls-2" d="M267.22,42V36.74a6.59,6.59,0,0,1-.72.49,5.18,5.18,0,0,1-.95.42v-.73a6,6,0,0,0,1.67-1.06H268V42h1.63v.68h-4.12V42Z"/><path class="cls-2" d="M272.82,35.66a2,2,0,0,1,1.77,1,4.9,4.9,0,0,1,.61,2.63,4.91,4.91,0,0,1-.61,2.64,2.1,2.1,0,0,1-3.55,0,5,5,0,0,1-.61-2.64,5,5,0,0,1,.61-2.63A2,2,0,0,1,272.82,35.66Zm-1.33,5.06L273.84,37a1.34,1.34,0,0,0-.48-.55,1.1,1.1,0,0,0-.55-.14,1.2,1.2,0,0,0-1.11.81,4.94,4.94,0,0,0-.38,2.07c0,.19,0,.39,0,.61A5,5,0,0,0,271.49,40.72Zm2.64-2.88-2.33,3.72a1.45,1.45,0,0,0,.43.48,1.07,1.07,0,0,0,.55.16,1.22,1.22,0,0,0,1.18-.94,5.69,5.69,0,0,0,.35-2.07A5.11,5.11,0,0,0,274.13,37.84Z"/><path class="cls-2" d="M278,42V36.74a5.68,5.68,0,0,1-.71.49,5.32,5.32,0,0,1-1,.42v-.73A6,6,0,0,0,278,35.86h.82V42h1.64v.68h-4.13V42Z"/><path class="cls-2" d="M283.41,42V36.74a6.59,6.59,0,0,1-.72.49,5.18,5.18,0,0,1-.95.42v-.73a6,6,0,0,0,1.67-1.06h.81V42h1.64v.68h-4.12V42Z"/><path class="cls-2" d="M289,35.66a2,2,0,0,1,1.78,1,5,5,0,0,1,.61,2.63,5,5,0,0,1-.61,2.64,2.1,2.1,0,0,1-3.55,0,4.91,4.91,0,0,1-.61-2.64,4.9,4.9,0,0,1,.61-2.63A2,2,0,0,1,289,35.66Zm-1.33,5.06L290,37a1.28,1.28,0,0,0-.49-.55,1,1,0,0,0-.54-.14,1.19,1.19,0,0,0-1.11.81,4.79,4.79,0,0,0-.38,2.07c0,.19,0,.39,0,.61A7.8,7.8,0,0,0,287.67,40.72Zm2.65-2.88L288,41.56a1.47,1.47,0,0,0,.44.48,1,1,0,0,0,.55.16,1.22,1.22,0,0,0,1.18-.94,5.91,5.91,0,0,0,.35-2.07A5.11,5.11,0,0,0,290.32,37.84Z"/></g></g><g class="cls-10"><path class="cls-2" d="M209.17,60.46v-.93a4.85,4.85,0,0,0,2.11.57,2,2,0,0,0,.77-.16,1.21,1.21,0,0,0,.55-.44,1.16,1.16,0,0,0,.19-.62,1.19,1.19,0,0,0-.26-.74,3.12,3.12,0,0,0-1-.76l-.49-.29-.5-.29a2.26,2.26,0,0,1-1.33-1.95,2,2,0,0,1,.59-1.44,2.55,2.55,0,0,1,1.85-.58,5.4,5.4,0,0,1,1.56.23v.84a4.53,4.53,0,0,0-1.62-.32,1.52,1.52,0,0,0-1,.34,1,1,0,0,0-.39.8,1.06,1.06,0,0,0,.3.77,3.67,3.67,0,0,0,.76.57l.38.23.47.28.39.24a2.21,2.21,0,0,1,1.25,1.91,2,2,0,0,1-.64,1.5,2.8,2.8,0,0,1-2,.63,5.87,5.87,0,0,1-.86-.07A8.63,8.63,0,0,1,209.17,60.46Z"/><path class="cls-2" d="M219.67,60.26a4.83,4.83,0,0,1-2,.51,2.47,2.47,0,0,1-1.32-.36,2.58,2.58,0,0,1-.93-1,3.14,3.14,0,0,1-.35-1.45,3.26,3.26,0,0,1,.33-1.43,2.57,2.57,0,0,1,.93-1.07,2.46,2.46,0,0,1,1.33-.38,1.94,1.94,0,0,1,1.55.69,3.24,3.24,0,0,1,.59,2.13V58H216a2.37,2.37,0,0,0,.23,1,1.66,1.66,0,0,0,.63.7,1.58,1.58,0,0,0,.87.24,4.09,4.09,0,0,0,1.94-.59Zm-3.62-2.89h2.72v-.13a1.58,1.58,0,0,0-.33-1.06,1.06,1.06,0,0,0-.87-.4,1.35,1.35,0,0,0-1,.4A2.41,2.41,0,0,0,216.05,57.37Z"/><path class="cls-2" d="M224.77,59.4a3,3,0,0,1-1,1,2.15,2.15,0,0,1-1.08.34,1.6,1.6,0,0,1-1.22-.59,2.52,2.52,0,0,1-.55-1.79,3.77,3.77,0,0,1,.36-1.68,3.16,3.16,0,0,1,1-1.18,2.49,2.49,0,0,1,1.5-.43c.17,0,.43,0,.78,0l.23,0h.91v7.56h-.91Zm0-1.08V56a3.71,3.71,0,0,0-.89-.12,1.77,1.77,0,0,0-1.4.64,2.61,2.61,0,0,0-.56,1.77,2.05,2.05,0,0,0,.3,1.22.88.88,0,0,0,.7.42,1.6,1.6,0,0,0,.94-.43A4.22,4.22,0,0,0,224.77,58.32Z"/><path class="cls-2" d="M231.6,55.18v5.44h-.91V59.43a3.25,3.25,0,0,1-1,1,2.05,2.05,0,0,1-1.07.33,1.61,1.61,0,0,1-.88-.25,1.35,1.35,0,0,1-.55-.68,5.48,5.48,0,0,1-.16-1.62v-3H228v3.15a4.45,4.45,0,0,0,.08,1,.87.87,0,0,0,.27.41.68.68,0,0,0,.44.16,1.68,1.68,0,0,0,1-.45,3.67,3.67,0,0,0,.9-1.14V55.18Z"/><path class="cls-2" d="M237.64,60.26a4.87,4.87,0,0,1-2.06.51,2.41,2.41,0,0,1-1.31-.36,2.58,2.58,0,0,1-.93-1,3.14,3.14,0,0,1-.35-1.45,3.26,3.26,0,0,1,.33-1.43,2.5,2.5,0,0,1,.93-1.07,2.4,2.4,0,0,1,1.32-.38,1.94,1.94,0,0,1,1.56.69,3.24,3.24,0,0,1,.59,2.13V58H234a2.24,2.24,0,0,0,.24,1,1.62,1.62,0,0,0,1.5.94,4.12,4.12,0,0,0,1.94-.59ZM234,57.37h2.71v-.13a1.63,1.63,0,0,0-.32-1.06,1.07,1.07,0,0,0-.88-.4,1.34,1.34,0,0,0-.95.4A2.25,2.25,0,0,0,234,57.37Z"/><path class="cls-2" d="M239.1,60.62V55.18H240v1.19a3.09,3.09,0,0,1,.94-1,2,2,0,0,1,1.1-.35,1.55,1.55,0,0,1,.87.25,1.39,1.39,0,0,1,.56.67,5.61,5.61,0,0,1,.16,1.63v3h-.91V57.47a4.64,4.64,0,0,0-.07-1,1,1,0,0,0-.28-.41.7.7,0,0,0-.44-.16,1.68,1.68,0,0,0-1,.45,3.5,3.5,0,0,0-.9,1.14v3.17Z"/><path class="cls-2" d="M249.67,60.47a5.59,5.59,0,0,1-1.74.3,2.79,2.79,0,0,1-1.45-.37,2.72,2.72,0,0,1-1-1,3,3,0,0,1-.36-1.47,2.79,2.79,0,0,1,.81-2,2.63,2.63,0,0,1,1.95-.82,5.61,5.61,0,0,1,1.78.31v.88a4.16,4.16,0,0,0-1.7-.44A1.87,1.87,0,0,0,247,56a1.55,1.55,0,0,0-.67.77,2.49,2.49,0,0,0-.24,1.07,2.39,2.39,0,0,0,.46,1.4,1.61,1.61,0,0,0,1.44.67,3.81,3.81,0,0,0,.59,0,7.46,7.46,0,0,0,1.06-.31Z"/><path class="cls-2" d="M255.6,60.26a4.83,4.83,0,0,1-2,.51,2.47,2.47,0,0,1-1.32-.36,2.73,2.73,0,0,1-.93-1,3.13,3.13,0,0,1-.34-1.45,3.26,3.26,0,0,1,.33-1.43,2.55,2.55,0,0,1,.92-1.07,2.46,2.46,0,0,1,1.33-.38,2,2,0,0,1,1.56.69,3.24,3.24,0,0,1,.58,2.13V58h-3.75a2.24,2.24,0,0,0,.24,1,1.58,1.58,0,0,0,.62.7,1.61,1.61,0,0,0,.88.24,4.05,4.05,0,0,0,1.93-.59ZM252,57.37h2.72v-.13a1.58,1.58,0,0,0-.33-1.06,1.06,1.06,0,0,0-.87-.4,1.31,1.31,0,0,0-.95.4A2.33,2.33,0,0,0,252,57.37Z"/><path class="cls-2" d="M262.65,58.58V57.9h1l.53-2h-1.48v-.68h1.66l.57-2.16h.71L265,55.22h1.39l.58-2.16h.72l-.59,2.16h.82v.68h-1l-.55,2h1.55v.68h-1.73l-.56,2h-.72l.56-2h-1.35l-.54,2h-.72l.54-2Zm1.67-.68h1.36l.54-2h-1.37Z"/><path class="cls-2" d="M271.06,59.87V54a8.43,8.43,0,0,1-.8.56,6.62,6.62,0,0,1-1.06.46v-.82a6.39,6.39,0,0,0,1.86-1.17h.9v6.81h1.82v.75H269.2v-.75Z"/></g><path class="cls-11" d="M233.63,101.32a4.82,4.82,0,0,0-3.26,2.36,5.62,5.62,0,0,0-.46,1.2,1.22,1.22,0,0,1,0,.27,7.53,7.53,0,0,0-.19,1.71,9.22,9.22,0,0,0,0,1.82h0a.43.43,0,0,0,0,.16.76.76,0,0,1,0,.3,7.25,7.25,0,0,0,.27.87,14.31,14.31,0,0,0,.9,1.95l.73,1.49a3.06,3.06,0,0,0,.22.49l.13.35h0a4.7,4.7,0,0,1,.25.57,4,4,0,0,1,.24,2.36v.19h-9.63a5.2,5.2,0,0,0-1.46.3,6.28,6.28,0,0,0-2.34,2.71l-.19.49a.81.81,0,0,0,0,.22,1.85,1.85,0,0,0,0,.81,4.26,4.26,0,0,0,.63,1c.67.92.76,1.08.7,1.41a1.71,1.71,0,0,1,0,.32,6.23,6.23,0,0,1-.49.92c-.3.49-.57,1-.62,1.09h0a.61.61,0,0,0,0,.19v.19h0a6.64,6.64,0,0,0,.79,1.11c.51.6.92,1.14.89,1.55a2.21,2.21,0,0,1-.13.62v.9l-.17.38a2.35,2.35,0,0,0-.21,1,.88.88,0,0,0,.13.57,4.6,4.6,0,0,0,1.14,1.38,2.19,2.19,0,0,1,1.06,2.36c0,1.22,0,1.25.46,1.87a10.24,10.24,0,0,0,1.11,1.17,8,8,0,0,0,1.44,1l.65.22h1a26.88,26.88,0,0,0,3.91.19,58.26,58.26,0,0,0,7.78-.35h.68a5.13,5.13,0,0,0,1.11-.17h1.71l.95-.19h1.55l.7-.13h.57l1.14-.22.87-.16h.38V123.3h-.54a2,2,0,0,1-1.06-.19,6.19,6.19,0,0,1-2-1.93c-.16-.19-.76-1.14-.87-1.33v-.21l-.16-.33s-.16-.27-.22-.41-.78-1.52-.89-1.76l-.17-.38a4.71,4.71,0,0,1-.21-.52l-.17-.35h0a.31.31,0,0,0,0-.19v-.27a1.36,1.36,0,0,1-.13-.3.43.43,0,0,0,0-.16h0l-.19-.49-.16-.35a5.77,5.77,0,0,0-.44-.76,11.17,11.17,0,0,0-1.63-1.52l-.21-.19a6.28,6.28,0,0,1-2.23-3,1,1,0,0,1,0-.24,10.14,10.14,0,0,1-.38-1.3,25.68,25.68,0,0,1-.54-3.48v-.76c0-.23,0-.47,0-.7a3.23,3.23,0,0,0,0-.44.68.68,0,0,0-.41-.29h-.19A6.71,6.71,0,0,0,233.63,101.32Z"/><path class="cls-11" d="M251.23,122.65a1.45,1.45,0,0,0-.95.49,1.3,1.3,0,0,0-.43.67v16.52a1.71,1.71,0,0,0,1.11,1.14,17.92,17.92,0,0,0,2.93,0c3,0,2.71,0,3.26-.19a2.15,2.15,0,0,0,.81-1V123.79a1.81,1.81,0,0,0-.81-1,1.37,1.37,0,0,0-.52-.16C256.36,122.62,251.59,122.59,251.23,122.65Z"/><path d="M10.56,5.38h0L8.26,6.6,7.92,5.26l2.84-1.52h1.5v13h-1.7Z"/><path d="M25.64,10.1C25.64,14.52,24,17,21.12,17c-2.54,0-4.26-2.38-4.3-6.68s1.88-6.76,4.52-6.76S25.64,6,25.64,10.1Zm-7.06.2c0,3.38,1,5.3,2.64,5.3,1.8,0,2.66-2.1,2.66-5.42s-.82-5.3-2.64-5.3C19.7,4.88,18.58,6.76,18.58,10.3Z"/><path d="M34.68,5a6.36,6.36,0,0,0-1.32.08,5.28,5.28,0,0,0-4.52,4.62h.06A4,4,0,0,1,36,12.38,4.35,4.35,0,0,1,31.64,17C28.86,17,27,14.8,27,11.42a8.17,8.17,0,0,1,2.2-5.86A7.08,7.08,0,0,1,33.4,3.64a8.45,8.45,0,0,1,1.28-.1Zm-.5,7.5c0-1.86-1.06-3-2.68-3A2.9,2.9,0,0,0,29,11.1a1.5,1.5,0,0,0-.2.78c0,2.14,1,3.72,2.86,3.72C33.16,15.6,34.18,14.34,34.18,12.48Z"/><path d="M37.66,15.7a1.18,1.18,0,0,1,1.2-1.26A1.17,1.17,0,0,1,40,15.7a1.19,1.19,0,1,1-2.38,0Z"/><path d="M41.66,16.74V15.66L43,14.32c3.32-3.16,4.82-4.84,4.84-6.8A2.32,2.32,0,0,0,45.3,5a4.43,4.43,0,0,0-2.76,1.1L42,4.84a5.7,5.7,0,0,1,3.68-1.32,3.66,3.66,0,0,1,4,3.78c0,2.4-1.74,4.34-4.48,7l-1,1v0H50v1.46Z"/><path d="M57.36,16.74V13.2h-6V12l5.8-8.3H59v8.08h1.82V13.2H59v3.54Zm0-4.92V7.48q0-1,.06-2h-.06c-.4.76-.72,1.32-1.08,1.92L53.1,11.78v0Z"/><path d="M66,5.38h0L63.7,6.6l-.34-1.34L66.2,3.74h1.5v13H66Z"/><path d="M72.58,15.7a1.18,1.18,0,0,1,1.2-1.26A1.17,1.17,0,0,1,75,15.7a1.19,1.19,0,1,1-2.38,0Z"/><path d="M76.58,16.74V15.66L78,14.32c3.32-3.16,4.82-4.84,4.84-6.8A2.32,2.32,0,0,0,80.22,5a4.43,4.43,0,0,0-2.76,1.1L76.9,4.84a5.7,5.7,0,0,1,3.68-1.32,3.66,3.66,0,0,1,4,3.78c0,2.4-1.74,4.34-4.48,7l-1,1v0h5.84v1.46Z"/><path d="M95.28,3.74V4.9L89.62,16.74H87.8l5.64-11.5v0H87.08V3.74Z"/><path d="M97.24,15.7a1.18,1.18,0,0,1,1.2-1.26,1.17,1.17,0,0,1,1.18,1.26,1.19,1.19,0,1,1-2.38,0Z"/><path d="M101.24,16.74V15.66l1.38-1.34c3.32-3.16,4.82-4.84,4.84-6.8A2.32,2.32,0,0,0,104.88,5a4.43,4.43,0,0,0-2.76,1.1l-.56-1.24a5.7,5.7,0,0,1,3.68-1.32,3.66,3.66,0,0,1,4,3.78c0,2.4-1.74,4.34-4.48,7l-1,1v0h5.84v1.46Z"/><path d="M116.94,16.74V13.2h-6V12l5.8-8.3h1.9v8.08h1.82V13.2H118.6v3.54Zm0-4.92V7.48q0-1,.06-2h-.06c-.4.76-.72,1.32-1.08,1.92l-3.18,4.42v0Z"/><path d="M127.2,16.74V13.2h-6V12l5.8-8.3h1.9v8.08h1.82V13.2h-1.82v3.54Zm0-4.92V7.48q0-1,.06-2h-.06c-.4.76-.72,1.32-1.08,1.92l-3.18,4.42v0Z"/><path d="M371.1,5.38h0L368.8,6.6l-.34-1.34,2.84-1.52h1.5v13h-1.7Z"/><path d="M378,14.72a5.88,5.88,0,0,0,2.88.82c2.26,0,3-1.44,2.94-2.52,0-1.82-1.66-2.6-3.36-2.6h-1V9.1h1c1.28,0,2.9-.66,2.9-2.2,0-1-.66-2-2.28-2a4.77,4.77,0,0,0-2.6.86L378,4.52a6.18,6.18,0,0,1,3.4-1c2.56,0,3.72,1.52,3.72,3.1a3.23,3.23,0,0,1-2.4,3.06v0a3.39,3.39,0,0,1,2.9,3.34c0,2.08-1.62,3.9-4.74,3.9a6.61,6.61,0,0,1-3.38-.88Z"/><path d="M388.22,14.72a5.88,5.88,0,0,0,2.88.82c2.26,0,3-1.44,2.94-2.52,0-1.82-1.66-2.6-3.36-2.6h-1V9.1h1c1.28,0,2.9-.66,2.9-2.2,0-1-.66-2-2.28-2a4.77,4.77,0,0,0-2.6.86l-.46-1.28a6.18,6.18,0,0,1,3.4-1c2.56,0,3.72,1.52,3.72,3.1A3.23,3.23,0,0,1,393,9.68v0a3.39,3.39,0,0,1,2.9,3.34c0,2.08-1.62,3.9-4.74,3.9a6.61,6.61,0,0,1-3.38-.88Z"/><path d="M398.2,15.7a1.18,1.18,0,0,1,1.2-1.26,1.17,1.17,0,0,1,1.18,1.26,1.19,1.19,0,1,1-2.38,0Z"/><path d="M402,13.44A3.71,3.71,0,0,1,404.62,10l0-.06A3.22,3.22,0,0,1,402.54,7c0-2.06,1.74-3.46,4-3.46,2.52,0,3.78,1.58,3.78,3.2a3.3,3.3,0,0,1-2.14,3v.06a3.6,3.6,0,0,1,2.62,3.36c0,2.26-1.94,3.78-4.42,3.78C403.68,17,402,15.34,402,13.44Zm7-.08c0-1.58-1.1-2.34-2.86-2.84a2.82,2.82,0,0,0-2.34,2.68,2.4,2.4,0,0,0,2.6,2.48A2.35,2.35,0,0,0,409,13.36Zm-4.84-6.5c0,1.3,1,2,2.48,2.4a2.56,2.56,0,0,0,2-2.36,2,2,0,0,0-2.2-2.12A2.07,2.07,0,0,0,404.2,6.86Z"/><path d="M412.88,14.72a5.88,5.88,0,0,0,2.88.82c2.26,0,3-1.44,2.94-2.52,0-1.82-1.66-2.6-3.36-2.6h-1V9.1h1c1.28,0,2.9-.66,2.9-2.2,0-1-.66-2-2.28-2a4.77,4.77,0,0,0-2.6.86l-.46-1.28a6.18,6.18,0,0,1,3.4-1c2.56,0,3.72,1.52,3.72,3.1a3.23,3.23,0,0,1-2.4,3.06v0a3.39,3.39,0,0,1,2.9,3.34c0,2.08-1.62,3.9-4.74,3.9a6.61,6.61,0,0,1-3.38-.88Z"/><path d="M422.86,15.7a1.18,1.18,0,0,1,1.2-1.26,1.17,1.17,0,0,1,1.18,1.26,1.19,1.19,0,1,1-2.38,0Z"/><path d="M430.68,5.38h0L428.38,6.6,428,5.26l2.84-1.52h1.5v13h-1.7Z"/><path d="M437,13.44A3.71,3.71,0,0,1,439.54,10l0-.06A3.22,3.22,0,0,1,437.46,7c0-2.06,1.74-3.46,4-3.46,2.52,0,3.78,1.58,3.78,3.2a3.3,3.3,0,0,1-2.14,3v.06a3.6,3.6,0,0,1,2.62,3.36c0,2.26-1.94,3.78-4.42,3.78C438.6,17,437,15.34,437,13.44Zm7-.08c0-1.58-1.1-2.34-2.86-2.84a2.82,2.82,0,0,0-2.34,2.68,2.4,2.4,0,0,0,2.6,2.48A2.35,2.35,0,0,0,444,13.36Zm-4.84-6.5c0,1.3,1,2,2.48,2.4a2.56,2.56,0,0,0,2-2.36,2,2,0,0,0-2.2-2.12A2.07,2.07,0,0,0,439.12,6.86Z"/><path d="M448.4,15.5a7.34,7.34,0,0,0,1.42-.06,4.9,4.9,0,0,0,2.72-1.26,5.71,5.71,0,0,0,1.72-3.46h-.06a3.82,3.82,0,0,1-3.06,1.4,3.77,3.77,0,0,1-3.84-4,4.46,4.46,0,0,1,4.44-4.62c2.66,0,4.3,2.16,4.3,5.48a8.21,8.21,0,0,1-2.24,6.1A6.5,6.5,0,0,1,450,16.84a8.2,8.2,0,0,1-1.62.1ZM449,8a2.5,2.5,0,0,0,2.5,2.76,2.91,2.91,0,0,0,2.56-1.36,1.16,1.16,0,0,0,.16-.64c0-2.22-.82-3.92-2.66-3.92C450.1,4.86,449,6.18,449,8Z"/><path d="M457.78,15.7a1.18,1.18,0,0,1,1.2-1.26,1.17,1.17,0,0,1,1.18,1.26,1.19,1.19,0,1,1-2.38,0Z"/><path d="M469.2,5a6.36,6.36,0,0,0-1.32.08,5.28,5.28,0,0,0-4.52,4.62h.06a4,4,0,0,1,7.06,2.7A4.35,4.35,0,0,1,466.16,17c-2.78,0-4.6-2.16-4.6-5.54a8.17,8.17,0,0,1,2.2-5.86,7.08,7.08,0,0,1,4.16-1.92,8.45,8.45,0,0,1,1.28-.1Zm-.5,7.5c0-1.86-1.06-3-2.68-3a2.9,2.9,0,0,0-2.52,1.6,1.5,1.5,0,0,0-.2.78c0,2.14,1,3.72,2.86,3.72C467.68,15.6,468.7,14.34,468.7,12.48Z"/><path d="M480.68,10.1c0,4.42-1.64,6.86-4.52,6.86-2.54,0-4.26-2.38-4.3-6.68s1.88-6.76,4.52-6.76S480.68,6,480.68,10.1Zm-7.06.2c0,3.38,1,5.3,2.64,5.3,1.8,0,2.66-2.1,2.66-5.42s-.82-5.3-2.64-5.3C474.74,4.88,473.62,6.76,473.62,10.3Z"/><rect class="cls-1" x="350.45" y="24.36" width="145.69" height="134.85" rx="3"/><rect class="cls-2" x="356.71" y="30.15" width="133.17" height="75.85"/><path class="cls-6" d="M350.45,106H496.13a0,0,0,0,1,0,0v58.39a4.3,4.3,0,0,1-4.3,4.3H354.74a4.3,4.3,0,0,1-4.3-4.3V106A0,0,0,0,1,350.45,106Z"/><rect class="cls-7" x="356.71" y="112.85" width="9.67" height="8.96" rx="1.19"/><rect class="cls-7" x="369.06" y="112.85" width="9.67" height="8.96" rx="1.19"/><rect class="cls-7" x="381.4" y="112.85" width="9.67" height="8.96" rx="1.19"/><rect class="cls-7" x="393.75" y="112.85" width="9.67" height="8.96" rx="1.19"/><rect class="cls-7" x="406.1" y="112.85" width="9.67" height="8.96" rx="1.19"/><rect class="cls-7" x="418.45" y="112.85" width="9.67" height="8.96" rx="1.19"/><rect class="cls-7" x="430.8" y="112.85" width="9.67" height="8.96" rx="1.19"/><rect class="cls-7" x="443.15" y="112.85" width="9.67" height="8.96" rx="1.19"/><rect class="cls-7" x="455.5" y="112.85" width="9.67" height="8.96" rx="1.19"/><rect class="cls-7" x="467.85" y="112.85" width="9.67" height="8.96" rx="1.19"/><rect class="cls-7" x="480.2" y="112.85" width="9.67" height="8.96" rx="1.19"/><rect class="cls-7" x="369.06" y="124.97" width="9.67" height="8.96" rx="1.19"/><rect class="cls-7" x="381.4" y="124.97" width="9.67" height="8.96" rx="1.19"/><rect class="cls-7" x="393.75" y="124.97" width="9.67" height="8.96" rx="1.19"/><rect class="cls-7" x="406.1" y="124.97" width="9.67" height="8.96" rx="1.19"/><rect class="cls-7" x="418.45" y="124.97" width="9.67" height="8.96" rx="1.19"/><rect class="cls-7" x="430.8" y="124.97" width="9.67" height="8.96" rx="1.19"/><rect class="cls-7" x="443.15" y="124.97" width="9.67" height="8.96" rx="1.19"/><rect class="cls-7" x="455.5" y="124.97" width="9.67" height="8.96" rx="1.19"/><rect class="cls-7" x="467.85" y="124.97" width="9.67" height="8.96" rx="1.19"/><rect class="cls-7" x="356.71" y="137.08" width="9.67" height="8.96" rx="1.19"/><rect class="cls-7" x="369.06" y="137.08" width="9.67" height="8.96" rx="1.19"/><rect class="cls-7" x="381.4" y="137.08" width="9.67" height="8.96" rx="1.19"/><rect class="cls-7" x="393.75" y="137.08" width="9.67" height="8.96" rx="1.19"/><rect class="cls-7" x="406.1" y="137.08" width="9.67" height="8.96" rx="1.19"/><rect class="cls-7" x="418.45" y="137.08" width="9.67" height="8.96" rx="1.19"/><rect class="cls-7" x="430.8" y="137.08" width="9.67" height="8.96" rx="1.19"/><rect class="cls-7" x="443.15" y="137.08" width="9.67" height="8.96" rx="1.19"/><rect class="cls-7" x="455.5" y="137.08" width="9.67" height="8.96" rx="1.19"/><rect class="cls-7" x="467.85" y="137.08" width="9.67" height="8.96" rx="1.19"/><rect class="cls-7" x="480.2" y="137.08" width="9.67" height="8.96" rx="1.19"/><rect class="cls-7" x="395.97" y="137.08" width="54.63" height="8.96" rx="1.19"/><rect class="cls-8" x="403.94" y="149.73" width="36.42" height="14.22" rx="2.46"/><line class="cls-12" x1="428.82" y1="42.92" x2="474.47" y2="42.92"/><line class="cls-12" x1="428.82" y1="52.28" x2="464.46" y2="52.28"/><line class="cls-12" x1="428.82" y1="70.99" x2="464.46" y2="70.99"/><line class="cls-12" x1="428.82" y1="89.7" x2="464.46" y2="89.7"/><line class="cls-12" x1="428.82" y1="61.63" x2="474.47" y2="61.63"/><line class="cls-12" x1="428.82" y1="80.34" x2="474.47" y2="80.34"/><rect class="cls-13" x="369.83" y="39.15" width="48.08" height="57.23"/><line class="cls-14" x1="145.32" y1="81.5" x2="329.59" y2="81.5"/><polygon class="cls-11" points="325.68 86.65 327.87 81.5 325.68 76.35 337.89 81.5 325.68 86.65"/><line class="cls-14" x1="337.89" y1="149.56" x2="153.62" y2="149.56"/><polygon class="cls-11" points="157.53 144.41 155.34 149.56 157.53 154.71 145.32 149.56 157.53 144.41"/></svg>