<svg id="Layer_1" data-name="Layer 1" xmlns="http://www.w3.org/2000/svg" width="445.91" height="220.8" viewBox="0 0 445.91 220.8"><defs><style>.cls-1{fill:none;stroke:#14bf96;stroke-width:2.97px;}.cls-1,.cls-3{stroke-miterlimit:10;}.cls-2,.cls-3{fill:#14bf96;}.cls-3{stroke:#00e5ae;stroke-width:1.46px;}.cls-4{isolation:isolate;}.cls-5{fill:#fff;}.cls-6{fill:#37c5fd;}.cls-7{fill:#0a2a66;}.cls-8{fill:#ccfbf0;}.cls-9{fill:#e0e0e0;}</style></defs><title>protocol_fixed</title><line class="cls-1" x1="115.16" y1="175.92" x2="323.93" y2="175.92"/><polygon class="cls-2" points="319.5 181.75 321.98 175.92 319.5 170.08 333.34 175.92 319.5 181.75"/><path class="cls-3" d="M119.88,127.7H328.61c6.15,0,7.88,1.66,7.88,3.71v24.9c0,2.05-1.73,3.72-7.88,3.72H119.88c-6.14,0-7.88-1.67-7.88-3.72v-24.9C112,129.36,113.74,127.7,119.88,127.7Z"/><g class="cls-4"><g class="cls-4"><path class="cls-5" d="M122.26,138.63a3,3,0,0,1,2.68,1.48,9,9,0,0,1,0,8,3.18,3.18,0,0,1-5.36,0,9.09,9.09,0,0,1,0-8A3,3,0,0,1,122.26,138.63Zm-2,7.66,3.56-5.58a2,2,0,0,0-.73-.83,1.66,1.66,0,0,0-.82-.22,1.83,1.83,0,0,0-1.69,1.23A7.48,7.48,0,0,0,120,144c0,.28,0,.59,0,.93A8.72,8.72,0,0,0,120.25,146.29Zm4-4.35-3.53,5.62a2.11,2.11,0,0,0,.66.72,1.48,1.48,0,0,0,.83.25,1.87,1.87,0,0,0,1.79-1.42,8.9,8.9,0,0,0,.53-3.13A7.67,7.67,0,0,0,124.25,141.94Z"/><path class="cls-5" d="M130.42,138.63a3,3,0,0,1,2.68,1.48,9.09,9.09,0,0,1,0,8,3.18,3.18,0,0,1-5.36,0,9.09,9.09,0,0,1,0-8A3,3,0,0,1,130.42,138.63Zm-2,7.66,3.56-5.58a2,2,0,0,0-.74-.83,1.59,1.59,0,0,0-.81-.22,1.83,1.83,0,0,0-1.69,1.23,7.48,7.48,0,0,0-.57,3.13c0,.28,0,.59,0,.93A8.72,8.72,0,0,0,128.41,146.29Zm4-4.35-3.53,5.62a2.11,2.11,0,0,0,.66.72,1.47,1.47,0,0,0,.82.25,1.85,1.85,0,0,0,1.79-1.42,8.68,8.68,0,0,0,.53-3.13A7.66,7.66,0,0,0,132.41,141.94Z"/><path class="cls-5" d="M138.58,138.63a3,3,0,0,1,2.68,1.48,9.09,9.09,0,0,1,0,8,3.18,3.18,0,0,1-5.36,0,9,9,0,0,1,0-8A3,3,0,0,1,138.58,138.63Zm-2,7.66,3.55-5.58a1.9,1.9,0,0,0-.73-.83,1.59,1.59,0,0,0-.81-.22,1.83,1.83,0,0,0-1.69,1.23,7.48,7.48,0,0,0-.57,3.13c0,.28,0,.59,0,.93A7.64,7.64,0,0,0,136.57,146.29Zm4-4.35L137,147.56a2.19,2.19,0,0,0,.65.72,1.53,1.53,0,0,0,.83.25,1.85,1.85,0,0,0,1.79-1.42,8.68,8.68,0,0,0,.53-3.13A7.66,7.66,0,0,0,140.57,141.94Z"/><path class="cls-5" d="M146.74,138.63a3,3,0,0,1,2.68,1.48,9.09,9.09,0,0,1,0,8,3.18,3.18,0,0,1-5.36,0,9,9,0,0,1,0-8A3,3,0,0,1,146.74,138.63Zm-2,7.66,3.56-5.58a2,2,0,0,0-.73-.83,1.6,1.6,0,0,0-.82-.22,1.82,1.82,0,0,0-1.68,1.23,7.47,7.47,0,0,0-.58,3.13q0,.42,0,.93A8.48,8.48,0,0,0,144.72,146.29Zm4-4.35-3.53,5.62a2.09,2.09,0,0,0,.65.72,1.53,1.53,0,0,0,.83.25,1.85,1.85,0,0,0,1.79-1.42A8.9,8.9,0,0,0,149,144,7.66,7.66,0,0,0,148.73,141.94Z"/><path class="cls-5" d="M154.9,138.63a3,3,0,0,1,2.68,1.48,9.09,9.09,0,0,1,0,8,3.18,3.18,0,0,1-5.36,0,9,9,0,0,1,0-8A3,3,0,0,1,154.9,138.63Zm-2,7.66,3.56-5.58a2,2,0,0,0-.73-.83,1.63,1.63,0,0,0-.82-.22,1.81,1.81,0,0,0-1.68,1.23,7.47,7.47,0,0,0-.58,3.13q0,.42,0,.93A8.48,8.48,0,0,0,152.88,146.29Zm4-4.35-3.53,5.62a2,2,0,0,0,.65.72,1.53,1.53,0,0,0,.83.25,1.85,1.85,0,0,0,1.79-1.42,8.9,8.9,0,0,0,.53-3.13A7.66,7.66,0,0,0,156.89,141.94Z"/><path class="cls-5" d="M163.05,138.63a3,3,0,0,1,2.69,1.48,9.09,9.09,0,0,1,0,8,3.18,3.18,0,0,1-5.36,0,9,9,0,0,1,0-8A3,3,0,0,1,163.05,138.63Zm-2,7.66,3.56-5.58a2,2,0,0,0-.73-.83,1.63,1.63,0,0,0-.82-.22,1.81,1.81,0,0,0-1.68,1.23,7.32,7.32,0,0,0-.58,3.13q0,.42,0,.93A7.45,7.45,0,0,0,161,146.29Zm4-4.35-3.54,5.62a2.11,2.11,0,0,0,.66.72,1.5,1.5,0,0,0,.83.25,1.86,1.86,0,0,0,1.79-1.42,8.9,8.9,0,0,0,.53-3.13A7.66,7.66,0,0,0,165.05,141.94Z"/><path class="cls-5" d="M171.21,138.63a3,3,0,0,1,2.69,1.48,9.09,9.09,0,0,1,0,8,3,3,0,0,1-2.69,1.47,3,3,0,0,1-2.67-1.47,9,9,0,0,1,0-8A3,3,0,0,1,171.21,138.63Zm-2,7.66,3.56-5.58a2,2,0,0,0-.73-.83,1.66,1.66,0,0,0-.82-.22,1.81,1.81,0,0,0-1.68,1.23A7.32,7.32,0,0,0,169,144q0,.42,0,.93A7.45,7.45,0,0,0,169.2,146.29Zm4-4.35-3.54,5.62a2.11,2.11,0,0,0,.66.72,1.5,1.5,0,0,0,.83.25,1.86,1.86,0,0,0,1.79-1.42,8.9,8.9,0,0,0,.53-3.13A7.66,7.66,0,0,0,173.21,141.94Z"/><path class="cls-5" d="M179.07,148.21v-7.94A11.92,11.92,0,0,1,178,141a7.82,7.82,0,0,1-1.44.63v-1.11a8.94,8.94,0,0,0,2.53-1.6h1.23v9.27h2.48v1h-6.24v-1Z"/><path class="cls-5" d="M195.69,138.63a3,3,0,0,1,2.68,1.48,9.09,9.09,0,0,1,0,8,3.18,3.18,0,0,1-5.36,0,9,9,0,0,1,0-8A3,3,0,0,1,195.69,138.63Zm-2,7.66,3.56-5.58a2,2,0,0,0-.74-.83,1.59,1.59,0,0,0-.81-.22,1.83,1.83,0,0,0-1.69,1.23,7.48,7.48,0,0,0-.57,3.13c0,.28,0,.59,0,.93A7.64,7.64,0,0,0,193.68,146.29Zm4-4.35-3.53,5.62a2.19,2.19,0,0,0,.65.72,1.53,1.53,0,0,0,.83.25,1.85,1.85,0,0,0,1.79-1.42A8.68,8.68,0,0,0,198,144,7.66,7.66,0,0,0,197.68,141.94Z"/><path class="cls-5" d="M203.54,148.21v-7.94a10.61,10.61,0,0,1-1.08.75,7.82,7.82,0,0,1-1.44.63v-1.11a8.74,8.74,0,0,0,2.52-1.6h1.24v9.27h2.47v1H201v-1Z"/><path class="cls-5" d="M212,138.63a3,3,0,0,1,2.68,1.48,9.09,9.09,0,0,1,0,8,3.18,3.18,0,0,1-5.36,0,9,9,0,0,1,0-8A3,3,0,0,1,212,138.63Zm-2,7.66,3.56-5.58a2,2,0,0,0-.73-.83,1.6,1.6,0,0,0-.82-.22,1.81,1.81,0,0,0-1.68,1.23,7.47,7.47,0,0,0-.58,3.13q0,.42,0,.93A8.48,8.48,0,0,0,210,146.29Zm4-4.35-3.53,5.62a2.09,2.09,0,0,0,.65.72,1.53,1.53,0,0,0,.83.25,1.85,1.85,0,0,0,1.79-1.42,8.9,8.9,0,0,0,.53-3.13A7.66,7.66,0,0,0,214,141.94Z"/><path class="cls-5" d="M220.17,138.63a3,3,0,0,1,2.68,1.48,9.09,9.09,0,0,1,0,8,3.18,3.18,0,0,1-5.36,0,9,9,0,0,1,0-8A3,3,0,0,1,220.17,138.63Zm-2,7.66,3.56-5.58a2,2,0,0,0-.73-.83,1.63,1.63,0,0,0-.82-.22,1.81,1.81,0,0,0-1.68,1.23,7.32,7.32,0,0,0-.58,3.13q0,.42,0,.93A8.48,8.48,0,0,0,218.15,146.29Zm4-4.35-3.54,5.62a2.11,2.11,0,0,0,.66.72,1.5,1.5,0,0,0,.83.25,1.85,1.85,0,0,0,1.79-1.42,8.9,8.9,0,0,0,.53-3.13A7.66,7.66,0,0,0,222.16,141.94Z"/><path class="cls-5" d="M228,148.21v-7.94a10.61,10.61,0,0,1-1.08.75,7.82,7.82,0,0,1-1.44.63v-1.11a8.88,8.88,0,0,0,2.52-1.6h1.23v9.27h2.48v1H225.5v-1Z"/><path class="cls-5" d="M236.48,138.63a3,3,0,0,1,2.68,1.48,9,9,0,0,1,0,8,3.18,3.18,0,0,1-5.36,0,9.09,9.09,0,0,1,0-8A3,3,0,0,1,236.48,138.63Zm-2,7.66,3.56-5.58a2,2,0,0,0-.73-.83,1.66,1.66,0,0,0-.82-.22,1.81,1.81,0,0,0-1.68,1.23,7.32,7.32,0,0,0-.58,3.13q0,.42,0,.93A7.45,7.45,0,0,0,234.47,146.29Zm4-4.35-3.54,5.62a2.11,2.11,0,0,0,.66.72,1.5,1.5,0,0,0,.83.25,1.86,1.86,0,0,0,1.79-1.42,8.9,8.9,0,0,0,.53-3.13A7.66,7.66,0,0,0,238.48,141.94Z"/><path class="cls-5" d="M244.64,138.63a3,3,0,0,1,2.68,1.48,9,9,0,0,1,0,8,3.18,3.18,0,0,1-5.36,0,9.09,9.09,0,0,1,0-8A3,3,0,0,1,244.64,138.63Zm-2,7.66,3.56-5.58a2,2,0,0,0-.73-.83,1.66,1.66,0,0,0-.82-.22,1.83,1.83,0,0,0-1.69,1.23,7.48,7.48,0,0,0-.57,3.13c0,.28,0,.59,0,.93A8.72,8.72,0,0,0,242.63,146.29Zm4-4.35-3.53,5.62a2.11,2.11,0,0,0,.66.72,1.47,1.47,0,0,0,.82.25,1.85,1.85,0,0,0,1.79-1.42,8.68,8.68,0,0,0,.54-3.13A7.67,7.67,0,0,0,246.63,141.94Z"/><path class="cls-5" d="M252.8,138.63a3,3,0,0,1,2.68,1.48,9,9,0,0,1,0,8,3.18,3.18,0,0,1-5.36,0,9.09,9.09,0,0,1,0-8A3,3,0,0,1,252.8,138.63Zm-2,7.66,3.56-5.58a2,2,0,0,0-.73-.83,1.66,1.66,0,0,0-.82-.22,1.83,1.83,0,0,0-1.69,1.23,7.48,7.48,0,0,0-.57,3.13c0,.28,0,.59,0,.93A8.72,8.72,0,0,0,250.79,146.29Zm4-4.35-3.53,5.62a2.11,2.11,0,0,0,.66.72,1.47,1.47,0,0,0,.82.25,1.85,1.85,0,0,0,1.79-1.42,8.68,8.68,0,0,0,.53-3.13A7.66,7.66,0,0,0,254.79,141.94Z"/><path class="cls-5" d="M269.12,138.63a3,3,0,0,1,2.68,1.48,9.09,9.09,0,0,1,0,8,3.18,3.18,0,0,1-5.36,0,9,9,0,0,1,0-8A3,3,0,0,1,269.12,138.63Zm-2,7.66,3.55-5.58a1.9,1.9,0,0,0-.73-.83,1.6,1.6,0,0,0-.82-.22,1.83,1.83,0,0,0-1.68,1.23,7.47,7.47,0,0,0-.58,3.13q0,.42,0,.93A7.64,7.64,0,0,0,267.11,146.29Zm4-4.35-3.53,5.62a2.19,2.19,0,0,0,.65.72,1.53,1.53,0,0,0,.83.25,1.85,1.85,0,0,0,1.79-1.42,8.68,8.68,0,0,0,.53-3.13A7.66,7.66,0,0,0,271.11,141.94Z"/><path class="cls-5" d="M277,148.21v-7.94a10.61,10.61,0,0,1-1.08.75,7.82,7.82,0,0,1-1.44.63v-1.11a8.74,8.74,0,0,0,2.52-1.6h1.24v9.27h2.47v1h-6.23v-1Z"/><path class="cls-5" d="M285.13,148.21v-7.94a10.61,10.61,0,0,1-1.08.75,7.82,7.82,0,0,1-1.44.63v-1.11a8.74,8.74,0,0,0,2.52-1.6h1.24v9.27h2.47v1h-6.23v-1Z"/><path class="cls-5" d="M293.59,138.63a3,3,0,0,1,2.69,1.48,9.09,9.09,0,0,1,0,8,3.19,3.19,0,0,1-5.37,0,9.09,9.09,0,0,1,0-8A3,3,0,0,1,293.59,138.63Zm-2,7.66,3.56-5.58a2,2,0,0,0-.73-.83,1.66,1.66,0,0,0-.82-.22,1.81,1.81,0,0,0-1.68,1.23,7.32,7.32,0,0,0-.58,3.13q0,.42,0,.93A7.45,7.45,0,0,0,291.58,146.29Zm4-4.35-3.54,5.62a2.11,2.11,0,0,0,.66.72,1.5,1.5,0,0,0,.83.25,1.86,1.86,0,0,0,1.79-1.42,8.9,8.9,0,0,0,.53-3.13A7.66,7.66,0,0,0,295.59,141.94Z"/><path class="cls-5" d="M301.45,148.21v-7.94a11.85,11.85,0,0,1-1.08.75,7.66,7.66,0,0,1-1.45.63v-1.11a8.94,8.94,0,0,0,2.53-1.6h1.23v9.27h2.48v1h-6.24v-1Z"/><path class="cls-5" d="M309.91,138.63a3,3,0,0,1,2.68,1.48,9,9,0,0,1,0,8,3.18,3.18,0,0,1-5.36,0,9.09,9.09,0,0,1,0-8A3,3,0,0,1,309.91,138.63Zm-2,7.66,3.56-5.58a2,2,0,0,0-.73-.83,1.66,1.66,0,0,0-.82-.22,1.83,1.83,0,0,0-1.69,1.23,7.48,7.48,0,0,0-.57,3.13c0,.28,0,.59,0,.93A8.72,8.72,0,0,0,307.9,146.29Zm4-4.35-3.53,5.62a2.11,2.11,0,0,0,.66.72,1.47,1.47,0,0,0,.82.25,1.85,1.85,0,0,0,1.79-1.42,8.68,8.68,0,0,0,.53-3.13A7.66,7.66,0,0,0,311.9,141.94Z"/><path class="cls-5" d="M318.07,138.63a3,3,0,0,1,2.68,1.48,9.09,9.09,0,0,1,0,8,3.18,3.18,0,0,1-5.36,0,9.09,9.09,0,0,1,0-8A3,3,0,0,1,318.07,138.63Zm-2,7.66,3.56-5.58a2,2,0,0,0-.74-.83,1.59,1.59,0,0,0-.81-.22,1.83,1.83,0,0,0-1.69,1.23,7.48,7.48,0,0,0-.57,3.13c0,.28,0,.59,0,.93A8.72,8.72,0,0,0,316.06,146.29Zm4-4.35-3.53,5.62a2.11,2.11,0,0,0,.66.72,1.47,1.47,0,0,0,.82.25,1.85,1.85,0,0,0,1.79-1.42,8.68,8.68,0,0,0,.53-3.13A7.66,7.66,0,0,0,320.06,141.94Z"/><path class="cls-5" d="M325.92,148.21v-7.94a10.61,10.61,0,0,1-1.08.75,7.82,7.82,0,0,1-1.44.63v-1.11a8.74,8.74,0,0,0,2.52-1.6h1.24v9.27h2.47v1H323.4v-1Z"/></g></g><rect class="cls-6" y="93.99" width="99.99" height="126.81" rx="2.35"/><rect class="cls-7" x="5.39" y="117.84" width="88.45" height="7.69"/><rect class="cls-7" x="5.39" y="134.18" width="88.45" height="7.69"/><rect class="cls-7" x="6.15" y="150.53" width="88.45" height="7.69"/><rect class="cls-7" x="6.15" y="166.87" width="88.45" height="7.69"/><rect class="cls-7" x="6.15" y="183.21" width="88.45" height="7.69"/><circle class="cls-8" cx="87.69" cy="104.76" r="4.61"/><rect class="cls-7" x="6.15" y="199.56" width="88.45" height="7.69"/><rect class="cls-6" x="343.69" y="93.74" width="99.99" height="126.81" rx="2.35"/><rect class="cls-7" x="349.08" y="117.59" width="88.45" height="7.69"/><rect class="cls-7" x="349.08" y="133.93" width="88.45" height="7.69"/><rect class="cls-7" x="349.85" y="150.27" width="88.45" height="7.69"/><rect class="cls-7" x="349.85" y="166.62" width="88.45" height="7.69"/><rect class="cls-7" x="349.85" y="182.96" width="88.45" height="7.69"/><circle class="cls-8" cx="431.38" cy="104.51" r="4.61"/><rect class="cls-7" x="349.85" y="199.31" width="88.45" height="7.69"/><ellipse class="cls-9" cx="54.51" cy="26.52" rx="48.41" ry="26.52"/><path d="M56.42,18.19V32.52H54.48V26H46.75v6.52H44.81V18.19h1.94v6.39h7.73V18.19Z"/><path d="M61.77,19.21a1.13,1.13,0,0,1-.1.49,1.6,1.6,0,0,1-.28.4,1.39,1.39,0,0,1-.41.27,1.21,1.21,0,0,1-.5.1,1.12,1.12,0,0,1-.48-.1,1.23,1.23,0,0,1-.4-.27,1.56,1.56,0,0,1-.27-.4,1.13,1.13,0,0,1-.1-.49,1.16,1.16,0,0,1,.1-.49,1.33,1.33,0,0,1,.27-.41A1.26,1.26,0,0,1,60,18a1.29,1.29,0,0,1,.48-.1,1.39,1.39,0,0,1,.5.1,1.42,1.42,0,0,1,.41.28,1.35,1.35,0,0,1,.28.41A1.16,1.16,0,0,1,61.77,19.21Zm-.38,3.18V32.52H59.61V22.39Z"/><circle class="cls-9" cx="15.41" cy="81.31" r="7.12"/><circle class="cls-9" cx="31.45" cy="64.93" r="9"/><ellipse class="cls-9" cx="395.26" cy="26.52" rx="48.41" ry="26.52"/><path d="M397.17,18.19V32.52h-1.94V26H387.5v6.52h-1.94V18.19h1.94v6.39h7.73V18.19Z"/><path d="M402.52,19.21a1.14,1.14,0,0,1-.11.49,1.38,1.38,0,0,1-.28.4,1.27,1.27,0,0,1-1.39.27,1.19,1.19,0,0,1-.39-.27,1.56,1.56,0,0,1-.27-.4,1.13,1.13,0,0,1-.1-.49,1.16,1.16,0,0,1,.1-.49,1.33,1.33,0,0,1,.27-.41,1.21,1.21,0,0,1,.39-.28,1.25,1.25,0,0,1,1,0,1.34,1.34,0,0,1,.69.69A1.17,1.17,0,0,1,402.52,19.21Zm-.38,3.18V32.52h-1.78V22.39Z"/><circle class="cls-9" cx="356.15" cy="81.31" r="7.12"/><circle class="cls-9" cx="372.2" cy="64.93" r="9"/></svg>