<svg id="Layer_1" data-name="Layer 1" xmlns="http://www.w3.org/2000/svg" width="331.17" height="107.21" viewBox="0 0 331.17 107.21"><defs><style>.cls-1{fill:none;stroke:#14bf96;stroke-linecap:round;stroke-miterlimit:10;stroke-width:4px;}.cls-2{fill:#37c5fd;}.cls-3{fill:#0a2a66;}.cls-4{fill:#ccfbf0;}</style></defs><title>network of 2</title><line class="cls-1" x1="274.8" y1="53.61" x2="62.91" y2="53.61"/><rect class="cls-2" width="84.54" height="107.21" rx="1.64"/><rect class="cls-3" x="4.55" y="20.16" width="74.78" height="6.5"/><rect class="cls-3" x="4.55" y="33.98" width="74.78" height="6.5"/><rect class="cls-3" x="5.2" y="47.8" width="74.78" height="6.5"/><rect class="cls-3" x="5.2" y="61.61" width="74.78" height="6.5"/><rect class="cls-3" x="5.2" y="75.43" width="74.78" height="6.5"/><circle class="cls-4" cx="74.13" cy="9.1" r="3.9"/><rect class="cls-3" x="5.2" y="89.25" width="74.78" height="6.5"/><rect class="cls-2" x="246.63" width="84.54" height="107.21" rx="1.64"/><rect class="cls-3" x="251.19" y="20.16" width="74.78" height="6.5"/><rect class="cls-3" x="251.19" y="33.98" width="74.78" height="6.5"/><rect class="cls-3" x="251.84" y="47.8" width="74.78" height="6.5"/><rect class="cls-3" x="251.84" y="61.61" width="74.78" height="6.5"/><rect class="cls-3" x="251.84" y="75.43" width="74.78" height="6.5"/><circle class="cls-4" cx="320.77" cy="9.1" r="3.9"/><rect class="cls-3" x="251.84" y="89.25" width="74.78" height="6.5"/></svg>