<svg id="Layer_1" data-name="Layer 1" xmlns="http://www.w3.org/2000/svg" viewBox="0 0 494.59 147.86"><defs><style>.cls-1{fill:#14bf96;}.cls-2{fill:#ffd633;}.cls-3{fill:#2d2d2d;}.cls-4,.cls-7{font-size:9.13px;}.cls-13,.cls-4,.cls-7{font-family:Monaco, Monaco;}.cls-5{fill:none;stroke:#14bf96;stroke-miterlimit:10;stroke-width:1.9px;}.cls-6{fill:#1a1a1a;}.cls-7,.cls-9{fill:#fff;}.cls-8{fill:#0a2a66;}.cls-10{fill:#37c5fd;}.cls-11{fill:#10a7e3;}.cls-12{fill:#65d0fa;}.cls-13{font-size:8px;}.cls-14{font-size:12px;}</style></defs><title>computers send-recieve</title><rect class="cls-1" x="145.67" y="9.66" width="63.05" height="14.45"/><rect class="cls-2" x="145.48" y="12.13" width="63.24" height="9.13"/><rect class="cls-1" x="208.66" y="9.66" width="63.05" height="14.45"/><rect class="cls-3" x="208.66" y="12.13" width="63.05" height="9.13"/><text class="cls-4" transform="translate(174.34 37.86)">1</text><rect class="cls-5" x="170.54" y="28.15" width="13.12" height="12.55" rx="0.76" ry="0.76"/><text class="cls-4" transform="translate(300.09 37.86)">1</text><rect class="cls-5" x="296.29" y="28.15" width="13.12" height="12.55" rx="0.76" ry="0.76"/><rect class="cls-1" x="271.42" y="9.66" width="63.05" height="14.45"/><rect class="cls-2" x="271.23" y="12.13" width="63.24" height="9.13"/><rect class="cls-6" x="233.63" y="28.15" width="13.12" height="12.55" rx="0.76" ry="0.76"/><rect class="cls-5" x="233.63" y="28.15" width="13.12" height="12.55" rx="0.76" ry="0.76"/><text class="cls-7" transform="translate(237.33 37.65)">0</text><rect class="cls-8" y="0.13" width="138.02" height="138.02" rx="2.71" ry="2.71"/><rect class="cls-9" x="5.93" y="6.07" width="126.16" height="77.64"/><path class="cls-10" d="M0,83.7H138a0,0,0,0,1,0,0V144a3.89,3.89,0,0,1-3.89,3.89H3.89A3.89,3.89,0,0,1,0,144V83.7A0,0,0,0,1,0,83.7Z"/><rect class="cls-11" x="5.93" y="90.71" width="9.17" height="9.17" rx="1.08" ry="1.08"/><rect class="cls-11" x="17.63" y="90.71" width="9.17" height="9.17" rx="1.08" ry="1.08"/><rect class="cls-11" x="29.33" y="90.71" width="9.17" height="9.17" rx="1.08" ry="1.08"/><rect class="cls-11" x="41.03" y="90.71" width="9.17" height="9.17" rx="1.08" ry="1.08"/><rect class="cls-11" x="52.73" y="90.71" width="9.17" height="9.17" rx="1.08" ry="1.08"/><rect class="cls-11" x="64.43" y="90.71" width="9.17" height="9.17" rx="1.08" ry="1.08"/><rect class="cls-11" x="76.13" y="90.71" width="9.17" height="9.17" rx="1.08" ry="1.08"/><rect class="cls-11" x="87.83" y="90.71" width="9.17" height="9.17" rx="1.08" ry="1.08"/><rect class="cls-11" x="99.53" y="90.71" width="9.17" height="9.17" rx="1.08" ry="1.08"/><rect class="cls-11" x="111.23" y="90.71" width="9.17" height="9.17" rx="1.08" ry="1.08"/><rect class="cls-11" x="122.92" y="90.71" width="9.17" height="9.17" rx="1.08" ry="1.08"/><rect class="cls-11" x="17.63" y="103.11" width="9.17" height="9.17" rx="1.08" ry="1.08"/><rect class="cls-11" x="29.33" y="103.11" width="9.17" height="9.17" rx="1.08" ry="1.08"/><rect class="cls-11" x="41.03" y="103.11" width="9.17" height="9.17" rx="1.08" ry="1.08"/><rect class="cls-11" x="52.73" y="103.11" width="9.17" height="9.17" rx="1.08" ry="1.08"/><rect class="cls-11" x="64.43" y="103.11" width="9.17" height="9.17" rx="1.08" ry="1.08"/><rect class="cls-11" x="76.13" y="103.11" width="9.17" height="9.17" rx="1.08" ry="1.08"/><rect class="cls-11" x="87.83" y="103.11" width="9.17" height="9.17" rx="1.08" ry="1.08"/><rect class="cls-11" x="99.53" y="103.11" width="9.17" height="9.17" rx="1.08" ry="1.08"/><rect class="cls-11" x="111.23" y="103.11" width="9.17" height="9.17" rx="1.08" ry="1.08"/><rect class="cls-11" x="5.93" y="115.51" width="9.17" height="9.17" rx="1.08" ry="1.08"/><rect class="cls-11" x="17.63" y="115.51" width="9.17" height="9.17" rx="1.08" ry="1.08"/><rect class="cls-11" x="29.33" y="115.51" width="9.17" height="9.17" rx="1.08" ry="1.08"/><rect class="cls-11" x="41.03" y="115.51" width="9.17" height="9.17" rx="1.08" ry="1.08"/><rect class="cls-11" x="52.73" y="115.51" width="9.17" height="9.17" rx="1.08" ry="1.08"/><rect class="cls-11" x="64.43" y="115.51" width="9.17" height="9.17" rx="1.08" ry="1.08"/><rect class="cls-11" x="76.13" y="115.51" width="9.17" height="9.17" rx="1.08" ry="1.08"/><rect class="cls-11" x="87.83" y="115.51" width="9.17" height="9.17" rx="1.08" ry="1.08"/><rect class="cls-11" x="99.53" y="115.51" width="9.17" height="9.17" rx="1.08" ry="1.08"/><rect class="cls-11" x="111.23" y="115.51" width="9.17" height="9.17" rx="1.08" ry="1.08"/><rect class="cls-11" x="122.92" y="115.51" width="9.17" height="9.17" rx="1.08" ry="1.08"/><rect class="cls-11" x="43.13" y="115.51" width="51.76" height="9.17" rx="1.08" ry="1.08"/><rect class="cls-12" x="50.68" y="128.45" width="34.51" height="14.56" rx="2.22" ry="2.22"/><rect class="cls-8" x="356.5" y="0.07" width="138.02" height="138.02" rx="2.71" ry="2.71" transform="translate(0.07 -0.44) rotate(0.06)"/><rect class="cls-9" x="362.46" y="6" width="126.16" height="77.64" transform="translate(0.05 -0.44) rotate(0.06)"/><path class="cls-10" d="M356.46,83.64h138a0,0,0,0,1,0,0v60.27a3.89,3.89,0,0,1-3.89,3.89H360.34a3.89,3.89,0,0,1-3.89-3.89V83.64A0,0,0,0,1,356.46,83.64Z" transform="translate(0.12 -0.44) rotate(0.06)"/><rect class="cls-11" x="362.41" y="90.58" width="9.17" height="9.17" rx="1.08" ry="1.08" transform="translate(0.1 -0.38) rotate(0.06)"/><rect class="cls-11" x="374.11" y="90.6" width="9.17" height="9.17" rx="1.08" ry="1.08" transform="translate(0.1 -0.39) rotate(0.06)"/><rect class="cls-11" x="385.81" y="90.61" width="9.17" height="9.17" rx="1.08" ry="1.08" transform="translate(0.1 -0.4) rotate(0.06)"/><rect class="cls-11" x="397.51" y="90.62" width="9.17" height="9.17" rx="1.08" ry="1.08" transform="translate(0.1 -0.41) rotate(0.06)"/><rect class="cls-11" x="409.21" y="90.63" width="9.17" height="9.17" rx="1.08" ry="1.08" transform="translate(0.1 -0.42) rotate(0.06)"/><rect class="cls-11" x="420.91" y="90.64" width="9.17" height="9.17" rx="1.08" ry="1.08" transform="translate(0.1 -0.44) rotate(0.06)"/><rect class="cls-11" x="432.6" y="90.66" width="9.17" height="9.17" rx="1.08" ry="1.08" transform="translate(0.1 -0.45) rotate(0.06)"/><rect class="cls-11" x="444.3" y="90.67" width="9.17" height="9.17" rx="1.08" ry="1.08" transform="translate(0.1 -0.46) rotate(0.06)"/><rect class="cls-11" x="456" y="90.68" width="9.17" height="9.17" rx="1.08" ry="1.08" transform="translate(0.1 -0.47) rotate(0.06)"/><rect class="cls-11" x="467.7" y="90.69" width="9.17" height="9.17" rx="1.08" ry="1.08" transform="translate(0.1 -0.48) rotate(0.06)"/><rect class="cls-11" x="479.4" y="90.7" width="9.17" height="9.17" rx="1.08" ry="1.08" transform="translate(0.1 -0.5) rotate(0.06)"/><rect class="cls-11" x="374.1" y="103" width="9.17" height="9.17" rx="1.08" ry="1.08" transform="translate(0.11 -0.39) rotate(0.06)"/><rect class="cls-11" x="385.79" y="103.01" width="9.17" height="9.17" rx="1.08" ry="1.08" transform="translate(0.11 -0.4) rotate(0.06)"/><rect class="cls-11" x="397.49" y="103.02" width="9.17" height="9.17" rx="1.08" ry="1.08" transform="translate(0.11 -0.41) rotate(0.06)"/><rect class="cls-11" x="409.19" y="103.03" width="9.17" height="9.17" rx="1.08" ry="1.08" transform="translate(0.11 -0.42) rotate(0.06)"/><rect class="cls-11" x="420.89" y="103.04" width="9.17" height="9.17" rx="1.08" ry="1.08" transform="translate(0.11 -0.44) rotate(0.06)"/><rect class="cls-11" x="432.59" y="103.06" width="9.17" height="9.17" rx="1.08" ry="1.08" transform="translate(0.11 -0.45) rotate(0.06)"/><rect class="cls-11" x="444.29" y="103.07" width="9.17" height="9.17" rx="1.08" ry="1.08" transform="translate(0.11 -0.46) rotate(0.06)"/><rect class="cls-11" x="455.99" y="103.08" width="9.17" height="9.17" rx="1.08" ry="1.08" transform="translate(0.11 -0.47) rotate(0.06)"/><rect class="cls-11" x="467.69" y="103.09" width="9.17" height="9.17" rx="1.08" ry="1.08" transform="translate(0.11 -0.48) rotate(0.06)"/><rect class="cls-11" x="362.38" y="115.38" width="9.17" height="9.17" rx="1.08" ry="1.08" transform="translate(0.12 -0.38) rotate(0.06)"/><rect class="cls-11" x="374.08" y="115.4" width="9.17" height="9.17" rx="1.08" ry="1.08" transform="translate(0.12 -0.39) rotate(0.06)"/><rect class="cls-11" x="385.78" y="115.41" width="9.17" height="9.17" rx="1.08" ry="1.08" transform="translate(0.12 -0.4) rotate(0.06)"/><rect class="cls-11" x="397.48" y="115.42" width="9.17" height="9.17" rx="1.08" ry="1.08" transform="translate(0.12 -0.41) rotate(0.06)"/><rect class="cls-11" x="409.18" y="115.43" width="9.17" height="9.17" rx="1.08" ry="1.08" transform="translate(0.12 -0.42) rotate(0.06)"/><rect class="cls-11" x="420.88" y="115.44" width="9.17" height="9.17" rx="1.08" ry="1.08" transform="translate(0.12 -0.44) rotate(0.06)"/><rect class="cls-11" x="432.58" y="115.46" width="9.17" height="9.17" rx="1.08" ry="1.08" transform="translate(0.12 -0.45) rotate(0.06)"/><rect class="cls-11" x="444.28" y="115.47" width="9.17" height="9.17" rx="1.08" ry="1.08" transform="translate(0.12 -0.46) rotate(0.06)"/><rect class="cls-11" x="455.98" y="115.48" width="9.17" height="9.17" rx="1.08" ry="1.08" transform="translate(0.12 -0.47) rotate(0.06)"/><rect class="cls-11" x="467.68" y="115.49" width="9.17" height="9.17" rx="1.08" ry="1.08" transform="translate(0.12 -0.48) rotate(0.06)"/><rect class="cls-11" x="479.38" y="115.5" width="9.17" height="9.17" rx="1.08" ry="1.08" transform="translate(0.12 -0.5) rotate(0.06)"/><rect class="cls-11" x="399.58" y="115.44" width="51.76" height="9.17" rx="1.08" ry="1.08" transform="translate(0.12 -0.44) rotate(0.06)"/><rect class="cls-12" x="407.12" y="128.38" width="34.51" height="14.56" rx="2.22" ry="2.22" transform="translate(0.14 -0.43) rotate(0.06)"/><polygon class="cls-1" points="348.48 16.64 333.46 3.79 333.46 29.48 348.48 16.64"/><rect class="cls-1" x="285.23" y="65.17" width="63.05" height="14.45" transform="translate(633.52 144.79) rotate(180)"/><rect class="cls-3" x="285.23" y="68.02" width="63.24" height="9.13" transform="translate(633.71 145.17) rotate(180)"/><rect class="cls-1" x="222.24" y="65.17" width="63.05" height="14.45" transform="translate(507.53 144.79) rotate(180)"/><rect class="cls-2" x="222.24" y="68.02" width="63.05" height="9.13" transform="translate(507.53 145.17) rotate(180)"/><text class="cls-4" transform="translate(187.34 95.86)">1</text><rect class="cls-5" x="183.54" y="86.15" width="13.12" height="12.55" rx="0.76" ry="0.76"/><rect class="cls-1" x="159.48" y="65.17" width="63.05" height="14.45" transform="translate(382.01 144.79) rotate(180)"/><rect class="cls-2" x="159.48" y="68.02" width="63.24" height="9.13" transform="translate(382.2 145.17) rotate(180)"/><polygon class="cls-1" points="144.48 72.64 159.5 85.48 159.5 59.79 144.48 72.64"/><text class="cls-4" transform="translate(250.09 95.86)">1</text><rect class="cls-5" x="246.29" y="86.15" width="13.12" height="12.55" rx="0.76" ry="0.76"/><rect class="cls-6" x="308.63" y="86.15" width="13.12" height="12.55" rx="0.76" ry="0.76"/><rect class="cls-5" x="308.63" y="86.15" width="13.12" height="12.55" rx="0.76" ry="0.76"/><text class="cls-7" transform="translate(312.33 95.65)">0</text><text class="cls-13" transform="translate(403.91 20)">Recieved:<tspan class="cls-14"><tspan x="10.8" y="14.4">101</tspan></tspan><tspan x="9.6" y="38.4">Sent:</tspan><tspan class="cls-14"><tspan x="10.8" y="52.8">110</tspan></tspan></text><text class="cls-13" transform="translate(57.01 20)">Sent:<tspan class="cls-14"><tspan x="1.2" y="14.4">101</tspan></tspan><tspan x="-9.6" y="38.4">Recieved:</tspan><tspan class="cls-14"><tspan x="1.2" y="52.8">110</tspan></tspan></text></svg>