<svg id="Layer_1" data-name="Layer 1" xmlns="http://www.w3.org/2000/svg" width="500.25" height="94.17" viewBox="0 0 500.25 94.17"><defs><style>.cls-1{fill:#14bf96;}.cls-2{fill:#fff;}.cls-3{fill:#ffd633;}.cls-4{fill:#2d2d2d;}.cls-5{isolation:isolate;}.cls-10,.cls-11,.cls-15,.cls-6,.cls-9{fill:none;stroke-miterlimit:10;}.cls-6{stroke:#14bf96;stroke-width:3.05px;}.cls-7{fill:#1a1a1a;}.cls-8{fill:#0a2a66;}.cls-9{stroke:#37c5fd;}.cls-10,.cls-11,.cls-15,.cls-16,.cls-9{stroke-linecap:round;}.cls-11,.cls-9{stroke-width:2.99px;}.cls-10{stroke:#10a7e3;stroke-width:4.86px;}.cls-11,.cls-15{stroke:#c3eefe;}.cls-12{fill:#37c5fd;}.cls-13{fill:#10a7e3;}.cls-14{fill:#65d0fa;}.cls-15{stroke-width:3.01px;}.cls-16{fill:#00e5ae;stroke:#00e5ae;stroke-linejoin:round;stroke-width:1.02px;}</style></defs><title>wires</title><rect class="cls-1" x="93.45" y="26.35" width="101.14" height="23.18"/><rect class="cls-2" x="93.15" y="30.32" width="101.45" height="14.64"/><polygon class="cls-3" points="94.66 37.72 106.94 43.12 107.03 37.65 116.29 40.98 104.02 31.89 104.02 37.3 94.66 33.22 94.66 37.72"/><polygon class="cls-3" points="119.36 37.72 131.65 43.12 131.74 37.65 141 40.98 128.73 31.89 128.73 37.3 119.36 33.22 119.36 37.72"/><polygon class="cls-3" points="144.07 37.72 156.36 43.12 156.45 37.65 165.71 40.98 153.43 31.89 153.43 37.3 144.07 33.22 144.07 37.72"/><polygon class="cls-3" points="168.78 37.72 181.06 43.12 181.16 37.65 190.42 40.98 178.14 31.89 178.14 37.3 168.78 33.22 168.78 37.72"/><rect class="cls-1" x="194.5" y="26.35" width="101.14" height="23.18"/><rect class="cls-4" x="194.5" y="30.32" width="101.14" height="14.64"/><g class="cls-5"><path d="M143.5,70.48V61.92a9.53,9.53,0,0,1-1.17.81,8.79,8.79,0,0,1-1.55.68v-1.2a9.41,9.41,0,0,0,2.72-1.72h1.33v10h2.66v1.1h-6.71v-1.1Z"/></g><rect class="cls-6" x="133.34" y="56.02" width="21.05" height="20.13" rx="1.22"/><g class="cls-5"><path d="M345.21,70.48V61.92a9.53,9.53,0,0,1-1.17.81,9.14,9.14,0,0,1-1.55.68v-1.2a9.55,9.55,0,0,0,2.72-1.72h1.33v10h2.66v1.1h-6.71v-1.1Z"/></g><rect class="cls-6" x="335.05" y="56.02" width="21.05" height="20.13" rx="1.22"/><rect class="cls-1" x="295.16" y="26.35" width="101.14" height="23.18"/><rect class="cls-2" x="294.85" y="30.32" width="101.45" height="14.64"/><polygon class="cls-3" points="297.36 38.11 309.65 43.51 309.74 38.04 319 41.37 306.73 32.28 306.73 37.69 297.36 33.61 297.36 38.11"/><polygon class="cls-3" points="322.4 38.11 334.69 43.51 334.78 38.04 344.04 41.37 331.77 32.28 331.77 37.69 322.4 33.61 322.4 38.11"/><polygon class="cls-3" points="347.44 38.11 359.73 43.51 359.82 38.04 369.08 41.37 356.81 32.28 356.81 37.69 347.44 33.61 347.44 38.11"/><polygon class="cls-3" points="372.49 38.11 384.77 43.51 384.86 38.04 394.12 41.37 381.85 32.28 381.85 37.69 372.49 33.61 372.49 38.11"/><rect class="cls-7" x="234.54" y="56.02" width="21.05" height="20.13" rx="1.22"/><rect class="cls-6" x="234.54" y="56.02" width="21.05" height="20.13" rx="1.22"/><g class="cls-5"><path class="cls-2" d="M244.87,59.82a3.21,3.21,0,0,1,2.89,1.59,8.08,8.08,0,0,1,1,4.29,8.06,8.06,0,0,1-1,4.29A3.41,3.41,0,0,1,242,70a8,8,0,0,1-1-4.29,8,8,0,0,1,1-4.29A3.19,3.19,0,0,1,244.87,59.82Zm-2.17,8.25,3.84-6a2.31,2.31,0,0,0-.79-.9,1.89,1.89,0,0,0-.88-.23,2,2,0,0,0-1.82,1.33,8,8,0,0,0-.62,3.36c0,.31,0,.64,0,1A9.13,9.13,0,0,0,242.7,68.07ZM247,63.38l-3.81,6.05a2.26,2.26,0,0,0,.71.78,1.53,1.53,0,0,0,.89.27A2,2,0,0,0,246.74,69a9.57,9.57,0,0,0,.57-3.37A8.48,8.48,0,0,0,247,63.38Z"/></g><rect class="cls-8" y="0.24" width="87.77" height="87.77" rx="1.88"/><rect class="cls-2" x="3.77" y="4.01" width="80.22" height="49.37"/><line class="cls-9" x1="25.59" y1="15.91" x2="35.65" y2="15.91"/><line class="cls-10" x1="19.04" y1="15.91" x2="19.04" y2="15.91"/><line class="cls-9" x1="25.59" y1="26.62" x2="35.65" y2="26.62"/><line class="cls-10" x1="19.04" y1="26.62" x2="19.04" y2="26.62"/><line class="cls-9" x1="25.59" y1="37.32" x2="35.65" y2="37.32"/><line class="cls-10" x1="19.04" y1="37.32" x2="19.04" y2="37.32"/><line class="cls-11" x1="41.67" y1="15.91" x2="69.93" y2="15.91"/><line class="cls-11" x1="41.67" y1="21.26" x2="63.73" y2="21.26"/><line class="cls-11" x1="41.67" y1="31.97" x2="63.73" y2="31.97"/><line class="cls-11" x1="41.67" y1="42.68" x2="63.73" y2="42.68"/><line class="cls-11" x1="41.67" y1="26.62" x2="69.93" y2="26.62"/><line class="cls-11" x1="41.67" y1="37.32" x2="69.93" y2="37.32"/><path class="cls-12" d="M0,53.38H87.77a0,0,0,0,1,0,0V91.48a2.69,2.69,0,0,1-2.69,2.69H2.69A2.69,2.69,0,0,1,0,91.48V53.38a0,0,0,0,1,0,0Z"/><rect class="cls-13" x="3.77" y="57.83" width="5.83" height="5.83" rx="0.75"/><rect class="cls-13" x="11.21" y="57.83" width="5.83" height="5.83" rx="0.75"/><rect class="cls-13" x="18.65" y="57.83" width="5.83" height="5.83" rx="0.75"/><rect class="cls-13" x="26.09" y="57.83" width="5.83" height="5.83" rx="0.75"/><rect class="cls-13" x="33.53" y="57.83" width="5.83" height="5.83" rx="0.75"/><rect class="cls-13" x="40.97" y="57.83" width="5.83" height="5.83" rx="0.75"/><rect class="cls-13" x="48.41" y="57.83" width="5.83" height="5.83" rx="0.75"/><rect class="cls-13" x="55.85" y="57.83" width="5.83" height="5.83" rx="0.75"/><rect class="cls-13" x="63.29" y="57.83" width="5.83" height="5.83" rx="0.75"/><rect class="cls-13" x="70.73" y="57.83" width="5.83" height="5.83" rx="0.75"/><rect class="cls-13" x="78.17" y="57.83" width="5.83" height="5.83" rx="0.75"/><rect class="cls-13" x="11.21" y="65.72" width="5.83" height="5.83" rx="0.75"/><rect class="cls-13" x="18.65" y="65.72" width="5.83" height="5.83" rx="0.75"/><rect class="cls-13" x="26.09" y="65.72" width="5.83" height="5.83" rx="0.75"/><rect class="cls-13" x="33.53" y="65.72" width="5.83" height="5.83" rx="0.75"/><rect class="cls-13" x="40.97" y="65.72" width="5.83" height="5.83" rx="0.75"/><rect class="cls-13" x="48.41" y="65.72" width="5.83" height="5.83" rx="0.75"/><rect class="cls-13" x="55.85" y="65.72" width="5.83" height="5.83" rx="0.75"/><rect class="cls-13" x="63.29" y="65.72" width="5.83" height="5.83" rx="0.75"/><rect class="cls-13" x="70.73" y="65.72" width="5.83" height="5.83" rx="0.75"/><rect class="cls-13" x="3.77" y="73.6" width="5.83" height="5.83" rx="0.75"/><rect class="cls-13" x="11.21" y="73.6" width="5.83" height="5.83" rx="0.75"/><rect class="cls-13" x="18.65" y="73.6" width="5.83" height="5.83" rx="0.75"/><rect class="cls-13" x="26.09" y="73.6" width="5.83" height="5.83" rx="0.75"/><rect class="cls-13" x="33.53" y="73.6" width="5.83" height="5.83" rx="0.75"/><rect class="cls-13" x="40.97" y="73.6" width="5.83" height="5.83" rx="0.75"/><rect class="cls-13" x="48.41" y="73.6" width="5.83" height="5.83" rx="0.75"/><rect class="cls-13" x="55.85" y="73.6" width="5.83" height="5.83" rx="0.75"/><rect class="cls-13" x="63.29" y="73.6" width="5.83" height="5.83" rx="0.75"/><rect class="cls-13" x="70.73" y="73.6" width="5.83" height="5.83" rx="0.75"/><rect class="cls-13" x="78.17" y="73.6" width="5.83" height="5.83" rx="0.75"/><rect class="cls-13" x="27.43" y="73.6" width="32.91" height="5.83" rx="0.75"/><rect class="cls-14" x="32.23" y="81.83" width="21.94" height="9.26" rx="1.54"/><rect class="cls-8" x="405.19" width="95.06" height="87.99" rx="1.96"/><rect class="cls-2" x="409.28" y="3.78" width="86.89" height="49.49"/><path class="cls-12" d="M405.19,53.27h95.06a0,0,0,0,1,0,0v38.1a2.8,2.8,0,0,1-2.8,2.8H408a2.8,2.8,0,0,1-2.8-2.8V53.27A0,0,0,0,1,405.19,53.27Z"/><rect class="cls-13" x="409.28" y="57.74" width="6.31" height="5.84" rx="0.78"/><rect class="cls-13" x="417.33" y="57.74" width="6.31" height="5.84" rx="0.78"/><rect class="cls-13" x="425.39" y="57.74" width="6.31" height="5.84" rx="0.78"/><rect class="cls-13" x="433.45" y="57.74" width="6.31" height="5.84" rx="0.78"/><rect class="cls-13" x="441.51" y="57.74" width="6.31" height="5.84" rx="0.78"/><rect class="cls-13" x="449.56" y="57.74" width="6.31" height="5.84" rx="0.78"/><rect class="cls-13" x="457.62" y="57.74" width="6.31" height="5.84" rx="0.78"/><rect class="cls-13" x="465.68" y="57.74" width="6.31" height="5.84" rx="0.78"/><rect class="cls-13" x="473.74" y="57.74" width="6.31" height="5.84" rx="0.78"/><rect class="cls-13" x="481.79" y="57.74" width="6.31" height="5.84" rx="0.78"/><rect class="cls-13" x="489.85" y="57.74" width="6.31" height="5.84" rx="0.78"/><rect class="cls-13" x="417.33" y="65.65" width="6.31" height="5.84" rx="0.78"/><rect class="cls-13" x="425.39" y="65.65" width="6.31" height="5.84" rx="0.78"/><rect class="cls-13" x="433.45" y="65.65" width="6.31" height="5.84" rx="0.78"/><rect class="cls-13" x="441.51" y="65.65" width="6.31" height="5.84" rx="0.78"/><rect class="cls-13" x="449.56" y="65.65" width="6.31" height="5.84" rx="0.78"/><rect class="cls-13" x="457.62" y="65.65" width="6.31" height="5.84" rx="0.78"/><rect class="cls-13" x="465.68" y="65.65" width="6.31" height="5.84" rx="0.78"/><rect class="cls-13" x="473.74" y="65.65" width="6.31" height="5.84" rx="0.78"/><rect class="cls-13" x="481.79" y="65.65" width="6.31" height="5.84" rx="0.78"/><rect class="cls-13" x="409.28" y="73.55" width="6.31" height="5.84" rx="0.78"/><rect class="cls-13" x="417.33" y="73.55" width="6.31" height="5.84" rx="0.78"/><rect class="cls-13" x="425.39" y="73.55" width="6.31" height="5.84" rx="0.78"/><rect class="cls-13" x="433.45" y="73.55" width="6.31" height="5.84" rx="0.78"/><rect class="cls-13" x="441.51" y="73.55" width="6.31" height="5.84" rx="0.78"/><rect class="cls-13" x="449.56" y="73.55" width="6.31" height="5.84" rx="0.78"/><rect class="cls-13" x="457.62" y="73.55" width="6.31" height="5.84" rx="0.78"/><rect class="cls-13" x="465.68" y="73.55" width="6.31" height="5.84" rx="0.78"/><rect class="cls-13" x="473.74" y="73.55" width="6.31" height="5.84" rx="0.78"/><rect class="cls-13" x="481.79" y="73.55" width="6.31" height="5.84" rx="0.78"/><rect class="cls-13" x="489.85" y="73.55" width="6.31" height="5.84" rx="0.78"/><rect class="cls-13" x="434.9" y="73.55" width="35.65" height="5.84" rx="0.78"/><rect class="cls-14" x="440.1" y="81.8" width="23.76" height="9.28" rx="1.6"/><line class="cls-15" x1="456.33" y1="12.12" x2="486.11" y2="12.12"/><line class="cls-15" x1="456.33" y1="18.22" x2="479.58" y2="18.22"/><line class="cls-15" x1="456.33" y1="30.43" x2="479.58" y2="30.43"/><line class="cls-15" x1="456.33" y1="42.63" x2="479.58" y2="42.63"/><line class="cls-15" x1="456.33" y1="24.32" x2="486.11" y2="24.32"/><line class="cls-15" x1="456.33" y1="36.53" x2="486.11" y2="36.53"/><rect class="cls-16" x="417.84" y="9.65" width="31.37" height="37.34"/></svg>