<svg id="Layer_1" data-name="Layer 1" xmlns="http://www.w3.org/2000/svg" viewBox="0 0 496.93 84.24"><defs><style>.cls-1{fill:#14bf96;}.cls-2,.cls-8{fill:#fff;}.cls-3{fill:#ffd633;}.cls-4{fill:#2d2d2d;}.cls-5,.cls-8{font-size:24px;font-family:Monaco, Monaco;}.cls-6{fill:none;stroke:#14bf96;stroke-miterlimit:10;stroke-width:5px;}.cls-7{fill:#1a1a1a;}</style></defs><title>101 three pulses</title><rect class="cls-1" x="0.5" width="165.79" height="38"/><rect class="cls-2" y="6.5" width="166.29" height="24"/><polygon class="cls-3" points="9.03 19.27 29.17 28.12 29.32 19.15 44.5 24.61 24.38 9.71 24.38 18.58 9.03 11.9 9.03 19.27"/><polygon class="cls-3" points="49.53 20.27 69.67 29.12 69.82 20.15 85 25.61 64.88 10.71 64.88 19.58 49.53 12.9 49.53 20.27"/><polygon class="cls-3" points="90.03 19.27 110.17 28.12 110.32 19.15 125.5 24.61 105.38 9.71 105.38 18.58 90.03 11.9 90.03 19.27"/><polygon class="cls-3" points="130.53 20.27 150.67 29.12 150.82 20.15 166 25.61 145.88 10.71 145.88 19.58 130.53 12.9 130.53 20.27"/><rect class="cls-1" x="166.13" width="165.79" height="38"/><rect class="cls-4" x="166.13" y="6.5" width="165.79" height="24"/><text class="cls-5" transform="translate(75.88 74.14)">1</text><rect class="cls-6" x="65.89" y="48.63" width="34.5" height="33" rx="2" ry="2"/><text class="cls-5" transform="translate(406.52 74.14)">1</text><rect class="cls-6" x="396.53" y="48.63" width="34.5" height="33" rx="2" ry="2"/><rect class="cls-1" x="331.14" width="165.79" height="38"/><rect class="cls-2" x="330.64" y="6.5" width="166.29" height="24"/><polygon class="cls-3" points="339.67 19.27 359.81 28.12 359.96 19.15 375.14 24.61 355.02 9.71 355.02 18.58 339.67 11.9 339.67 19.27"/><polygon class="cls-3" points="380.17 20.27 400.31 29.12 400.46 20.15 415.64 25.61 395.52 10.71 395.52 19.58 380.17 12.9 380.17 20.27"/><polygon class="cls-3" points="420.67 19.27 440.81 28.12 440.96 19.15 456.14 24.61 436.02 9.71 436.02 18.58 420.67 11.9 420.67 19.27"/><polygon class="cls-3" points="461.17 20.27 481.31 29.12 481.46 20.15 496.64 25.61 476.52 10.71 476.52 19.58 461.17 12.9 461.17 20.27"/><rect class="cls-7" x="231.77" y="48.63" width="34.5" height="33" rx="2" ry="2"/><rect class="cls-6" x="231.77" y="48.63" width="34.5" height="33" rx="2" ry="2"/><text class="cls-8" transform="translate(241.51 73.59)">0</text></svg>