<svg id="Layer_1" data-name="Layer 1" xmlns="http://www.w3.org/2000/svg" viewBox="0 0 509 166.38"><defs><style>.cls-1{fill:#14bf96;}.cls-2,.cls-8{fill:#fff;}.cls-3{fill:#ffd633;}.cls-4,.cls-8{font-size:24px;font-family:Monaco, Monaco;}.cls-5{fill:none;stroke:#14bf96;stroke-miterlimit:10;stroke-width:5px;}.cls-6{fill:#2d2d2d;}.cls-7{fill:#1a1a1a;}</style></defs><title>101 three wires</title><rect class="cls-1" x="0.5" width="456" height="38"/><rect class="cls-2" y="6.5" width="459.5" height="24"/><polygon class="cls-3" points="9.03 19.27 29.17 28.12 29.32 19.15 44.5 24.61 24.38 9.71 24.38 18.58 9.03 11.9 9.03 19.27"/><polygon class="cls-3" points="49.53 20.27 69.67 29.12 69.82 20.15 85 25.61 64.88 10.71 64.88 19.58 49.53 12.9 49.53 20.27"/><polygon class="cls-3" points="90.03 19.27 110.17 28.12 110.32 19.15 125.5 24.61 105.38 9.71 105.38 18.58 90.03 11.9 90.03 19.27"/><polygon class="cls-3" points="130.53 20.27 150.67 29.12 150.82 20.15 166 25.61 145.88 10.71 145.88 19.58 130.53 12.9 130.53 20.27"/><polygon class="cls-3" points="171.03 19.27 191.17 28.12 191.32 19.15 206.5 24.61 186.38 9.71 186.38 18.58 171.03 11.9 171.03 19.27"/><polygon class="cls-3" points="211.53 19.27 231.67 28.12 231.82 19.15 247 24.61 226.88 9.71 226.88 18.58 211.53 11.9 211.53 19.27"/><polygon class="cls-3" points="252.03 19.27 272.17 28.12 272.32 19.15 287.5 24.61 267.38 9.71 267.38 18.58 252.03 11.9 252.03 19.27"/><polygon class="cls-3" points="292.53 20.27 312.67 29.12 312.82 20.15 328 25.61 307.88 10.71 307.88 19.58 292.53 12.9 292.53 20.27"/><polygon class="cls-3" points="333.03 19.27 353.17 28.12 353.32 19.15 368.5 24.61 348.38 9.71 348.38 18.58 333.03 11.9 333.03 19.27"/><polygon class="cls-3" points="373.53 20.27 393.67 29.12 393.82 20.15 409 25.61 388.88 10.71 388.88 19.58 373.53 12.9 373.53 20.27"/><polygon class="cls-3" points="414.03 18.27 434.17 27.12 434.32 18.15 449.5 23.61 429.38 8.71 429.38 17.58 414.03 10.9 414.03 18.27"/><text class="cls-4" transform="translate(481.49 28.01)">1</text><rect class="cls-5" x="471.5" y="2.5" width="34.5" height="33" rx="2" ry="2"/><rect class="cls-1" x="0.5" y="64.13" width="456" height="38"/><rect class="cls-6" x="0.5" y="70.63" width="456" height="24"/><rect class="cls-7" x="472" y="67.63" width="34.5" height="33" rx="2" ry="2"/><rect class="cls-5" x="472" y="67.63" width="34.5" height="33" rx="2" ry="2"/><text class="cls-8" transform="translate(481.75 92.59)">0</text><rect class="cls-1" x="0.78" y="128.26" width="456" height="38"/><rect class="cls-2" x="0.28" y="134.76" width="459.5" height="24"/><polygon class="cls-3" points="9.31 146.53 29.45 155.38 29.6 146.42 44.78 151.87 24.66 136.98 24.66 145.85 9.31 139.17 9.31 146.53"/><polygon class="cls-3" points="49.81 147.53 69.95 156.38 70.1 147.42 85.28 152.87 65.16 137.98 65.16 146.85 49.81 140.17 49.81 147.53"/><polygon class="cls-3" points="90.31 146.53 110.45 155.38 110.6 146.42 125.78 151.87 105.66 136.98 105.66 145.85 90.31 139.17 90.31 146.53"/><polygon class="cls-3" points="130.81 147.53 150.95 156.38 151.1 147.42 166.28 152.87 146.16 137.98 146.16 146.85 130.81 140.17 130.81 147.53"/><polygon class="cls-3" points="171.31 146.53 191.45 155.38 191.6 146.42 206.78 151.87 186.66 136.98 186.66 145.85 171.31 139.17 171.31 146.53"/><polygon class="cls-3" points="211.81 147.53 231.95 156.38 232.1 147.42 247.28 152.87 227.16 137.98 227.16 146.85 211.81 140.17 211.81 147.53"/><polygon class="cls-3" points="252.31 147.53 272.45 156.38 272.6 147.42 287.78 152.87 267.66 137.98 267.66 146.85 252.31 140.17 252.31 147.53"/><polygon class="cls-3" points="292.81 148.53 312.95 157.38 313.1 148.42 328.28 153.87 308.16 138.98 308.16 147.85 292.81 141.17 292.81 148.53"/><polygon class="cls-3" points="333.31 147.53 353.45 156.38 353.6 147.42 368.78 152.87 348.66 137.98 348.66 146.85 333.31 140.17 333.31 147.53"/><polygon class="cls-3" points="373.81 148.53 393.95 157.38 394.1 148.42 409.28 153.87 389.16 138.98 389.16 147.85 373.81 141.17 373.81 148.53"/><polygon class="cls-3" points="414.31 146.53 434.45 155.38 434.6 146.42 449.78 151.87 429.66 136.98 429.66 145.85 414.31 139.17 414.31 146.53"/><text class="cls-4" transform="translate(481.77 156.27)">1</text><rect class="cls-5" x="471.78" y="130.76" width="34.5" height="33" rx="2" ry="2"/></svg>