<svg id="Layer_1" data-name="Layer 1" xmlns="http://www.w3.org/2000/svg" viewBox="0 0 118.57 68.14"><defs><style>.cls-1{fill:#e6ecef;}.cls-2{fill:#789ba8;}.cls-3{fill:#fff;}.cls-4{font-size:5px;font-family:Monaco, Monaco;}.cls-5{fill:none;}.cls-6{fill:#333;}</style></defs><title>HTTP response render</title><rect class="cls-1" y="7.46" width="118.57" height="60.68" rx="2.17" ry="2.17"/><path class="cls-2" d="M0,11.52V5.4A5.49,5.49,0,0,1,5.57,0H112.93a5.49,5.49,0,0,1,5.57,5.4v6.12"/><rect class="cls-3" x="12.21" y="2.04" width="102.2" height="8.46" rx="1.97" ry="1.97"/><text class="cls-4" transform="translate(13.47 8.24)">http://www.example.com/index.html</text><rect class="cls-3" x="2.36" y="13.44" width="113.61" height="52.56" rx="2.14" ry="2.14"/><path class="cls-5" d="M1.48,2H11v9.47H1.48Z"/><path class="cls-6" d="M8.44,4a3.16,3.16,0,1,0,.88,2.75h-.8A2.36,2.36,0,1,1,6.22,3.9a2.32,2.32,0,0,1,1.66.7L6.74,5.74H9.37V3.11Z"/><path d="M23.43,31.4v.85h-4V25.77h4v.85h-3v1.95h2.38v.83H20.45v2Z"/><path d="M28.33,32.25h-.92a.24.24,0,0,1-.18-.06.69.69,0,0,1-.11-.13l-1.05-1.7a1.38,1.38,0,0,1-.11.27l-1,1.43a.69.69,0,0,1-.11.13.21.21,0,0,1-.16.06h-.86l1.58-2.37-1.52-2.22h.93a.32.32,0,0,1,.16,0l.09.1,1,1.62a1.17,1.17,0,0,1,.13-.28l.88-1.32a.24.24,0,0,1,.22-.15h.89l-1.52,2.18Z"/><path d="M28.87,28.3a2.66,2.66,0,0,1,1.86-.73,1.9,1.9,0,0,1,.7.13,1.51,1.51,0,0,1,.52.36,1.64,1.64,0,0,1,.32.56,2.3,2.3,0,0,1,.11.71v2.92H32a.37.37,0,0,1-.21,0,.32.32,0,0,1-.12-.18l-.1-.37a2.86,2.86,0,0,1-.35.28,2.5,2.5,0,0,1-.35.21,1.63,1.63,0,0,1-.39.13,2.19,2.19,0,0,1-.46,0,1.72,1.72,0,0,1-.52-.07A1.24,1.24,0,0,1,29,32a1.21,1.21,0,0,1-.28-.38,1.44,1.44,0,0,1-.1-.54,1,1,0,0,1,.15-.52,1.24,1.24,0,0,1,.46-.45,3.36,3.36,0,0,1,.86-.33,6,6,0,0,1,1.32-.15v-.31a1.08,1.08,0,0,0-.21-.73.76.76,0,0,0-.62-.25,1.5,1.5,0,0,0-.47.07l-.33.15-.25.15a.39.39,0,0,1-.23.07.22.22,0,0,1-.16-.05.37.37,0,0,1-.12-.13Zm2.57,1.94a4.85,4.85,0,0,0-.87.09,2.77,2.77,0,0,0-.58.16.84.84,0,0,0-.32.24.59.59,0,0,0-.09.31.61.61,0,0,0,.05.28.52.52,0,0,0,.14.19.74.74,0,0,0,.22.1.77.77,0,0,0,.27,0,1.45,1.45,0,0,0,.65-.14,2.22,2.22,0,0,0,.53-.42Z"/><path d="M33.51,32.25V27.66h.58a.24.24,0,0,1,.26.18l.06.4a3.19,3.19,0,0,1,.26-.26,1.94,1.94,0,0,1,.29-.21,1.62,1.62,0,0,1,.33-.13,1.23,1.23,0,0,1,.39-.05,1.25,1.25,0,0,1,.4.06.88.88,0,0,1,.33.18,1.35,1.35,0,0,1,.25.28,3.34,3.34,0,0,1,.17.38,1.15,1.15,0,0,1,.26-.41,1.17,1.17,0,0,1,.35-.28,1.46,1.46,0,0,1,.41-.16,2.2,2.2,0,0,1,.44-.05,1.9,1.9,0,0,1,.66.11,1.34,1.34,0,0,1,.49.34,1.49,1.49,0,0,1,.31.55,2.41,2.41,0,0,1,.1.74v2.92h-1V29.33a1.1,1.1,0,0,0-.21-.73.75.75,0,0,0-.62-.25.8.8,0,0,0-.34.07.88.88,0,0,0-.29.18.91.91,0,0,0-.19.3,1.43,1.43,0,0,0-.07.43v2.92h-1V29.33a1.09,1.09,0,0,0-.21-.74.72.72,0,0,0-.59-.24,1,1,0,0,0-.5.14,1.65,1.65,0,0,0-.42.38v3.38Z"/><path d="M41.9,28.33a2.31,2.31,0,0,1,.66-.55,1.67,1.67,0,0,1,.85-.21,1.6,1.6,0,0,1,.7.16,1.45,1.45,0,0,1,.54.45,2.21,2.21,0,0,1,.35.74,3.81,3.81,0,0,1,.12,1,3.21,3.21,0,0,1-.13.95,2.29,2.29,0,0,1-.4.76,1.91,1.91,0,0,1-.62.51,1.83,1.83,0,0,1-.82.18,1.77,1.77,0,0,1-.69-.13,1.82,1.82,0,0,1-.51-.36v2H41V27.66h.59a.23.23,0,0,1,.25.18ZM42,31.1a1.21,1.21,0,0,0,.44.36,1.37,1.37,0,0,0,.54.11,1.05,1.05,0,0,0,.88-.41,2,2,0,0,0,.32-1.24,3,3,0,0,0-.07-.72,1.48,1.48,0,0,0-.21-.49.86.86,0,0,0-.33-.27,1,1,0,0,0-.43-.09,1.29,1.29,0,0,0-.64.16A1.79,1.79,0,0,0,42,29Z"/><path d="M47.05,25.59v6.66h-1V25.59Z"/><path d="M49,30a2.24,2.24,0,0,0,.12.68,1.28,1.28,0,0,0,.28.47,1,1,0,0,0,.41.28,1.33,1.33,0,0,0,.54.1,1.75,1.75,0,0,0,.49-.07,2.08,2.08,0,0,0,.36-.14l.26-.15a.41.41,0,0,1,.2-.06.2.2,0,0,1,.18.09l.27.35a1.8,1.8,0,0,1-.38.35,2.77,2.77,0,0,1-.46.22,3.07,3.07,0,0,1-.5.13,4.38,4.38,0,0,1-.5,0,2.56,2.56,0,0,1-.89-.16,2.1,2.1,0,0,1-.7-.47,2.21,2.21,0,0,1-.47-.77A3.14,3.14,0,0,1,48,29.86a2.6,2.6,0,0,1,.15-.89,2.16,2.16,0,0,1,.43-.72,2,2,0,0,1,.69-.48A2.4,2.4,0,0,1,51,27.72a1.77,1.77,0,0,1,.62.41,1.72,1.72,0,0,1,.41.65,2.37,2.37,0,0,1,.15.87.64.64,0,0,1-.05.3.19.19,0,0,1-.18.08Zm2.31-.59a1.57,1.57,0,0,0-.07-.45,1.12,1.12,0,0,0-.21-.37,1,1,0,0,0-.33-.24,1.14,1.14,0,0,0-.46-.09,1.11,1.11,0,0,0-.83.3,1.43,1.43,0,0,0-.38.85Z"/><path d="M61.13,29a3.52,3.52,0,0,1-.23,1.32,3.2,3.2,0,0,1-.66,1,2.73,2.73,0,0,1-1,.66,3.54,3.54,0,0,1-1.33.24H55.45V25.77h2.44a3.54,3.54,0,0,1,1.33.24,2.85,2.85,0,0,1,1,.66,3.09,3.09,0,0,1,.66,1A3.52,3.52,0,0,1,61.13,29Zm-1.07,0a3.09,3.09,0,0,0-.15-1,2.25,2.25,0,0,0-.43-.76,2,2,0,0,0-.69-.47,2.49,2.49,0,0,0-.9-.16H56.5V31.4h1.39a2.29,2.29,0,0,0,.9-.16,2,2,0,0,0,.69-.47,2.3,2.3,0,0,0,.43-.75A3.15,3.15,0,0,0,60.06,29Z"/><path d="M64,27.59a2.47,2.47,0,0,1,.92.16,2,2,0,0,1,.7.48,2.19,2.19,0,0,1,.45.74,3.28,3.28,0,0,1,0,2,2.34,2.34,0,0,1-.45.75,2,2,0,0,1-.7.47,2.47,2.47,0,0,1-.92.17,2.52,2.52,0,0,1-.93-.17,2,2,0,0,1-.7-.47,2,2,0,0,1-.45-.75,3.08,3.08,0,0,1,0-2,1.92,1.92,0,0,1,.45-.74,2,2,0,0,1,.7-.48A2.52,2.52,0,0,1,64,27.59Zm0,4a1.06,1.06,0,0,0,.92-.42A2,2,0,0,0,65.27,30,2,2,0,0,0,65,28.76a1.06,1.06,0,0,0-.92-.42,1.08,1.08,0,0,0-.94.42A2,2,0,0,0,62.79,30a2,2,0,0,0,.31,1.19A1.08,1.08,0,0,0,64,31.56Z"/><path d="M67.19,32.25V27.66h.59a.24.24,0,0,1,.25.18l.06.4.26-.26a1.94,1.94,0,0,1,.29-.21,2,2,0,0,1,.34-.13,1.13,1.13,0,0,1,.38-.05,1.35,1.35,0,0,1,.41.06.92.92,0,0,1,.32.18,1.12,1.12,0,0,1,.25.28,2.19,2.19,0,0,1,.17.38,1.31,1.31,0,0,1,.26-.41,1.17,1.17,0,0,1,.35-.28,1.59,1.59,0,0,1,.41-.16,2.3,2.3,0,0,1,.45-.05,1.88,1.88,0,0,1,.65.11,1.34,1.34,0,0,1,.49.34,1.49,1.49,0,0,1,.31.55,2.41,2.41,0,0,1,.1.74v2.92h-1V29.33a1.1,1.1,0,0,0-.21-.73.76.76,0,0,0-.62-.25.81.81,0,0,0-.35.07.75.75,0,0,0-.28.18.77.77,0,0,0-.19.3,1.18,1.18,0,0,0-.07.43v2.92h-1V29.33a1.15,1.15,0,0,0-.2-.74.75.75,0,0,0-.6-.24,1,1,0,0,0-.5.14,1.65,1.65,0,0,0-.42.38v3.38Z"/><path d="M74.55,28.3a2.66,2.66,0,0,1,1.86-.73,1.9,1.9,0,0,1,.7.13,1.51,1.51,0,0,1,.52.36,1.82,1.82,0,0,1,.32.56,2.3,2.3,0,0,1,.11.71v2.92h-.43a.37.37,0,0,1-.21,0,.38.38,0,0,1-.13-.18l-.09-.37a2.86,2.86,0,0,1-.35.28,2.5,2.5,0,0,1-.35.21,1.63,1.63,0,0,1-.39.13,2.25,2.25,0,0,1-.46,0,1.72,1.72,0,0,1-.52-.07,1.24,1.24,0,0,1-.42-.24,1.08,1.08,0,0,1-.28-.38,1.44,1.44,0,0,1-.1-.54,1.1,1.1,0,0,1,.14-.52,1.28,1.28,0,0,1,.47-.45,3.36,3.36,0,0,1,.86-.33,6,6,0,0,1,1.32-.15v-.31a1.08,1.08,0,0,0-.21-.73.76.76,0,0,0-.62-.25,1.5,1.5,0,0,0-.47.07l-.33.15-.25.15a.39.39,0,0,1-.23.07.26.26,0,0,1-.17-.05.47.47,0,0,1-.11-.13Zm2.57,1.94a4.85,4.85,0,0,0-.87.09,2.77,2.77,0,0,0-.58.16.84.84,0,0,0-.32.24.6.6,0,0,0-.1.31.61.61,0,0,0,.06.28.52.52,0,0,0,.14.19.64.64,0,0,0,.22.1.77.77,0,0,0,.27,0,1.45,1.45,0,0,0,.65-.14,2.22,2.22,0,0,0,.53-.42Z"/><path d="M80.36,26.27a.7.7,0,0,1,0,.25,1.1,1.1,0,0,1-.14.21,1.53,1.53,0,0,1-.21.14.75.75,0,0,1-.26.05.6.6,0,0,1-.24-.05.78.78,0,0,1-.2-.14.6.6,0,0,1-.14-.21.65.65,0,0,1,0-.5.56.56,0,0,1,.14-.2.48.48,0,0,1,.2-.14.47.47,0,0,1,.24-.05.58.58,0,0,1,.26.05.7.7,0,0,1,.21.14,1,1,0,0,1,.14.2A.7.7,0,0,1,80.36,26.27Zm-.16,1.39v4.59h-1V27.66Z"/><path d="M82.32,28.27a2.7,2.7,0,0,1,.31-.28,2.39,2.39,0,0,1,.34-.21,1.74,1.74,0,0,1,.38-.14,1.56,1.56,0,0,1,.44-.05,1.78,1.78,0,0,1,.67.12,1.39,1.39,0,0,1,.77.91,2.3,2.3,0,0,1,.1.71v2.92h-1V29.33a1.05,1.05,0,0,0-.22-.72.8.8,0,0,0-.65-.26,1.27,1.27,0,0,0-.6.15,2.18,2.18,0,0,0-.52.41v3.34h-1V27.66H82a.23.23,0,0,1,.25.18Z"/><path d="M20.47,41h-.89v2.49h-.47V41h-.9v-.39h2.26Z"/><path d="M21.19,41.69a1.26,1.26,0,0,1,.27-.2.83.83,0,0,1,.36-.08.65.65,0,0,1,.29.06.56.56,0,0,1,.21.16.72.72,0,0,1,.14.24,1.55,1.55,0,0,1,0,.32v1.3h-.43v-1.3a.49.49,0,0,0-.09-.32.36.36,0,0,0-.29-.12.6.6,0,0,0-.27.07.76.76,0,0,0-.23.18v1.49h-.43v-3h.43Z"/><path d="M23.52,40.83a.2.2,0,0,1,0,.11.28.28,0,0,1-.06.09.21.21,0,0,1-.1.06.2.2,0,0,1-.11,0,.23.23,0,0,1-.11,0A.24.24,0,0,1,23,41L23,40.94a.31.31,0,0,1,0-.22.35.35,0,0,1,.06-.09.24.24,0,0,1,.09-.06.23.23,0,0,1,.11,0,.2.2,0,0,1,.11,0,.21.21,0,0,1,.1.06.2.2,0,0,1,.06.09A.2.2,0,0,1,23.52,40.83Zm-.07.62v2H23v-2Z"/><path d="M25.21,41.82l0,0h-.06l-.07,0L25,41.8l-.13,0-.17,0-.15,0-.11,0-.07.09a.3.3,0,0,0,0,.1.17.17,0,0,0,.05.12.24.24,0,0,0,.11.08.67.67,0,0,0,.17.06l.18.06.19.08a1,1,0,0,1,.17.1.58.58,0,0,1,.11.15.46.46,0,0,1,0,.21.62.62,0,0,1,0,.27.51.51,0,0,1-.15.21.86.86,0,0,1-.25.14,1.16,1.16,0,0,1-.34.05l-.2,0-.19,0L24,43.37l-.13-.1.1-.17a.08.08,0,0,1,0,0l.07,0,.08,0,.1.06.13.06.19,0,.17,0,.12-.06a.21.21,0,0,0,.06-.1.19.19,0,0,0,0-.1.17.17,0,0,0-.05-.13.38.38,0,0,0-.12-.09l-.16-.06-.19-.06-.19-.08a.59.59,0,0,1-.17-.1.91.91,0,0,1-.11-.16A.52.52,0,0,1,23.9,42a.59.59,0,0,1,.05-.23.55.55,0,0,1,.15-.19.74.74,0,0,1,.23-.14,1,1,0,0,1,.32-.05,1.17,1.17,0,0,1,.38.07.75.75,0,0,1,.28.18Z"/><path d="M28.47,40.53v3h-.26a.1.1,0,0,1-.11-.09l0-.22a1.09,1.09,0,0,1-.29.24.7.7,0,0,1-.38.1.78.78,0,0,1-.31-.07.68.68,0,0,1-.24-.2,1,1,0,0,1-.16-.33,2,2,0,0,1-.05-.45,1.42,1.42,0,0,1,.06-.42,1.2,1.2,0,0,1,.17-.34.85.85,0,0,1,.28-.22.87.87,0,0,1,.37-.08.67.67,0,0,1,.3.06.7.7,0,0,1,.23.15V40.53ZM28,42a.49.49,0,0,0-.2-.16.59.59,0,0,0-.23,0,.47.47,0,0,0-.4.19.89.89,0,0,0-.14.54,1.45,1.45,0,0,0,0,.32.63.63,0,0,0,.09.22.29.29,0,0,0,.15.12.41.41,0,0,0,.19,0,.54.54,0,0,0,.29-.07,1,1,0,0,0,.22-.2Z"/><path d="M29.87,41.41a1.07,1.07,0,0,1,.41.08.85.85,0,0,1,.31.21.79.79,0,0,1,.2.33,1.18,1.18,0,0,1,.07.43,1.2,1.2,0,0,1-.07.44.79.79,0,0,1-.2.33.85.85,0,0,1-.31.21,1.09,1.09,0,0,1-.82,0,1,1,0,0,1-.31-.21.91.91,0,0,1-.2-.33,1.2,1.2,0,0,1-.07-.44A1.18,1.18,0,0,1,29,42a.91.91,0,0,1,.2-.33,1,1,0,0,1,.31-.21A1.07,1.07,0,0,1,29.87,41.41Zm0,1.77a.45.45,0,0,0,.41-.19.85.85,0,0,0,.14-.52.88.88,0,0,0-.14-.53.45.45,0,0,0-.41-.19.47.47,0,0,0-.41.19.88.88,0,0,0-.14.53.85.85,0,0,0,.14.52A.47.47,0,0,0,29.87,43.18Z"/><path d="M31.28,43.49v-2h.26a.11.11,0,0,1,.11.08l0,.18a.43.43,0,0,1,.11-.12.38.38,0,0,1,.13-.09l.15-.06a.47.47,0,0,1,.17,0,.52.52,0,0,1,.18,0l.14.08a.45.45,0,0,1,.11.13.8.8,0,0,1,.08.16.57.57,0,0,1,.12-.18.44.44,0,0,1,.15-.12.62.62,0,0,1,.19-.07.58.58,0,0,1,.19,0,.65.65,0,0,1,.29.06.48.48,0,0,1,.22.15.57.57,0,0,1,.14.24,1.15,1.15,0,0,1,0,.33v1.3h-.43v-1.3a.52.52,0,0,0-.09-.33.34.34,0,0,0-.27-.11.41.41,0,0,0-.16,0,.36.36,0,0,0-.12.08.42.42,0,0,0-.09.14.54.54,0,0,0,0,.19v1.3h-.43v-1.3a.5.5,0,0,0-.09-.33.33.33,0,0,0-.26-.11.39.39,0,0,0-.23.07.67.67,0,0,0-.18.16v1.51Z"/><path d="M34.55,41.73a1.17,1.17,0,0,1,.82-.32.75.75,0,0,1,.31.06.48.48,0,0,1,.23.16.75.75,0,0,1,.15.24,1.08,1.08,0,0,1,0,.32v1.3h-.19l-.09,0a.28.28,0,0,1-.06-.08l0-.17-.15.13a.51.51,0,0,1-.16.09.49.49,0,0,1-.17.06l-.21,0a.59.59,0,0,1-.23,0,.4.4,0,0,1-.18-.1.45.45,0,0,1-.13-.17.61.61,0,0,1,0-.24.46.46,0,0,1,.06-.23.58.58,0,0,1,.21-.2,1.37,1.37,0,0,1,.38-.15,2.49,2.49,0,0,1,.59-.06v-.14a.45.45,0,0,0-.1-.33.34.34,0,0,0-.27-.11.62.62,0,0,0-.21,0l-.15.07-.11.07a.17.17,0,0,1-.1,0l-.07,0-.06-.06Zm1.14.86-.39,0a1.15,1.15,0,0,0-.26.08.39.39,0,0,0-.14.1.23.23,0,0,0,0,.14.37.37,0,0,0,0,.12.31.31,0,0,0,.07.09.19.19,0,0,0,.09,0l.12,0a.62.62,0,0,0,.29-.06,1.33,1.33,0,0,0,.24-.19Z"/><path d="M37.13,40.83a.2.2,0,0,1,0,.11A.18.18,0,0,1,37,41l-.09.06-.12,0a.19.19,0,0,1-.1,0,.15.15,0,0,1-.09-.06.18.18,0,0,1-.06-.09.22.22,0,0,1,0-.22.28.28,0,0,1,.15-.15.19.19,0,0,1,.1,0,.27.27,0,0,1,.12,0l.09.06a.15.15,0,0,1,.06.09A.2.2,0,0,1,37.13,40.83Zm-.08.62v2h-.43v-2Z"/><path d="M38,41.72a.86.86,0,0,1,.14-.13.54.54,0,0,1,.15-.09.49.49,0,0,1,.17-.06.58.58,0,0,1,.19,0,.73.73,0,0,1,.3.06.65.65,0,0,1,.21.16.7.7,0,0,1,.13.24,1.07,1.07,0,0,1,.05.32v1.3h-.43v-1.3a.44.44,0,0,0-.1-.32.34.34,0,0,0-.28-.12.6.6,0,0,0-.27.07A.76.76,0,0,0,38,42v1.49H37.6v-2h.26a.1.1,0,0,1,.11.08Z"/><path d="M41.36,40.83a.2.2,0,0,1,0,.11.18.18,0,0,1-.06.09l-.09.06a.23.23,0,0,1-.11,0,.2.2,0,0,1-.11,0,.15.15,0,0,1-.09-.06.18.18,0,0,1-.06-.09.22.22,0,0,1,0-.22.28.28,0,0,1,.15-.15.2.2,0,0,1,.11,0,.23.23,0,0,1,.11,0,.24.24,0,0,1,.09.06.15.15,0,0,1,.06.09A.2.2,0,0,1,41.36,40.83Zm-.07.62v2h-.43v-2Z"/><path d="M43.05,41.82l0,0h0l-.07,0-.1-.05-.13,0-.17,0-.14,0a.28.28,0,0,0-.11,0l-.07.09a.16.16,0,0,0,0,.1.16.16,0,0,0,0,.12.36.36,0,0,0,.12.08.59.59,0,0,0,.16.06l.19.06.19.08.16.1a.33.33,0,0,1,.11.15.46.46,0,0,1,.05.21.61.61,0,0,1-.2.48.86.86,0,0,1-.25.14,1.23,1.23,0,0,1-.35.05l-.2,0-.19,0-.16-.08a.85.85,0,0,1-.14-.1l.1-.17s0,0,0,0l.07,0a.11.11,0,0,1,.08,0l.1.06.13.06.2,0,.16,0,.12-.06a.36.36,0,0,0,.07-.1.36.36,0,0,0,0-.1.22.22,0,0,0,0-.13.38.38,0,0,0-.12-.09l-.17-.06-.19-.06-.19-.08a.54.54,0,0,1-.16-.1.61.61,0,0,1-.12-.16.53.53,0,0,1,0-.23.46.46,0,0,1,0-.23.52.52,0,0,1,.14-.19.74.74,0,0,1,.23-.14,1.09,1.09,0,0,1,.33-.05,1.11,1.11,0,0,1,.37.07.68.68,0,0,1,.28.18Z"/><path d="M45.22,43.52a.53.53,0,0,1-.39-.14.58.58,0,0,1-.14-.41V41.78h-.22a.07.07,0,0,1-.06,0,.08.08,0,0,1,0-.07v-.17l.33-.05.1-.59a.09.09,0,0,1,0-.06l.06,0h.22v.67h.57v.31h-.57v1.16a.22.22,0,0,0,.06.17.17.17,0,0,0,.14.06h.09l.06,0,.05,0h0a.05.05,0,0,1,.06,0l.13.21a.92.92,0,0,1-.24.13A.87.87,0,0,1,45.22,43.52Z"/><path d="M46.9,41.41a1.07,1.07,0,0,1,.41.08,1,1,0,0,1,.31.21.91.91,0,0,1,.2.33,1.18,1.18,0,0,1,.07.43,1.2,1.2,0,0,1-.07.44.91.91,0,0,1-.2.33,1,1,0,0,1-.31.21,1.09,1.09,0,0,1-.82,0,1,1,0,0,1-.32-.21,1.08,1.08,0,0,1-.2-.33,1.46,1.46,0,0,1-.06-.44A1.44,1.44,0,0,1,46,42a1.08,1.08,0,0,1,.2-.33,1,1,0,0,1,.32-.21A1.07,1.07,0,0,1,46.9,41.41Zm0,1.77a.47.47,0,0,0,.41-.19.85.85,0,0,0,.14-.52.88.88,0,0,0-.14-.53.47.47,0,0,0-.41-.19.47.47,0,0,0-.42.19.88.88,0,0,0-.13.53.85.85,0,0,0,.13.52A.47.47,0,0,0,46.9,43.18Z"/><path d="M49.73,41.72A.83.83,0,0,1,50,41.5a.69.69,0,0,1,.36-.09.88.88,0,0,1,.32.07.91.91,0,0,1,.24.2.79.79,0,0,1,.15.32,1.31,1.31,0,0,1,.06.41,1.65,1.65,0,0,1-.06.46.92.92,0,0,1-.18.34.79.79,0,0,1-.28.23.8.8,0,0,1-.36.08l-.18,0a.59.59,0,0,1-.14-.06.57.57,0,0,1-.13-.08l-.11-.12v.16a.16.16,0,0,1,0,.07l-.07,0H49.3v-3h.43Zm0,1.25a.5.5,0,0,0,.19.17.64.64,0,0,0,.24,0,.46.46,0,0,0,.39-.18.88.88,0,0,0,.15-.57.84.84,0,0,0-.13-.51.41.41,0,0,0-.35-.17.57.57,0,0,0-.27.07.73.73,0,0,0-.22.21Z"/><path d="M51.87,42.5a.85.85,0,0,0,.05.3A.53.53,0,0,0,52,43a.43.43,0,0,0,.19.13.85.85,0,0,0,.23,0,.69.69,0,0,0,.22,0l.16-.06L53,43a.16.16,0,0,1,.09,0,.12.12,0,0,1,.08,0l.12.16a.8.8,0,0,1-.17.15.81.81,0,0,1-.21.1.79.79,0,0,1-.22.06l-.22,0a1.23,1.23,0,0,1-.39-.07,1,1,0,0,1-.32-.21,1,1,0,0,1-.21-.35,1.33,1.33,0,0,1-.07-.47,1,1,0,0,1,.07-.39.8.8,0,0,1,.19-.32,1,1,0,0,1,.3-.22,1.07,1.07,0,0,1,.41-.08.93.93,0,0,1,.34.06,1.12,1.12,0,0,1,.28.18.79.79,0,0,1,.18.29,1.23,1.23,0,0,1,.07.39.24.24,0,0,1,0,.14s0,0-.08,0Zm1-.26a.71.71,0,0,0,0-.21.51.51,0,0,0-.09-.16.58.58,0,0,0-.15-.11.64.64,0,0,0-.2,0,.49.49,0,0,0-.37.13.61.61,0,0,0-.17.38Z"/><path d="M56.39,41.45v2h-.26A.11.11,0,0,1,56,43.4l0-.19-.13.13a.6.6,0,0,1-.15.09l-.18.07-.19,0a.73.73,0,0,1-.3-.06.65.65,0,0,1-.21-.16.62.62,0,0,1-.13-.24,1.07,1.07,0,0,1-.05-.32V41.45h.43v1.29a.49.49,0,0,0,.1.32.34.34,0,0,0,.29.12.48.48,0,0,0,.26-.07.76.76,0,0,0,.23-.18V41.45Z"/><path d="M58.14,41.82s0,0,0,0h-.05l-.07,0-.1-.05-.13,0-.17,0-.14,0a.28.28,0,0,0-.11,0l-.07.09a.16.16,0,0,0,0,.1.16.16,0,0,0,0,.12.36.36,0,0,0,.12.08.59.59,0,0,0,.16.06l.19.06.19.08.16.1a.33.33,0,0,1,.11.15.46.46,0,0,1,0,.21.61.61,0,0,1-.2.48.86.86,0,0,1-.25.14,1.23,1.23,0,0,1-.35.05l-.2,0-.19,0-.16-.08a.85.85,0,0,1-.14-.1l.1-.17,0,0L57,43a.11.11,0,0,1,.08,0l.1.06.13.06.2,0,.16,0,.12-.06a.36.36,0,0,0,.07-.1.36.36,0,0,0,0-.1.22.22,0,0,0,0-.13.38.38,0,0,0-.12-.09l-.17-.06-.19-.06-.19-.08a.54.54,0,0,1-.16-.1.61.61,0,0,1-.12-.16.53.53,0,0,1,0-.23.46.46,0,0,1,.05-.23A.52.52,0,0,1,57,41.6a.74.74,0,0,1,.23-.14,1.09,1.09,0,0,1,.33-.05,1.11,1.11,0,0,1,.37.07.68.68,0,0,1,.28.18Z"/><path d="M59,42.5a1.13,1.13,0,0,0,.06.3.53.53,0,0,0,.12.21.46.46,0,0,0,.18.13,1,1,0,0,0,.24,0,.69.69,0,0,0,.22,0l.16-.06.12-.07a.16.16,0,0,1,.09,0,.12.12,0,0,1,.08,0l.12.16a.8.8,0,0,1-.17.15,1,1,0,0,1-.21.1.79.79,0,0,1-.22.06l-.22,0a1.23,1.23,0,0,1-.39-.07.89.89,0,0,1-.32-.21,1,1,0,0,1-.21-.35,1.33,1.33,0,0,1-.07-.47,1,1,0,0,1,.07-.39.8.8,0,0,1,.19-.32,1,1,0,0,1,.3-.22,1.07,1.07,0,0,1,.41-.08.93.93,0,0,1,.34.06,1.12,1.12,0,0,1,.28.18.79.79,0,0,1,.18.29,1.23,1.23,0,0,1,.07.39.24.24,0,0,1,0,.14s0,0-.08,0Zm1-.26A.71.71,0,0,0,60,42a.51.51,0,0,0-.09-.16.58.58,0,0,0-.15-.11.66.66,0,0,0-.21,0,.48.48,0,0,0-.36.13.61.61,0,0,0-.17.38Z"/><path d="M62.52,40.53v3h-.26a.1.1,0,0,1-.11-.09l0-.22a1,1,0,0,1-.29.24.7.7,0,0,1-.38.1.78.78,0,0,1-.31-.07.91.91,0,0,1-.24-.2,1,1,0,0,1-.16-.33,2,2,0,0,1,0-.45,1.42,1.42,0,0,1,.06-.42,1.2,1.2,0,0,1,.17-.34.85.85,0,0,1,.28-.22.87.87,0,0,1,.37-.08.67.67,0,0,1,.3.06.7.7,0,0,1,.23.15V40.53ZM62.09,42a.49.49,0,0,0-.2-.16.59.59,0,0,0-.23,0,.47.47,0,0,0-.4.19.89.89,0,0,0-.14.54,1.45,1.45,0,0,0,0,.32.63.63,0,0,0,.09.22.29.29,0,0,0,.15.12.41.41,0,0,0,.19,0,.54.54,0,0,0,.29-.07,1,1,0,0,0,.22-.2Z"/><path d="M64.18,43.49v-1.7l-.2,0a.15.15,0,0,1-.08,0,.07.07,0,0,1,0-.07v-.18h.32V41.3a.78.78,0,0,1,0-.31.59.59,0,0,1,.14-.23.57.57,0,0,1,.23-.15.81.81,0,0,1,.31,0H65a.31.31,0,0,1,.13,0v.21a.07.07,0,0,1,0,.07H65l-.16,0a.24.24,0,0,0-.12.07.29.29,0,0,0-.08.13.62.62,0,0,0,0,.21v.15h.56v.31h-.54v1.71Z"/><path d="M66.28,41.41a1.07,1.07,0,0,1,.41.08.85.85,0,0,1,.31.21.91.91,0,0,1,.2.33,1.18,1.18,0,0,1,.07.43,1.2,1.2,0,0,1-.07.44.91.91,0,0,1-.2.33.85.85,0,0,1-.31.21,1.09,1.09,0,0,1-.82,0,.85.85,0,0,1-.31-.21.79.79,0,0,1-.2-.33,1.2,1.2,0,0,1-.07-.44,1.18,1.18,0,0,1,.07-.43.79.79,0,0,1,.2-.33.85.85,0,0,1,.31-.21A1.07,1.07,0,0,1,66.28,41.41Zm0,1.77a.47.47,0,0,0,.41-.19.85.85,0,0,0,.14-.52.88.88,0,0,0-.14-.53.47.47,0,0,0-.41-.19.48.48,0,0,0-.42.19.88.88,0,0,0-.13.53.85.85,0,0,0,.13.52A.48.48,0,0,0,66.28,43.18Z"/><path d="M68.09,41.82a.8.8,0,0,1,.23-.3.52.52,0,0,1,.33-.11h.12a.31.31,0,0,1,.1,0l0,.32a.08.08,0,0,1,0,.05h-.25a.41.41,0,0,0-.16,0,.29.29,0,0,0-.12.07l-.1.12c0,.05,0,.11-.08.17v1.27h-.43v-2h.25s.08,0,.1,0a.19.19,0,0,1,0,.09Z"/><path d="M18.93,46.63a.36.36,0,0,1,0,.11l-.06.09a.21.21,0,0,1-.1.06.22.22,0,0,1-.22,0,.24.24,0,0,1-.09-.06l-.06-.09a.31.31,0,0,1,0-.22.35.35,0,0,1,.06-.09.24.24,0,0,1,.09-.06.22.22,0,0,1,.22,0,.21.21,0,0,1,.1.06.35.35,0,0,1,.06.09A.36.36,0,0,1,18.93,46.63Zm-.07.62v2h-.43v-2Z"/><path d="M19.84,46.33v3h-.43v-3Z"/><path d="M20.81,46.33v3h-.43v-3Z"/><path d="M23.06,47.25v2H22.8c-.06,0-.09,0-.11-.09l0-.19a.86.86,0,0,1-.14.13.38.38,0,0,1-.15.09l-.17.07-.19,0a.73.73,0,0,1-.3-.06.56.56,0,0,1-.21-.16.51.51,0,0,1-.13-.24,1.07,1.07,0,0,1-.05-.32V47.25h.43v1.29a.44.44,0,0,0,.1.32.34.34,0,0,0,.28.12.5.5,0,0,0,.27-.07.76.76,0,0,0,.23-.18V47.25Z"/><path d="M24.8,47.62l0,0h-.05l-.08,0-.09,0-.13-.05-.17,0-.14,0a.28.28,0,0,0-.11.05.28.28,0,0,0-.07.09.17.17,0,0,0,0,.1.17.17,0,0,0,.05.12l.11.08a.85.85,0,0,0,.17.06l.19.06.18.08a.69.69,0,0,1,.17.1.42.42,0,0,1,.11.15.46.46,0,0,1,.05.21.63.63,0,0,1-.06.27.51.51,0,0,1-.15.21.74.74,0,0,1-.25.14,1.16,1.16,0,0,1-.34,0l-.2,0-.19,0-.17-.08-.13-.1.1-.17,0,0,.07,0a.11.11,0,0,1,.08,0l.1.06L24,49l.2,0,.16,0,.12-.06a.21.21,0,0,0,.06-.1.19.19,0,0,0,0-.1.17.17,0,0,0-.05-.13.33.33,0,0,0-.11-.09l-.17-.06L24,48.39l-.19-.08a.54.54,0,0,1-.16-.1.61.61,0,0,1-.12-.16.53.53,0,0,1,0-.23.59.59,0,0,1,0-.23.55.55,0,0,1,.15-.19.74.74,0,0,1,.23-.14,1,1,0,0,1,.32,0,1.17,1.17,0,0,1,.38.07.75.75,0,0,1,.28.18Z"/><path d="M26,49.32a.48.48,0,0,1-.53-.55V47.58h-.23a.07.07,0,0,1-.06,0s0,0,0-.07v-.17l.33,0,.09-.59,0-.06.07,0h.22v.67h.56v.31h-.56v1.16a.26.26,0,0,0,.05.17.2.2,0,0,0,.14.06l.09,0,.06,0,.05,0h0a.05.05,0,0,1,.05,0l.13.21a.86.86,0,0,1-.23.13A1,1,0,0,1,26,49.32Z"/><path d="M27.2,47.62a.8.8,0,0,1,.23-.3.47.47,0,0,1,.33-.11h.12l.11.05,0,.32,0,0h-.25a.41.41,0,0,0-.16,0,.29.29,0,0,0-.12.07l-.1.12s-.05.11-.08.17v1.27h-.43v-2H27c.05,0,.08,0,.1,0a.19.19,0,0,1,0,.09Z"/><path d="M28.19,47.53a1.19,1.19,0,0,1,.82-.32,1,1,0,0,1,.32,0,.76.76,0,0,1,.23.17.72.72,0,0,1,.14.24,1.07,1.07,0,0,1,.05.32v1.3h-.19l-.1,0a.16.16,0,0,1-.05-.08l0-.17-.16.13a.51.51,0,0,1-.16.09.49.49,0,0,1-.17.06l-.2,0a.64.64,0,0,1-.24,0,.4.4,0,0,1-.18-.1.43.43,0,0,1-.12-.17.6.6,0,0,1-.05-.24.46.46,0,0,1,.06-.23.81.81,0,0,1,.21-.2,1.5,1.5,0,0,1,.38-.15,2.49,2.49,0,0,1,.59-.06V48a.5.5,0,0,0-.09-.33.38.38,0,0,0-.28-.11.66.66,0,0,0-.21,0l-.14.07-.11.07a.23.23,0,0,1-.11,0l-.07,0-.05-.06Zm1.14.86-.39,0a.73.73,0,0,0-.25.08.28.28,0,0,0-.15.1.33.33,0,0,0,0,.14.37.37,0,0,0,0,.12.19.19,0,0,0,.07.08.2.2,0,0,0,.09,0l.13,0a.51.51,0,0,0,.28-.07.94.94,0,0,0,.24-.18Z"/><path d="M32.2,49.29h-.43V47.58h-1v1.16a.22.22,0,0,0,0,.17A.2.2,0,0,0,31,49l.09,0,.06,0,.05,0h0a.05.05,0,0,1,.05,0l.13.21a.86.86,0,0,1-.23.13,1,1,0,0,1-.29,0,.56.56,0,0,1-.39-.14.58.58,0,0,1-.13-.41V47.58h-.23a.07.07,0,0,1-.06,0s0,0,0-.07v-.17l.33,0,.09-.59,0-.06.07,0h.22v.67H32.2Zm.09-2.67a.36.36,0,0,1,0,.11l-.07.09a.2.2,0,0,1-.09.06.22.22,0,0,1-.11,0,.2.2,0,0,1-.11,0l-.09-.06a.24.24,0,0,1-.06-.09.22.22,0,0,1,0-.22.21.21,0,0,1,.06-.1l.09-.06.11,0,.11,0,.09.06a.27.27,0,0,1,.09.21Z"/><path d="M34.54,47.25l-.82,2h-.39l-.82-2h.36a.11.11,0,0,1,.08,0l0,.06.45,1.19a1,1,0,0,1,.05.16,1,1,0,0,1,0,.17,1,1,0,0,1,0-.17s0-.1,0-.16l.46-1.19,0-.06a.12.12,0,0,1,.08,0Z"/><path d="M35.08,48.3a1.13,1.13,0,0,0,.06.3.53.53,0,0,0,.12.21.43.43,0,0,0,.19.13.85.85,0,0,0,.23,0,.69.69,0,0,0,.22,0l.16-.06.12-.07a.16.16,0,0,1,.09,0,.12.12,0,0,1,.08,0l.12.16a.8.8,0,0,1-.17.15.81.81,0,0,1-.21.1.79.79,0,0,1-.22.06l-.22,0a1,1,0,0,1-.39-.08.76.76,0,0,1-.32-.2,1,1,0,0,1-.21-.35,1.33,1.33,0,0,1-.07-.47,1,1,0,0,1,.07-.39.8.8,0,0,1,.19-.32,1,1,0,0,1,.3-.22,1.07,1.07,0,0,1,.41-.08.93.93,0,0,1,.34.06,1.12,1.12,0,0,1,.28.18.79.79,0,0,1,.18.29,1.23,1.23,0,0,1,.07.39.24.24,0,0,1,0,.14s0,0-.08,0Zm1-.26a.71.71,0,0,0,0-.21.51.51,0,0,0-.09-.16.58.58,0,0,0-.15-.11.66.66,0,0,0-.21,0,.48.48,0,0,0-.36.13.61.61,0,0,0-.17.38Z"/><path d="M38.21,48.3a.85.85,0,0,0,0,.3.53.53,0,0,0,.12.21.43.43,0,0,0,.19.13.85.85,0,0,0,.23,0A.69.69,0,0,0,39,49l.16-.06.12-.07a.16.16,0,0,1,.09,0,.12.12,0,0,1,.08,0l.12.16a.8.8,0,0,1-.17.15.81.81,0,0,1-.21.1.79.79,0,0,1-.22.06l-.22,0a1,1,0,0,1-.39-.08.76.76,0,0,1-.32-.2,1,1,0,0,1-.21-.35,1.33,1.33,0,0,1-.07-.47,1,1,0,0,1,.07-.39.8.8,0,0,1,.19-.32,1,1,0,0,1,.3-.22,1.07,1.07,0,0,1,.41-.08.93.93,0,0,1,.34.06,1.12,1.12,0,0,1,.28.18.79.79,0,0,1,.18.29,1.23,1.23,0,0,1,.07.39.24.24,0,0,1,0,.14s0,0-.08,0Zm1-.26a.71.71,0,0,0,0-.21.51.51,0,0,0-.09-.16.58.58,0,0,0-.15-.11.66.66,0,0,0-.21,0,.48.48,0,0,0-.36.13.61.61,0,0,0-.17.38Z"/><path d="M41.74,49.29h-.41a.11.11,0,0,1-.08,0l0-.06-.47-.75a.56.56,0,0,1,0,.12l-.43.63,0,.06a.09.09,0,0,1-.07,0h-.38l.7-1.06-.68-1h.49l0,.05.46.72a.31.31,0,0,1,.06-.13l.39-.59a.11.11,0,0,1,.1-.06h.39l-.67,1Z"/><path d="M42,47.53a1.2,1.2,0,0,1,.83-.32,1,1,0,0,1,.31,0,.66.66,0,0,1,.23.17.72.72,0,0,1,.14.24,1.07,1.07,0,0,1,0,.32v1.3h-.19l-.1,0a.16.16,0,0,1,0-.08l0-.17-.16.13-.15.09a.64.64,0,0,1-.18.06l-.2,0a.56.56,0,0,1-.23,0,.45.45,0,0,1-.31-.27.6.6,0,0,1,0-.24.39.39,0,0,1,.07-.23.63.63,0,0,1,.2-.2,1.44,1.44,0,0,1,.39-.15,2.35,2.35,0,0,1,.58-.06V48a.5.5,0,0,0-.09-.33.38.38,0,0,0-.28-.11.66.66,0,0,0-.21,0l-.14.07-.11.07a.19.19,0,0,1-.1,0l-.08,0,0-.06Zm1.14.86-.39,0a.73.73,0,0,0-.25.08.26.26,0,0,0-.14.1.24.24,0,0,0-.05.14.21.21,0,0,0,0,.12.12.12,0,0,0,.06.08.19.19,0,0,0,.1,0l.12,0a.54.54,0,0,0,.29-.07.76.76,0,0,0,.23-.18Z"/><path d="M44,49.29v-2h.26c.06,0,.1,0,.11.08l0,.18.12-.12a.38.38,0,0,1,.13-.09.35.35,0,0,1,.14-.06.51.51,0,0,1,.17,0,.58.58,0,0,1,.19,0l.14.08a.69.69,0,0,1,.11.13.8.8,0,0,1,.08.16.54.54,0,0,1,.11-.18.61.61,0,0,1,.16-.12.56.56,0,0,1,.18-.07.69.69,0,0,1,.2,0,.68.68,0,0,1,.29.06.48.48,0,0,1,.22.15.55.55,0,0,1,.13.24,1.14,1.14,0,0,1,0,.33v1.3h-.43V48a.52.52,0,0,0-.09-.33.38.38,0,0,0-.28-.11l-.15,0a.57.57,0,0,0-.13.08.47.47,0,0,0-.08.14.54.54,0,0,0,0,.19v1.3h-.43V48a.5.5,0,0,0-.09-.33.35.35,0,0,0-.27-.11.36.36,0,0,0-.22.07.7.7,0,0,0-.19.16v1.51Z"/><path d="M47.77,47.54a1.09,1.09,0,0,1,.29-.24.79.79,0,0,1,.38-.09.62.62,0,0,1,.31.07.52.52,0,0,1,.24.2,1.07,1.07,0,0,1,.16.32,2,2,0,0,1,.05.45,1.42,1.42,0,0,1-.06.42A1.08,1.08,0,0,1,49,49a.89.89,0,0,1-.28.23.87.87,0,0,1-.37.08.67.67,0,0,1-.3-.06.87.87,0,0,1-.23-.16V50h-.43V47.25h.26c.06,0,.1,0,.11.08Zm0,1.23a.52.52,0,0,0,.2.17.61.61,0,0,0,.24,0,.47.47,0,0,0,.39-.18.93.93,0,0,0,.14-.55,1.51,1.51,0,0,0,0-.32.63.63,0,0,0-.09-.22.44.44,0,0,0-.15-.12.58.58,0,0,0-.19,0,.65.65,0,0,0-.29.07.86.86,0,0,0-.22.21Z"/><path d="M50.06,46.33v3h-.43v-3Z"/><path d="M50.9,48.3a1.13,1.13,0,0,0,.06.3.53.53,0,0,0,.12.21.46.46,0,0,0,.18.13.93.93,0,0,0,.24,0,.69.69,0,0,0,.22,0l.16-.06.12-.07.08,0a.13.13,0,0,1,.09,0l.12.16a.8.8,0,0,1-.17.15,1,1,0,0,1-.21.1.9.9,0,0,1-.22.06l-.22,0a1.06,1.06,0,0,1-.4-.08.79.79,0,0,1-.31-.2,1,1,0,0,1-.21-.35,1.33,1.33,0,0,1-.07-.47,1.23,1.23,0,0,1,.06-.39,1,1,0,0,1,.2-.32,1,1,0,0,1,.3-.22,1,1,0,0,1,.41-.08.93.93,0,0,1,.34.06,1.12,1.12,0,0,1,.28.18.79.79,0,0,1,.18.29,1.23,1.23,0,0,1,.07.39.24.24,0,0,1,0,.14s0,0-.08,0Zm1-.26a.71.71,0,0,0,0-.21.51.51,0,0,0-.09-.16.58.58,0,0,0-.15-.11.66.66,0,0,0-.21,0,.51.51,0,0,0-.37.13.67.67,0,0,0-.16.38Z"/><path d="M53.93,47.62l0,0h0l-.08,0-.09,0-.13-.05-.17,0-.14,0a.28.28,0,0,0-.11.05.28.28,0,0,0-.07.09.17.17,0,0,0,0,.1.17.17,0,0,0,0,.12l.11.08a.85.85,0,0,0,.17.06l.18.06.19.08a1,1,0,0,1,.17.1.42.42,0,0,1,.11.15.46.46,0,0,1,.05.21.63.63,0,0,1-.06.27.51.51,0,0,1-.15.21.74.74,0,0,1-.25.14,1.16,1.16,0,0,1-.34,0l-.2,0-.19,0-.17-.08-.13-.1.1-.17a.08.08,0,0,1,0,0l.07,0a.13.13,0,0,1,.08,0l.1.06.13.06.2,0,.16,0,.12-.06a.21.21,0,0,0,.06-.1.19.19,0,0,0,0-.1.17.17,0,0,0,0-.13.48.48,0,0,0-.11-.09l-.17-.06-.19-.06L53,48.31a.44.44,0,0,1-.16-.1.61.61,0,0,1-.12-.16.52.52,0,0,1-.05-.23.59.59,0,0,1,.05-.23.55.55,0,0,1,.15-.19.74.74,0,0,1,.23-.14,1,1,0,0,1,.32,0,1.17,1.17,0,0,1,.38.07.75.75,0,0,1,.28.18Z"/><path d="M56,46.63a.2.2,0,0,1,0,.11.28.28,0,0,1-.15.15.23.23,0,0,1-.11,0,.2.2,0,0,1-.11,0,.15.15,0,0,1-.09-.06.24.24,0,0,1-.06-.09.22.22,0,0,1,0-.22.28.28,0,0,1,.15-.15.2.2,0,0,1,.11,0,.23.23,0,0,1,.11,0l.09.06a.15.15,0,0,1,.06.09A.2.2,0,0,1,56,46.63Zm-.07.62v2h-.43v-2Z"/><path d="M56.85,47.52a.86.86,0,0,1,.14-.13.54.54,0,0,1,.15-.09.49.49,0,0,1,.17-.06.58.58,0,0,1,.19,0,.73.73,0,0,1,.3.06.65.65,0,0,1,.21.16.7.7,0,0,1,.13.24,1.07,1.07,0,0,1,0,.32v1.3h-.43V48a.44.44,0,0,0-.1-.32.34.34,0,0,0-.29-.12.59.59,0,0,0-.26.07.76.76,0,0,0-.23.18v1.49h-.43v-2h.26a.1.1,0,0,1,.11.08Z"/><path d="M61.42,46.33v3h-.26a.1.1,0,0,1-.11-.09L61,49a1,1,0,0,1-.29.24.7.7,0,0,1-.38.1.78.78,0,0,1-.31-.07.91.91,0,0,1-.24-.2,1,1,0,0,1-.16-.33,2,2,0,0,1-.05-.45,1.42,1.42,0,0,1,.06-.42,1.2,1.2,0,0,1,.17-.34.85.85,0,0,1,.28-.22.87.87,0,0,1,.37-.08.85.85,0,0,1,.3,0,.94.94,0,0,1,.23.16V46.33ZM61,47.75a.49.49,0,0,0-.2-.16.59.59,0,0,0-.23-.05.49.49,0,0,0-.4.18,1,1,0,0,0-.14.55,1.45,1.45,0,0,0,0,.32.63.63,0,0,0,.09.22.29.29,0,0,0,.15.12.41.41,0,0,0,.19,0,.54.54,0,0,0,.29-.07,1,1,0,0,0,.22-.2Z"/><path d="M62.82,47.21a1,1,0,0,1,.41.08.89.89,0,0,1,.32.21,1.08,1.08,0,0,1,.2.33,1.44,1.44,0,0,1,.06.43,1.46,1.46,0,0,1-.06.44,1.08,1.08,0,0,1-.2.33.89.89,0,0,1-.32.21,1,1,0,0,1-.41.08,1.11,1.11,0,0,1-.41-.08A1,1,0,0,1,62.1,49a.91.91,0,0,1-.2-.33,1.2,1.2,0,0,1-.07-.44,1.18,1.18,0,0,1,.07-.43.91.91,0,0,1,.2-.33,1,1,0,0,1,.31-.21A1.11,1.11,0,0,1,62.82,47.21Zm0,1.77a.47.47,0,0,0,.42-.19.85.85,0,0,0,.13-.52.88.88,0,0,0-.13-.53.47.47,0,0,0-.42-.19.47.47,0,0,0-.41.19.88.88,0,0,0-.14.53.85.85,0,0,0,.14.52A.47.47,0,0,0,62.82,49Z"/><path d="M65.67,47.65l0,0h0l-.07,0-.09-.06-.12,0a.5.5,0,0,0-.18,0,.49.49,0,0,0-.25.05.39.39,0,0,0-.17.14.55.55,0,0,0-.11.23,1.19,1.19,0,0,0,0,.29,1.37,1.37,0,0,0,0,.31.82.82,0,0,0,.11.23.75.75,0,0,0,.17.14.59.59,0,0,0,.23,0,.56.56,0,0,0,.2,0l.13-.06.09-.07a.13.13,0,0,1,.08,0,.1.1,0,0,1,.08,0l.12.16a.75.75,0,0,1-.16.15.69.69,0,0,1-.19.1.83.83,0,0,1-.21.06l-.22,0a.85.85,0,0,1-.35-.08.72.72,0,0,1-.29-.2.89.89,0,0,1-.19-.33,1.25,1.25,0,0,1-.07-.45,1.42,1.42,0,0,1,.06-.42.92.92,0,0,1,.19-.33,1,1,0,0,1,.3-.22,1.08,1.08,0,0,1,.42-.08.93.93,0,0,1,.39.08.75.75,0,0,1,.3.2Z"/><path d="M67.87,47.25v2h-.26a.1.1,0,0,1-.11-.09l0-.19a.8.8,0,0,1-.13.13.6.6,0,0,1-.15.09L67,49.3l-.2,0a.65.65,0,0,1-.29-.06.6.6,0,0,1-.22-.16.62.62,0,0,1-.13-.24,1.08,1.08,0,0,1,0-.32V47.25h.43v1.29a.49.49,0,0,0,.09.32.34.34,0,0,0,.29.12.52.52,0,0,0,.27-.07.76.76,0,0,0,.23-.18V47.25Z"/><path d="M68.39,49.29v-2h.26c.06,0,.1,0,.11.08l0,.18a.68.68,0,0,1,.12-.12A.38.38,0,0,1,69,47.3a.35.35,0,0,1,.14-.06.51.51,0,0,1,.17,0,.58.58,0,0,1,.19,0l.14.08a.69.69,0,0,1,.11.13l.08.16a.54.54,0,0,1,.11-.18.61.61,0,0,1,.16-.12.48.48,0,0,1,.18-.07.64.64,0,0,1,.2,0,.68.68,0,0,1,.29.06.48.48,0,0,1,.22.15.55.55,0,0,1,.13.24,1.14,1.14,0,0,1,0,.33v1.3h-.43V48a.52.52,0,0,0-.09-.33.38.38,0,0,0-.28-.11.37.37,0,0,0-.15,0,.57.57,0,0,0-.13.08.32.32,0,0,0-.08.14A.53.53,0,0,0,70,48v1.3h-.43V48a.57.57,0,0,0-.08-.33.35.35,0,0,0-.27-.11.36.36,0,0,0-.22.07.7.7,0,0,0-.19.16v1.51Z"/><path d="M72,48.3a1.13,1.13,0,0,0,.06.3.53.53,0,0,0,.12.21.46.46,0,0,0,.18.13,1,1,0,0,0,.24,0,.69.69,0,0,0,.22,0l.16-.06.12-.07.09,0a.12.12,0,0,1,.08,0l.12.16a.8.8,0,0,1-.17.15,1,1,0,0,1-.21.1.79.79,0,0,1-.22.06l-.22,0a1,1,0,0,1-.39-.08.76.76,0,0,1-.32-.2,1,1,0,0,1-.21-.35,1.33,1.33,0,0,1-.07-.47,1,1,0,0,1,.07-.39.8.8,0,0,1,.19-.32,1,1,0,0,1,.3-.22,1.07,1.07,0,0,1,.41-.08.93.93,0,0,1,.34.06,1.12,1.12,0,0,1,.28.18.79.79,0,0,1,.18.29,1.23,1.23,0,0,1,.07.39.24.24,0,0,1,0,.14s0,0-.08,0Zm1-.26a.71.71,0,0,0,0-.21.51.51,0,0,0-.09-.16.58.58,0,0,0-.15-.11.66.66,0,0,0-.21,0,.48.48,0,0,0-.36.13A.61.61,0,0,0,72,48Z"/><path d="M74.24,47.52l.13-.13a.83.83,0,0,1,.16-.09.49.49,0,0,1,.17-.06.58.58,0,0,1,.19,0,.73.73,0,0,1,.3.06.65.65,0,0,1,.21.16.7.7,0,0,1,.13.24,1.07,1.07,0,0,1,0,.32v1.3h-.43V48a.44.44,0,0,0-.1-.32.34.34,0,0,0-.29-.12.59.59,0,0,0-.26.07.76.76,0,0,0-.23.18v1.49h-.43v-2h.26a.1.1,0,0,1,.11.08Z"/><path d="M76.71,49.32a.53.53,0,0,1-.39-.14.54.54,0,0,1-.14-.41V47.58H76a.08.08,0,0,1-.07,0,.12.12,0,0,1,0-.07v-.17l.33,0,.09-.59,0-.06.06,0h.22v.67h.56v.31h-.56v1.16a.26.26,0,0,0,0,.17.2.2,0,0,0,.15.06l.08,0,.07,0,0,0h0a.05.05,0,0,1,0,0l.13.21a.73.73,0,0,1-.23.13A.92.92,0,0,1,76.71,49.32Z"/><path d="M78.73,47.62l0,0h0l-.08,0-.09,0-.13-.05-.17,0-.14,0a.28.28,0,0,0-.11.05.28.28,0,0,0-.07.09.17.17,0,0,0,0,.1.17.17,0,0,0,0,.12L78,48a.85.85,0,0,0,.17.06l.18.06.19.08a1,1,0,0,1,.17.1.42.42,0,0,1,.11.15.46.46,0,0,1,0,.21.63.63,0,0,1-.06.27.51.51,0,0,1-.15.21.74.74,0,0,1-.25.14,1.16,1.16,0,0,1-.34,0l-.2,0-.19,0-.17-.08-.13-.1.1-.17a.08.08,0,0,1,0,0l.07,0a.13.13,0,0,1,.08,0l.1.06.13.06.19,0,.17,0,.12-.06a.21.21,0,0,0,.06-.1.19.19,0,0,0,0-.1.17.17,0,0,0,0-.13.48.48,0,0,0-.11-.09l-.17-.06-.19-.06-.19-.08a.44.44,0,0,1-.16-.1.61.61,0,0,1-.12-.16.52.52,0,0,1,0-.23.59.59,0,0,1,0-.23.55.55,0,0,1,.15-.19.74.74,0,0,1,.23-.14,1,1,0,0,1,.32,0,1.17,1.17,0,0,1,.38.07.75.75,0,0,1,.28.18Z"/><path d="M79.2,49a.2.2,0,0,1,0-.11.26.26,0,0,1,0-.09.24.24,0,0,1,.09-.06l.11,0,.11,0a.24.24,0,0,1,.09.06l.06.09a.36.36,0,0,1,0,.11.43.43,0,0,1,0,.11l-.06.09-.09,0a.2.2,0,0,1-.11,0,.23.23,0,0,1-.11,0l-.09,0a.41.41,0,0,1,0-.09A.22.22,0,0,1,79.2,49Z"/></svg>