<svg id="Layer_1" data-name="Layer 1" xmlns="http://www.w3.org/2000/svg" viewBox="0 0 432.07 144.07"><defs><style>.cls-1{fill:#10a7e3;}.cls-2{fill:#93dbf7;}.cls-10,.cls-3,.cls-5{fill:#fff;}.cls-12,.cls-3{stroke:#10a7e3;}.cls-11,.cls-12,.cls-13,.cls-3,.cls-4{stroke-miterlimit:10;}.cls-3{stroke-width:0.5px;}.cls-4,.cls-8{fill:#14bf96;}.cls-4{stroke:#00e5ae;}.cls-5{font-size:7.06px;font-family:Monaco, Monaco;}.cls-6{font-family:Lato-Bold, Lato;font-weight:700;letter-spacing:0em;}.cls-7{font-size:7px;}.cls-9{fill:#0a2a66;}.cls-11,.cls-12,.cls-13{fill:none;stroke-linecap:round;}.cls-11{stroke:#37c5fd;}.cls-11,.cls-13{stroke-width:4.44px;}.cls-12{stroke-width:7.22px;}.cls-13{stroke:#c3eefe;}.cls-14{fill:#37c5fd;}.cls-15{fill:#65d0fa;}</style></defs><title>desktop -&amp;gt; router</title><path class="cls-1" d="M417.94,69.34h0l0-7.12H329.43v6.83a44.26,44.26,0,1,0,88.51.29Z"/><circle class="cls-2" cx="373.59" cy="60.07" r="44.35"/><circle class="cls-2" cx="373.59" cy="60.07" r="19.21"/><polygon class="cls-3" points="372.11 55.45 378.74 44.45 372.81 46.41 365.03 22.93 358.15 25.21 365.94 48.69 360.22 50.59 372.11 55.45"/><polygon class="cls-3" points="388.91 94.65 381.13 71.17 386.85 69.27 374.96 64.41 368.32 75.41 374.25 73.44 382.03 96.93 388.91 94.65"/><polygon class="cls-3" points="409.41 48.23 398.41 41.59 400.38 47.52 376.89 55.3 379.17 62.18 402.66 54.4 404.55 60.12 409.41 48.23"/><polygon class="cls-3" points="367.86 57.94 344.37 65.72 342.48 60 337.62 71.89 348.62 78.53 346.65 72.59 370.14 64.81 367.86 57.94"/><path d="M359.54,132.24H358a.7.7,0,0,1-.65-.35l-2-3a.63.63,0,0,0-.25-.24.81.81,0,0,0-.39-.08H354v3.68H352.2v-9.4h2.87a5.66,5.66,0,0,1,1.64.2,3,3,0,0,1,1.12.55,2.1,2.1,0,0,1,.65.86,2.75,2.75,0,0,1,.21,1.09,2.93,2.93,0,0,1-.14.9,2.69,2.69,0,0,1-.4.77,2.87,2.87,0,0,1-.65.6,3.55,3.55,0,0,1-.88.41,1.66,1.66,0,0,1,.31.23,1.72,1.72,0,0,1,.26.32Zm-4.5-4.93a2.75,2.75,0,0,0,.86-.12,1.72,1.72,0,0,0,.61-.35,1.3,1.3,0,0,0,.35-.51,1.76,1.76,0,0,0,.12-.66,1.35,1.35,0,0,0-.47-1.1,2.31,2.31,0,0,0-1.44-.38H354v3.12Z"/><path d="M362.82,125.46a3.61,3.61,0,0,1,1.35.24,2.87,2.87,0,0,1,1,.69,3,3,0,0,1,.67,1.08,4.19,4.19,0,0,1,.23,1.42,4.29,4.29,0,0,1-.23,1.43,3,3,0,0,1-.67,1.08,2.87,2.87,0,0,1-1,.69,3.61,3.61,0,0,1-1.35.24,3.65,3.65,0,0,1-1.35-.24,2.91,2.91,0,0,1-1.05-.69,3,3,0,0,1-.67-1.08,4,4,0,0,1-.24-1.43,4,4,0,0,1,.24-1.42,3,3,0,0,1,.67-1.08,2.91,2.91,0,0,1,1.05-.69A3.65,3.65,0,0,1,362.82,125.46Zm0,5.64a1.43,1.43,0,0,0,1.24-.56,3.56,3.56,0,0,0,0-3.28,1.41,1.41,0,0,0-1.24-.57,1.43,1.43,0,0,0-1.25.57,3.56,3.56,0,0,0,0,3.28A1.45,1.45,0,0,0,362.82,131.1Z"/><path d="M373.09,125.57v6.67h-1a.38.38,0,0,1-.4-.3l-.11-.53a3.41,3.41,0,0,1-.9.67,2.52,2.52,0,0,1-1.17.26,2.42,2.42,0,0,1-1-.18,2,2,0,0,1-.71-.53,2.28,2.28,0,0,1-.43-.8,3.31,3.31,0,0,1-.15-1v-4.24h1.61v4.24a1.41,1.41,0,0,0,.28.94,1.08,1.08,0,0,0,.85.34,1.73,1.73,0,0,0,.78-.19,2.67,2.67,0,0,0,.69-.51v-4.82Z"/><path d="M376.89,132.34a1.73,1.73,0,0,1-1.33-.49,1.9,1.9,0,0,1-.46-1.36v-3.72h-.69a.35.35,0,0,1-.22-.08.36.36,0,0,1-.09-.26v-.64l1.07-.17.34-1.82a.34.34,0,0,1,.12-.2.36.36,0,0,1,.24-.07h.83v2.1h1.78v1.14H376.7v3.61a.74.74,0,0,0,.15.49.52.52,0,0,0,.42.18.6.6,0,0,0,.25,0l.18-.07.13-.08a.27.27,0,0,1,.12,0,.18.18,0,0,1,.11,0,.36.36,0,0,1,.1.11l.48.78a2.49,2.49,0,0,1-.8.44A3,3,0,0,1,376.89,132.34Z"/><path d="M380.69,129.1a3.49,3.49,0,0,0,.18.89,1.81,1.81,0,0,0,.38.62,1.5,1.5,0,0,0,.56.36,2,2,0,0,0,.71.12,2.22,2.22,0,0,0,.67-.09,3.31,3.31,0,0,0,.49-.2l.38-.2a.58.58,0,0,1,.3-.09.32.32,0,0,1,.3.15l.46.58a2.7,2.7,0,0,1-.59.53,3.19,3.19,0,0,1-.7.33,3.12,3.12,0,0,1-.73.18,4.51,4.51,0,0,1-.72.05,3.45,3.45,0,0,1-1.3-.23,2.89,2.89,0,0,1-1-.68,3.08,3.08,0,0,1-.69-1.12,4.28,4.28,0,0,1-.26-1.54,3.82,3.82,0,0,1,.22-1.28,3,3,0,0,1,1.64-1.76,3.42,3.42,0,0,1,1.35-.26,3.15,3.15,0,0,1,1.16.21,2.57,2.57,0,0,1,.92.58,3,3,0,0,1,.6,1,3.67,3.67,0,0,1,.22,1.29,1.08,1.08,0,0,1-.08.49.33.33,0,0,1-.3.12Zm3.06-1a2.2,2.2,0,0,0-.08-.58,1.37,1.37,0,0,0-.27-.49,1.22,1.22,0,0,0-.44-.33,1.71,1.71,0,0,0-1.73.28,2,2,0,0,0-.51,1.12Z"/><path d="M387.91,126.72a3,3,0,0,1,.74-.93,1.6,1.6,0,0,1,1-.35,1.2,1.2,0,0,1,.74.21l-.1,1.2a.34.34,0,0,1-.1.16.22.22,0,0,1-.16,0l-.29,0-.38,0a1.16,1.16,0,0,0-.47.08,1.11,1.11,0,0,0-.38.22,2,2,0,0,0-.29.35,5.36,5.36,0,0,0-.24.48v4.11h-1.6v-6.67h.94a.53.53,0,0,1,.35.09.56.56,0,0,1,.13.31Z"/><rect class="cls-4" x="179.8" y="13.01" width="89.16" height="47.29" rx="4.42" ry="4.42"/><text class="cls-5" transform="translate(185.57 43.86)">FROM<tspan class="cls-6" x="16.94" y="0">:</tspan><tspan x="0" y="8.47">216.3.192.1</tspan></text><text class="cls-5" transform="translate(185.57 22.73)">TO:<tspan class="cls-7"><tspan x="0" y="8.4">91.198.174.192</tspan></tspan></text><rect class="cls-8" x="150.77" y="68.58" width="147.59" height="9.63"/><polygon class="cls-8" points="309.22 74.36 297.5 64.33 297.5 84.38 309.22 74.36"/><rect class="cls-9" x="2.34" y="2.16" width="130.44" height="130.44" rx="2.79" ry="2.79"/><rect class="cls-10" x="7.94" y="7.77" width="119.23" height="73.38"/><line class="cls-11" x1="40.37" y1="25.45" x2="55.32" y2="25.45"/><line class="cls-12" x1="30.63" y1="25.45" x2="30.63" y2="25.45"/><line class="cls-11" x1="40.37" y1="41.37" x2="55.32" y2="41.37"/><line class="cls-12" x1="30.63" y1="41.37" x2="30.63" y2="41.37"/><line class="cls-11" x1="40.37" y1="57.28" x2="55.32" y2="57.28"/><line class="cls-12" x1="30.63" y1="57.28" x2="30.63" y2="57.28"/><line class="cls-13" x1="64.28" y1="25.45" x2="106.27" y2="25.45"/><line class="cls-13" x1="64.28" y1="33.41" x2="97.06" y2="33.41"/><line class="cls-13" x1="64.28" y1="49.33" x2="97.06" y2="49.33"/><line class="cls-13" x1="64.28" y1="65.24" x2="97.06" y2="65.24"/><line class="cls-13" x1="64.28" y1="41.37" x2="106.27" y2="41.37"/><line class="cls-13" x1="64.28" y1="57.28" x2="106.27" y2="57.28"/><path class="cls-14" d="M2.34,81.14H132.78a0,0,0,0,1,0,0v56.64a4,4,0,0,1-4,4H6.34a4,4,0,0,1-4-4V81.14A0,0,0,0,1,2.34,81.14Z"/><rect class="cls-1" x="7.94" y="87.77" width="8.66" height="8.66" rx="1.11" ry="1.11"/><rect class="cls-1" x="19" y="87.77" width="8.66" height="8.66" rx="1.11" ry="1.11"/><rect class="cls-1" x="30.06" y="87.77" width="8.66" height="8.66" rx="1.11" ry="1.11"/><rect class="cls-1" x="41.11" y="87.77" width="8.66" height="8.66" rx="1.11" ry="1.11"/><rect class="cls-1" x="52.17" y="87.77" width="8.66" height="8.66" rx="1.11" ry="1.11"/><rect class="cls-1" x="63.23" y="87.77" width="8.66" height="8.66" rx="1.11" ry="1.11"/><rect class="cls-1" x="74.28" y="87.77" width="8.66" height="8.66" rx="1.11" ry="1.11"/><rect class="cls-1" x="85.34" y="87.77" width="8.66" height="8.66" rx="1.11" ry="1.11"/><rect class="cls-1" x="96.4" y="87.77" width="8.66" height="8.66" rx="1.11" ry="1.11"/><rect class="cls-1" x="107.46" y="87.77" width="8.66" height="8.66" rx="1.11" ry="1.11"/><rect class="cls-1" x="118.51" y="87.77" width="8.66" height="8.66" rx="1.11" ry="1.11"/><rect class="cls-1" x="19" y="99.49" width="8.66" height="8.66" rx="1.11" ry="1.11"/><rect class="cls-1" x="30.06" y="99.49" width="8.66" height="8.66" rx="1.11" ry="1.11"/><rect class="cls-1" x="41.11" y="99.49" width="8.66" height="8.66" rx="1.11" ry="1.11"/><rect class="cls-1" x="52.17" y="99.49" width="8.66" height="8.66" rx="1.11" ry="1.11"/><rect class="cls-1" x="63.23" y="99.49" width="8.66" height="8.66" rx="1.11" ry="1.11"/><rect class="cls-1" x="74.28" y="99.49" width="8.66" height="8.66" rx="1.11" ry="1.11"/><rect class="cls-1" x="85.34" y="99.49" width="8.66" height="8.66" rx="1.11" ry="1.11"/><rect class="cls-1" x="96.4" y="99.49" width="8.66" height="8.66" rx="1.11" ry="1.11"/><rect class="cls-1" x="107.46" y="99.49" width="8.66" height="8.66" rx="1.11" ry="1.11"/><rect class="cls-1" x="7.94" y="111.21" width="8.66" height="8.66" rx="1.11" ry="1.11"/><rect class="cls-1" x="19" y="111.21" width="8.66" height="8.66" rx="1.11" ry="1.11"/><rect class="cls-1" x="30.06" y="111.21" width="8.66" height="8.66" rx="1.11" ry="1.11"/><rect class="cls-1" x="41.11" y="111.21" width="8.66" height="8.66" rx="1.11" ry="1.11"/><rect class="cls-1" x="52.17" y="111.21" width="8.66" height="8.66" rx="1.11" ry="1.11"/><rect class="cls-1" x="63.23" y="111.21" width="8.66" height="8.66" rx="1.11" ry="1.11"/><rect class="cls-1" x="74.28" y="111.21" width="8.66" height="8.66" rx="1.11" ry="1.11"/><rect class="cls-1" x="85.34" y="111.21" width="8.66" height="8.66" rx="1.11" ry="1.11"/><rect class="cls-1" x="96.4" y="111.21" width="8.66" height="8.66" rx="1.11" ry="1.11"/><rect class="cls-1" x="107.46" y="111.21" width="8.66" height="8.66" rx="1.11" ry="1.11"/><rect class="cls-1" x="118.51" y="111.21" width="8.66" height="8.66" rx="1.11" ry="1.11"/><rect class="cls-1" x="43.1" y="111.21" width="48.92" height="8.66" rx="1.11" ry="1.11"/><rect class="cls-15" x="50.23" y="123.44" width="32.61" height="13.76" rx="2.29" ry="2.29"/></svg>