<svg id="Layer_1" data-name="Layer 1" xmlns="http://www.w3.org/2000/svg" width="577.62" height="177.67" viewBox="0 0 577.62 177.67"><defs><style>.cls-1{fill:#aac0c8;}.cls-10,.cls-11,.cls-12,.cls-15,.cls-2,.cls-4{fill:none;}.cls-2{stroke:#14bf96;}.cls-10,.cls-11,.cls-12,.cls-15,.cls-2,.cls-4,.cls-7{stroke-miterlimit:10;}.cls-2,.cls-4{stroke-width:2.62px;}.cls-3{fill:#14bf96;}.cls-4{stroke:#aac0c8;}.cls-5{fill:#10a7e3;}.cls-6{fill:#93dbf7;}.cls-7,.cls-9{fill:#fff;}.cls-11,.cls-7{stroke:#10a7e3;}.cls-7{stroke-width:0.38px;}.cls-8{fill:#0a2a66;}.cls-10{stroke:#37c5fd;}.cls-10,.cls-11,.cls-12,.cls-15,.cls-16{stroke-linecap:round;}.cls-10,.cls-12{stroke-width:2.61px;}.cls-11{stroke-width:4.24px;}.cls-12,.cls-15{stroke:#c3eefe;}.cls-13{fill:#37c5fd;}.cls-14{fill:#65d0fa;}.cls-15{stroke-width:2.61px;}.cls-16{fill:#00e5ae;stroke:#00e5ae;stroke-linejoin:round;stroke-width:0.88px;}</style></defs><title>routing</title><line class="cls-1" x1="428.61" y1="64.09" x2="485.05" y2="65.43"/><line class="cls-2" x1="428.61" y1="64.09" x2="476.74" y2="65.23"/><polygon class="cls-3" points="472.72 70.29 475.03 65.19 472.96 59.99 485.05 65.43 472.72 70.29"/><line class="cls-4" x1="422.27" y1="78.1" x2="367.03" y2="143.48"/><line class="cls-4" x1="355.33" y1="76.78" x2="355.33" y2="141.95"/><line class="cls-1" x1="365.31" y1="64.02" x2="405.15" y2="63.59"/><line class="cls-2" x1="365.31" y1="64.02" x2="398.41" y2="63.66"/><polygon class="cls-3" points="395.29 67.88 397.02 63.68 395.19 59.52 405.15 63.59 395.29 67.88"/><line class="cls-1" x1="296.45" y1="101.4" x2="335.5" y2="78.86"/><line class="cls-2" x1="296.45" y1="101.4" x2="329.66" y2="82.22"/><polygon class="cls-3" points="329.01 87.43 328.46 82.92 324.83 80.19 335.5 78.86 329.01 87.43"/><line class="cls-4" x1="231.04" y1="72.02" x2="275.67" y2="106.87"/><line class="cls-1" x1="230.89" y1="140.92" x2="264.83" y2="121.02"/><line class="cls-2" x1="230.89" y1="140.92" x2="259.02" y2="124.43"/><polygon class="cls-3" points="258.4 129.64 257.82 125.14 254.17 122.43 264.83 121.02 258.4 129.64"/><line class="cls-1" x1="154.75" y1="73.38" x2="199.69" y2="128.67"/><line class="cls-2" x1="154.75" y1="73.38" x2="195.44" y2="123.44"/><polygon class="cls-3" points="190.2 123.62 194.56 122.36 196.69 118.35 199.69 128.67 190.2 123.62"/><line class="cls-4" x1="352.47" y1="57.85" x2="287.27" y2="25.71"/><line class="cls-4" x1="272.69" y1="30.92" x2="230.18" y2="50.27"/><line class="cls-4" x1="160.59" y1="62.43" x2="210.42" y2="62.43"/><path class="cls-5" d="M169.36,65.32h0l0-3.69H123.61v3.54a22.88,22.88,0,1,0,45.75.15Z"/><circle class="cls-6" cx="146.43" cy="60.52" r="22.93"/><circle class="cls-6" cx="146.43" cy="60.52" r="9.93"/><polygon class="cls-7" points="145.66 58.13 149.1 52.45 146.03 53.47 142.01 41.33 138.45 42.5 142.47 54.64 139.52 55.62 145.66 58.13"/><polygon class="cls-7" points="154.35 78.4 150.33 66.26 153.29 65.28 147.14 62.77 143.71 68.45 146.77 67.44 150.8 79.58 154.35 78.4"/><polygon class="cls-7" points="164.95 54.4 159.26 50.97 160.28 54.04 148.14 58.06 149.32 61.61 161.46 57.59 162.44 60.55 164.95 54.4"/><polygon class="cls-7" points="143.47 59.42 131.33 63.44 130.35 60.49 127.84 66.63 133.52 70.06 132.51 67 144.65 62.98 143.47 59.42"/><rect class="cls-8" x="2.84" y="18.54" width="76.73" height="76.73" rx="1.64"/><rect class="cls-9" x="6.14" y="21.84" width="70.13" height="43.16"/><line class="cls-10" x1="25.22" y1="32.24" x2="34.01" y2="32.24"/><line class="cls-11" x1="19.49" y1="32.24" x2="19.49" y2="32.24"/><line class="cls-10" x1="25.22" y1="41.6" x2="34.01" y2="41.6"/><line class="cls-11" x1="19.49" y1="41.6" x2="19.49" y2="41.6"/><line class="cls-10" x1="25.22" y1="50.96" x2="34.01" y2="50.96"/><line class="cls-11" x1="19.49" y1="50.96" x2="19.49" y2="50.96"/><line class="cls-12" x1="39.28" y1="32.24" x2="63.97" y2="32.24"/><line class="cls-12" x1="39.28" y1="36.92" x2="58.56" y2="36.92"/><line class="cls-12" x1="39.28" y1="46.28" x2="58.56" y2="46.28"/><line class="cls-12" x1="39.28" y1="55.65" x2="58.56" y2="55.65"/><line class="cls-12" x1="39.28" y1="41.6" x2="63.97" y2="41.6"/><line class="cls-12" x1="39.28" y1="50.96" x2="63.97" y2="50.96"/><path class="cls-13" d="M2.84,65H79.57a0,0,0,0,1,0,0V98.31a2.35,2.35,0,0,1-2.35,2.35H5.2a2.35,2.35,0,0,1-2.35-2.35V65a0,0,0,0,1,0,0Z"/><rect class="cls-5" x="6.14" y="68.9" width="5.1" height="5.1" rx="0.65"/><rect class="cls-5" x="12.64" y="68.9" width="5.1" height="5.1" rx="0.65"/><rect class="cls-5" x="19.15" y="68.9" width="5.1" height="5.1" rx="0.65"/><rect class="cls-5" x="25.65" y="68.9" width="5.1" height="5.1" rx="0.65"/><rect class="cls-5" x="32.16" y="68.9" width="5.1" height="5.1" rx="0.65"/><rect class="cls-5" x="38.66" y="68.9" width="5.1" height="5.1" rx="0.65"/><rect class="cls-5" x="45.16" y="68.9" width="5.1" height="5.1" rx="0.65"/><rect class="cls-5" x="51.67" y="68.9" width="5.1" height="5.1" rx="0.65"/><rect class="cls-5" x="58.17" y="68.9" width="5.1" height="5.1" rx="0.65"/><rect class="cls-5" x="64.67" y="68.9" width="5.1" height="5.1" rx="0.65"/><rect class="cls-5" x="71.18" y="68.9" width="5.1" height="5.1" rx="0.65"/><rect class="cls-5" x="12.64" y="75.79" width="5.1" height="5.1" rx="0.65"/><rect class="cls-5" x="19.15" y="75.79" width="5.1" height="5.1" rx="0.65"/><rect class="cls-5" x="25.65" y="75.79" width="5.1" height="5.1" rx="0.65"/><rect class="cls-5" x="32.16" y="75.79" width="5.1" height="5.1" rx="0.65"/><rect class="cls-5" x="38.66" y="75.79" width="5.1" height="5.1" rx="0.65"/><rect class="cls-5" x="45.16" y="75.79" width="5.1" height="5.1" rx="0.65"/><rect class="cls-5" x="51.67" y="75.79" width="5.1" height="5.1" rx="0.65"/><rect class="cls-5" x="58.17" y="75.79" width="5.1" height="5.1" rx="0.65"/><rect class="cls-5" x="64.67" y="75.79" width="5.1" height="5.1" rx="0.65"/><rect class="cls-5" x="6.14" y="82.68" width="5.1" height="5.1" rx="0.65"/><rect class="cls-5" x="12.64" y="82.68" width="5.1" height="5.1" rx="0.65"/><rect class="cls-5" x="19.15" y="82.68" width="5.1" height="5.1" rx="0.65"/><rect class="cls-5" x="25.65" y="82.68" width="5.1" height="5.1" rx="0.65"/><rect class="cls-5" x="32.16" y="82.68" width="5.1" height="5.1" rx="0.65"/><rect class="cls-5" x="38.66" y="82.68" width="5.1" height="5.1" rx="0.65"/><rect class="cls-5" x="45.16" y="82.68" width="5.1" height="5.1" rx="0.65"/><rect class="cls-5" x="51.67" y="82.68" width="5.1" height="5.1" rx="0.65"/><rect class="cls-5" x="58.17" y="82.68" width="5.1" height="5.1" rx="0.65"/><rect class="cls-5" x="64.67" y="82.68" width="5.1" height="5.1" rx="0.65"/><rect class="cls-5" x="71.18" y="82.68" width="5.1" height="5.1" rx="0.65"/><rect class="cls-5" x="26.82" y="82.68" width="28.77" height="5.1" rx="0.65"/><rect class="cls-14" x="31.02" y="89.88" width="19.18" height="8.09" rx="1.35"/><path class="cls-5" d="M238.66,150.89h0l0-3.68H192.91v3.53a22.88,22.88,0,1,0,45.75.15Z"/><circle class="cls-6" cx="215.73" cy="146.1" r="22.93"/><circle class="cls-6" cx="215.73" cy="146.1" r="9.93"/><polygon class="cls-7" points="214.96 143.71 218.4 138.03 215.33 139.04 211.31 126.9 207.75 128.08 211.77 140.22 208.82 141.2 214.96 143.71"/><polygon class="cls-7" points="223.65 163.97 219.63 151.84 222.59 150.85 216.44 148.34 213.01 154.03 216.07 153.01 220.09 165.15 223.65 163.97"/><polygon class="cls-7" points="234.25 139.98 228.56 136.55 229.58 139.61 217.44 143.63 218.62 147.19 230.76 143.17 231.74 146.12 234.25 139.98"/><polygon class="cls-7" points="212.77 145 200.63 149.02 199.65 146.06 197.14 152.21 202.82 155.64 201.81 152.57 213.95 148.55 212.77 145"/><path class="cls-5" d="M240.37,64.6h0l0-3.69H194.61v3.54a22.88,22.88,0,1,0,45.76.15Z"/><circle class="cls-6" cx="217.44" cy="59.8" r="22.93"/><circle class="cls-6" cx="217.44" cy="59.8" r="9.93"/><polygon class="cls-7" points="216.67 57.41 220.1 51.73 217.04 52.74 213.01 40.6 209.46 41.78 213.48 53.92 210.53 54.9 216.67 57.41"/><polygon class="cls-7" points="225.36 77.68 221.34 65.54 224.29 64.56 218.15 62.05 214.71 67.73 217.78 66.72 221.8 78.86 225.36 77.68"/><polygon class="cls-7" points="235.96 53.68 230.27 50.25 231.29 53.32 219.15 57.34 220.32 60.89 232.46 56.87 233.44 59.83 235.96 53.68"/><polygon class="cls-7" points="214.47 58.7 202.34 62.72 201.36 59.77 198.84 65.91 204.53 69.34 203.51 66.28 215.65 62.26 214.47 58.7"/><path class="cls-5" d="M308.53,111.67h0l0-3.68H262.78v3.53a22.88,22.88,0,1,0,45.75.15Z"/><circle class="cls-6" cx="285.6" cy="106.87" r="22.93"/><circle class="cls-6" cx="285.6" cy="106.87" r="9.93"/><polygon class="cls-7" points="284.84 104.48 288.27 98.8 285.2 99.82 281.18 87.68 277.62 88.85 281.65 100.99 278.69 101.97 284.84 104.48"/><polygon class="cls-7" points="293.52 124.75 289.5 112.61 292.46 111.63 286.31 109.12 282.88 114.8 285.94 113.79 289.97 125.93 293.52 124.75"/><polygon class="cls-7" points="304.12 100.75 298.44 97.32 299.45 100.39 287.31 104.41 288.49 107.96 300.63 103.94 301.61 106.9 304.12 100.75"/><polygon class="cls-7" points="282.64 105.77 270.5 109.79 269.52 106.84 267.01 112.98 272.69 116.42 271.68 113.35 283.82 109.33 282.64 105.77"/><path class="cls-5" d="M309.49,28.26h0l0-3.68H263.73v3.53a22.88,22.88,0,1,0,45.76.15Z"/><circle class="cls-6" cx="286.56" cy="23.47" r="22.93"/><circle class="cls-6" cx="286.56" cy="23.47" r="9.93"/><polygon class="cls-7" points="285.79 21.08 289.22 15.4 286.16 16.41 282.14 4.27 278.58 5.45 282.6 17.59 279.65 18.57 285.79 21.08"/><polygon class="cls-7" points="294.48 41.34 290.46 29.2 293.41 28.23 287.27 25.71 283.83 31.4 286.9 30.38 290.92 42.52 294.48 41.34"/><polygon class="cls-7" points="305.08 17.35 299.39 13.92 300.41 16.98 288.27 21 289.44 24.56 301.58 20.54 302.56 23.49 305.08 17.35"/><polygon class="cls-7" points="283.6 22.37 271.46 26.39 270.48 23.43 267.96 29.58 273.65 33.01 272.63 29.94 284.77 25.92 283.6 22.37"/><path class="cls-5" d="M377.65,154.81h0l0-3.68H331.9v3.54a22.88,22.88,0,1,0,45.75.14Z"/><circle class="cls-6" cx="354.73" cy="150.02" r="22.93"/><circle class="cls-6" cx="354.73" cy="150.02" r="9.93"/><polygon class="cls-7" points="353.96 147.63 357.39 141.95 354.32 142.96 350.3 130.82 346.75 132 350.77 144.14 347.81 145.12 353.96 147.63"/><polygon class="cls-7" points="362.64 167.9 358.62 155.76 361.58 154.78 355.43 152.27 352 157.95 355.07 156.94 359.09 169.07 362.64 167.9"/><polygon class="cls-7" points="373.24 143.9 367.56 140.47 368.57 143.53 356.43 147.56 357.61 151.11 369.75 147.09 370.73 150.05 373.24 143.9"/><polygon class="cls-7" points="351.76 148.92 339.62 152.94 338.64 149.99 336.13 156.13 341.81 159.56 340.8 156.5 352.94 152.47 351.76 148.92"/><path class="cls-5" d="M379.36,68.52h0l0-3.68H333.61v3.53a22.88,22.88,0,1,0,45.75.15Z"/><circle class="cls-6" cx="356.43" cy="63.73" r="22.93"/><circle class="cls-6" cx="356.43" cy="63.73" r="9.93"/><polygon class="cls-7" points="355.66 61.34 359.1 55.65 356.03 56.67 352.01 44.53 348.45 45.7 352.47 57.84 349.52 58.82 355.66 61.34"/><polygon class="cls-7" points="364.35 81.6 360.33 69.46 363.28 68.48 357.14 65.97 353.71 71.66 356.77 70.64 360.79 82.78 364.35 81.6"/><polygon class="cls-7" points="374.95 57.6 369.26 54.17 370.28 57.24 358.14 61.26 359.32 64.82 371.46 60.79 372.44 63.75 374.95 57.6"/><polygon class="cls-7" points="353.47 62.62 341.33 66.65 340.35 63.69 337.84 69.84 343.52 73.27 342.5 70.2 354.64 66.18 353.47 62.62"/><path class="cls-5" d="M450.9,67.27h0l0-3.68H405.15v3.53a22.88,22.88,0,1,0,45.75.15Z"/><circle class="cls-6" cx="427.97" cy="62.48" r="22.93"/><circle class="cls-6" cx="427.97" cy="62.48" r="9.93"/><polygon class="cls-7" points="427.2 60.09 430.64 54.4 427.57 55.42 423.55 43.28 419.99 44.46 424.01 56.6 421.06 57.58 427.2 60.09"/><polygon class="cls-7" points="435.89 80.35 431.87 68.21 434.82 67.23 428.68 64.72 425.25 70.41 428.31 69.39 432.33 81.53 435.89 80.35"/><polygon class="cls-7" points="446.49 56.36 440.81 52.92 441.82 55.99 429.68 60.01 430.86 63.57 443 59.55 443.98 62.5 446.49 56.36"/><polygon class="cls-7" points="425.01 61.38 412.87 65.4 411.89 62.44 409.38 68.59 415.06 72.02 414.05 68.95 426.19 64.93 425.01 61.38"/><path d="M3.58,4.07h0L1.83,5,1.58,4,3.73,2.83H4.86v9.85H3.58Z"/><path d="M15,7.65c0,3.34-1.25,5.19-3.43,5.19-1.92,0-3.23-1.8-3.26-5.06s1.43-5.12,3.43-5.12S15,4.51,15,7.65ZM9.65,7.8c0,2.56.79,4,2,4s2-1.59,2-4.1-.62-4-2-4C10.5,3.69,9.65,5.12,9.65,7.8Z"/><path d="M21.84,3.77a4.55,4.55,0,0,0-1,.06,4,4,0,0,0-3.42,3.5h0a3,3,0,0,1,5.35,2,3.29,3.29,0,0,1-3.27,3.47c-2.11,0-3.49-1.63-3.49-4.19a6.19,6.19,0,0,1,1.67-4.44,5.32,5.32,0,0,1,3.15-1.46,6.43,6.43,0,0,1,1-.07Zm-.38,5.68a2,2,0,0,0-2-2.26A2.21,2.21,0,0,0,17.52,8.4a1.14,1.14,0,0,0-.15.59c0,1.63.77,2.82,2.17,2.82C20.69,11.81,21.46,10.86,21.46,9.45Z"/><path d="M24.09,11.89a.91.91,0,1,1,1.81,0,.89.89,0,0,1-.91.95A.9.9,0,0,1,24.09,11.89Z"/><path d="M27.12,12.68v-.82l1.05-1c2.51-2.39,3.65-3.66,3.67-5.15a1.76,1.76,0,0,0-2-1.92,3.34,3.34,0,0,0-2.09.83l-.42-.94a4.29,4.29,0,0,1,2.78-1,2.77,2.77,0,0,1,3,2.86c0,1.82-1.32,3.29-3.4,5.29l-.78.73v0h4.42v1.11Z"/><path d="M39,12.68V10H34.44V9.12l4.39-6.29h1.44V9h1.38v1H40.27v2.69ZM39,9V5.66c0-.51,0-1,.05-1.54H39c-.3.57-.54,1-.81,1.45L35.79,8.92V9Z"/><path d="M45.56,4.07h0L43.81,5l-.25-1,2.15-1.15h1.13v9.85H45.56Z"/><path d="M50.54,11.89a.9.9,0,0,1,.91-1,.89.89,0,0,1,.89,1,.9.9,0,1,1-1.8,0Z"/><path d="M53.56,12.68v-.82l1-1c2.52-2.39,3.65-3.66,3.67-5.15a1.76,1.76,0,0,0-2-1.92,3.37,3.37,0,0,0-2.09.83l-.42-.94a4.29,4.29,0,0,1,2.78-1,2.77,2.77,0,0,1,3,2.86c0,1.82-1.32,3.29-3.39,5.29l-.79.73v0h4.42v1.11Z"/><path d="M67.73,2.83v.88l-4.29,9H62.06L66.33,4v0H61.51V2.83Z"/><path d="M69.21,11.89a.9.9,0,0,1,.91-1,.89.89,0,0,1,.89,1,.9.9,0,1,1-1.8,0Z"/><path d="M72.24,12.68v-.82l1-1C75.8,8.45,76.93,7.18,77,5.69a1.76,1.76,0,0,0-2-1.92,3.37,3.37,0,0,0-2.1.83l-.42-.94a4.29,4.29,0,0,1,2.79-1,2.77,2.77,0,0,1,3,2.86c0,1.82-1.32,3.29-3.39,5.29l-.79.73v0h4.43v1.11Z"/><path d="M84.13,12.68V10H79.55V9.12L84,2.83h1.43V9h1.38v1H85.38v2.69Zm0-3.73V5.66c0-.51,0-1,0-1.54h0c-.31.57-.55,1-.82,1.45L80.9,8.92V9Z"/><path d="M91.9,12.68V10H87.32V9.12l4.39-6.29h1.44V9h1.38v1H93.15v2.69ZM91.9,9V5.66c0-.51,0-1,0-1.54h0c-.31.57-.55,1-.82,1.45L88.67,8.92V9Z"/><rect class="cls-8" x="493.55" y="18.94" width="82.49" height="76.36" rx="1.7"/><rect class="cls-9" x="497.1" y="22.22" width="75.4" height="42.95"/><path class="cls-13" d="M493.55,65.17H576a0,0,0,0,1,0,0V98.23a2.43,2.43,0,0,1-2.43,2.43H496a2.43,2.43,0,0,1-2.43-2.43V65.17A0,0,0,0,1,493.55,65.17Z"/><rect class="cls-5" x="497.1" y="69.05" width="5.48" height="5.07" rx="0.68"/><rect class="cls-5" x="504.09" y="69.05" width="5.48" height="5.07" rx="0.68"/><rect class="cls-5" x="511.08" y="69.05" width="5.48" height="5.07" rx="0.68"/><rect class="cls-5" x="518.07" y="69.05" width="5.48" height="5.07" rx="0.68"/><rect class="cls-5" x="525.07" y="69.05" width="5.48" height="5.07" rx="0.68"/><rect class="cls-5" x="532.06" y="69.05" width="5.48" height="5.07" rx="0.68"/><rect class="cls-5" x="539.05" y="69.05" width="5.48" height="5.07" rx="0.68"/><rect class="cls-5" x="546.04" y="69.05" width="5.48" height="5.07" rx="0.68"/><rect class="cls-5" x="553.04" y="69.05" width="5.48" height="5.07" rx="0.68"/><rect class="cls-5" x="560.03" y="69.05" width="5.48" height="5.07" rx="0.68"/><rect class="cls-5" x="567.02" y="69.05" width="5.48" height="5.07" rx="0.68"/><rect class="cls-5" x="504.09" y="75.91" width="5.48" height="5.07" rx="0.68"/><rect class="cls-5" x="511.08" y="75.91" width="5.48" height="5.07" rx="0.68"/><rect class="cls-5" x="518.07" y="75.91" width="5.48" height="5.07" rx="0.68"/><rect class="cls-5" x="525.07" y="75.91" width="5.48" height="5.07" rx="0.68"/><rect class="cls-5" x="532.06" y="75.91" width="5.48" height="5.07" rx="0.68"/><rect class="cls-5" x="539.05" y="75.91" width="5.48" height="5.07" rx="0.68"/><rect class="cls-5" x="546.04" y="75.91" width="5.48" height="5.07" rx="0.68"/><rect class="cls-5" x="553.04" y="75.91" width="5.48" height="5.07" rx="0.68"/><rect class="cls-5" x="560.03" y="75.91" width="5.48" height="5.07" rx="0.68"/><rect class="cls-5" x="497.1" y="82.77" width="5.48" height="5.07" rx="0.68"/><rect class="cls-5" x="504.09" y="82.77" width="5.48" height="5.07" rx="0.68"/><rect class="cls-5" x="511.08" y="82.77" width="5.48" height="5.07" rx="0.68"/><rect class="cls-5" x="518.07" y="82.77" width="5.48" height="5.07" rx="0.68"/><rect class="cls-5" x="525.07" y="82.77" width="5.48" height="5.07" rx="0.68"/><rect class="cls-5" x="532.06" y="82.77" width="5.48" height="5.07" rx="0.68"/><rect class="cls-5" x="539.05" y="82.77" width="5.48" height="5.07" rx="0.68"/><rect class="cls-5" x="546.04" y="82.77" width="5.48" height="5.07" rx="0.68"/><rect class="cls-5" x="553.04" y="82.77" width="5.48" height="5.07" rx="0.68"/><rect class="cls-5" x="560.03" y="82.77" width="5.48" height="5.07" rx="0.68"/><rect class="cls-5" x="567.02" y="82.77" width="5.48" height="5.07" rx="0.68"/><rect class="cls-5" x="519.33" y="82.77" width="30.93" height="5.07" rx="0.68"/><rect class="cls-14" x="523.84" y="89.93" width="20.62" height="8.05" rx="1.39"/><line class="cls-15" x1="537.93" y1="29.45" x2="563.78" y2="29.45"/><line class="cls-15" x1="537.93" y1="34.75" x2="558.11" y2="34.75"/><line class="cls-15" x1="537.93" y1="45.34" x2="558.11" y2="45.34"/><line class="cls-15" x1="537.93" y1="55.94" x2="558.11" y2="55.94"/><line class="cls-15" x1="537.93" y1="40.05" x2="563.78" y2="40.05"/><line class="cls-15" x1="537.93" y1="50.64" x2="563.78" y2="50.64"/><rect class="cls-16" x="504.53" y="27.32" width="27.23" height="32.41"/><line class="cls-1" x1="85.86" y1="64.54" x2="123.51" y2="65.43"/><line class="cls-2" x1="85.86" y1="64.54" x2="115.21" y2="65.23"/><polygon class="cls-3" points="111.18 70.29 113.49 65.19 111.42 59.99 123.51 65.43 111.18 70.29"/><path d="M494.12,4.08h0L492.38,5l-.25-1,2.14-1.15h1.14v9.84h-1.29Z"/><path d="M499.32,11.15a4.46,4.46,0,0,0,2.18.62c1.71,0,2.24-1.09,2.22-1.91,0-1.38-1.25-2-2.54-2h-.74v-1h.74c1,0,2.19-.5,2.19-1.66,0-.79-.5-1.48-1.72-1.48a3.54,3.54,0,0,0-2,.65l-.35-1a4.69,4.69,0,0,1,2.57-.76c1.94,0,2.82,1.15,2.82,2.35a2.43,2.43,0,0,1-1.82,2.31v0a2.56,2.56,0,0,1,2.2,2.53c0,1.57-1.23,2.95-3.59,2.95a5.13,5.13,0,0,1-2.56-.66Z"/><path d="M507.08,11.15a4.5,4.5,0,0,0,2.18.62c1.71,0,2.24-1.09,2.23-1.91,0-1.38-1.26-2-2.54-2h-.75v-1H509c1,0,2.19-.5,2.19-1.66,0-.79-.5-1.48-1.73-1.48a3.54,3.54,0,0,0-2,.65l-.35-1a4.64,4.64,0,0,1,2.57-.76c1.94,0,2.82,1.15,2.82,2.35a2.45,2.45,0,0,1-1.82,2.31v0a2.57,2.57,0,0,1,2.2,2.53c0,1.57-1.23,2.95-3.59,2.95a5.07,5.07,0,0,1-2.56-.66Z"/><path d="M514.64,11.89a.89.89,0,0,1,.91-1,.88.88,0,0,1,.89,1,.9.9,0,1,1-1.8,0Z"/><path d="M517.55,10.18a2.82,2.82,0,0,1,2-2.64l0,0a2.44,2.44,0,0,1-1.56-2.21A2.76,2.76,0,0,1,521,2.67c1.9,0,2.86,1.2,2.86,2.42a2.5,2.5,0,0,1-1.62,2.3v.05a2.73,2.73,0,0,1,2,2.54c0,1.71-1.47,2.86-3.35,2.86C518.79,12.84,517.55,11.62,517.55,10.18Zm5.29-.06c0-1.2-.83-1.77-2.16-2.15a2.14,2.14,0,0,0-1.77,2,1.81,1.81,0,0,0,2,1.87A1.77,1.77,0,0,0,522.84,10.12ZM519.18,5.2c0,1,.74,1.51,1.88,1.81a1.94,1.94,0,0,0,1.5-1.78,1.53,1.53,0,0,0-1.67-1.61A1.57,1.57,0,0,0,519.18,5.2Z"/><path d="M525.75,11.15a4.5,4.5,0,0,0,2.18.62c1.71,0,2.24-1.09,2.23-1.91,0-1.38-1.26-2-2.55-2h-.74v-1h.74c1,0,2.2-.5,2.2-1.66,0-.79-.5-1.48-1.73-1.48a3.6,3.6,0,0,0-2,.65l-.34-1a4.64,4.64,0,0,1,2.57-.76c1.94,0,2.81,1.15,2.81,2.35a2.44,2.44,0,0,1-1.81,2.31v0a2.56,2.56,0,0,1,2.19,2.53c0,1.57-1.22,2.95-3.58,2.95a5.07,5.07,0,0,1-2.56-.66Z"/><path d="M533.31,11.89a.9.9,0,1,1,1.8,0,.9.9,0,1,1-1.8,0Z"/><path d="M539.23,4.08h0L537.48,5l-.25-1,2.15-1.15h1.13v9.84h-1.28Z"/><path d="M544,10.18a2.82,2.82,0,0,1,1.95-2.64v0a2.44,2.44,0,0,1-1.56-2.21,2.75,2.75,0,0,1,3-2.62c1.91,0,2.86,1.2,2.86,2.42a2.5,2.5,0,0,1-1.62,2.3v.05a2.72,2.72,0,0,1,2,2.54c0,1.71-1.46,2.86-3.34,2.86C545.22,12.84,544,11.62,544,10.18Zm5.3-.06c0-1.2-.84-1.77-2.17-2.15a2.14,2.14,0,0,0-1.77,2,1.82,1.82,0,0,0,2,1.87A1.78,1.78,0,0,0,549.28,10.12ZM545.61,5.2c0,1,.75,1.51,1.88,1.81A1.93,1.93,0,0,0,549,5.23a1.53,1.53,0,0,0-1.67-1.61A1.57,1.57,0,0,0,545.61,5.2Z"/><path d="M552.64,11.74a5.22,5.22,0,0,0,1.07-.05,3.64,3.64,0,0,0,2.06-.95,4.3,4.3,0,0,0,1.3-2.62h0a2.88,2.88,0,0,1-2.32,1.06,2.84,2.84,0,0,1-2.9-3,3.37,3.37,0,0,1,3.36-3.5c2,0,3.25,1.64,3.25,4.15a6.23,6.23,0,0,1-1.69,4.61,4.9,4.9,0,0,1-2.86,1.32,6.37,6.37,0,0,1-1.23.08Zm.48-5.66A1.9,1.9,0,0,0,555,8.17a2.18,2.18,0,0,0,1.93-1,.89.89,0,0,0,.12-.49c0-1.68-.62-3-2-3C553.93,3.68,553.12,4.68,553.12,6.08Z"/><path d="M559.74,11.89a.89.89,0,0,1,.91-1,.88.88,0,0,1,.89,1,.9.9,0,1,1-1.8,0Z"/><path d="M568.38,3.78a4.55,4.55,0,0,0-1,.06A4,4,0,0,0,564,7.33h0a3,3,0,0,1,5.34,2.05,3.28,3.28,0,0,1-3.27,3.46c-2.1,0-3.48-1.63-3.48-4.19a6.19,6.19,0,0,1,1.67-4.44,5.32,5.32,0,0,1,3.14-1.45,6.43,6.43,0,0,1,1-.07ZM568,9.45a2,2,0,0,0-2-2.25,2.18,2.18,0,0,0-1.91,1.21,1.14,1.14,0,0,0-.15.59c0,1.62.77,2.81,2.16,2.81C567.23,11.81,568,10.86,568,9.45Z"/><path d="M577.07,7.65c0,3.35-1.24,5.19-3.42,5.19-1.92,0-3.22-1.8-3.25-5s1.42-5.12,3.42-5.12S577.07,4.52,577.07,7.65Zm-5.34.15c0,2.56.79,4,2,4s2-1.59,2-4.1-.62-4-2-4C572.58,3.7,571.73,5.12,571.73,7.8Z"/></svg>