<svg id="Layer_1" data-name="Layer 1" xmlns="http://www.w3.org/2000/svg" width="287.88" height="347.79" viewBox="0 0 287.88 347.79"><defs><style>.cls-1{fill:#fff3c2;}.cls-2{fill:#ccfbf0;}.cls-3{fill:#c3eefe;}.cls-4{fill:#e2cfe8;}.cls-5{fill:#fff;}</style></defs><title>protocol stack UDP</title><rect class="cls-1" width="287.88" height="76.95"/><rect class="cls-2" y="90.28" width="285.97" height="76.95"/><rect class="cls-3" y="180.56" width="287.09" height="76.95"/><rect class="cls-4" y="270.84" width="286.59" height="76.95"/><path d="M12.26,30.4l-1.09,3.3H9.77l3.57-10.5H15l3.58,10.5H17.11L16,30.4Zm3.45-1.06-1-3c-.23-.68-.39-1.31-.55-1.91h0c-.15.62-.32,1.26-.53,1.9l-1,3Z"/><path d="M20,28.62c0-1,0-1.75-.06-2.46h1.23l.06,1.29h0A3,3,0,0,1,24,26c1.82,0,3.19,1.54,3.19,3.83,0,2.71-1.65,4-3.43,4a2.67,2.67,0,0,1-2.32-1.18h0v4.09H20Zm1.35,2a3.2,3.2,0,0,0,.06.56,2.12,2.12,0,0,0,2.06,1.6c1.45,0,2.29-1.18,2.29-2.91,0-1.51-.79-2.8-2.24-2.8a2.18,2.18,0,0,0-2.07,1.7,2.05,2.05,0,0,0-.1.56Z"/><path d="M28.87,28.62c0-1,0-1.75-.06-2.46H30l.06,1.29h0A3,3,0,0,1,32.81,26c1.82,0,3.2,1.54,3.2,3.83,0,2.71-1.66,4-3.43,4a2.65,2.65,0,0,1-2.32-1.18h0v4.09H28.87Zm1.36,2a3.2,3.2,0,0,0,.06.56,2.11,2.11,0,0,0,2.05,1.6c1.45,0,2.29-1.18,2.29-2.91,0-1.51-.79-2.8-2.24-2.8a2.19,2.19,0,0,0-2.07,1.7,2.05,2.05,0,0,0-.09.56Z"/><path d="M37.73,22.64H39.1V33.7H37.73Z"/><path d="M42.94,24a.85.85,0,0,1-1.7,0,.84.84,0,0,1,.86-.86A.82.82,0,0,1,42.94,24ZM41.41,33.7V26.16h1.37V33.7Z"/><path d="M50.43,33.42a5.18,5.18,0,0,1-2.17.43A3.58,3.58,0,0,1,44.51,30a3.83,3.83,0,0,1,4.05-4,4.52,4.52,0,0,1,1.9.39l-.31,1.06a3.15,3.15,0,0,0-1.59-.36,2.61,2.61,0,0,0-2.66,2.85,2.58,2.58,0,0,0,2.61,2.82,4,4,0,0,0,1.69-.37Z"/><path d="M56.21,33.7l-.11-1h-.05a2.81,2.81,0,0,1-2.3,1.12,2.15,2.15,0,0,1-2.31-2.17c0-1.82,1.62-2.82,4.54-2.8v-.16A1.56,1.56,0,0,0,54.26,27a3.77,3.77,0,0,0-2,.56l-.31-.9A4.6,4.6,0,0,1,54.46,26c2.31,0,2.87,1.57,2.87,3.08v2.82a10,10,0,0,0,.13,1.81ZM56,29.85c-1.5,0-3.2.23-3.2,1.7a1.21,1.21,0,0,0,1.3,1.31,1.89,1.89,0,0,0,1.82-1.26,1.36,1.36,0,0,0,.08-.44Z"/><path d="M61.13,24v2.17h2v1h-2v4.07c0,.93.27,1.46,1,1.46a2.89,2.89,0,0,0,.79-.09l.07,1a3.41,3.41,0,0,1-1.22.18,1.91,1.91,0,0,1-1.48-.57,2.82,2.82,0,0,1-.53-2V27.2H58.62v-1h1.17V24.35Z"/><path d="M66.16,24a.8.8,0,0,1-.87.84.82.82,0,0,1-.83-.84.84.84,0,0,1,.86-.86A.81.81,0,0,1,66.16,24ZM64.64,33.7V26.16H66V33.7Z"/><path d="M75.1,29.87a3.68,3.68,0,0,1-3.75,4A3.58,3.58,0,0,1,67.74,30a3.68,3.68,0,0,1,3.73-4A3.57,3.57,0,0,1,75.1,29.87Zm-6,.07c0,1.66.95,2.9,2.29,2.9s2.29-1.23,2.29-2.93c0-1.28-.64-2.9-2.26-2.9S69.12,28.51,69.12,29.94Z"/><path d="M76.83,28.2c0-.78,0-1.42-.06-2H78l.07,1.24h0A2.8,2.8,0,0,1,80.59,26c1,0,2.66.62,2.66,3.21v4.5H81.88V29.35c0-1.21-.45-2.23-1.74-2.23a1.94,1.94,0,0,0-1.84,1.41,1.74,1.74,0,0,0-.1.63V33.7H76.83Z"/><path d="M32.43,41.33H33.8V52.39H32.43Z"/><path d="M40.28,52.39l-.11-1h0a2.83,2.83,0,0,1-2.31,1.12,2.15,2.15,0,0,1-2.31-2.16c0-1.83,1.62-2.82,4.54-2.81v-.15a1.56,1.56,0,0,0-1.72-1.75,3.77,3.77,0,0,0-2,.56l-.31-.9a4.64,4.64,0,0,1,2.48-.67c2.3,0,2.86,1.57,2.86,3.08v2.82a9.92,9.92,0,0,0,.13,1.81Zm-.2-3.85c-1.5,0-3.2.24-3.2,1.7a1.22,1.22,0,0,0,1.3,1.31A1.87,1.87,0,0,0,40,50.29a1.36,1.36,0,0,0,.08-.44Z"/><path d="M44,44.85l1.65,4.46c.17.5.36,1.09.48,1.54h0c.14-.45.3-1,.49-1.57l1.49-4.43h1.45l-2.06,5.38c-1,2.58-1.65,3.91-2.58,4.72a3.68,3.68,0,0,1-1.68.88l-.35-1.15a3.58,3.58,0,0,0,1.2-.67,4.08,4.08,0,0,0,1.16-1.53,1,1,0,0,0,.11-.32,1.33,1.33,0,0,0-.1-.36l-2.79-6.95Z"/><path d="M51.43,48.87A2.43,2.43,0,0,0,54,51.49a5,5,0,0,0,2.09-.39l.23,1a6.06,6.06,0,0,1-2.51.47,3.5,3.5,0,0,1-3.7-3.8c0-2.28,1.34-4.07,3.53-4.07,2.46,0,3.12,2.16,3.12,3.55a4.34,4.34,0,0,1-.05.64Zm4-1a2,2,0,0,0-1.9-2.23,2.28,2.28,0,0,0-2.1,2.23Z"/><path d="M58.48,47.2c0-.88,0-1.65-.07-2.35h1.2l0,1.48h.06a2.27,2.27,0,0,1,2.09-1.65,1.15,1.15,0,0,1,.39,0V46a2.12,2.12,0,0,0-.47-.05,1.93,1.93,0,0,0-1.84,1.76,4.1,4.1,0,0,0-.06.64v4H58.48Z"/><path d="M18.84,114.63H15.65v-1.15h7.77v1.15H20.21V124H18.84Z"/><path d="M23.84,118.79c0-.89,0-1.65-.06-2.35H25l0,1.48h.07a2.25,2.25,0,0,1,2.08-1.65,1.51,1.51,0,0,1,.39,0v1.3a2.09,2.09,0,0,0-.46,0,1.91,1.91,0,0,0-1.84,1.76,4,4,0,0,0-.07.64v4H23.84Z"/><path d="M33,124l-.11-1h-.05a2.81,2.81,0,0,1-2.3,1.12A2.15,2.15,0,0,1,28.26,122c0-1.83,1.62-2.82,4.54-2.81V119a1.56,1.56,0,0,0-1.72-1.75,3.77,3.77,0,0,0-2,.56l-.31-.9a4.64,4.64,0,0,1,2.48-.67c2.3,0,2.86,1.57,2.86,3.08v2.82a9.92,9.92,0,0,0,.13,1.81Zm-.2-3.85c-1.5,0-3.2.24-3.2,1.7a1.22,1.22,0,0,0,1.3,1.31,1.87,1.87,0,0,0,1.82-1.26,1.36,1.36,0,0,0,.08-.44Z"/><path d="M36.36,118.48c0-.78,0-1.42-.06-2h1.22l.07,1.25h0a2.75,2.75,0,0,1,2.49-1.42c1,0,2.66.62,2.66,3.21V124H41.41v-4.35c0-1.21-.45-2.22-1.74-2.22a1.93,1.93,0,0,0-1.84,1.4,2,2,0,0,0-.1.64V124H36.36Z"/><path d="M44.82,122.58a3.65,3.65,0,0,0,1.81.54c1,0,1.46-.5,1.46-1.12s-.39-1-1.4-1.39c-1.35-.48-2-1.23-2-2.13a2.33,2.33,0,0,1,2.6-2.21,3.75,3.75,0,0,1,1.85.47l-.34,1a3,3,0,0,0-1.54-.43c-.81,0-1.26.46-1.26,1s.45.91,1.43,1.28c1.31.5,2,1.15,2,2.28,0,1.32-1,2.26-2.82,2.26a4.31,4.31,0,0,1-2.12-.52Z"/><path d="M51.18,118.9c0-1,0-1.74-.06-2.46h1.23l.06,1.29h0a3,3,0,0,1,2.68-1.46c1.82,0,3.19,1.54,3.19,3.83,0,2.71-1.65,4.05-3.42,4.05A2.66,2.66,0,0,1,52.56,123h0v4.09H51.18Zm1.35,2a2.45,2.45,0,0,0,.07.56,2.12,2.12,0,0,0,2,1.61c1.45,0,2.29-1.19,2.29-2.92,0-1.51-.79-2.8-2.24-2.8a2.18,2.18,0,0,0-2.07,1.7,2.05,2.05,0,0,0-.1.56Z"/><path d="M66.87,120.15a3.69,3.69,0,0,1-3.76,4,3.58,3.58,0,0,1-3.61-3.88,3.68,3.68,0,0,1,3.74-4A3.57,3.57,0,0,1,66.87,120.15Zm-6,.08c0,1.65.95,2.89,2.29,2.89s2.29-1.23,2.29-2.93c0-1.27-.64-2.89-2.26-2.89S60.88,118.79,60.88,120.23Z"/><path d="M68.59,118.79c0-.89,0-1.65-.06-2.35h1.2l0,1.48h.06a2.26,2.26,0,0,1,2.09-1.65,1.61,1.61,0,0,1,.39,0v1.3a2.12,2.12,0,0,0-.47,0A1.92,1.92,0,0,0,70,119.32,4.1,4.1,0,0,0,70,120v4H68.59Z"/><path d="M75.71,114.27v2.17h2v1h-2v4.07c0,.93.27,1.46,1,1.46a3,3,0,0,0,.8-.09l.06,1a3.37,3.37,0,0,1-1.22.19,1.92,1.92,0,0,1-1.48-.58,2.8,2.8,0,0,1-.53-2v-4.12H73.2v-1h1.17v-1.81Z"/><path d="M32.44,131.61h1.37v11.06H32.44Z"/><path d="M40.29,142.67l-.11-.95h0a2.81,2.81,0,0,1-2.3,1.12,2.15,2.15,0,0,1-2.31-2.16c0-1.82,1.62-2.82,4.54-2.81v-.15A1.57,1.57,0,0,0,38.34,136a3.77,3.77,0,0,0-2,.56l-.31-.9a4.69,4.69,0,0,1,2.47-.67c2.31,0,2.87,1.57,2.87,3.09v2.82a9.88,9.88,0,0,0,.13,1.8Zm-.2-3.85c-1.5,0-3.2.24-3.2,1.7a1.21,1.21,0,0,0,1.3,1.31A1.87,1.87,0,0,0,40,140.57a1.36,1.36,0,0,0,.08-.44Z"/><path d="M44,135.13l1.65,4.46c.17.5.36,1.09.48,1.54h0c.14-.45.3-1,.48-1.57l1.5-4.43h1.45l-2.06,5.38c-1,2.58-1.65,3.91-2.58,4.72a3.81,3.81,0,0,1-1.69.89L42.92,145a3.5,3.5,0,0,0,1.2-.67,4,4,0,0,0,1.15-1.52.84.84,0,0,0,.11-.33,1.22,1.22,0,0,0-.09-.36l-2.79-7Z"/><path d="M51.44,139.15A2.42,2.42,0,0,0,54,141.77a5,5,0,0,0,2.09-.39l.23,1a6.06,6.06,0,0,1-2.51.47,3.51,3.51,0,0,1-3.71-3.8c0-2.28,1.34-4.07,3.54-4.07,2.46,0,3.12,2.17,3.12,3.55a6.41,6.41,0,0,1,0,.64Zm4-1a2,2,0,0,0-1.9-2.23,2.27,2.27,0,0,0-2.1,2.23Z"/><path d="M58.48,137.48c0-.88,0-1.65-.06-2.35h1.2l.05,1.48h.06A2.26,2.26,0,0,1,61.82,135a1.6,1.6,0,0,1,.39,0v1.29a2.12,2.12,0,0,0-.47-.05A1.93,1.93,0,0,0,59.9,138a4.1,4.1,0,0,0-.06.64v4H58.48Z"/><path d="M20.13,214.26v-10.5h1.48L25,209.07a30,30,0,0,1,1.88,3.41h0c-.12-1.4-.15-2.68-.15-4.32v-4.39H28v10.5H26.64l-3.33-5.33a34.62,34.62,0,0,1-2-3.5H21.3c.08,1.33.11,2.59.11,4.33v4.49Z"/><path d="M31.1,210.74a2.42,2.42,0,0,0,2.58,2.62,4.9,4.9,0,0,0,2.09-.39l.24,1a6.1,6.1,0,0,1-2.51.47,3.51,3.51,0,0,1-3.71-3.8c0-2.28,1.34-4.07,3.54-4.07,2.46,0,3.11,2.16,3.11,3.55a4.34,4.34,0,0,1,0,.64Zm4-1a2,2,0,0,0-1.9-2.23,2.28,2.28,0,0,0-2.11,2.23Z"/><path d="M39.79,204.55v2.17h2v1h-2v4.07c0,.94.26,1.46,1,1.46a2.89,2.89,0,0,0,.79-.09l.06,1a3.27,3.27,0,0,1-1.21.19,1.92,1.92,0,0,1-1.48-.58,2.77,2.77,0,0,1-.53-2v-4.12H37.28v-1h1.17v-1.81Z"/><path d="M44,206.72l1,3.83c.22.84.42,1.62.56,2.4h.05c.17-.76.42-1.57.66-2.38l1.24-3.85h1.15l1.17,3.77c.28.9.5,1.7.67,2.46h0a23.53,23.53,0,0,1,.58-2.44l1.07-3.79h1.36l-2.43,7.54H49.85l-1.15-3.6c-.26-.84-.48-1.59-.67-2.47h0a22,22,0,0,1-.69,2.49l-1.21,3.58H44.85l-2.27-7.54Z"/><path d="M61.57,210.43a3.68,3.68,0,0,1-3.76,4,3.58,3.58,0,0,1-3.61-3.88,3.68,3.68,0,0,1,3.74-4A3.57,3.57,0,0,1,61.57,210.43Zm-6,.08c0,1.65.95,2.89,2.29,2.89s2.29-1.23,2.29-2.92c0-1.28-.64-2.9-2.26-2.9S55.59,209.07,55.59,210.51Z"/><path d="M63.3,209.07c0-.88,0-1.65-.07-2.35h1.2l0,1.48h.06a2.27,2.27,0,0,1,2.09-1.65,1.15,1.15,0,0,1,.39,0v1.29a2.12,2.12,0,0,0-.47,0,1.93,1.93,0,0,0-1.84,1.76,4.1,4.1,0,0,0-.06.64v4H63.3Z"/><path d="M69.81,210.18h0c.19-.27.45-.59.67-.86l2.21-2.6h1.65l-2.91,3.1,3.32,4.44H73.11l-2.6-3.61-.7.78v2.83H68.45V203.2h1.36Z"/><path d="M32.35,221.89h1.37V233H32.35Z"/><path d="M40.2,233l-.11-.95h0a2.79,2.79,0,0,1-2.31,1.12,2.14,2.14,0,0,1-2.3-2.16c0-1.82,1.62-2.82,4.53-2.8V228a1.56,1.56,0,0,0-1.71-1.75,3.7,3.7,0,0,0-2,.57l-.31-.91a4.73,4.73,0,0,1,2.48-.67c2.3,0,2.87,1.58,2.87,3.09v2.82a10.93,10.93,0,0,0,.12,1.8Zm-.2-3.84c-1.5,0-3.19.23-3.19,1.69a1.21,1.21,0,0,0,1.29,1.31,1.86,1.86,0,0,0,1.82-1.26,1.36,1.36,0,0,0,.08-.44Z"/><path d="M43.91,225.41l1.65,4.46c.17.5.36,1.09.49,1.54h0c.14-.45.29-1,.48-1.57l1.49-4.43H49.5l-2,5.38c-1,2.58-1.65,3.91-2.59,4.72a3.84,3.84,0,0,1-1.68.89l-.34-1.16a3.59,3.59,0,0,0,1.2-.67,4.1,4.1,0,0,0,1.15-1.52.62.62,0,0,0,0-.69l-2.78-7Z"/><path d="M51.36,229.43a2.41,2.41,0,0,0,2.58,2.62,4.93,4.93,0,0,0,2.09-.39l.23,1a6,6,0,0,1-2.5.47,3.5,3.5,0,0,1-3.71-3.8c0-2.28,1.34-4.07,3.54-4.07,2.46,0,3.11,2.17,3.11,3.55a4.34,4.34,0,0,1-.05.64Zm4-1a2,2,0,0,0-1.9-2.23,2.28,2.28,0,0,0-2.11,2.23Z"/><path d="M58.4,227.77c0-.89,0-1.66-.06-2.36h1.2l0,1.48h.06a2.27,2.27,0,0,1,2.09-1.65,1.48,1.48,0,0,1,.39,0v1.29a2.17,2.17,0,0,0-.47,0,1.91,1.91,0,0,0-1.83,1.76,3,3,0,0,0-.07.63v4H58.4Z"/><path d="M34.57,294h1.36v9.36h4.48v1.14H34.57Z"/><path d="M43.4,294.88a.8.8,0,0,1-.87.84.81.81,0,0,1-.82-.84.82.82,0,0,1,.85-.85A.81.81,0,0,1,43.4,294.88Zm-1.52,9.66V297h1.37v7.54Z"/><path d="M45.52,299c0-.78,0-1.42-.06-2h1.21l.08,1.25h0a2.78,2.78,0,0,1,2.5-1.42c1,0,2.66.62,2.66,3.21v4.5H50.57V300.2c0-1.22-.45-2.23-1.75-2.23a1.94,1.94,0,0,0-1.83,1.4,1.76,1.76,0,0,0-.1.64v4.53H45.52Z"/><path d="M55.52,300.46h0c.19-.26.45-.59.67-.86l2.22-2.6h1.65l-2.92,3.1,3.32,4.44H58.83l-2.61-3.61-.7.78v2.83H54.17V293.48h1.35Z"/><path d="M32.43,312.17H33.8v11.06H32.43Z"/><path d="M40.28,323.23l-.11-1h-.05a2.79,2.79,0,0,1-2.3,1.13,2.15,2.15,0,0,1-2.31-2.17c0-1.82,1.62-2.82,4.54-2.8v-.16a1.55,1.55,0,0,0-1.72-1.74,3.68,3.68,0,0,0-2,.56l-.31-.91a4.73,4.73,0,0,1,2.48-.67c2.3,0,2.86,1.58,2.86,3.09v2.82a9.88,9.88,0,0,0,.13,1.8Zm-.2-3.84c-1.5,0-3.2.23-3.2,1.69a1.22,1.22,0,0,0,1.3,1.31A1.87,1.87,0,0,0,40,321.13a1.31,1.31,0,0,0,.08-.43Z"/><path d="M44,315.69l1.65,4.46c.17.5.36,1.09.48,1.54h0c.14-.45.3-1,.49-1.57l1.49-4.43h1.45l-2.06,5.38c-1,2.59-1.65,3.91-2.58,4.72a3.7,3.7,0,0,1-1.69.89l-.34-1.16a3.34,3.34,0,0,0,1.2-.67,4,4,0,0,0,1.15-1.52.84.84,0,0,0,.11-.33,1.22,1.22,0,0,0-.09-.36l-2.79-6.95Z"/><path d="M51.43,319.71A2.42,2.42,0,0,0,54,322.33a5,5,0,0,0,2.09-.39l.23,1a6.06,6.06,0,0,1-2.51.47,3.5,3.5,0,0,1-3.7-3.8c0-2.28,1.33-4.07,3.53-4.07,2.46,0,3.12,2.17,3.12,3.56a4.18,4.18,0,0,1-.05.63Zm4-1a2,2,0,0,0-1.9-2.23,2.28,2.28,0,0,0-2.1,2.23Z"/><path d="M58.48,318.05c0-.89,0-1.65-.07-2.36h1.2l0,1.48h.06a2.26,2.26,0,0,1,2.09-1.65,1.6,1.6,0,0,1,.39.05v1.29a2.17,2.17,0,0,0-.47,0,1.93,1.93,0,0,0-1.84,1.76,3.87,3.87,0,0,0-.06.64v4H58.48Z"/><rect class="cls-5" x="94.04" y="103.25" width="178.67" height="55.74"/><path d="M166.66,122.29v8.78c0,3.33,1.48,4.73,3.46,4.73,2.2,0,3.6-1.45,3.6-4.73v-8.78h1.94v8.65c0,4.56-2.4,6.43-5.61,6.43-3,0-5.32-1.74-5.32-6.34v-8.74Z"/><path d="M179,122.49a28.25,28.25,0,0,1,4.07-.31c2.75,0,4.71.64,6,1.85a6.84,6.84,0,0,1,2.09,5.33,7.81,7.81,0,0,1-2.14,5.76c-1.38,1.39-3.67,2.14-6.55,2.14a30.81,30.81,0,0,1-3.48-.18Zm1.92,13.12a13,13,0,0,0,1.93.11c4.09,0,6.32-2.29,6.32-6.3,0-3.5-2-5.72-6-5.72a10.76,10.76,0,0,0-2.24.2Z"/><path d="M193.63,122.47a22.7,22.7,0,0,1,3.68-.29,6,6,0,0,1,4.15,1.24,4,4,0,0,1,1.3,3.1,4.36,4.36,0,0,1-1.14,3.17,6.12,6.12,0,0,1-4.53,1.62,6.56,6.56,0,0,1-1.54-.13v5.94h-1.92Zm1.92,7.15a6.35,6.35,0,0,0,1.58.15c2.31,0,3.72-1.12,3.72-3.16s-1.39-2.91-3.5-2.91a7.75,7.75,0,0,0-1.8.16Z"/><rect class="cls-5" x="96.53" y="191.17" width="175.57" height="55.74"/><path d="M178.47,210.66v14.83h-1.91V210.66Z"/><path d="M181.82,210.84a22.46,22.46,0,0,1,3.67-.29,6.06,6.06,0,0,1,4.16,1.24,4,4,0,0,1,1.3,3.1,4.37,4.37,0,0,1-1.15,3.17,6.16,6.16,0,0,1-4.53,1.62,6.6,6.6,0,0,1-1.54-.13v5.94h-1.91Zm1.91,7.15a6.49,6.49,0,0,0,1.59.15c2.31,0,3.72-1.12,3.72-3.16s-1.39-2.91-3.5-2.91a7.86,7.86,0,0,0-1.81.16Z"/><rect class="cls-5" x="94.02" y="13.58" width="178.1" height="55.74"/><path d="M164.92,32a27,27,0,0,1,4.08-.31c2.75,0,4.7.64,6,1.85a6.82,6.82,0,0,1,2.09,5.32A7.89,7.89,0,0,1,175,44.59c-1.39,1.38-3.68,2.13-6.56,2.13a31,31,0,0,1-3.48-.18Zm1.92,13.11a11.87,11.87,0,0,0,1.94.11c4.09,0,6.31-2.29,6.31-6.29,0-3.5-2-5.72-6-5.72a11,11,0,0,0-2.24.19Z"/><path d="M179.58,46.59V31.76h2.09l4.75,7.5a41.35,41.35,0,0,1,2.66,4.82l0,0c-.18-2-.22-3.79-.22-6.1v-6.2h1.8V46.59h-1.94l-4.7-7.53a46.08,46.08,0,0,1-2.78-5l-.06,0c.11,1.87.15,3.66.15,6.12v6.34Z"/><path d="M193.79,44.26a6.86,6.86,0,0,0,3.43,1c2,0,3.1-1,3.1-2.53s-.79-2.17-2.79-2.94c-2.42-.86-3.92-2.12-3.92-4.21,0-2.31,1.92-4,4.8-4a6.8,6.8,0,0,1,3.28.72l-.53,1.56a6,6,0,0,0-2.82-.7c-2,0-2.79,1.21-2.79,2.22,0,1.39.9,2.07,2.95,2.86,2.5,1,3.78,2.18,3.78,4.36s-1.69,4.27-5.19,4.27a7.69,7.69,0,0,1-3.79-1Z"/><rect class="cls-5" x="99.91" y="280.05" width="173.19" height="55.74"/><path d="M138.43,313.58l-3.07-12.14H137l1.44,6.14c.36,1.52.69,3,.9,4.2h0c.2-1.21.57-2.65,1-4.21l1.62-6.13h1.64l1.47,6.16c.35,1.44.67,2.88.85,4.16h0c.25-1.33.59-2.68,1-4.19l1.6-6.13h1.6l-3.44,12.14H145.1l-1.53-6.32a38.57,38.57,0,0,1-.8-4h0a39.07,39.07,0,0,1-.94,4l-1.73,6.32Z"/><path d="M153.1,302.42a.93.93,0,0,1-1,1,.94.94,0,0,1-1-1,1,1,0,0,1,1-1A.93.93,0,0,1,153.1,302.42Zm-1.76,11.16v-8.71h1.58v8.71Z"/><path d="M155.55,307.58c0-1,0-1.9-.07-2.71h1.39l0,1.71H157a2.62,2.62,0,0,1,2.41-1.91,2,2,0,0,1,.45.05v1.5a2.12,2.12,0,0,0-.54-.06,2.23,2.23,0,0,0-2.12,2,3.93,3.93,0,0,0-.07.73v4.65h-1.57Z"/><path d="M162.14,309.51a2.79,2.79,0,0,0,3,3,5.75,5.75,0,0,0,2.41-.45l.27,1.13a7.09,7.09,0,0,1-2.9.54,4,4,0,0,1-4.28-4.39c0-2.63,1.54-4.7,4.08-4.7,2.85,0,3.6,2.5,3.6,4.1a5.67,5.67,0,0,1-.05.74Zm4.64-1.13a2.25,2.25,0,0,0-2.19-2.58,2.63,2.63,0,0,0-2.43,2.58Z"/><path d="M170.27,300.8h1.59v12.78h-1.59Z"/><path d="M175.4,309.51a2.8,2.8,0,0,0,3,3,5.8,5.8,0,0,0,2.42-.45l.27,1.13a7.13,7.13,0,0,1-2.9.54,4,4,0,0,1-4.29-4.39c0-2.63,1.55-4.7,4.09-4.7,2.84,0,3.6,2.5,3.6,4.1a5.67,5.67,0,0,1-.05.74Zm4.65-1.13a2.26,2.26,0,0,0-2.2-2.58,2.63,2.63,0,0,0-2.43,2.58Z"/><path d="M183.32,312a4.13,4.13,0,0,0,2.09.63c1.15,0,1.7-.58,1.7-1.3s-.45-1.17-1.63-1.6c-1.56-.56-2.3-1.42-2.3-2.47,0-1.4,1.13-2.55,3-2.55a4.34,4.34,0,0,1,2.14.54l-.4,1.15a3.34,3.34,0,0,0-1.78-.5c-.94,0-1.46.54-1.46,1.18s.52,1,1.66,1.48c1.51.58,2.29,1.33,2.29,2.63,0,1.53-1.19,2.61-3.26,2.61a5,5,0,0,1-2.45-.59Z"/><path d="M190.45,312a4.13,4.13,0,0,0,2.09.63c1.15,0,1.69-.58,1.69-1.3s-.45-1.17-1.62-1.6c-1.56-.56-2.3-1.42-2.3-2.47,0-1.4,1.13-2.55,3-2.55a4.35,4.35,0,0,1,2.15.54l-.4,1.15a3.34,3.34,0,0,0-1.78-.5c-.94,0-1.46.54-1.46,1.18s.52,1,1.66,1.48c1.51.58,2.28,1.33,2.28,2.63,0,1.53-1.18,2.61-3.26,2.61a4.94,4.94,0,0,1-2.44-.59Z"/><path d="M201.67,301.44h1.56v10.83h5.19v1.31h-6.75Z"/><path d="M212.12,309.76l-1.26,3.82h-1.62l4.13-12.14h1.89l4.14,12.14h-1.68l-1.29-3.82Zm4-1.22-1.18-3.49c-.28-.8-.46-1.52-.64-2.22h0c-.18.72-.38,1.46-.61,2.2l-1.19,3.51Z"/><path d="M221.18,313.58V301.44h1.71l3.89,6.14a36,36,0,0,1,2.18,3.95l0,0c-.14-1.62-.18-3.1-.18-5v-5.08h1.48v12.14H228.7l-3.85-6.16a36.92,36.92,0,0,1-2.27-4.05l-.05,0c.09,1.53.12,3,.12,5v5.19Z"/></svg>