<svg id="Layer_1" data-name="Layer 1" xmlns="http://www.w3.org/2000/svg" width="472.66" height="167.76" viewBox="0 0 472.66 167.76"><defs><style>.cls-1{fill:#0a2a66;}.cls-2{fill:#fff;}.cls-3{fill:#37c5fd;}.cls-4{fill:#10a7e3;}.cls-5{fill:#65d0fa;}.cls-6{fill:#e6ecef;}.cls-7{fill:#789ba8;}.cls-8{isolation:isolate;}.cls-13,.cls-9{fill:none;}.cls-10{fill:#333;}.cls-11{fill:#ccfbf0;}.cls-12,.cls-14{fill:#14bf96;}.cls-12{stroke:#00e5ae;stroke-width:1.95px;}.cls-12,.cls-13{stroke-miterlimit:10;}.cls-13{stroke:#14bf96;stroke-width:2.62px;}</style></defs><title>http</title><rect class="cls-1" y="0.14" width="153.92" height="150.1" rx="2.99"/><rect class="cls-2" x="6.61" y="6.59" width="140.69" height="84.43"/><path class="cls-3" d="M0,91H153.9v65.5a4.29,4.29,0,0,1-4.29,4.28H4.28A4.28,4.28,0,0,1,0,156.53V91Z"/><rect class="cls-4" x="6.61" y="98.65" width="10.23" height="9.97" rx="1.18"/><rect class="cls-4" x="19.66" y="98.65" width="10.23" height="9.97" rx="1.18"/><rect class="cls-4" x="32.71" y="98.65" width="10.23" height="9.97" rx="1.18"/><rect class="cls-4" x="45.76" y="98.65" width="10.23" height="9.97" rx="1.18"/><rect class="cls-4" x="58.8" y="98.65" width="10.23" height="9.97" rx="1.18"/><rect class="cls-4" x="71.85" y="98.65" width="10.23" height="9.97" rx="1.18"/><rect class="cls-4" x="84.9" y="98.65" width="10.23" height="9.97" rx="1.18"/><rect class="cls-4" x="97.95" y="98.65" width="10.23" height="9.97" rx="1.18"/><rect class="cls-4" x="110.99" y="98.65" width="10.23" height="9.97" rx="1.18"/><rect class="cls-4" x="124.04" y="98.65" width="10.23" height="9.97" rx="1.18"/><rect class="cls-4" x="137.08" y="98.65" width="10.23" height="9.97" rx="1.18"/><rect class="cls-4" x="19.66" y="112.14" width="10.23" height="9.97" rx="1.18"/><rect class="cls-4" x="32.71" y="112.14" width="10.23" height="9.97" rx="1.18"/><rect class="cls-4" x="45.76" y="112.14" width="10.23" height="9.97" rx="1.18"/><rect class="cls-4" x="58.8" y="112.14" width="10.23" height="9.97" rx="1.18"/><rect class="cls-4" x="71.85" y="112.14" width="10.23" height="9.97" rx="1.18"/><rect class="cls-4" x="84.9" y="112.14" width="10.23" height="9.97" rx="1.18"/><rect class="cls-4" x="97.95" y="112.14" width="10.23" height="9.97" rx="1.18"/><rect class="cls-4" x="110.99" y="112.14" width="10.23" height="9.97" rx="1.18"/><rect class="cls-4" x="124.04" y="112.14" width="10.23" height="9.97" rx="1.18"/><rect class="cls-4" x="6.61" y="125.62" width="10.23" height="9.97" rx="1.18"/><rect class="cls-4" x="19.66" y="125.62" width="10.23" height="9.97" rx="1.18"/><rect class="cls-4" x="32.71" y="125.62" width="10.23" height="9.97" rx="1.18"/><rect class="cls-4" x="45.76" y="125.62" width="10.23" height="9.97" rx="1.18"/><rect class="cls-4" x="58.8" y="125.62" width="10.23" height="9.97" rx="1.18"/><rect class="cls-4" x="71.85" y="125.62" width="10.23" height="9.97" rx="1.18"/><rect class="cls-4" x="84.9" y="125.62" width="10.23" height="9.97" rx="1.18"/><rect class="cls-4" x="97.95" y="125.62" width="10.23" height="9.97" rx="1.18"/><rect class="cls-4" x="110.99" y="125.62" width="10.23" height="9.97" rx="1.18"/><rect class="cls-4" x="124.04" y="125.62" width="10.23" height="9.97" rx="1.18"/><rect class="cls-4" x="137.08" y="125.62" width="10.23" height="9.97" rx="1.18"/><rect class="cls-4" x="48.1" y="125.62" width="57.72" height="9.97" rx="1.18"/><rect class="cls-5" x="56.52" y="139.7" width="38.49" height="15.84" rx="2.44"/><rect class="cls-6" x="10.76" y="17.99" width="132.23" height="67.67" rx="2.42"/><path class="cls-7" d="M10.76,22.5V15.69a6.11,6.11,0,0,1,6.2-6H136.7a6.11,6.11,0,0,1,6.2,6h0V22.5"/><rect class="cls-2" x="24.38" y="11.93" width="113.98" height="9.43" rx="2.2"/><g class="cls-8"><path d="M26.2,18.85v-4.4h.51v2a1.65,1.65,0,0,1,.53-.55,1.13,1.13,0,0,1,.61-.2.85.85,0,0,1,.47.13.7.7,0,0,1,.3.32,1.12,1.12,0,0,1,.1.31c0,.11,0,.33,0,.67v1.7h-.51V17.08a2.48,2.48,0,0,0,0-.58.44.44,0,0,0-.15-.22.4.4,0,0,0-.25-.09.89.89,0,0,0-.57.25,2,2,0,0,0-.51.63v1.78Z"/><path d="M32.09,18.72a2.91,2.91,0,0,1-.51.18l-.31,0a1.41,1.41,0,0,1-.59-.12.93.93,0,0,1-.4-.36,1.63,1.63,0,0,1-.13-.75V16.48h-.76v-.42h.76V14.83h.51v1.23H32v.42H30.66V17.7a1.22,1.22,0,0,0,.08.51.53.53,0,0,0,.24.23.86.86,0,0,0,.34.07,1.58,1.58,0,0,0,.77-.23Z"/><path d="M35.44,18.72a2.93,2.93,0,0,1-.52.18,1.63,1.63,0,0,1-.31,0,1.4,1.4,0,0,1-.58-.12.88.88,0,0,1-.4-.36,1.63,1.63,0,0,1-.13-.75V16.48h-.76v-.42h.76V14.83H34v1.23h1.36v.42H34V17.7a1.05,1.05,0,0,0,.09.51.56.56,0,0,0,.23.23.91.91,0,0,0,.35.07,1.61,1.61,0,0,0,.77-.23Z"/><path d="M36.71,16.49a1.64,1.64,0,0,1,.56-.58,1.14,1.14,0,0,1,.6-.19.91.91,0,0,1,.68.33,1.44,1.44,0,0,1,.31,1,2.06,2.06,0,0,1-.21.94,1.61,1.61,0,0,1-.54.66,1.38,1.38,0,0,1-.83.24l-.44,0h-.13V20H36.2V15.8h.51Zm0,.6V18.4a2.4,2.4,0,0,0,.51.07,1,1,0,0,0,.77-.36,1.45,1.45,0,0,0,.32-1,1.19,1.19,0,0,0-.17-.69.51.51,0,0,0-.39-.23.86.86,0,0,0-.53.24A2.3,2.3,0,0,0,36.71,17.09Z"/><path d="M40.84,16.61a.44.44,0,0,1-.44-.45.44.44,0,0,1,.88,0,.44.44,0,0,1-.44.45Zm0,2.36a.44.44,0,0,1-.44-.44.44.44,0,0,1,.13-.32.46.46,0,0,1,.62,0,.44.44,0,0,1,.13.32.44.44,0,0,1-.44.44Z"/><path d="M43.1,19h-.5l2.69-4.48h.48Z"/><path d="M46.45,19H46l2.68-4.48h.49Z"/><path d="M49.76,18.85l-.5-3.05h.47L50,17.66l.08.43.07-.43.48-1.86h.46l.55,1.86.09.43.07-.43.29-1.86h.38L52,18.85h-.47l-.58-2-.1-.43h0l-.09.42-.5,2Z"/><path d="M53.1,18.85l-.49-3.05h.47l.29,1.86.07.43.08-.43L54,15.8h.45L55,17.66l.1.43.06-.43.29-1.86h.39l-.49,3.05h-.48l-.58-2-.09-.43h0l-.09.42-.51,2Z"/><path d="M56.45,18.85,56,15.8h.47l.29,1.86.08.43.07-.43.49-1.86h.45l.55,1.86.09.43.07-.43.29-1.86h.39l-.5,3.05h-.47l-.58-2-.09-.43h0l-.08.42-.51,2Z"/><path d="M60.92,19a.42.42,0,0,1-.32-.13.44.44,0,0,1-.13-.31.48.48,0,0,1,.13-.32.47.47,0,0,1,.32-.12.47.47,0,0,1,.31.12.44.44,0,0,1,.13.32.4.4,0,0,1-.13.31A.42.42,0,0,1,60.92,19Z"/><path d="M65.54,18.64a2.71,2.71,0,0,1-1.15.29,1.38,1.38,0,0,1-.73-.2,1.43,1.43,0,0,1-.52-.59,1.73,1.73,0,0,1-.2-.81,1.88,1.88,0,0,1,.19-.8,1.38,1.38,0,0,1,.52-.6,1.33,1.33,0,0,1,.74-.21,1.08,1.08,0,0,1,.87.39,1.78,1.78,0,0,1,.32,1.19v.11H63.49a1.2,1.2,0,0,0,.13.57.92.92,0,0,0,.35.4,1,1,0,0,0,.49.13,2.26,2.26,0,0,0,1.08-.33Zm-2-1.61H65V17a.9.9,0,0,0-.18-.59.59.59,0,0,0-.49-.22.74.74,0,0,0-.53.23A1.27,1.27,0,0,0,63.52,17Z"/><path d="M66.68,18.85h-.59l1.19-1.59L66.17,15.8h.65l.78,1,.78-1H69l-1,1.41,1.25,1.64H68.5l-.92-1.21Z"/><path d="M71.7,18.16a1.62,1.62,0,0,1-.55.58,1.19,1.19,0,0,1-.6.19.93.93,0,0,1-.69-.33,1.44,1.44,0,0,1-.3-1,2.16,2.16,0,0,1,.2-.94A1.78,1.78,0,0,1,70.3,16a1.43,1.43,0,0,1,.84-.24l.43,0h.64V18a2.8,2.8,0,0,0,.12.9H71.8A5.89,5.89,0,0,1,71.7,18.16Zm0-.6V16.25a2.31,2.31,0,0,0-.5-.07,1,1,0,0,0-.78.36,1.49,1.49,0,0,0-.31,1,1.15,1.15,0,0,0,.17.68.47.47,0,0,0,.39.24.81.81,0,0,0,.52-.25A2.12,2.12,0,0,0,71.7,17.56Z"/><path d="M72.82,18.85V15.8h.45v.7a1.82,1.82,0,0,1,.39-.61.55.55,0,0,1,.36-.17.45.45,0,0,1,.36.17.79.79,0,0,1,.13.49v.17a1.35,1.35,0,0,1,.22-.45,1.18,1.18,0,0,1,.26-.28.51.51,0,0,1,.32-.1.42.42,0,0,1,.33.17,1.11,1.11,0,0,1,.14.66v2.3h-.45V16.77a2.94,2.94,0,0,0,0-.35.21.21,0,0,0-.07-.14.11.11,0,0,0-.1-.05c-.1,0-.2.07-.31.21a2.74,2.74,0,0,0-.33.72v1.69h-.42V16.77c0-.27,0-.43-.08-.47a.21.21,0,0,0-.14-.07q-.14,0-.3.24a2.76,2.76,0,0,0-.3.62v1.76Z"/><path d="M76.86,16.49a1.73,1.73,0,0,1,.56-.58,1.19,1.19,0,0,1,.6-.19.91.91,0,0,1,.68.33,1.39,1.39,0,0,1,.31,1,2.2,2.2,0,0,1-.2.94,1.78,1.78,0,0,1-.54.66,1.43,1.43,0,0,1-.84.24l-.44,0h-.13V20h-.5V15.8h.5Zm0,.6V18.4a2.58,2.58,0,0,0,.51.07,1,1,0,0,0,.78-.36,1.45,1.45,0,0,0,.31-1,1.19,1.19,0,0,0-.17-.69.51.51,0,0,0-.39-.23.84.84,0,0,0-.52.24A2.51,2.51,0,0,0,76.86,17.09Z"/><path d="M80.56,18.85v-4h-.91v-.42h1.42v4h1v.43Z"/><path d="M85.62,18.64a2.75,2.75,0,0,1-1.15.29,1.41,1.41,0,0,1-.74-.2,1.48,1.48,0,0,1-.51-.59,1.76,1.76,0,0,1,0-1.61,1.43,1.43,0,0,1,.51-.6,1.36,1.36,0,0,1,.74-.21,1.08,1.08,0,0,1,.87.39,1.78,1.78,0,0,1,.33,1.19v.11H83.57a1.2,1.2,0,0,0,.13.57.9.9,0,0,0,.34.4,1,1,0,0,0,.49.13,2.29,2.29,0,0,0,1.09-.33ZM83.6,17h1.51V17a.9.9,0,0,0-.18-.59.59.59,0,0,0-.49-.22.74.74,0,0,0-.53.23A1.2,1.2,0,0,0,83.6,17Z"/><path d="M87.68,19a.42.42,0,0,1-.31-.13.4.4,0,0,1-.13-.31.44.44,0,0,1,.13-.32.45.45,0,0,1,.31-.12.47.47,0,0,1,.32.12.48.48,0,0,1,.13.32.44.44,0,0,1-.13.31A.42.42,0,0,1,87.68,19Z"/><path d="M92.34,18.76a3.15,3.15,0,0,1-1,.17,1.58,1.58,0,0,1-.81-.21,1.53,1.53,0,0,1-.56-.57,1.71,1.71,0,0,1-.19-.82,1.57,1.57,0,0,1,.45-1.15,1.44,1.44,0,0,1,1.08-.46,3.07,3.07,0,0,1,1,.18v.48a2.33,2.33,0,0,0-1-.24,1,1,0,0,0-.52.14.85.85,0,0,0-.38.43,1.38,1.38,0,0,0-.13.6,1.36,1.36,0,0,0,.25.78.91.91,0,0,0,.81.37,1.83,1.83,0,0,0,.33,0,3.48,3.48,0,0,0,.59-.17Z"/><path d="M94.38,18.93a1.3,1.3,0,0,1-1-.46,1.69,1.69,0,0,1-.39-1.15,1.72,1.72,0,0,1,.39-1.15,1.44,1.44,0,0,1,2.09,0,1.72,1.72,0,0,1,.39,1.15,1.69,1.69,0,0,1-.39,1.15A1.29,1.29,0,0,1,94.38,18.93Zm0-.42a.76.76,0,0,0,.64-.32,1.68,1.68,0,0,0,0-1.73.76.76,0,0,0-.64-.32.78.78,0,0,0-.65.32,1.68,1.68,0,0,0,0,1.73A.78.78,0,0,0,94.38,18.51Z"/><path d="M96.24,18.85V15.8h.45v.7a2,2,0,0,1,.39-.61.55.55,0,0,1,.36-.17.45.45,0,0,1,.36.17.79.79,0,0,1,.14.49v.17a1.58,1.58,0,0,1,.21-.45,1.43,1.43,0,0,1,.26-.28.53.53,0,0,1,.32-.1.42.42,0,0,1,.33.17,1.11,1.11,0,0,1,.14.66v2.3h-.44V16.77a2.39,2.39,0,0,0,0-.35.26.26,0,0,0-.06-.14.14.14,0,0,0-.11-.05.42.42,0,0,0-.3.21,2.74,2.74,0,0,0-.33.72v1.69h-.43V16.77c0-.27,0-.43-.08-.47a.21.21,0,0,0-.14-.07q-.14,0-.3.24a3.27,3.27,0,0,0-.3.62v1.76Z"/><path d="M100,19h-.5l2.68-4.48h.48Z"/><path d="M104,18.85V16.23h-.85V15.8h1.35v2.62h.85v.43Zm-.08-4.14a.29.29,0,0,1,.11-.26.35.35,0,0,1,.22-.08.33.33,0,0,1,.22.08.3.3,0,0,1,.12.26.29.29,0,0,1-.12.25.4.4,0,0,1-.22.08.42.42,0,0,1-.22-.08A.28.28,0,0,1,103.94,14.71Z"/><path d="M106.51,18.85V15.8H107v.67a1.62,1.62,0,0,1,.52-.55,1.16,1.16,0,0,1,.62-.2.93.93,0,0,1,.49.14.76.76,0,0,1,.31.38,2.92,2.92,0,0,1,.09.91v1.7h-.51V17.08a2.48,2.48,0,0,0,0-.58.4.4,0,0,0-.16-.22.36.36,0,0,0-.24-.09.94.94,0,0,0-.58.25,2.08,2.08,0,0,0-.5.63v1.78Z"/><path d="M111.89,18.16a1.56,1.56,0,0,1-.56.58,1.14,1.14,0,0,1-.6.19.91.91,0,0,1-.68-.33,1.44,1.44,0,0,1-.3-1,2,2,0,0,1,.2-.94,1.61,1.61,0,0,1,.54-.66,1.38,1.38,0,0,1,.83-.24l.44,0h.13V14.45h.51v4.4h-.51Zm0-.6V16.25a2.4,2.4,0,0,0-.5-.07,1,1,0,0,0-.78.36,1.49,1.49,0,0,0-.31,1,1.08,1.08,0,0,0,.17.68.47.47,0,0,0,.38.24.83.83,0,0,0,.53-.25A2.12,2.12,0,0,0,111.89,17.56Z"/><path d="M115.73,18.64a2.71,2.71,0,0,1-1.15.29,1.4,1.4,0,0,1-.73-.2,1.43,1.43,0,0,1-.52-.59,1.73,1.73,0,0,1-.19-.81,1.87,1.87,0,0,1,.18-.8,1.45,1.45,0,0,1,.52-.6,1.36,1.36,0,0,1,.74-.21,1.08,1.08,0,0,1,.87.39,1.78,1.78,0,0,1,.33,1.19v.11h-2.1a1.2,1.2,0,0,0,.13.57.89.89,0,0,0,.84.53,2.23,2.23,0,0,0,1.08-.33Zm-2-1.61h1.52V17a.85.85,0,0,0-.19-.59.58.58,0,0,0-.48-.22.74.74,0,0,0-.54.23A1.27,1.27,0,0,0,113.71,17Z"/><path d="M116.87,18.85h-.59l1.19-1.59-1.11-1.46H117l.79,1,.77-1h.57l-1,1.41,1.25,1.64h-.65l-.92-1.21Z"/><path d="M121.15,19a.42.42,0,0,1-.32-.13.4.4,0,0,1-.13-.31.44.44,0,0,1,.13-.32.45.45,0,0,1,.32-.12.47.47,0,0,1,.31.12.48.48,0,0,1,.13.32.4.4,0,0,1-.13.31A.42.42,0,0,1,121.15,19Z"/><path d="M123.24,18.85v-4.4h.51v2a1.62,1.62,0,0,1,.52-.55,1.16,1.16,0,0,1,.62-.2.85.85,0,0,1,.47.13.83.83,0,0,1,.3.32,1.11,1.11,0,0,1,.09.31,4.64,4.64,0,0,1,0,.67v1.7h-.51V17.08a2.48,2.48,0,0,0,0-.58.4.4,0,0,0-.16-.22.36.36,0,0,0-.24-.09.94.94,0,0,0-.58.25,2.08,2.08,0,0,0-.5.63v1.78Z"/><path d="M129.13,18.72a2.93,2.93,0,0,1-.52.18,1.63,1.63,0,0,1-.31,0,1.4,1.4,0,0,1-.58-.12.88.88,0,0,1-.4-.36,1.63,1.63,0,0,1-.13-.75V16.48h-.76v-.42h.76V14.83h.5v1.23h1.36v.42h-1.36V17.7a1.05,1.05,0,0,0,.09.51.56.56,0,0,0,.23.23,1,1,0,0,0,.35.07,1.61,1.61,0,0,0,.77-.23Z"/><path d="M129.71,18.85V15.8h.44v.7a2,2,0,0,1,.39-.61.55.55,0,0,1,.37-.17.44.44,0,0,1,.35.17.79.79,0,0,1,.14.49v.17a1.58,1.58,0,0,1,.21-.45,1.21,1.21,0,0,1,.27-.28.48.48,0,0,1,.31-.1.42.42,0,0,1,.33.17,1,1,0,0,1,.14.66v2.3h-.44V16.77a2.39,2.39,0,0,0,0-.35.26.26,0,0,0-.06-.14.14.14,0,0,0-.11-.05q-.14,0-.3.21a2.74,2.74,0,0,0-.33.72v1.69H131V16.77c0-.27,0-.43-.07-.47a.25.25,0,0,0-.15-.07q-.13,0-.3.24a4,4,0,0,0-.3.62v1.76Z"/><path d="M134.1,18.85v-4h-.91v-.42h1.41v4h1v.43Z"/></g><rect class="cls-2" x="13.39" y="24.66" width="126.7" height="58.61" rx="2.39"/><path class="cls-9" d="M12.41,11.93H23V22.45H12.41Z"/><path class="cls-10" d="M20.17,14.16a3.53,3.53,0,1,0,.06,5,3.59,3.59,0,0,0,1-1.91H20.3A2.64,2.64,0,1,1,17.72,14a2.6,2.6,0,0,1,1.86.78l-1.27,1.27h2.88V13.14Z"/><rect class="cls-3" x="364.49" y="20.23" width="99.99" height="126.81" rx="2.35"/><rect class="cls-1" x="369.88" y="44.08" width="88.45" height="7.69"/><rect class="cls-1" x="369.88" y="60.42" width="88.45" height="7.69"/><rect class="cls-1" x="370.64" y="76.77" width="88.45" height="7.69"/><rect class="cls-1" x="370.64" y="93.11" width="88.45" height="7.69"/><rect class="cls-1" x="370.64" y="109.45" width="88.45" height="7.69"/><circle class="cls-11" cx="452.17" cy="31" r="4.61"/><rect class="cls-1" x="370.64" y="125.8" width="88.45" height="7.69"/><path class="cls-12" d="M207.46,18h123c3.3,0,6,1.57,6,8.45V99.17c0,6.87-2.67,9.45-6,9.45h-123c-3.3,0-6-2.58-6-9.45V27.44C201.49,20.56,204.16,18,207.46,18Z"/><g class="cls-8"><g class="cls-8"><path class="cls-2" d="M212,39.22V29.44h1.27v4.21h3.61V29.44h1.27v9.78H216.9V34.63h-3.61v4.59Z"/><path class="cls-2" d="M222.21,39.22v-8.7h-2.94V29.44h7.14v1.08h-2.93v8.7Z"/><path class="cls-2" d="M230,39.22v-8.7H227V29.44h7.14v1.08h-2.93v8.7Z"/><path class="cls-2" d="M236.85,35.65v3.57h-1.27V29.44H238a5.19,5.19,0,0,1,2.19.34,2.32,2.32,0,0,1,1.05,1,3,3,0,0,1,.37,1.45,3.29,3.29,0,0,1-.5,1.75,3.22,3.22,0,0,1-1.37,1.26,5.42,5.42,0,0,1-2.38.43Zm0-1h.55a3.88,3.88,0,0,0,1.75-.31,2.08,2.08,0,0,0,.88-.88,2.54,2.54,0,0,0,.31-1.24,1.69,1.69,0,0,0-.55-1.34,3.4,3.4,0,0,0-2.18-.5h-.76Z"/><path class="cls-2" d="M243.58,39.52h-1.16l6.22-10.37h1.12Z"/><path class="cls-2" d="M253.54,38.24V30.7a8.24,8.24,0,0,1-1,.71,8.38,8.38,0,0,1-1.37.61V31a8.2,8.2,0,0,0,2.39-1.52h1.18v8.8h2.35v1h-5.92v-1Z"/><path class="cls-2" d="M261.58,39.52a1,1,0,0,1-1-1,1,1,0,0,1,.31-.73,1,1,0,0,1,1.44,0,1,1,0,0,1,.31.73,1,1,0,0,1-.3.73A1,1,0,0,1,261.58,39.52Z"/><path class="cls-2" d="M269,38.24V30.7a8.31,8.31,0,0,1-1,.71,8,8,0,0,1-1.37.61V31a8.39,8.39,0,0,0,2.4-1.52h1.17v8.8h2.35v1h-5.92v-1Z"/><path class="cls-2" d="M287.81,39.22h-5.92V38.14a2.78,2.78,0,0,1,.17-.89,4,4,0,0,1,.65-1.07q.48-.59,1-1.14l.66-.68c.14-.14.43-.46.88-1a6.55,6.55,0,0,0,.9-1.16,1.64,1.64,0,0,0,.22-.8,1.11,1.11,0,0,0-.5-1,2,2,0,0,0-1.14-.35,4.08,4.08,0,0,0-.8.09,4.69,4.69,0,0,0-.78.19,10.94,10.94,0,0,0-1.08.45v-1a6.16,6.16,0,0,1,1.59-.52,8.25,8.25,0,0,1,1.32-.14,3.78,3.78,0,0,1,1.4.25,1.83,1.83,0,0,1,1,.77,2.12,2.12,0,0,1,.31,1.11,2.66,2.66,0,0,1-.4,1.36,9.34,9.34,0,0,1-1.51,1.78l-.72.72-.6.59a7.33,7.33,0,0,0-.93,1.12,2.65,2.65,0,0,0-.39,1.29h4.7Z"/><path class="cls-2" d="M292.57,29.15a2.83,2.83,0,0,1,2.55,1.4,7.12,7.12,0,0,1,.88,3.78,7.16,7.16,0,0,1-.88,3.79,3,3,0,0,1-5.09,0,7.06,7.06,0,0,1-.88-3.79,7,7,0,0,1,.88-3.78A2.83,2.83,0,0,1,292.57,29.15Zm-1.91,7.27,3.38-5.3a1.9,1.9,0,0,0-.69-.79,1.58,1.58,0,0,0-.78-.21,1.74,1.74,0,0,0-1.6,1.17,7.09,7.09,0,0,0-.55,3c0,.27,0,.57,0,.88A8.74,8.74,0,0,0,290.66,36.42Zm3.81-4.13-3.36,5.33a2,2,0,0,0,.62.69,1.46,1.46,0,0,0,.79.23,1.77,1.77,0,0,0,1.7-1.34,8.26,8.26,0,0,0,.5-3A7.32,7.32,0,0,0,294.47,32.29Z"/><path class="cls-2" d="M300.32,29.15a2.84,2.84,0,0,1,2.55,1.4,7.12,7.12,0,0,1,.87,3.78,7.16,7.16,0,0,1-.87,3.79,3,3,0,0,1-5.09,0,7.06,7.06,0,0,1-.88-3.79,7,7,0,0,1,.88-3.78A2.82,2.82,0,0,1,300.32,29.15Zm-1.91,7.27,3.38-5.3a2,2,0,0,0-.69-.79,1.58,1.58,0,0,0-.78-.21,1.73,1.73,0,0,0-1.6,1.17,6.94,6.94,0,0,0-.55,3c0,.27,0,.57,0,.88A6.66,6.66,0,0,0,298.41,36.42Zm3.8-4.13-3.35,5.33a2,2,0,0,0,.62.69,1.46,1.46,0,0,0,.79.23A1.77,1.77,0,0,0,302,37.2a8.49,8.49,0,0,0,.5-3A6.94,6.94,0,0,0,302.21,32.29Z"/><path class="cls-2" d="M315.82,39.52a2.84,2.84,0,0,1-2.55-1.41,7.09,7.09,0,0,1-.88-3.78,7.16,7.16,0,0,1,.88-3.79,3,3,0,0,1,5.09,0,7.06,7.06,0,0,1,.88,3.79,7,7,0,0,1-.88,3.78A2.81,2.81,0,0,1,315.82,39.52Zm0-1a1.79,1.79,0,0,0,1.53-1,6.43,6.43,0,0,0,.62-3.17,6.43,6.43,0,0,0-.62-3.17,1.65,1.65,0,0,0-3.07,0,6.44,6.44,0,0,0-.61,3.17,6.44,6.44,0,0,0,.61,3.17A1.79,1.79,0,0,0,315.82,38.54Z"/><path class="cls-2" d="M320.68,39.22V29.44H322v4.8l3.63-4.8h1.35l-3.51,4.64,4,5.14h-1.59l-3.88-5v5Z"/></g><g class="cls-8"><path class="cls-2" d="M211.67,57.23l6.85-3.43v1.09l-4.68,2.33,4.68,2.36v1.08Z"/><path class="cls-2" d="M222.85,61a.92.92,0,0,1-.91-.91.85.85,0,0,1,.27-.63.87.87,0,0,1,.64-.27.89.89,0,0,1,.63.26.91.91,0,0,1,0,1.29A.89.89,0,0,1,222.85,61Zm-.55-3.08-.29-7h1.57l-.29,7Z"/><path class="cls-2" d="M232.41,59.07a3.77,3.77,0,0,1-1.3,1.33,2.73,2.73,0,0,1-1.38.45,2.11,2.11,0,0,1-1.59-.76,3.32,3.32,0,0,1-.7-2.32,5,5,0,0,1,.46-2.18,4,4,0,0,1,1.25-1.52,3.29,3.29,0,0,1,1.94-.56c.23,0,.56,0,1,.07l.31,0V50.48h1.17V60.66h-1.17Zm0-1.39v-3a4.62,4.62,0,0,0-1.17-.16,2.31,2.31,0,0,0-1.81.84,3.39,3.39,0,0,0-.72,2.28,2.63,2.63,0,0,0,.4,1.59,1.12,1.12,0,0,0,.9.53,2,2,0,0,0,1.21-.56A5.38,5.38,0,0,0,232.41,57.68Z"/><path class="cls-2" d="M238.34,60.85a3,3,0,0,1-2.42-1.06,4.38,4.38,0,0,1,0-5.32,3.3,3.3,0,0,1,4.83,0,4.34,4.34,0,0,1,0,5.32A3,3,0,0,1,238.34,60.85Zm0-1a1.76,1.76,0,0,0,1.49-.73,3.87,3.87,0,0,0,0-4,1.76,1.76,0,0,0-1.49-.73,1.78,1.78,0,0,0-1.5.73,3.93,3.93,0,0,0,0,4A1.78,1.78,0,0,0,238.34,59.87Z"/><path class="cls-2" d="M249.12,60.45a7,7,0,0,1-2.25.4,3.59,3.59,0,0,1-1.88-.49A3.38,3.38,0,0,1,243.71,59a3.84,3.84,0,0,1-.46-1.9,3.64,3.64,0,0,1,1-2.66,3.41,3.41,0,0,1,2.52-1.06,7,7,0,0,1,2.31.41V55a5.29,5.29,0,0,0-2.2-.56,2.45,2.45,0,0,0-1.21.31,2.17,2.17,0,0,0-.88,1,3.38,3.38,0,0,0-.31,1.38,3.14,3.14,0,0,0,.6,1.82,2.1,2.1,0,0,0,1.87.86,6.16,6.16,0,0,0,.75-.05,9.91,9.91,0,0,0,1.38-.4Z"/><path class="cls-2" d="M256.83,60.37a6.22,6.22,0,0,1-1.2.41,3.65,3.65,0,0,1-.72.07,3.17,3.17,0,0,1-1.35-.28,2,2,0,0,1-.92-.84,3.61,3.61,0,0,1-.31-1.72V55.18h-1.76v-1h1.76V51.36h1.17V54.2h3.13v1H253.5V58a2.69,2.69,0,0,0,.2,1.21,1.32,1.32,0,0,0,.54.51,1.78,1.78,0,0,0,.8.16,3.59,3.59,0,0,0,1.79-.53Z"/><path class="cls-2" d="M261.28,60.38,258,53.61h1.29l2.59,5.29,2.16-5.29h1.18l-2.72,6.55a7.93,7.93,0,0,1-1.64,2.75,3,3,0,0,1-2,.68,4.1,4.1,0,0,1-1-.1v-1a3.21,3.21,0,0,0,.93.15,2,2,0,0,0,1.81-1,4.71,4.71,0,0,0,.52-1Z"/><path class="cls-2" d="M267.52,55.2a3.75,3.75,0,0,1,1.29-1.33,2.73,2.73,0,0,1,1.38-.45,2.11,2.11,0,0,1,1.59.76,3.31,3.31,0,0,1,.71,2.31,5,5,0,0,1-.47,2.19,4,4,0,0,1-1.25,1.52,3.27,3.27,0,0,1-1.94.56c-.22,0-.55,0-1-.07l-.3,0v2.73h-1.17V53.61h1.17Zm0,1.39v3a5.19,5.19,0,0,0,1.17.16,2.3,2.3,0,0,0,1.8-.84,3.37,3.37,0,0,0,.72-2.28,2.66,2.66,0,0,0-.39-1.59,1.15,1.15,0,0,0-.9-.53,2,2,0,0,0-1.21.56A5.24,5.24,0,0,0,267.52,56.59Z"/><path class="cls-2" d="M280,60.19a6.27,6.27,0,0,1-2.66.66,3.17,3.17,0,0,1-1.7-.47,3.43,3.43,0,0,1-1.2-1.35,4.1,4.1,0,0,1-.45-1.88,4.32,4.32,0,0,1,.42-1.86,3.37,3.37,0,0,1,1.2-1.38,3.13,3.13,0,0,1,1.72-.49,2.52,2.52,0,0,1,2,.89,4.19,4.19,0,0,1,.76,2.76v.25h-4.85a3,3,0,0,0,.3,1.34,2.19,2.19,0,0,0,.81.91,2.15,2.15,0,0,0,1.13.3,5.32,5.32,0,0,0,2.51-.75Zm-4.68-3.75h3.51v-.17a2.1,2.1,0,0,0-.42-1.37,1.43,1.43,0,0,0-1.13-.5,1.71,1.71,0,0,0-1.24.51A3,3,0,0,0,275.36,56.44Z"/><path class="cls-2" d="M289.68,60.66V50.48h1.17v4.67a4,4,0,0,1,1.22-1.27,2.57,2.57,0,0,1,1.42-.46,2.09,2.09,0,0,1,1.1.3,1.73,1.73,0,0,1,.69.74,2.9,2.9,0,0,1,.21.71,12.41,12.41,0,0,1,.06,1.55v3.94h-1.17V56.58a5.94,5.94,0,0,0-.1-1.34,1.12,1.12,0,0,0-.36-.54.94.94,0,0,0-.57-.2,2.14,2.14,0,0,0-1.33.58,4.76,4.76,0,0,0-1.17,1.47v4.11Z"/><path class="cls-2" d="M303.32,60.37a6.22,6.22,0,0,1-1.2.41,3.65,3.65,0,0,1-.72.07,3.17,3.17,0,0,1-1.35-.28,1.94,1.94,0,0,1-.92-.84,3.61,3.61,0,0,1-.31-1.72V55.18h-1.76v-1h1.76V51.36H300V54.2h3.13v1H300V58a2.56,2.56,0,0,0,.2,1.21,1.21,1.21,0,0,0,.54.51,1.78,1.78,0,0,0,.8.16,3.62,3.62,0,0,0,1.79-.53Z"/><path class="cls-2" d="M304.65,60.66v-7h1v1.62a4.88,4.88,0,0,1,.91-1.42,1.25,1.25,0,0,1,.85-.39,1,1,0,0,1,.82.4,1.8,1.8,0,0,1,.31,1.14v.37a4,4,0,0,1,.5-1,3.14,3.14,0,0,1,.61-.64,1.22,1.22,0,0,1,.73-.23,1,1,0,0,1,.77.38,2.51,2.51,0,0,1,.32,1.53v5.33h-1V55.85a6.63,6.63,0,0,0,0-.82.72.72,0,0,0-.15-.33.38.38,0,0,0-.25-.11c-.22,0-.45.17-.7.5a6.36,6.36,0,0,0-.77,1.66v3.91h-1V55.85c0-.62-.06-1-.18-1.1a.56.56,0,0,0-.33-.16c-.21,0-.44.19-.69.56a7.72,7.72,0,0,0-.71,1.44v4.07Z"/><path class="cls-2" d="M314.82,60.66v-9.2h-2.11v-1H316v9.2h2.2v1Z"/><path class="cls-2" d="M327,57.23l-6.85,3.43V59.57l4.68-2.33-4.68-2.36V53.8Z"/><path class="cls-2" d="M211.67,72.72l6.85-3.42v1.09l-4.68,2.33,4.68,2.35v1.08Z"/><path class="cls-2" d="M220,76.15V66h1.17v4.68a4,4,0,0,1,1.22-1.28,2.57,2.57,0,0,1,1.42-.46,2,2,0,0,1,1.1.31,1.68,1.68,0,0,1,.69.74,2.78,2.78,0,0,1,.21.71,12.21,12.21,0,0,1,.06,1.54v3.94h-1.17V72.07a6,6,0,0,0-.1-1.34,1.1,1.1,0,0,0-.36-.53.91.91,0,0,0-.57-.21,2.11,2.11,0,0,0-1.33.59A4.83,4.83,0,0,0,221.12,72v4.11Z"/><path class="cls-2" d="M233.58,75.87a7.31,7.31,0,0,1-1.19.41,4.56,4.56,0,0,1-.72.06,3.17,3.17,0,0,1-1.35-.28,1.94,1.94,0,0,1-.92-.84,3.57,3.57,0,0,1-.32-1.71V70.67h-1.76v-1h1.76V66.86h1.18v2.83h3.13v1h-3.13v2.82a2.49,2.49,0,0,0,.2,1.2,1.21,1.21,0,0,0,.54.51,1.77,1.77,0,0,0,.79.17,3.58,3.58,0,0,0,1.79-.54Z"/><path class="cls-2" d="M234.91,76.15v-7h1v1.61a5,5,0,0,1,.91-1.42,1.25,1.25,0,0,1,.84-.39,1,1,0,0,1,.83.4,1.82,1.82,0,0,1,.31,1.14v.38a4,4,0,0,1,.5-1,3.34,3.34,0,0,1,.61-.63,1.16,1.16,0,0,1,.72-.24,1,1,0,0,1,.78.39,2.54,2.54,0,0,1,.32,1.53v5.32h-1V71.34a7,7,0,0,0,0-.81.57.57,0,0,0-.16-.33.31.31,0,0,0-.24-.12c-.22,0-.45.17-.7.5a6.3,6.3,0,0,0-.77,1.67v3.9h-1V71.34c0-.62-.06-1-.18-1.09a.53.53,0,0,0-.33-.17c-.21,0-.45.19-.69.57a7.6,7.6,0,0,0-.71,1.43v4.07Z"/><path class="cls-2" d="M245.08,76.15V67H243V66h3.28v9.2h2.2v1Z"/><path class="cls-2" d="M257.26,72.72l-6.85,3.43V75.06l4.68-2.33-4.68-2.36V69.3Z"/><path class="cls-2" d="M211.67,88.22l6.85-3.43v1.09l-4.68,2.33,4.68,2.35v1.08Z"/><path class="cls-2" d="M220.33,91.94h-1.15l6.22-10.37h1.11Z"/><path class="cls-2" d="M227.7,91.64V81.47h1.17v4.67a3.91,3.91,0,0,1,1.22-1.27,2.57,2.57,0,0,1,1.42-.46,2.05,2.05,0,0,1,1.09.3,1.68,1.68,0,0,1,.69.74,2.45,2.45,0,0,1,.22.71,12.41,12.41,0,0,1,.06,1.55v3.93h-1.18V87.56a6.29,6.29,0,0,0-.09-1.34,1.14,1.14,0,0,0-.36-.53.91.91,0,0,0-.57-.21,2.14,2.14,0,0,0-1.33.59,4.76,4.76,0,0,0-1.17,1.47v4.1Z"/><path class="cls-2" d="M241.33,91.36a6.43,6.43,0,0,1-1.19.41,3.65,3.65,0,0,1-.72.07,3.14,3.14,0,0,1-1.35-.29,1.94,1.94,0,0,1-.93-.83,3.77,3.77,0,0,1-.31-1.72V86.16h-1.76v-1h1.76V82.35H238v2.84h3.14v1H238V89a2.46,2.46,0,0,0,.21,1.2,1.21,1.21,0,0,0,.53.52,1.84,1.84,0,0,0,.8.16,3.58,3.58,0,0,0,1.79-.54Z"/><path class="cls-2" d="M242.66,91.64v-7h1v1.61a4.74,4.74,0,0,1,.91-1.41,1.19,1.19,0,0,1,.84-.39,1,1,0,0,1,.83.4,1.83,1.83,0,0,1,.31,1.13v.38a3.48,3.48,0,0,1,.5-1,2.89,2.89,0,0,1,.61-.64,1.15,1.15,0,0,1,.72-.23,1,1,0,0,1,.78.38,2.59,2.59,0,0,1,.32,1.53v5.32h-1V86.83a5,5,0,0,0,0-.81.56.56,0,0,0-.15-.33.34.34,0,0,0-.24-.11c-.22,0-.46.16-.71.5a6.24,6.24,0,0,0-.76,1.66v3.9h-1v-4.8c0-.62-.06-1-.18-1.1a.51.51,0,0,0-.33-.16c-.22,0-.45.18-.69.56a6.89,6.89,0,0,0-.71,1.44v4.06Z"/><path class="cls-2" d="M252.83,91.64v-9.2h-2.1v-1H254v9.19h2.2v1Z"/><path class="cls-2" d="M265,88.22l-6.84,3.42V90.55l4.68-2.33-4.68-2.35V84.79Z"/></g></g><g class="cls-8"><path d="M372.38,8.06l.29-.38c.08-.13.17-.25.25-.37a2.82,2.82,0,0,1-.87.47,3.22,3.22,0,0,1-1,.16,3,3,0,0,1-1.08-.19,2.48,2.48,0,0,1-.9-.56,2.78,2.78,0,0,1-.62-.9,3.19,3.19,0,0,1-.22-1.24,3.22,3.22,0,0,1,.24-1.24,3.36,3.36,0,0,1,.69-1,3.3,3.3,0,0,1,1.06-.67,3.44,3.44,0,0,1,1.34-.25,3.49,3.49,0,0,1,1.32.24,2.93,2.93,0,0,1,1,.67,3,3,0,0,1,.65,1,3.52,3.52,0,0,1,.23,1.32,3.71,3.71,0,0,1-.08.83,4.25,4.25,0,0,1-.23.77,5.68,5.68,0,0,1-.37.74c-.15.25-.31.5-.49.76l-2.46,3.55a.61.61,0,0,1-.26.21.8.8,0,0,1-.39.08h-1.15ZM369.45,5a2.26,2.26,0,0,0,.14.85,1.65,1.65,0,0,0,.39.64,1.7,1.7,0,0,0,.63.4,2.61,2.61,0,0,0,.82.13,2.29,2.29,0,0,0,.9-.17,1.92,1.92,0,0,0,1.07-1.07,2.12,2.12,0,0,0,.14-.75,2.3,2.3,0,0,0-.15-.85,1.82,1.82,0,0,0-.42-.65,1.72,1.72,0,0,0-.64-.41,2.16,2.16,0,0,0-.81-.15,2.34,2.34,0,0,0-.85.15,1.92,1.92,0,0,0-.65.42,1.74,1.74,0,0,0-.42.64A2.18,2.18,0,0,0,369.45,5Z"/><path d="M376.54,4.73a3.49,3.49,0,0,1,.38-1.22,2.76,2.76,0,0,1,.71-.9,3.17,3.17,0,0,1,1-.54,3.7,3.7,0,0,1,1.21-.19,3.44,3.44,0,0,1,1.18.19,2.68,2.68,0,0,1,.94.52,2.34,2.34,0,0,1,.61.81,2.65,2.65,0,0,1,.21,1.07,2.82,2.82,0,0,1-.12.85,2.08,2.08,0,0,1-.35.66,2.11,2.11,0,0,1-.55.48,3.23,3.23,0,0,1-.73.32,2.68,2.68,0,0,1,1.48.87,2.37,2.37,0,0,1,.5,1.54,2.83,2.83,0,0,1-.27,1.25,2.69,2.69,0,0,1-.72,1A3.25,3.25,0,0,1,381,12a4.38,4.38,0,0,1-2.68,0,2.79,2.79,0,0,1-1-.55,2.92,2.92,0,0,1-.64-.83,5.5,5.5,0,0,1-.43-1l.54-.22a.66.66,0,0,1,.41-.05.38.38,0,0,1,.29.23l.23.47a2.27,2.27,0,0,0,.38.53,2,2,0,0,0,.61.43,2.14,2.14,0,0,0,.94.17,2.19,2.19,0,0,0,.92-.17,1.86,1.86,0,0,0,.66-.44,1.88,1.88,0,0,0,.4-.62,1.75,1.75,0,0,0,.14-.67,2.45,2.45,0,0,0-.11-.74,1.28,1.28,0,0,0-.39-.59,2.13,2.13,0,0,0-.8-.38,4.61,4.61,0,0,0-1.29-.14V6.46a4.27,4.27,0,0,0,1.1-.14A2,2,0,0,0,381,6a1.4,1.4,0,0,0,.42-.55,1.88,1.88,0,0,0,.13-.72,1.94,1.94,0,0,0-.14-.76,1.43,1.43,0,0,0-.38-.54,1.45,1.45,0,0,0-.56-.31,2.07,2.07,0,0,0-.71-.11,2.35,2.35,0,0,0-.71.11,1.76,1.76,0,0,0-.57.32,1.71,1.71,0,0,0-.42.47,1.62,1.62,0,0,0-.24.61.59.59,0,0,1-.23.32.61.61,0,0,1-.4,0Z"/><path d="M384.57,11.31a.93.93,0,0,1,.25-.63.92.92,0,0,1,.28-.19.94.94,0,0,1,.34-.07,1,1,0,0,1,.35.07.9.9,0,0,1,.47.47,1,1,0,0,1,.07.35,1,1,0,0,1-.07.35.93.93,0,0,1-.47.46.84.84,0,0,1-.35.07.88.88,0,0,1-.62-.26.71.71,0,0,1-.18-.27A.81.81,0,0,1,384.57,11.31Z"/><path d="M394.27,11.12v1h-5.4v-1H391V4.25c0-.21,0-.42,0-.63l-1.79,1.54a.5.5,0,0,1-.19.1h-.17a.35.35,0,0,1-.14-.06.22.22,0,0,1-.1-.09l-.4-.54,3-2.6h1v9.15Z"/><path d="M400.8,6.82a2.78,2.78,0,0,1,1.45.9,2.45,2.45,0,0,1,.51,1.6,2.93,2.93,0,0,1-.25,1.2,2.67,2.67,0,0,1-.7.9,3.14,3.14,0,0,1-1.07.57A4.64,4.64,0,0,1,398,12a3.09,3.09,0,0,1-1.08-.57,2.67,2.67,0,0,1-.7-.9,2.92,2.92,0,0,1-.24-1.2,2.51,2.51,0,0,1,.5-1.6,2.82,2.82,0,0,1,1.45-.9,2.4,2.4,0,0,1-1.2-.88,2.4,2.4,0,0,1-.4-1.4,2.5,2.5,0,0,1,.22-1,2.42,2.42,0,0,1,.62-.84,2.67,2.67,0,0,1,1-.56,3.8,3.8,0,0,1,2.49,0,2.81,2.81,0,0,1,1,.56,2.55,2.55,0,0,1,.62.84,2.67,2.67,0,0,1,.22,1,2.41,2.41,0,0,1-.41,1.4A2.4,2.4,0,0,1,400.8,6.82Zm-1.44,4.38a2.66,2.66,0,0,0,.88-.14,1.81,1.81,0,0,0,.66-.39,1.71,1.71,0,0,0,.42-.6,2.11,2.11,0,0,0,.14-.77,2.17,2.17,0,0,0-.17-.89,1.55,1.55,0,0,0-.46-.6,2,2,0,0,0-.68-.34,3,3,0,0,0-.79-.11,3,3,0,0,0-.8.11,1.93,1.93,0,0,0-.67.34,1.46,1.46,0,0,0-.46.6,2,2,0,0,0-.18.89,1.92,1.92,0,0,0,.15.77,1.57,1.57,0,0,0,.41.6,1.81,1.81,0,0,0,.66.39A2.72,2.72,0,0,0,399.36,11.2Zm0-8.35a2.1,2.1,0,0,0-.79.14,1.64,1.64,0,0,0-.57.36,1.52,1.52,0,0,0-.35.55,1.76,1.76,0,0,0-.12.66,2.53,2.53,0,0,0,.1.67,1.61,1.61,0,0,0,.32.57,1.5,1.5,0,0,0,.57.4,2.43,2.43,0,0,0,1.68,0,1.47,1.47,0,0,0,.88-1,2.18,2.18,0,0,0,.1-.67,2,2,0,0,0-.11-.66,1.67,1.67,0,0,0-.35-.55,1.64,1.64,0,0,0-.57-.36A2.14,2.14,0,0,0,399.36,2.85Z"/><path d="M411.2,8.44v.72a.24.24,0,0,1-.27.27h-1.25v2.65h-1.1V9.43H404.1a.41.41,0,0,1-.24-.08.37.37,0,0,1-.13-.2l-.13-.64L408.51,2h1.17V8.44Zm-2.62,0V4.28c0-.12,0-.25,0-.4s0-.29.05-.44l-3.68,5Z"/><path d="M412.39,11.31a1,1,0,0,1,.06-.35,1.07,1.07,0,0,1,.19-.28.88.88,0,0,1,.27-.19,1,1,0,0,1,.35-.07.94.94,0,0,1,.34.07,1,1,0,0,1,.29.19,1.07,1.07,0,0,1,.19.28,1,1,0,0,1,.07.35,1,1,0,0,1-.07.35.88.88,0,0,1-.19.27.81.81,0,0,1-.29.19.77.77,0,0,1-.34.07.84.84,0,0,1-.35-.07.74.74,0,0,1-.27-.19.88.88,0,0,1-.19-.27A1,1,0,0,1,412.39,11.31Z"/><path d="M421.87,10.89a.45.45,0,0,1,.33.12.43.43,0,0,1,.12.31v.76h-6.73v-.43a.66.66,0,0,1,.06-.27.62.62,0,0,1,.17-.26l3.23-3.25c.27-.27.51-.53.73-.78a6.27,6.27,0,0,0,.57-.76,4.12,4.12,0,0,0,.36-.77,2.82,2.82,0,0,0,.12-.83,1.87,1.87,0,0,0-.14-.78,1.46,1.46,0,0,0-.38-.55,1.44,1.44,0,0,0-.58-.33A2.3,2.3,0,0,0,419,3a2.35,2.35,0,0,0-.71.11,2,2,0,0,0-.57.32,1.71,1.71,0,0,0-.42.47,2,2,0,0,0-.24.61.55.55,0,0,1-.23.32.61.61,0,0,1-.4,0l-.66-.11a3.72,3.72,0,0,1,.39-1.22,2.92,2.92,0,0,1,.72-.9,3,3,0,0,1,1-.54,3.65,3.65,0,0,1,1.21-.19,3.85,3.85,0,0,1,1.19.19,2.74,2.74,0,0,1,1,.56,2.6,2.6,0,0,1,.64.88,3,3,0,0,1,.23,1.18,3,3,0,0,1-.17,1,4,4,0,0,1-.46.92,7.22,7.22,0,0,1-.66.85c-.25.27-.52.55-.8.83l-2.66,2.72.57-.12a3.64,3.64,0,0,1,.56,0Z"/><path d="M430.26,11.12v1h-5.41v-1H427V4.25c0-.21,0-.42,0-.63l-1.79,1.54a.41.41,0,0,1-.18.1h-.17a.47.47,0,0,1-.15-.06.22.22,0,0,1-.1-.09l-.39-.54,3-2.6h1v9.15Z"/><path d="M434.6,5.78l-.26.32-.24.32a2.51,2.51,0,0,1,.79-.38,3.14,3.14,0,0,1,.94-.14,3.39,3.39,0,0,1,1.15.2,2.82,2.82,0,0,1,.95.59,2.75,2.75,0,0,1,.64.94,3.21,3.21,0,0,1,.24,1.28,3.26,3.26,0,0,1-.25,1.29,3.15,3.15,0,0,1-.71,1,3.24,3.24,0,0,1-1.09.7A3.92,3.92,0,0,1,434,12a2.87,2.87,0,0,1-1.06-.69,3.13,3.13,0,0,1-.67-1.08A4.29,4.29,0,0,1,432,8.75a4,4,0,0,1,.29-1.41,7.36,7.36,0,0,1,.93-1.6l2.57-3.44a.67.67,0,0,1,.27-.22.8.8,0,0,1,.39-.08h1.12Zm.73,5.37a2.51,2.51,0,0,0,.92-.16,2.21,2.21,0,0,0,.7-.45,2.12,2.12,0,0,0,.45-.68,2.2,2.2,0,0,0,.16-.86,2.28,2.28,0,0,0-.16-.89,1.86,1.86,0,0,0-.44-.68,2,2,0,0,0-.68-.42,2.39,2.39,0,0,0-.86-.15,2.47,2.47,0,0,0-.92.17,2.11,2.11,0,0,0-.69.47,2,2,0,0,0-.44.67,2.18,2.18,0,0,0-.15.8,2.81,2.81,0,0,0,.14.89,2,2,0,0,0,.41.69,1.91,1.91,0,0,0,.67.44A2.24,2.24,0,0,0,435.33,11.15Z"/><path d="M440.2,11.31a1,1,0,0,1,.07-.35,1.34,1.34,0,0,1,.18-.28.92.92,0,0,1,.28-.19,1,1,0,0,1,.35-.07,1,1,0,0,1,.34.07.92.92,0,0,1,.28.19.87.87,0,0,1,.19.28.84.84,0,0,1,.07.35.81.81,0,0,1-.07.35.74.74,0,0,1-.19.27.77.77,0,0,1-.28.19.8.8,0,0,1-.34.07.84.84,0,0,1-.35-.07.77.77,0,0,1-.28-.19,1.06,1.06,0,0,1-.18-.27A1,1,0,0,1,440.2,11.31Z"/><path d="M443.66,4.73A3.72,3.72,0,0,1,444,3.51a2.92,2.92,0,0,1,.72-.9,3,3,0,0,1,1-.54,3.59,3.59,0,0,1,1.2-.19,3.5,3.5,0,0,1,1.19.19,2.64,2.64,0,0,1,.93.52,2.34,2.34,0,0,1,.61.81,2.66,2.66,0,0,1,.22,1.07,2.53,2.53,0,0,1-.13.85,2.08,2.08,0,0,1-.35.66,2,2,0,0,1-.55.48,3.35,3.35,0,0,1-.72.32,2.72,2.72,0,0,1,1.48.87,2.37,2.37,0,0,1,.49,1.54,2.81,2.81,0,0,1-1,2.2,3.29,3.29,0,0,1-1.07.6,4.38,4.38,0,0,1-2.68,0,2.66,2.66,0,0,1-1-.55,3,3,0,0,1-.65-.83,6.23,6.23,0,0,1-.43-1l.54-.22a.68.68,0,0,1,.42-.05.4.4,0,0,1,.29.23c.06.13.13.29.23.47a2.22,2.22,0,0,0,.37.53,2,2,0,0,0,1.55.6,2.27,2.27,0,0,0,.93-.17,1.88,1.88,0,0,0,1.06-1.06,2,2,0,0,0,.13-.67,2.45,2.45,0,0,0-.11-.74,1.28,1.28,0,0,0-.39-.59,2.08,2.08,0,0,0-.79-.38,4.7,4.7,0,0,0-1.29-.14V6.46a4.27,4.27,0,0,0,1.1-.14,2.05,2.05,0,0,0,.74-.37,1.29,1.29,0,0,0,.41-.55,1.88,1.88,0,0,0,.13-.72,2,2,0,0,0-.13-.76,1.54,1.54,0,0,0-.38-.54,1.57,1.57,0,0,0-.57-.31,2,2,0,0,0-.71-.11,2.28,2.28,0,0,0-.7.11,1.92,1.92,0,0,0-.58.32,1.71,1.71,0,0,0-.42.47,2,2,0,0,0-.24.61.59.59,0,0,1-.23.32.58.58,0,0,1-.39,0Z"/><path d="M458.68,8.44v.72a.29.29,0,0,1-.07.19.29.29,0,0,1-.21.08h-1.25v2.65h-1.1V9.43h-4.48a.41.41,0,0,1-.24-.08.37.37,0,0,1-.13-.2l-.13-.64L456,2h1.17V8.44Zm-2.63,0V4.28c0-.12,0-.25,0-.4s0-.29.05-.44l-3.68,5Z"/></g><path d="M363.58,156.58l-2.36,7.31h-1c-.13,0-.21-.08-.26-.24l-1.62-5a1.89,1.89,0,0,1-.09-.34c0-.11-.05-.22-.07-.33,0,.11-.05.22-.07.33s-.06.23-.1.35l-1.64,5a.29.29,0,0,1-.29.24h-1l-2.36-7.31h1a.42.42,0,0,1,.26.08.37.37,0,0,1,.14.19l1.4,4.7c.08.35.15.68.2,1,0-.15.08-.32.13-.48s.09-.33.15-.5l1.54-4.73a.46.46,0,0,1,.13-.18.32.32,0,0,1,.22-.07h.56a.36.36,0,0,1,.24.07.46.46,0,0,1,.13.18l1.51,4.73c.05.17.1.34.14.5s.08.33.12.48q0-.22.09-.48c0-.16.08-.32.12-.5l1.43-4.7a.38.38,0,0,1,.14-.19.36.36,0,0,1,.24-.08Z"/><path d="M374.92,156.58l-2.37,7.31h-1c-.12,0-.21-.08-.26-.24l-1.61-5a3.37,3.37,0,0,1-.1-.34c0-.11,0-.22-.07-.33,0,.11-.05.22-.07.33s-.06.23-.09.35l-1.65,5a.28.28,0,0,1-.29.24h-1l-2.37-7.31h1a.39.39,0,0,1,.25.08.39.39,0,0,1,.15.19l1.4,4.7c.08.35.14.68.19,1,0-.15.09-.32.13-.48l.15-.5,1.55-4.73a.36.36,0,0,1,.12-.18.34.34,0,0,1,.22-.07h.56a.36.36,0,0,1,.24.07.32.32,0,0,1,.13.18l1.51,4.73c.05.17.1.34.14.5s.09.33.13.48q0-.22.09-.48c0-.16.07-.32.12-.5l1.42-4.7a.38.38,0,0,1,.14-.19.41.41,0,0,1,.24-.08Z"/><path d="M386.25,156.58l-2.37,7.31h-1c-.13,0-.22-.08-.26-.24l-1.62-5a1.89,1.89,0,0,1-.09-.34c0-.11,0-.22-.08-.33,0,.11,0,.22-.07.33a2.25,2.25,0,0,1-.09.35l-1.65,5a.28.28,0,0,1-.28.24h-1l-2.37-7.31h1a.45.45,0,0,1,.26.08.43.43,0,0,1,.14.19l1.4,4.7c.08.35.15.68.19,1,.05-.15.09-.32.14-.48s.09-.33.14-.5l1.55-4.73a.36.36,0,0,1,.12-.18.35.35,0,0,1,.23-.07h.56a.4.4,0,0,1,.24.07.46.46,0,0,1,.13.18l1.5,4.73c.06.17.1.34.15.5l.12.48q0-.22.09-.48c0-.16.08-.32.12-.5l1.43-4.7a.36.36,0,0,1,.13-.19.41.41,0,0,1,.24-.08Z"/><path d="M387,163.1a.86.86,0,0,1,.07-.36.88.88,0,0,1,.18-.29,1,1,0,0,1,.29-.19.84.84,0,0,1,.35-.07.86.86,0,0,1,.36.07.85.85,0,0,1,.48.48.86.86,0,0,1,.07.36.78.78,0,0,1-.07.35,1,1,0,0,1-.19.29,1.12,1.12,0,0,1-.29.19.86.86,0,0,1-.36.07.84.84,0,0,1-.35-.07,1,1,0,0,1-.29-.19,1,1,0,0,1-.25-.64Z"/><path d="M396.53,162.87a2.5,2.5,0,0,1-.57.5,3.61,3.61,0,0,1-.71.35,4.06,4.06,0,0,1-.78.2,4.4,4.4,0,0,1-.8.07,3.75,3.75,0,0,1-1.4-.25,3,3,0,0,1-1.1-.75,3.41,3.41,0,0,1-.73-1.23,5,5,0,0,1-.26-1.67,4.17,4.17,0,0,1,.24-1.43,3.29,3.29,0,0,1,.67-1.15,3.17,3.17,0,0,1,1.08-.77,3.59,3.59,0,0,1,1.42-.27,3.23,3.23,0,0,1,1.22.22,2.85,2.85,0,0,1,1,.63,2.88,2.88,0,0,1,.63,1,3.75,3.75,0,0,1,.24,1.39.86.86,0,0,1-.07.4.25.25,0,0,1-.24.1h-4.89a4.72,4.72,0,0,0,.19,1.21,2.57,2.57,0,0,0,.47.85,1.93,1.93,0,0,0,.73.51,2.3,2.3,0,0,0,.93.17,3,3,0,0,0,.84-.11,4.4,4.4,0,0,0,.6-.24l.42-.24a.53.53,0,0,1,.29-.12.3.3,0,0,1,.25.13Zm-1-3.43a2.39,2.39,0,0,0-.13-.82A1.75,1.75,0,0,0,395,158a1.67,1.67,0,0,0-.59-.42,2,2,0,0,0-.79-.15,2,2,0,0,0-1.46.54,2.52,2.52,0,0,0-.67,1.49Z"/><path d="M404.13,163.89h-1.24a.35.35,0,0,1-.24-.08.66.66,0,0,1-.15-.19l-1.84-2.86-.06.2-.09.17-1.71,2.49a1.39,1.39,0,0,1-.15.19.34.34,0,0,1-.23.08h-1.15l2.56-3.75-2.46-3.56h1.24a.46.46,0,0,1,.23,0,.49.49,0,0,1,.13.15l1.8,2.74a1,1,0,0,1,.18-.4l1.57-2.31a.61.61,0,0,1,.14-.17.28.28,0,0,1,.18-.06H404l-2.46,3.49Z"/><path d="M405.12,157.61a4.16,4.16,0,0,1,1.31-.87,4,4,0,0,1,1.55-.29,2.68,2.68,0,0,1,1.09.21,2.18,2.18,0,0,1,.8.56,2.32,2.32,0,0,1,.49.87,3.67,3.67,0,0,1,.17,1.13v4.67H410a.55.55,0,0,1-.29-.06.41.41,0,0,1-.16-.24l-.15-.69c-.19.17-.38.33-.56.47a3,3,0,0,1-.58.34,2.69,2.69,0,0,1-.64.22,3.55,3.55,0,0,1-.76.08,2.58,2.58,0,0,1-.8-.12,1.92,1.92,0,0,1-.66-.36,1.8,1.8,0,0,1-.44-.6,2.27,2.27,0,0,1-.16-.86,1.63,1.63,0,0,1,.24-.84,2.23,2.23,0,0,1,.77-.71,5.66,5.66,0,0,1,1.39-.51,10.28,10.28,0,0,1,2.11-.22v-.57a1.93,1.93,0,0,0-.37-1.29,1.32,1.32,0,0,0-1.07-.44,2.29,2.29,0,0,0-.8.12,2.82,2.82,0,0,0-.55.27l-.41.26a.56.56,0,0,1-.33.12.41.41,0,0,1-.23-.06,1.29,1.29,0,0,1-.16-.17Zm4.15,3a11.64,11.64,0,0,0-1.51.14,4.53,4.53,0,0,0-1,.29,1.47,1.47,0,0,0-.57.43.91.91,0,0,0-.18.55,1.27,1.27,0,0,0,.1.5.88.88,0,0,0,.26.34.91.91,0,0,0,.38.19,1.73,1.73,0,0,0,.47.06,3,3,0,0,0,.62-.06,2.77,2.77,0,0,0,.53-.2,3,3,0,0,0,.48-.31,4.2,4.2,0,0,0,.44-.41Z"/><path d="M412.48,163.89v-7.31h.77a.31.31,0,0,1,.34.27l.1.75a3.87,3.87,0,0,1,.9-.82,2.18,2.18,0,0,1,1.17-.31,1.72,1.72,0,0,1,1.2.41,2.36,2.36,0,0,1,.66,1.11,2.21,2.21,0,0,1,1-1.16,2.38,2.38,0,0,1,.66-.28,3.43,3.43,0,0,1,.71-.08,2.74,2.74,0,0,1,1,.18,2,2,0,0,1,.77.54,2.28,2.28,0,0,1,.48.87,3.83,3.83,0,0,1,.16,1.18v4.65H421.1v-4.65a1.94,1.94,0,0,0-.37-1.3,1.33,1.33,0,0,0-1.09-.45,1.73,1.73,0,0,0-.6.11,1.67,1.67,0,0,0-.5.33,1.6,1.6,0,0,0-.34.55,2,2,0,0,0-.13.76v4.65h-1.29v-4.65a2.1,2.1,0,0,0-.35-1.32,1.28,1.28,0,0,0-1-.43,1.59,1.59,0,0,0-.88.26,3,3,0,0,0-.75.69v5.45Z"/><path d="M425.58,157.72a3.71,3.71,0,0,1,1.06-.92,2.79,2.79,0,0,1,1.39-.35,2.72,2.72,0,0,1,1.15.24,2.4,2.4,0,0,1,.87.72,3.34,3.34,0,0,1,.55,1.17,6,6,0,0,1,.2,1.61,4.81,4.81,0,0,1-.22,1.5,3.55,3.55,0,0,1-.62,1.21,2.9,2.9,0,0,1-2.32,1.09,2.54,2.54,0,0,1-1.15-.23,2.73,2.73,0,0,1-.85-.63v3.24h-1.29v-9.79h.77a.32.32,0,0,1,.34.27Zm.06,4.41a2.07,2.07,0,0,0,.77.67,2.2,2.2,0,0,0,.94.2,1.86,1.86,0,0,0,1.57-.73,3.39,3.39,0,0,0,.55-2.08,5.44,5.44,0,0,0-.12-1.23,2.51,2.51,0,0,0-.37-.84,1.4,1.4,0,0,0-.58-.48,2,2,0,0,0-.79-.15,2.07,2.07,0,0,0-1.1.29,2.91,2.91,0,0,0-.87.82Z"/><path d="M433.76,153.26v10.63h-1.28V153.26Z"/><path d="M441.77,162.87a2.5,2.5,0,0,1-.57.5,3.61,3.61,0,0,1-.71.35,4.06,4.06,0,0,1-.78.2,4.4,4.4,0,0,1-.8.07,3.75,3.75,0,0,1-1.4-.25,3.08,3.08,0,0,1-1.1-.75,3.56,3.56,0,0,1-.73-1.23,5,5,0,0,1-.26-1.67,4.17,4.17,0,0,1,.24-1.43,3.29,3.29,0,0,1,.67-1.15,3.17,3.17,0,0,1,1.08-.77,3.59,3.59,0,0,1,1.42-.27,3.23,3.23,0,0,1,1.22.22,2.76,2.76,0,0,1,1,.63,3.05,3.05,0,0,1,.64,1,4,4,0,0,1,.23,1.39.86.86,0,0,1-.07.4.25.25,0,0,1-.24.1h-4.89a4.72,4.72,0,0,0,.19,1.21,2.42,2.42,0,0,0,.48.85,1.83,1.83,0,0,0,.72.51,2.35,2.35,0,0,0,.94.17,2.93,2.93,0,0,0,.83-.11,4.4,4.4,0,0,0,.6-.24l.42-.24a.55.55,0,0,1,.3-.12.29.29,0,0,1,.24.13Zm-1-3.43a2.66,2.66,0,0,0-.12-.82,1.92,1.92,0,0,0-.37-.64,1.67,1.67,0,0,0-.59-.42,2,2,0,0,0-.79-.15,2,2,0,0,0-1.46.54,2.46,2.46,0,0,0-.66,1.49Z"/><path d="M443.24,163.1a1,1,0,0,1,.07-.36,1.12,1.12,0,0,1,.19-.29.92.92,0,0,1,.28-.19.86.86,0,0,1,.36-.07.84.84,0,0,1,.35.07,1,1,0,0,1,.29.19.91.91,0,0,1,.19.29.86.86,0,0,1,.08.36.78.78,0,0,1-.08.35.81.81,0,0,1-.19.29,1,1,0,0,1-.29.19.84.84,0,0,1-.35.07.86.86,0,0,1-.36-.07.92.92,0,0,1-.28-.19,1,1,0,0,1-.19-.29A1,1,0,0,1,443.24,163.1Z"/><path d="M452,157.88l-.11.12a.28.28,0,0,1-.16.05.4.4,0,0,1-.24-.09l-.32-.2a3,3,0,0,0-.47-.2,2.56,2.56,0,0,0-1.64.1,1.82,1.82,0,0,0-.68.55,2.32,2.32,0,0,0-.42.88,4,4,0,0,0-.14,1.14,4.18,4.18,0,0,0,.15,1.18,2.45,2.45,0,0,0,.43.87,1.82,1.82,0,0,0,.67.53,2.07,2.07,0,0,0,.88.19,2.11,2.11,0,0,0,.77-.12,2.21,2.21,0,0,0,.51-.24l.33-.25a.39.39,0,0,1,.26-.12.3.3,0,0,1,.25.13l.36.47a2.84,2.84,0,0,1-.54.5,3.21,3.21,0,0,1-.66.35,3.6,3.6,0,0,1-.73.21,5,5,0,0,1-.78.06,3.13,3.13,0,0,1-1.27-.25,2.94,2.94,0,0,1-1-.73,3.42,3.42,0,0,1-.68-1.18,4.67,4.67,0,0,1-.25-1.6,4.81,4.81,0,0,1,.23-1.5,3.41,3.41,0,0,1,.66-1.2,3.16,3.16,0,0,1,1.08-.78,3.57,3.57,0,0,1,1.47-.28,3.4,3.4,0,0,1,1.36.25,3.18,3.18,0,0,1,1,.7Z"/><path d="M456.7,156.47a3.9,3.9,0,0,1,1.45.26,3,3,0,0,1,1.09.76,3.21,3.21,0,0,1,.7,1.19,5.16,5.16,0,0,1,0,3.11,3.17,3.17,0,0,1-.7,1.18,3,3,0,0,1-1.09.76,4.17,4.17,0,0,1-2.9,0,3.06,3.06,0,0,1-1.1-.76,3.46,3.46,0,0,1-.7-1.18,5.16,5.16,0,0,1,0-3.11,3.5,3.5,0,0,1,.7-1.19,3.06,3.06,0,0,1,1.1-.76A3.94,3.94,0,0,1,456.7,156.47Zm0,6.52a1.86,1.86,0,0,0,1.62-.73,4.07,4.07,0,0,0,0-4,1.86,1.86,0,0,0-1.62-.73,2.33,2.33,0,0,0-.95.18,1.82,1.82,0,0,0-.68.55,2.36,2.36,0,0,0-.4.86,4.69,4.69,0,0,0-.14,1.17,3.3,3.3,0,0,0,.54,2A1.88,1.88,0,0,0,456.7,163Z"/><path d="M461.81,163.89v-7.31h.77a.32.32,0,0,1,.34.27l.09.75a3.91,3.91,0,0,1,.91-.82,2.18,2.18,0,0,1,1.17-.31,1.67,1.67,0,0,1,1.19.41,2.21,2.21,0,0,1,.66,1.11,2.47,2.47,0,0,1,.41-.69,2.45,2.45,0,0,1,1.22-.75,3.36,3.36,0,0,1,.71-.08,2.78,2.78,0,0,1,1,.18,2,2,0,0,1,.76.54,2.28,2.28,0,0,1,.48.87,3.81,3.81,0,0,1,.17,1.18v4.65h-1.29v-4.65a1.94,1.94,0,0,0-.38-1.3,1.33,1.33,0,0,0-1.08-.45,1.56,1.56,0,0,0-1.11.44,1.77,1.77,0,0,0-.34.55,2.2,2.2,0,0,0-.12.76v4.65h-1.29v-4.65a2,2,0,0,0-.36-1.32,1.27,1.27,0,0,0-1-.43,1.62,1.62,0,0,0-.88.26,2.82,2.82,0,0,0-.74.69v5.45Z"/><line class="cls-13" x1="359.84" y1="125.62" x2="175.57" y2="125.62"/><polygon class="cls-14" points="179.48 120.47 177.29 125.63 179.48 130.78 167.27 125.63 179.48 120.47"/></svg>