<svg id="Layer_1" data-name="Layer 1" xmlns="http://www.w3.org/2000/svg" width="530.24" height="140.91" viewBox="0 0 530.24 140.91"><defs><style>.cls-1{fill:#14bf96;}.cls-2{fill:#ffd633;}.cls-3{fill:#2d2d2d;}.cls-4{isolation:isolate;}.cls-5{fill:none;stroke:#14bf96;stroke-miterlimit:10;stroke-width:4.53px;}.cls-6{fill:#1a1a1a;}.cls-7{fill:#fff;}</style></defs><title>bitrate</title><rect class="cls-1" x="39.59" width="148.46" height="34.48"/><rect class="cls-2" x="39.13" y="5.89" width="148.91" height="21.78"/><rect class="cls-1" x="187.02" width="150.44" height="34.48"/><rect class="cls-3" x="187.02" y="5.89" width="150.44" height="21.78"/><g class="cls-4"><path d="M113,65.64V52.9a14.92,14.92,0,0,1-1.74,1.21,13.88,13.88,0,0,1-2.31,1V53.34A14,14,0,0,0,113,50.78h2V65.64h4v1.65H109V65.64Z"/></g><rect class="cls-5" x="97.92" y="44.14" width="31.3" height="29.94" rx="1.81"/><g class="cls-4"><path d="M411.22,65.64V52.9a14.92,14.92,0,0,1-1.74,1.21,13.88,13.88,0,0,1-2.31,1V53.34a13.91,13.91,0,0,0,4.05-2.56h2V65.64h4v1.65h-10V65.64Z"/></g><rect class="cls-5" x="396.11" y="44.14" width="31.3" height="29.94" rx="1.81"/><rect class="cls-1" x="336.77" width="150.44" height="34.48"/><rect class="cls-2" x="336.31" y="5.89" width="150.89" height="21.78"/><rect class="cls-6" x="246.58" y="44.14" width="31.3" height="29.94" rx="1.81"/><rect class="cls-5" x="246.58" y="44.14" width="31.3" height="29.94" rx="1.81"/><g class="cls-4"><path class="cls-7" d="M262,49.79a4.78,4.78,0,0,1,4.3,2.36,12,12,0,0,1,1.47,6.38,12,12,0,0,1-1.47,6.39,5.09,5.09,0,0,1-8.59,0,11.94,11.94,0,0,1-1.49-6.39,11.93,11.93,0,0,1,1.49-6.38A4.78,4.78,0,0,1,262,49.79Zm-3.23,12.27,5.71-9a3.27,3.27,0,0,0-1.18-1.33,2.68,2.68,0,0,0-1.31-.35,2.91,2.91,0,0,0-2.69,2,11.71,11.71,0,0,0-.93,5c0,.46,0,1,0,1.49A13.65,13.65,0,0,0,258.73,62.06Zm6.42-7-5.66,9a3.36,3.36,0,0,0,1.05,1.17,2.38,2.38,0,0,0,1.33.39,3,3,0,0,0,2.87-2.26,14.33,14.33,0,0,0,.85-5A12.3,12.3,0,0,0,265.15,55.08Z"/></g><g class="cls-4"><path d="M298.3,135.21a1.13,1.13,0,0,1-.8-1.94,1.08,1.08,0,0,1,.8-.34,1.16,1.16,0,0,1,1.14,1.14,1.13,1.13,0,0,1-1.14,1.14Z"/><path d="M306.89,123.71a3.14,3.14,0,0,1,2.83,1.56,9.56,9.56,0,0,1,0,8.39,3.35,3.35,0,0,1-5.65,0,9.56,9.56,0,0,1,0-8.39A3.13,3.13,0,0,1,306.89,123.71Zm-2.12,8.07,3.75-5.88a2.14,2.14,0,0,0-.77-.88,1.78,1.78,0,0,0-.86-.22,1.91,1.91,0,0,0-1.77,1.29,7.7,7.7,0,0,0-.61,3.29c0,.3,0,.63,0,1A8.63,8.63,0,0,0,304.77,131.78Zm4.22-4.59-3.72,5.92a2.23,2.23,0,0,0,.69.76,1.56,1.56,0,0,0,.87.26,2,2,0,0,0,1.89-1.49,9.35,9.35,0,0,0,.56-3.29A8.1,8.1,0,0,0,309,127.19Z"/><path d="M315.48,123.71a3.14,3.14,0,0,1,2.83,1.56,9.56,9.56,0,0,1,0,8.39,3.35,3.35,0,0,1-5.65,0,9.56,9.56,0,0,1,0-8.39A3.13,3.13,0,0,1,315.48,123.71Zm-2.11,8.07,3.74-5.88a2.07,2.07,0,0,0-.77-.88,1.75,1.75,0,0,0-.86-.22,1.91,1.91,0,0,0-1.77,1.29,7.7,7.7,0,0,0-.61,3.29c0,.3,0,.63,0,1A8.86,8.86,0,0,0,313.37,131.78Zm4.21-4.59-3.72,5.92a2.23,2.23,0,0,0,.69.76,1.56,1.56,0,0,0,.87.26,2,2,0,0,0,1.89-1.49,9.35,9.35,0,0,0,.56-3.29A8.1,8.1,0,0,0,317.58,127.19Z"/><path d="M324.08,123.71a3.13,3.13,0,0,1,2.82,1.56,9.56,9.56,0,0,1,0,8.39,3.35,3.35,0,0,1-5.65,0,9.56,9.56,0,0,1,0-8.39A3.14,3.14,0,0,1,324.08,123.71ZM322,131.78l3.74-5.88a2.07,2.07,0,0,0-.77-.88,1.75,1.75,0,0,0-.86-.22,1.91,1.91,0,0,0-1.77,1.29,7.7,7.7,0,0,0-.61,3.29c0,.3,0,.63,0,1A8.86,8.86,0,0,0,322,131.78Zm4.21-4.59-3.72,5.92a2.23,2.23,0,0,0,.69.76,1.59,1.59,0,0,0,.88.26,2,2,0,0,0,1.88-1.49,9.35,9.35,0,0,0,.56-3.29A8.1,8.1,0,0,0,326.17,127.19Z"/><path d="M332.67,123.71a3.13,3.13,0,0,1,2.82,1.56,9.56,9.56,0,0,1,0,8.39,3.34,3.34,0,0,1-5.64,0,9.47,9.47,0,0,1,0-8.39A3.13,3.13,0,0,1,332.67,123.71Zm-2.12,8.07,3.74-5.88a2.07,2.07,0,0,0-.77-.88,1.75,1.75,0,0,0-.86-.22,1.91,1.91,0,0,0-1.77,1.29,7.7,7.7,0,0,0-.61,3.29c0,.3,0,.63,0,1A8.86,8.86,0,0,0,330.55,131.78Zm4.21-4.59L331,133.11a2.23,2.23,0,0,0,.69.76,1.62,1.62,0,0,0,.88.26,2,2,0,0,0,1.88-1.49,9.35,9.35,0,0,0,.56-3.29A8.1,8.1,0,0,0,334.76,127.19Z"/><path d="M341.26,123.71a3.13,3.13,0,0,1,2.82,1.56,9.56,9.56,0,0,1,0,8.39,3.34,3.34,0,0,1-5.64,0,9.47,9.47,0,0,1,0-8.39A3.13,3.13,0,0,1,341.26,123.71Zm-2.12,8.07,3.75-5.88a2.21,2.21,0,0,0-.77-.88,1.81,1.81,0,0,0-.87-.22,1.93,1.93,0,0,0-1.77,1.29,7.86,7.86,0,0,0-.61,3.29c0,.3,0,.63,0,1A8.86,8.86,0,0,0,339.14,131.78Zm4.22-4.59-3.73,5.92a2.26,2.26,0,0,0,.7.76,1.56,1.56,0,0,0,.87.26,2,2,0,0,0,1.88-1.49,9.13,9.13,0,0,0,.56-3.29A8.1,8.1,0,0,0,343.36,127.19Z"/><path d="M349.85,123.71a3.12,3.12,0,0,1,2.82,1.56,9.56,9.56,0,0,1,0,8.39,3.34,3.34,0,0,1-5.64,0,9.47,9.47,0,0,1,0-8.39A3.13,3.13,0,0,1,349.85,123.71Zm-2.12,8.07,3.75-5.88a2.21,2.21,0,0,0-.77-.88,1.81,1.81,0,0,0-.87-.22,1.93,1.93,0,0,0-1.77,1.29,7.86,7.86,0,0,0-.61,3.29c0,.3,0,.63,0,1A8.86,8.86,0,0,0,347.73,131.78Zm4.22-4.59-3.72,5.92a2.23,2.23,0,0,0,.69.76,1.56,1.56,0,0,0,.87.26,2,2,0,0,0,1.88-1.49,9.13,9.13,0,0,0,.56-3.29A8.1,8.1,0,0,0,352,127.19Z"/><path d="M361.75,134.88h-6.56v-1.19a2.84,2.84,0,0,1,.19-1,4,4,0,0,1,.72-1.19c.35-.43.73-.86,1.12-1.26l.74-.76c.15-.15.48-.51,1-1.07a7.28,7.28,0,0,0,1-1.28,1.85,1.85,0,0,0,.24-.88,1.21,1.21,0,0,0-.56-1.08,2.12,2.12,0,0,0-1.25-.38,5,5,0,0,0-.89.09,6.38,6.38,0,0,0-.86.21c-.25.08-.65.25-1.2.5v-1.15a7,7,0,0,1,1.76-.58,9.29,9.29,0,0,1,1.46-.16,4.32,4.32,0,0,1,1.55.28,2,2,0,0,1,1.06.86,2.33,2.33,0,0,1,.34,1.23,3,3,0,0,1-.44,1.51,10.53,10.53,0,0,1-1.68,2l-.79.79L358,131a7.38,7.38,0,0,0-1,1.25,2.84,2.84,0,0,0-.43,1.43h5.21Z"/><path d="M372.5,134.47v-1.38a5.4,5.4,0,0,0,1.66.72,6.53,6.53,0,0,0,1.48.21,2.46,2.46,0,0,0,1.42-.32,1,1,0,0,0,.44-.79.76.76,0,0,0-.21-.54,2.93,2.93,0,0,0-1-.55l-.45-.19-.9-.35a4.65,4.65,0,0,1-1.83-1.05,1.79,1.79,0,0,1-.39-1.16,2,2,0,0,1,.75-1.59,3.77,3.77,0,0,1,2.41-.62,7.75,7.75,0,0,1,2.38.36v1.18a7.42,7.42,0,0,0-2.43-.46,2.46,2.46,0,0,0-1.29.29.85.85,0,0,0-.46.73.76.76,0,0,0,.4.67,7.41,7.41,0,0,0,1.3.58l.89.32a4.31,4.31,0,0,1,1.69,1,1.77,1.77,0,0,1,.49,1.29,2.08,2.08,0,0,1-.78,1.67,3.89,3.89,0,0,1-2.49.65A8.31,8.31,0,0,1,372.5,134.47Z"/></g><rect class="cls-1" x="39.61" y="93.39" width="446.19" height="4.77"/><rect class="cls-1" x="185.16" y="95.78" width="2.39" height="21.47"/><rect class="cls-1" x="335.48" y="95.78" width="2.39" height="21.47"/><g class="cls-4"><path d="M448.62,135.21a1.13,1.13,0,0,1-.8-1.94,1.08,1.08,0,0,1,.8-.34,1.16,1.16,0,0,1,1.14,1.14,1.13,1.13,0,0,1-1.14,1.14Z"/><path d="M457.21,123.71a3.14,3.14,0,0,1,2.83,1.56,9.56,9.56,0,0,1,0,8.39,3.35,3.35,0,0,1-5.65,0,9.56,9.56,0,0,1,0-8.39A3.13,3.13,0,0,1,457.21,123.71Zm-2.12,8.07,3.75-5.88a2.14,2.14,0,0,0-.77-.88,1.78,1.78,0,0,0-.86-.22,1.91,1.91,0,0,0-1.77,1.29,7.7,7.7,0,0,0-.61,3.29c0,.3,0,.63,0,1A9.88,9.88,0,0,0,455.09,131.78Zm4.22-4.59-3.72,5.92a2.23,2.23,0,0,0,.69.76,1.56,1.56,0,0,0,.87.26,2,2,0,0,0,1.89-1.49,9.35,9.35,0,0,0,.56-3.29A8.1,8.1,0,0,0,459.31,127.19Z"/><path d="M465.8,123.71a3.14,3.14,0,0,1,2.83,1.56,9.56,9.56,0,0,1,0,8.39,3.35,3.35,0,0,1-5.65,0,9.56,9.56,0,0,1,0-8.39A3.13,3.13,0,0,1,465.8,123.71Zm-2.11,8.07,3.74-5.88a2.07,2.07,0,0,0-.77-.88,1.75,1.75,0,0,0-.86-.22,1.91,1.91,0,0,0-1.77,1.29,7.7,7.7,0,0,0-.61,3.29c0,.3,0,.63,0,1A8.86,8.86,0,0,0,463.69,131.78Zm4.21-4.59-3.72,5.92a2.23,2.23,0,0,0,.69.76,1.57,1.57,0,0,0,.88.26,2,2,0,0,0,1.88-1.49,9.35,9.35,0,0,0,.56-3.29A8.1,8.1,0,0,0,467.9,127.19Z"/><path d="M474.4,123.71a3.13,3.13,0,0,1,2.82,1.56,9.56,9.56,0,0,1,0,8.39,3.34,3.34,0,0,1-5.64,0,9.47,9.47,0,0,1,0-8.39A3.12,3.12,0,0,1,474.4,123.71Zm-2.12,8.07L476,125.9a2.07,2.07,0,0,0-.77-.88,1.75,1.75,0,0,0-.86-.22,1.91,1.91,0,0,0-1.77,1.29,7.7,7.7,0,0,0-.61,3.29c0,.3,0,.63,0,1A8.86,8.86,0,0,0,472.28,131.78Zm4.21-4.59-3.72,5.92a2.23,2.23,0,0,0,.69.76,1.59,1.59,0,0,0,.88.26,2,2,0,0,0,1.88-1.49,9.35,9.35,0,0,0,.56-3.29A8.1,8.1,0,0,0,476.49,127.19Z"/><path d="M483,123.71a3.13,3.13,0,0,1,2.82,1.56,9.56,9.56,0,0,1,0,8.39,3.34,3.34,0,0,1-5.64,0,9.47,9.47,0,0,1,0-8.39A3.13,3.13,0,0,1,483,123.71Zm-2.12,8.07,3.75-5.88a2.15,2.15,0,0,0-.78-.88,1.75,1.75,0,0,0-.86-.22,1.92,1.92,0,0,0-1.77,1.29,7.7,7.7,0,0,0-.61,3.29c0,.3,0,.63,0,1A8.86,8.86,0,0,0,480.87,131.78Zm4.21-4.59-3.72,5.92a2.23,2.23,0,0,0,.69.76,1.62,1.62,0,0,0,.88.26,2,2,0,0,0,1.88-1.49,9.35,9.35,0,0,0,.56-3.29A8.1,8.1,0,0,0,485.08,127.19Z"/><path d="M491.58,123.71a3.13,3.13,0,0,1,2.82,1.56,9.56,9.56,0,0,1,0,8.39,3.34,3.34,0,0,1-5.64,0,9.47,9.47,0,0,1,0-8.39A3.13,3.13,0,0,1,491.58,123.71Zm-2.12,8.07,3.75-5.88a2.21,2.21,0,0,0-.77-.88,1.81,1.81,0,0,0-.87-.22,1.93,1.93,0,0,0-1.77,1.29,7.86,7.86,0,0,0-.61,3.29c0,.3,0,.63,0,1A8.86,8.86,0,0,0,489.46,131.78Zm4.22-4.59L490,133.11a2.23,2.23,0,0,0,.69.76,1.56,1.56,0,0,0,.87.26,2,2,0,0,0,1.88-1.49,9.13,9.13,0,0,0,.56-3.29A8.1,8.1,0,0,0,493.68,127.19Z"/><path d="M500.17,123.71a3.12,3.12,0,0,1,2.82,1.56,9.56,9.56,0,0,1,0,8.39,3.34,3.34,0,0,1-5.64,0,9.47,9.47,0,0,1,0-8.39A3.13,3.13,0,0,1,500.17,123.71Zm-2.12,8.07,3.75-5.88A2.21,2.21,0,0,0,501,125a1.8,1.8,0,0,0-.86-.22,1.93,1.93,0,0,0-1.78,1.29,7.86,7.86,0,0,0-.6,3.29c0,.3,0,.63,0,1A8.86,8.86,0,0,0,498.05,131.78Zm4.22-4.59-3.72,5.92a2.23,2.23,0,0,0,.69.76,1.56,1.56,0,0,0,.87.26,2,2,0,0,0,1.88-1.49,9.13,9.13,0,0,0,.56-3.29A8.1,8.1,0,0,0,502.27,127.19Z"/><path d="M505.48,134.69v-1.37a6.36,6.36,0,0,0,2.78.81,2.55,2.55,0,0,0,1.78-.65,2.24,2.24,0,0,0,.7-1.69,2.1,2.1,0,0,0-.77-1.68,4.15,4.15,0,0,0-2.63-.65h-.72v-1.08h1a2.67,2.67,0,0,0,2-.62,1.86,1.86,0,0,0,.61-1.36,1.51,1.51,0,0,0-.5-1.14,2.16,2.16,0,0,0-1.52-.46,5.56,5.56,0,0,0-2.48.65v-1.24a7,7,0,0,1,2.43-.5,3.74,3.74,0,0,1,2.73.78,2.51,2.51,0,0,1,.75,1.78,2.55,2.55,0,0,1-.4,1.39,3.26,3.26,0,0,1-1.46,1.16,4,4,0,0,1,1.42.69,2.62,2.62,0,0,1,.73,1,2.88,2.88,0,0,1,.25,1.23,3.21,3.21,0,0,1-1.13,2.52,4.25,4.25,0,0,1-2.92,1,9.36,9.36,0,0,1-1.13-.07A6.81,6.81,0,0,1,505.48,134.69Z"/><path d="M522.83,134.47v-1.38a5.25,5.25,0,0,0,1.65.72A6.53,6.53,0,0,0,526,134a2.46,2.46,0,0,0,1.42-.32,1,1,0,0,0,.44-.79.76.76,0,0,0-.21-.54,2.93,2.93,0,0,0-1-.55l-.45-.19-.9-.35a4.65,4.65,0,0,1-1.83-1.05,1.79,1.79,0,0,1-.39-1.16,2,2,0,0,1,.75-1.59,3.78,3.78,0,0,1,2.42-.62,7.73,7.73,0,0,1,2.37.36v1.18a7.41,7.41,0,0,0-2.42-.46,2.48,2.48,0,0,0-1.3.29.85.85,0,0,0-.46.73.76.76,0,0,0,.4.67,7.41,7.41,0,0,0,1.3.58l.89.32a4.31,4.31,0,0,1,1.69,1,1.77,1.77,0,0,1,.49,1.29,2.08,2.08,0,0,1-.78,1.67,3.89,3.89,0,0,1-2.49.65A8.22,8.22,0,0,1,522.83,134.47Z"/></g><g class="cls-4"><path d="M152.75,135.21a1.09,1.09,0,0,1-.8-.33,1.13,1.13,0,0,1-.33-.81,1.14,1.14,0,0,1,2.27,0,1.13,1.13,0,0,1-.33.81A1.12,1.12,0,0,1,152.75,135.21Z"/><path d="M161.35,123.71a3.13,3.13,0,0,1,2.82,1.56,9.56,9.56,0,0,1,0,8.39,3.34,3.34,0,0,1-5.64,0,9.47,9.47,0,0,1,0-8.39A3.13,3.13,0,0,1,161.35,123.71Zm-2.12,8.07L163,125.9a2.07,2.07,0,0,0-.77-.88,1.75,1.75,0,0,0-.86-.22,1.91,1.91,0,0,0-1.77,1.29,7.86,7.86,0,0,0-.61,3.29c0,.3,0,.63,0,1A8.86,8.86,0,0,0,159.23,131.78Zm4.21-4.59-3.72,5.92a2.23,2.23,0,0,0,.69.76,1.59,1.59,0,0,0,.88.26,2,2,0,0,0,1.88-1.49,9.35,9.35,0,0,0,.56-3.29A8.1,8.1,0,0,0,163.44,127.19Z"/><path d="M169.94,123.71a3.13,3.13,0,0,1,2.82,1.56,9.56,9.56,0,0,1,0,8.39,3.34,3.34,0,0,1-5.64,0,9.47,9.47,0,0,1,0-8.39A3.13,3.13,0,0,1,169.94,123.71Zm-2.12,8.07,3.75-5.88a2.15,2.15,0,0,0-.78-.88,1.75,1.75,0,0,0-.86-.22,1.92,1.92,0,0,0-1.77,1.29,7.86,7.86,0,0,0-.61,3.29c0,.3,0,.63,0,1A8.86,8.86,0,0,0,167.82,131.78Zm4.21-4.59-3.72,5.92a2.16,2.16,0,0,0,.7.76,1.56,1.56,0,0,0,.87.26,2,2,0,0,0,1.88-1.49,9.35,9.35,0,0,0,.56-3.29A7.72,7.72,0,0,0,172,127.19Z"/><path d="M178.53,123.71a3.13,3.13,0,0,1,2.82,1.56,9.56,9.56,0,0,1,0,8.39,3.34,3.34,0,0,1-5.64,0,9.47,9.47,0,0,1,0-8.39A3.13,3.13,0,0,1,178.53,123.71Zm-2.12,8.07,3.75-5.88a2.21,2.21,0,0,0-.77-.88,1.81,1.81,0,0,0-.87-.22,1.93,1.93,0,0,0-1.77,1.29,7.86,7.86,0,0,0-.61,3.29c0,.3,0,.63,0,1A8.86,8.86,0,0,0,176.41,131.78Zm4.22-4.59-3.72,5.92a2.23,2.23,0,0,0,.69.76,1.56,1.56,0,0,0,.87.26,2,2,0,0,0,1.88-1.49,9.13,9.13,0,0,0,.56-3.29A8.1,8.1,0,0,0,180.63,127.19Z"/><path d="M187.12,123.71a3.12,3.12,0,0,1,2.82,1.56,9.47,9.47,0,0,1,0,8.39,3.34,3.34,0,0,1-5.64,0,9.47,9.47,0,0,1,0-8.39A3.13,3.13,0,0,1,187.12,123.71ZM185,131.78l3.75-5.88A2.21,2.21,0,0,0,188,125a1.8,1.8,0,0,0-.86-.22,1.93,1.93,0,0,0-1.78,1.29,7.86,7.86,0,0,0-.6,3.29c0,.3,0,.63,0,1A8.86,8.86,0,0,0,185,131.78Zm4.22-4.59-3.72,5.92a2.23,2.23,0,0,0,.69.76,1.56,1.56,0,0,0,.87.26,2,2,0,0,0,1.88-1.49,9.13,9.13,0,0,0,.56-3.29A8.1,8.1,0,0,0,189.22,127.19Z"/><path d="M195.71,123.71a3.11,3.11,0,0,1,2.82,1.56,9.47,9.47,0,0,1,0,8.39,3.34,3.34,0,0,1-5.64,0,9.47,9.47,0,0,1,0-8.39A3.13,3.13,0,0,1,195.71,123.71Zm-2.12,8.07,3.75-5.88a2.21,2.21,0,0,0-.77-.88,1.8,1.8,0,0,0-.86-.22,1.93,1.93,0,0,0-1.78,1.29,7.86,7.86,0,0,0-.6,3.29c0,.3,0,.63,0,1A8.86,8.86,0,0,0,193.59,131.78Zm4.22-4.59-3.72,5.92a2.23,2.23,0,0,0,.69.76,1.56,1.56,0,0,0,.87.26,2,2,0,0,0,1.89-1.49,9.35,9.35,0,0,0,.55-3.29A8.1,8.1,0,0,0,197.81,127.19Z"/><path d="M204.3,123.71a3.14,3.14,0,0,1,2.83,1.56,9.56,9.56,0,0,1,0,8.39,3.35,3.35,0,0,1-5.65,0,9.56,9.56,0,0,1,0-8.39A3.13,3.13,0,0,1,204.3,123.71Zm-2.12,8.07,3.75-5.88a2.14,2.14,0,0,0-.77-.88,1.78,1.78,0,0,0-.86-.22,1.91,1.91,0,0,0-1.77,1.29,7.7,7.7,0,0,0-.61,3.29c0,.3,0,.63,0,1A7.67,7.67,0,0,0,202.18,131.78Zm4.22-4.59-3.72,5.92a2.23,2.23,0,0,0,.69.76,1.56,1.56,0,0,0,.87.26,2,2,0,0,0,1.89-1.49,9.35,9.35,0,0,0,.56-3.29A8.1,8.1,0,0,0,206.4,127.19Z"/><path d="M212.57,133.8v-8.37a10.4,10.4,0,0,1-1.14.8,9,9,0,0,1-1.51.66v-1.17a9.29,9.29,0,0,0,2.65-1.68h1.3v9.76h2.61v1.08h-6.56V133.8Z"/><path d="M227,134.47v-1.38a5.25,5.25,0,0,0,1.65.72,6.61,6.61,0,0,0,1.49.21,2.48,2.48,0,0,0,1.42-.32,1,1,0,0,0,.43-.79.8.8,0,0,0-.2-.54,3,3,0,0,0-1-.55l-.45-.19-.9-.35a4.65,4.65,0,0,1-1.83-1.05,1.79,1.79,0,0,1-.39-1.16,2,2,0,0,1,.75-1.59,3.8,3.8,0,0,1,2.42-.62,7.73,7.73,0,0,1,2.37.36v1.18a7.41,7.41,0,0,0-2.42-.46,2.46,2.46,0,0,0-1.29.29.87.87,0,0,0-.47.73.77.77,0,0,0,.41.67,7.07,7.07,0,0,0,1.3.58l.88.32a4.37,4.37,0,0,1,1.7,1,1.81,1.81,0,0,1,.48,1.29,2.11,2.11,0,0,1-.77,1.67,3.9,3.9,0,0,1-2.5.65A8.26,8.26,0,0,1,227,134.47Z"/></g><rect class="cls-1" x="39.61" y="95.78" width="2.39" height="21.47"/><g class="cls-4"><path d="M4.29,135.21a1.13,1.13,0,0,1-.8-1.94,1.12,1.12,0,0,1,.8-.34,1.1,1.1,0,0,1,.8.34,1.07,1.07,0,0,1,.34.8,1.12,1.12,0,0,1-.33.81A1.13,1.13,0,0,1,4.29,135.21Z"/><path d="M12.88,123.71a3.14,3.14,0,0,1,2.83,1.56,9.56,9.56,0,0,1,0,8.39,3.13,3.13,0,0,1-2.83,1.55,3.12,3.12,0,0,1-2.82-1.55,9.56,9.56,0,0,1,0-8.39A3.13,3.13,0,0,1,12.88,123.71Zm-2.12,8.07,3.75-5.88a2.2,2.2,0,0,0-.77-.88,1.78,1.78,0,0,0-.86-.22,1.91,1.91,0,0,0-1.77,1.29,7.7,7.7,0,0,0-.61,3.29c0,.3,0,.63,0,1A8.63,8.63,0,0,0,10.76,131.78ZM15,127.2l-3.72,5.91a2.27,2.27,0,0,0,.69.77,1.55,1.55,0,0,0,.87.25,2,2,0,0,0,1.89-1.49,9.31,9.31,0,0,0,.56-3.29A8,8,0,0,0,15,127.2Z"/><path d="M21.47,123.71a3.14,3.14,0,0,1,2.83,1.56,9.56,9.56,0,0,1,0,8.39,3.13,3.13,0,0,1-2.83,1.55,3.12,3.12,0,0,1-2.82-1.55,9.56,9.56,0,0,1,0-8.39A3.13,3.13,0,0,1,21.47,123.71Zm-2.11,8.07,3.74-5.88a2.13,2.13,0,0,0-.77-.88,1.78,1.78,0,0,0-.86-.22,1.91,1.91,0,0,0-1.77,1.29,7.7,7.7,0,0,0-.61,3.29c0,.3,0,.63,0,1A8.86,8.86,0,0,0,19.36,131.78Zm4.21-4.58-3.72,5.91a2.27,2.27,0,0,0,.69.77,1.56,1.56,0,0,0,.88.25,2,2,0,0,0,1.88-1.49,9.31,9.31,0,0,0,.56-3.29A8,8,0,0,0,23.57,127.2Z"/><path d="M30.07,123.71a3.13,3.13,0,0,1,2.82,1.56,9.56,9.56,0,0,1,0,8.39,3.34,3.34,0,0,1-5.64,0,9.47,9.47,0,0,1,0-8.39A3.13,3.13,0,0,1,30.07,123.71ZM28,131.78l3.74-5.88a2.13,2.13,0,0,0-.77-.88,1.75,1.75,0,0,0-.86-.22,1.91,1.91,0,0,0-1.77,1.29,7.7,7.7,0,0,0-.61,3.29c0,.3,0,.63,0,1A8.86,8.86,0,0,0,28,131.78Zm4.21-4.58-3.72,5.91a2.27,2.27,0,0,0,.69.77,1.58,1.58,0,0,0,.88.25,2,2,0,0,0,1.88-1.49,9.31,9.31,0,0,0,.56-3.29A8,8,0,0,0,32.16,127.2Z"/><path d="M38.66,123.71a3.13,3.13,0,0,1,2.82,1.56,9.56,9.56,0,0,1,0,8.39,3.34,3.34,0,0,1-5.64,0,9.47,9.47,0,0,1,0-8.39A3.13,3.13,0,0,1,38.66,123.71Zm-2.12,8.07,3.75-5.88a2.22,2.22,0,0,0-.78-.88,1.75,1.75,0,0,0-.86-.22,1.92,1.92,0,0,0-1.77,1.29,7.86,7.86,0,0,0-.61,3.29c0,.3,0,.63,0,1A8.86,8.86,0,0,0,36.54,131.78Zm4.21-4.58L37,133.11a2.2,2.2,0,0,0,.7.77,1.55,1.55,0,0,0,.87.25,2,2,0,0,0,1.88-1.49,9.31,9.31,0,0,0,.56-3.29A8,8,0,0,0,40.75,127.2Z"/><path d="M47.25,123.71a3.13,3.13,0,0,1,2.82,1.56,9.56,9.56,0,0,1,0,8.39,3.34,3.34,0,0,1-5.64,0,9.47,9.47,0,0,1,0-8.39A3.13,3.13,0,0,1,47.25,123.71Zm-2.12,8.07,3.75-5.88a2.22,2.22,0,0,0-.78-.88,1.75,1.75,0,0,0-.86-.22,1.93,1.93,0,0,0-1.77,1.29,7.86,7.86,0,0,0-.61,3.29c0,.3,0,.63,0,1A8.86,8.86,0,0,0,45.13,131.78Zm4.22-4.58-3.73,5.91a2.3,2.3,0,0,0,.7.77,1.55,1.55,0,0,0,.87.25,2,2,0,0,0,1.88-1.49,9.09,9.09,0,0,0,.56-3.29A8,8,0,0,0,49.35,127.2Z"/><path d="M55.84,123.71a3.12,3.12,0,0,1,2.82,1.56,9.56,9.56,0,0,1,0,8.39,3.34,3.34,0,0,1-5.64,0,9.47,9.47,0,0,1,0-8.39A3.13,3.13,0,0,1,55.84,123.71Zm-2.12,8.07,3.75-5.88a2.28,2.28,0,0,0-.77-.88,1.81,1.81,0,0,0-.87-.22,1.93,1.93,0,0,0-1.77,1.29,7.86,7.86,0,0,0-.6,3.29c0,.3,0,.63,0,1A8.86,8.86,0,0,0,53.72,131.78Zm4.22-4.58-3.72,5.91a2.27,2.27,0,0,0,.69.77,1.55,1.55,0,0,0,.87.25,2,2,0,0,0,1.88-1.49,9.09,9.09,0,0,0,.56-3.29A8,8,0,0,0,57.94,127.2Z"/><path d="M64.43,123.71a3.11,3.11,0,0,1,2.82,1.56,9.47,9.47,0,0,1,0,8.39,3.34,3.34,0,0,1-5.64,0,9.47,9.47,0,0,1,0-8.39A3.13,3.13,0,0,1,64.43,123.71Zm-2.12,8.07,3.75-5.88a2.28,2.28,0,0,0-.77-.88,1.8,1.8,0,0,0-.86-.22,1.93,1.93,0,0,0-1.78,1.29,7.86,7.86,0,0,0-.6,3.29c0,.3,0,.63,0,1A8.86,8.86,0,0,0,62.31,131.78Zm4.22-4.58-3.72,5.91a2.27,2.27,0,0,0,.69.77,1.55,1.55,0,0,0,.87.25,2,2,0,0,0,1.89-1.49,9.31,9.31,0,0,0,.55-3.29A8,8,0,0,0,66.53,127.2Z"/><path d="M78.49,134.47V133.1a5.38,5.38,0,0,0,1.66.71,6.53,6.53,0,0,0,1.48.21,2.46,2.46,0,0,0,1.42-.32,1,1,0,0,0,.44-.79.76.76,0,0,0-.21-.54,3.12,3.12,0,0,0-1-.55l-.45-.19-.9-.35a4.65,4.65,0,0,1-1.83-1.05,1.77,1.77,0,0,1-.39-1.16,2,2,0,0,1,.75-1.59,3.78,3.78,0,0,1,2.42-.62,7.73,7.73,0,0,1,2.37.36v1.18a7.41,7.41,0,0,0-2.42-.46,2.48,2.48,0,0,0-1.3.29.85.85,0,0,0-.46.73.76.76,0,0,0,.4.67,7.41,7.41,0,0,0,1.3.58l.89.32a4.31,4.31,0,0,1,1.69,1,1.77,1.77,0,0,1,.49,1.29,2.08,2.08,0,0,1-.78,1.67,3.89,3.89,0,0,1-2.49.65A8.31,8.31,0,0,1,78.49,134.47Z"/></g><rect class="cls-1" x="483.45" y="94.63" width="2.39" height="21.47"/></svg>