<svg id="Layer_1" data-name="Layer 1" xmlns="http://www.w3.org/2000/svg" width="500" height="183.54" viewBox="0 0 500 183.54"><defs><style>.cls-1{fill:#0a2a66;}.cls-2{fill:#fff;}.cls-3{fill:#37c5fd;}.cls-4{fill:#10a7e3;}.cls-5{fill:#65d0fa;}.cls-10,.cls-12,.cls-6,.cls-8,.cls-9{fill:none;stroke-miterlimit:10;}.cls-10,.cls-6{stroke:#c3eefe;}.cls-10,.cls-6,.cls-7,.cls-8,.cls-9{stroke-linecap:round;}.cls-6{stroke-width:4.06px;}.cls-7{fill:#00e5ae;stroke:#00e5ae;stroke-linejoin:round;stroke-width:1.38px;}.cls-8{stroke:#37c5fd;}.cls-10,.cls-8{stroke-width:4.21px;}.cls-9{stroke:#10a7e3;stroke-width:6.84px;}.cls-11{fill:#c3eefe;}.cls-12{stroke:#93dbf7;stroke-width:1.55px;}</style></defs><title>ip_addresses</title><path d="M5.61,15.27h0L3.11,16.59l-.37-1.45,3.09-1.66H7.46V27.63H5.61Z"/><path d="M22,20.4c0,4.81-1.79,7.47-4.92,7.47-2.76,0-4.64-2.59-4.68-7.27s2.05-7.36,4.92-7.36S22,15.9,22,20.4Zm-7.68.22c0,3.68,1.13,5.77,2.87,5.77,2,0,2.89-2.29,2.89-5.9s-.89-5.77-2.87-5.77C15.55,14.72,14.34,16.77,14.34,20.62Z"/><path d="M31.85,14.83a6.79,6.79,0,0,0-1.43.09,5.74,5.74,0,0,0-4.92,5h.06A4.23,4.23,0,0,1,29,18.31c2.5,0,4.26,1.81,4.26,4.57a4.73,4.73,0,0,1-4.7,5c-3,0-5-2.35-5-6a8.92,8.92,0,0,1,2.39-6.38,7.77,7.77,0,0,1,4.53-2.09,10,10,0,0,1,1.39-.1ZM31.31,23c0-2-1.16-3.24-2.92-3.24a3.15,3.15,0,0,0-2.74,1.74,1.64,1.64,0,0,0-.22.85c.05,2.33,1.11,4.05,3.11,4.05C30.2,26.39,31.31,25,31.31,23Z"/><path d="M35.09,26.49a1.29,1.29,0,0,1,1.31-1.37,1.38,1.38,0,0,1,0,2.75A1.29,1.29,0,0,1,35.09,26.49Z"/><path d="M39.45,27.63V26.45L41,25c3.61-3.43,5.24-5.26,5.26-7.39a2.52,2.52,0,0,0-2.8-2.77,4.81,4.81,0,0,0-3,1.2l-.61-1.35a6.21,6.21,0,0,1,4-1.44,4,4,0,0,1,4.33,4.12c0,2.61-1.89,4.72-4.88,7.59l-1.13,1V26h6.36v1.59Z"/><path d="M56.53,27.63V23.77H50V22.51l6.31-9h2.06v8.79h2v1.5h-2v3.86Zm0-5.36V17.55q0-1.11.06-2.22h-.06c-.44.83-.79,1.44-1.18,2.09l-3.46,4.81v0Z"/><path d="M65.93,15.27h0l-2.46,1.32-.37-1.45,3.09-1.66h1.63V27.63H65.93Z"/><path d="M73.09,26.49a1.3,1.3,0,1,1,1.28,1.38A1.29,1.29,0,0,1,73.09,26.49Z"/><path d="M77.44,27.63V26.45L78.94,25c3.61-3.43,5.25-5.26,5.27-7.39a2.53,2.53,0,0,0-2.81-2.77,4.78,4.78,0,0,0-3,1.2l-.61-1.35a6.19,6.19,0,0,1,4-1.44,4,4,0,0,1,4.33,4.12c0,2.61-1.89,4.72-4.87,7.59l-1.13,1V26h6.35v1.59Z"/><path d="M97.79,13.48v1.26L91.63,27.63h-2l6.13-12.52v0H88.86V13.48Z"/><path d="M99.92,26.49a1.3,1.3,0,1,1,1.28,1.38A1.29,1.29,0,0,1,99.92,26.49Z"/><path d="M104.27,27.63V26.45l1.5-1.46c3.61-3.43,5.25-5.26,5.27-7.39a2.53,2.53,0,0,0-2.81-2.77,4.78,4.78,0,0,0-3,1.2l-.61-1.35a6.19,6.19,0,0,1,4-1.44A4,4,0,0,1,113,17.36c0,2.61-1.89,4.72-4.87,7.59L107,26V26h6.35v1.59Z"/><path d="M121.35,27.63V23.77h-6.57V22.51l6.31-9h2.07v8.79h2v1.5h-2v3.86Zm0-5.36V17.55c0-.74,0-1.48.07-2.22h-.07c-.43.83-.78,1.44-1.17,2.09l-3.46,4.81v0Z"/><path d="M132.51,27.63V23.77h-6.57V22.51l6.31-9h2.07v8.79h2v1.5h-2v3.86Zm0-5.36V17.55c0-.74,0-1.48.07-2.22h-.07c-.43.83-.78,1.44-1.17,2.09l-3.46,4.81v0Z"/><path d="M190.71,15.27h0l-2.46,1.32-.37-1.45,3.09-1.66h1.63V27.63h-1.85Z"/><path d="M198.17,25.43a6.42,6.42,0,0,0,3.14.89c2.46,0,3.22-1.57,3.2-2.74,0-2-1.81-2.83-3.66-2.83h-1.07V19.31h1.07c1.39,0,3.16-.71,3.16-2.39,0-1.13-.72-2.13-2.48-2.13a5.22,5.22,0,0,0-2.83.93l-.5-1.39a6.74,6.74,0,0,1,3.7-1.09c2.78,0,4,1.66,4,3.38a3.51,3.51,0,0,1-2.61,3.32v0a3.69,3.69,0,0,1,3.16,3.63c0,2.27-1.77,4.25-5.16,4.25a7.27,7.27,0,0,1-3.68-1Z"/><path d="M209.34,25.43a6.34,6.34,0,0,0,3.13.89c2.46,0,3.22-1.57,3.2-2.74,0-2-1.81-2.83-3.66-2.83H211V19.31H212c1.4,0,3.16-.71,3.16-2.39,0-1.13-.72-2.13-2.48-2.13a5.25,5.25,0,0,0-2.83.93l-.5-1.39a6.74,6.74,0,0,1,3.7-1.09c2.78,0,4,1.66,4,3.38a3.51,3.51,0,0,1-2.61,3.32v0a3.69,3.69,0,0,1,3.16,3.63c0,2.27-1.76,4.25-5.16,4.25a7.27,7.27,0,0,1-3.68-1Z"/><path d="M220.2,26.49a1.29,1.29,0,0,1,1.3-1.37,1.38,1.38,0,0,1,0,2.75A1.28,1.28,0,0,1,220.2,26.49Z"/><path d="M224.37,24a4,4,0,0,1,2.81-3.79l0-.07A3.49,3.49,0,0,1,224.92,17c0-2.24,1.89-3.77,4.37-3.77,2.74,0,4.11,1.72,4.11,3.48A3.57,3.57,0,0,1,231.07,20v.07a3.91,3.91,0,0,1,2.86,3.65c0,2.46-2.12,4.12-4.81,4.12C226.16,27.87,224.37,26.1,224.37,24ZM232,24c0-1.72-1.2-2.55-3.11-3.09a3.07,3.07,0,0,0-2.55,2.91,2.62,2.62,0,0,0,2.83,2.7A2.56,2.56,0,0,0,232,24Zm-5.27-7.07c0,1.41,1.07,2.17,2.7,2.61a2.8,2.8,0,0,0,2.16-2.57,2.21,2.21,0,0,0-2.4-2.31A2.25,2.25,0,0,0,226.72,16.88Z"/><path d="M236.17,25.43a6.34,6.34,0,0,0,3.13.89c2.46,0,3.22-1.57,3.2-2.74,0-2-1.81-2.83-3.66-2.83h-1.06V19.31h1.06c1.4,0,3.16-.71,3.16-2.39,0-1.13-.72-2.13-2.48-2.13a5.25,5.25,0,0,0-2.83.93l-.5-1.39a6.74,6.74,0,0,1,3.7-1.09c2.78,0,4.05,1.66,4.05,3.38a3.52,3.52,0,0,1-2.62,3.32v0a3.69,3.69,0,0,1,3.16,3.63c0,2.27-1.76,4.25-5.16,4.25a7.2,7.2,0,0,1-3.67-1Z"/><path d="M247,26.49a1.29,1.29,0,0,1,1.3-1.37,1.38,1.38,0,0,1,0,2.75A1.28,1.28,0,0,1,247,26.49Z"/><path d="M255.53,15.27h0L253,16.59l-.37-1.45,3.09-1.66h1.63V27.63h-1.85Z"/><path d="M262.37,24a4,4,0,0,1,2.8-3.79l0-.07A3.49,3.49,0,0,1,262.91,17c0-2.24,1.89-3.77,4.37-3.77,2.75,0,4.12,1.72,4.12,3.48A3.59,3.59,0,0,1,269.07,20v.07a3.91,3.91,0,0,1,2.85,3.65c0,2.46-2.11,4.12-4.81,4.12C264.15,27.87,262.37,26.1,262.37,24ZM270,24c0-1.72-1.19-2.55-3.11-3.09a3.08,3.08,0,0,0-2.55,2.91,2.62,2.62,0,0,0,2.83,2.7A2.56,2.56,0,0,0,270,24Zm-5.26-7.07c0,1.41,1.06,2.17,2.69,2.61a2.8,2.8,0,0,0,2.16-2.57,2.21,2.21,0,0,0-2.4-2.31A2.25,2.25,0,0,0,264.72,16.88Z"/><path d="M274.81,26.28a8,8,0,0,0,1.55-.07,5.35,5.35,0,0,0,3-1.37,6.24,6.24,0,0,0,1.87-3.76h-.07a4.16,4.16,0,0,1-3.33,1.52,4.09,4.09,0,0,1-4.17-4.33,4.85,4.85,0,0,1,4.83-5c2.89,0,4.67,2.35,4.67,6a8.93,8.93,0,0,1-2.43,6.63,7,7,0,0,1-4.11,1.89,8.33,8.33,0,0,1-1.77.11Zm.7-8.14a2.72,2.72,0,0,0,2.72,3A3.16,3.16,0,0,0,281,19.66a1.23,1.23,0,0,0,.18-.69c0-2.42-.89-4.27-2.9-4.27C276.66,14.7,275.51,16.14,275.51,18.14Z"/><path d="M285,26.49a1.29,1.29,0,0,1,1.3-1.37,1.38,1.38,0,1,1-1.3,1.37Z"/><path d="M297.44,14.83a6.79,6.79,0,0,0-1.43.09,5.75,5.75,0,0,0-4.92,5h.06a4.23,4.23,0,0,1,3.42-1.63c2.5,0,4.27,1.81,4.27,4.57a4.74,4.74,0,0,1-4.7,5c-3,0-5-2.35-5-6a8.92,8.92,0,0,1,2.39-6.38,7.77,7.77,0,0,1,4.53-2.09,10,10,0,0,1,1.39-.1ZM296.9,23c0-2-1.15-3.24-2.92-3.24a3.15,3.15,0,0,0-2.74,1.74,1.64,1.64,0,0,0-.22.85c.05,2.33,1.11,4.05,3.12,4.05C295.79,26.39,296.9,25,296.9,23Z"/><path d="M309.93,20.4c0,4.81-1.78,7.47-4.91,7.47-2.77,0-4.64-2.59-4.68-7.27s2-7.36,4.91-7.36S309.93,15.9,309.93,20.4Zm-7.68.22c0,3.68,1.13,5.77,2.87,5.77,2,0,2.9-2.29,2.9-5.9s-.89-5.77-2.87-5.77C303.47,14.72,302.25,16.77,302.25,20.62Z"/><path d="M364.05,27.63V26.45l1.5-1.46c3.61-3.43,5.24-5.26,5.26-7.39a2.52,2.52,0,0,0-2.8-2.77,4.81,4.81,0,0,0-3,1.2l-.6-1.35a6.19,6.19,0,0,1,4-1.44,4,4,0,0,1,4.33,4.12c0,2.61-1.89,4.72-4.87,7.59l-1.14,1V26h6.36v1.59Z"/><path d="M381.13,27.63V23.77h-6.57V22.51l6.31-9h2.06v8.79h2v1.5h-2v3.86Zm0-5.36V17.55q0-1.11.06-2.22h-.06c-.44.83-.78,1.44-1.18,2.09l-3.46,4.81v0Z"/><path d="M395.77,20.4c0,4.81-1.78,7.47-4.91,7.47-2.77,0-4.64-2.59-4.68-7.27s2-7.36,4.92-7.36S395.77,15.9,395.77,20.4Zm-7.68.22c0,3.68,1.13,5.77,2.87,5.77,2,0,2.9-2.29,2.9-5.9S393,14.72,391,14.72C389.31,14.72,388.09,16.77,388.09,20.62Z"/><path d="M397.69,26.49A1.3,1.3,0,1,1,399,27.87,1.29,1.29,0,0,1,397.69,26.49Z"/><path d="M406.2,15.27h-.05l-2.46,1.32-.37-1.45,3.09-1.66h1.64V27.63H406.2Z"/><path d="M422.6,20.4c0,4.81-1.78,7.47-4.91,7.47-2.77,0-4.64-2.59-4.68-7.27s2-7.36,4.92-7.36S422.6,15.9,422.6,20.4Zm-7.68.22c0,3.68,1.13,5.77,2.87,5.77,2,0,2.9-2.29,2.9-5.9s-.89-5.77-2.87-5.77C416.14,14.72,414.92,16.77,414.92,20.62Z"/><path d="M428.52,15.27h0L426,16.59l-.37-1.45,3.09-1.66h1.63V27.63h-1.85Z"/><path d="M435.68,26.49A1.29,1.29,0,0,1,437,25.12a1.38,1.38,0,0,1,0,2.75A1.28,1.28,0,0,1,435.68,26.49Z"/><path d="M444.19,15.27h0l-2.46,1.32-.37-1.45,3.09-1.66H446V27.63h-1.85Z"/><path d="M459.27,14.83a6.92,6.92,0,0,0-1.44.09,5.74,5.74,0,0,0-4.91,5H453a4.22,4.22,0,0,1,3.42-1.63c2.5,0,4.26,1.81,4.26,4.57a4.73,4.73,0,0,1-4.7,5c-3,0-5-2.35-5-6a8.92,8.92,0,0,1,2.39-6.38,7.74,7.74,0,0,1,4.53-2.09,9.88,9.88,0,0,1,1.39-.1ZM458.72,23c0-2-1.15-3.24-2.91-3.24a3.15,3.15,0,0,0-2.74,1.74,1.64,1.64,0,0,0-.22.85c0,2.33,1.11,4.05,3.11,4.05C457.62,26.39,458.72,25,458.72,23Z"/><path d="M462.82,25.43a6.34,6.34,0,0,0,3.13.89c2.46,0,3.22-1.57,3.2-2.74,0-2-1.81-2.83-3.66-2.83h-1.06V19.31h1.06c1.39,0,3.16-.71,3.16-2.39,0-1.13-.72-2.13-2.48-2.13a5.25,5.25,0,0,0-2.83.93l-.5-1.39a6.74,6.74,0,0,1,3.7-1.09c2.78,0,4,1.66,4,3.38A3.51,3.51,0,0,1,468,19.94v0a3.69,3.69,0,0,1,3.16,3.63c0,2.27-1.76,4.25-5.16,4.25a7.27,7.27,0,0,1-3.68-1Z"/><path d="M473.67,26.49A1.29,1.29,0,0,1,475,25.12a1.38,1.38,0,0,1,0,2.75A1.29,1.29,0,0,1,473.67,26.49Z"/><path d="M482.18,15.27h0l-2.46,1.32-.37-1.45,3.09-1.66H484V27.63h-1.85Z"/><path d="M490.3,26.28a7.91,7.91,0,0,0,1.54-.07,5.31,5.31,0,0,0,3-1.37,6.18,6.18,0,0,0,1.87-3.76h-.06a4.17,4.17,0,0,1-3.33,1.52,4.09,4.09,0,0,1-4.18-4.33,4.85,4.85,0,0,1,4.83-5c2.9,0,4.68,2.35,4.68,6a8.9,8.9,0,0,1-2.44,6.63,7,7,0,0,1-4.11,1.89,8.21,8.21,0,0,1-1.76.11Zm.7-8.14a2.71,2.71,0,0,0,2.71,3,3.16,3.16,0,0,0,2.79-1.48,1.23,1.23,0,0,0,.17-.69c0-2.42-.89-4.27-2.89-4.27C492.15,14.7,491,16.14,491,18.14Z"/><rect class="cls-1" x="184.19" y="42.73" width="128.49" height="118.93" rx="2.64"/><rect class="cls-2" x="189.71" y="47.84" width="117.44" height="66.9"/><path class="cls-3" d="M184.19,114.74H312.68a0,0,0,0,1,0,0v51.49a3.79,3.79,0,0,1-3.79,3.79H188a3.79,3.79,0,0,1-3.79-3.79V114.74A0,0,0,0,1,184.19,114.74Z"/><rect class="cls-4" x="189.71" y="120.78" width="8.53" height="7.9" rx="1.05"/><rect class="cls-4" x="200.6" y="120.78" width="8.53" height="7.9" rx="1.05"/><rect class="cls-4" x="211.49" y="120.78" width="8.53" height="7.9" rx="1.05"/><rect class="cls-4" x="222.39" y="120.78" width="8.53" height="7.9" rx="1.05"/><rect class="cls-4" x="233.28" y="120.78" width="8.53" height="7.9" rx="1.05"/><rect class="cls-4" x="244.17" y="120.78" width="8.53" height="7.9" rx="1.05"/><rect class="cls-4" x="255.06" y="120.78" width="8.53" height="7.9" rx="1.05"/><rect class="cls-4" x="265.95" y="120.78" width="8.53" height="7.9" rx="1.05"/><rect class="cls-4" x="276.84" y="120.78" width="8.53" height="7.9" rx="1.05"/><rect class="cls-4" x="287.73" y="120.78" width="8.53" height="7.9" rx="1.05"/><rect class="cls-4" x="298.62" y="120.78" width="8.53" height="7.9" rx="1.05"/><rect class="cls-4" x="200.6" y="131.47" width="8.53" height="7.9" rx="1.05"/><rect class="cls-4" x="211.49" y="131.47" width="8.53" height="7.9" rx="1.05"/><rect class="cls-4" x="222.39" y="131.47" width="8.53" height="7.9" rx="1.05"/><rect class="cls-4" x="233.28" y="131.47" width="8.53" height="7.9" rx="1.05"/><rect class="cls-4" x="244.17" y="131.47" width="8.53" height="7.9" rx="1.05"/><rect class="cls-4" x="255.06" y="131.47" width="8.53" height="7.9" rx="1.05"/><rect class="cls-4" x="265.95" y="131.47" width="8.53" height="7.9" rx="1.05"/><rect class="cls-4" x="276.84" y="131.47" width="8.53" height="7.9" rx="1.05"/><rect class="cls-4" x="287.73" y="131.47" width="8.53" height="7.9" rx="1.05"/><rect class="cls-4" x="189.71" y="142.15" width="8.53" height="7.9" rx="1.05"/><rect class="cls-4" x="200.6" y="142.15" width="8.53" height="7.9" rx="1.05"/><rect class="cls-4" x="211.49" y="142.15" width="8.53" height="7.9" rx="1.05"/><rect class="cls-4" x="222.39" y="142.15" width="8.53" height="7.9" rx="1.05"/><rect class="cls-4" x="233.28" y="142.15" width="8.53" height="7.9" rx="1.05"/><rect class="cls-4" x="244.17" y="142.15" width="8.53" height="7.9" rx="1.05"/><rect class="cls-4" x="255.06" y="142.15" width="8.53" height="7.9" rx="1.05"/><rect class="cls-4" x="265.95" y="142.15" width="8.53" height="7.9" rx="1.05"/><rect class="cls-4" x="276.84" y="142.15" width="8.53" height="7.9" rx="1.05"/><rect class="cls-4" x="287.73" y="142.15" width="8.53" height="7.9" rx="1.05"/><rect class="cls-4" x="298.62" y="142.15" width="8.53" height="7.9" rx="1.05"/><rect class="cls-4" x="224.34" y="142.15" width="48.18" height="7.9" rx="1.05"/><rect class="cls-5" x="231.37" y="153.3" width="32.12" height="12.54" rx="2.17"/><line class="cls-6" x1="253.31" y1="59.11" x2="293.57" y2="59.11"/><line class="cls-6" x1="253.31" y1="67.36" x2="284.74" y2="67.36"/><line class="cls-6" x1="253.31" y1="83.86" x2="284.74" y2="83.86"/><line class="cls-6" x1="253.31" y1="100.36" x2="284.74" y2="100.36"/><line class="cls-6" x1="253.31" y1="75.61" x2="293.57" y2="75.61"/><line class="cls-6" x1="253.31" y1="92.11" x2="293.57" y2="92.11"/><rect class="cls-7" x="201.29" y="55.78" width="42.4" height="50.48"/><rect class="cls-1" x="1.26" y="42.73" width="128.49" height="118.93" rx="2.64"/><rect class="cls-2" x="6.78" y="47.84" width="117.44" height="66.9"/><line class="cls-8" x1="38.73" y1="63.97" x2="53.45" y2="63.97"/><line class="cls-9" x1="29.13" y1="63.97" x2="29.13" y2="63.97"/><line class="cls-8" x1="38.73" y1="78.48" x2="53.45" y2="78.48"/><line class="cls-9" x1="29.13" y1="78.48" x2="29.13" y2="78.48"/><line class="cls-8" x1="38.73" y1="92.99" x2="53.45" y2="92.99"/><line class="cls-9" x1="29.13" y1="92.99" x2="29.13" y2="92.99"/><line class="cls-10" x1="62.27" y1="63.97" x2="103.63" y2="63.97"/><line class="cls-10" x1="62.27" y1="71.22" x2="94.56" y2="71.22"/><line class="cls-10" x1="62.27" y1="85.73" x2="94.56" y2="85.73"/><line class="cls-10" x1="62.27" y1="100.24" x2="94.56" y2="100.24"/><line class="cls-10" x1="62.27" y1="78.48" x2="103.63" y2="78.48"/><line class="cls-10" x1="62.27" y1="92.99" x2="103.63" y2="92.99"/><path class="cls-3" d="M1.26,114.74H129.74a0,0,0,0,1,0,0v51.49A3.79,3.79,0,0,1,126,170H5a3.79,3.79,0,0,1-3.79-3.79V114.74A0,0,0,0,1,1.26,114.74Z"/><rect class="cls-4" x="6.78" y="120.78" width="8.53" height="7.9" rx="1.05"/><rect class="cls-4" x="17.67" y="120.78" width="8.53" height="7.9" rx="1.05"/><rect class="cls-4" x="28.56" y="120.78" width="8.53" height="7.9" rx="1.05"/><rect class="cls-4" x="39.45" y="120.78" width="8.53" height="7.9" rx="1.05"/><rect class="cls-4" x="50.34" y="120.78" width="8.53" height="7.9" rx="1.05"/><rect class="cls-4" x="61.24" y="120.78" width="8.53" height="7.9" rx="1.05"/><rect class="cls-4" x="72.13" y="120.78" width="8.53" height="7.9" rx="1.05"/><rect class="cls-4" x="83.02" y="120.78" width="8.53" height="7.9" rx="1.05"/><rect class="cls-4" x="93.91" y="120.78" width="8.53" height="7.9" rx="1.05"/><rect class="cls-4" x="104.8" y="120.78" width="8.53" height="7.9" rx="1.05"/><rect class="cls-4" x="115.69" y="120.78" width="8.53" height="7.9" rx="1.05"/><rect class="cls-4" x="17.67" y="131.47" width="8.53" height="7.9" rx="1.05"/><rect class="cls-4" x="28.56" y="131.47" width="8.53" height="7.9" rx="1.05"/><rect class="cls-4" x="39.45" y="131.47" width="8.53" height="7.9" rx="1.05"/><rect class="cls-4" x="50.34" y="131.47" width="8.53" height="7.9" rx="1.05"/><rect class="cls-4" x="61.24" y="131.47" width="8.53" height="7.9" rx="1.05"/><rect class="cls-4" x="72.13" y="131.47" width="8.53" height="7.9" rx="1.05"/><rect class="cls-4" x="83.02" y="131.47" width="8.53" height="7.9" rx="1.05"/><rect class="cls-4" x="93.91" y="131.47" width="8.53" height="7.9" rx="1.05"/><rect class="cls-4" x="104.8" y="131.47" width="8.53" height="7.9" rx="1.05"/><rect class="cls-4" x="6.78" y="142.15" width="8.53" height="7.9" rx="1.05"/><rect class="cls-4" x="17.67" y="142.15" width="8.53" height="7.9" rx="1.05"/><rect class="cls-4" x="28.56" y="142.15" width="8.53" height="7.9" rx="1.05"/><rect class="cls-4" x="39.45" y="142.15" width="8.53" height="7.9" rx="1.05"/><rect class="cls-4" x="50.34" y="142.15" width="8.53" height="7.9" rx="1.05"/><rect class="cls-4" x="61.24" y="142.15" width="8.53" height="7.9" rx="1.05"/><rect class="cls-4" x="72.13" y="142.15" width="8.53" height="7.9" rx="1.05"/><rect class="cls-4" x="83.02" y="142.15" width="8.53" height="7.9" rx="1.05"/><rect class="cls-4" x="93.91" y="142.15" width="8.53" height="7.9" rx="1.05"/><rect class="cls-4" x="104.8" y="142.15" width="8.53" height="7.9" rx="1.05"/><rect class="cls-4" x="115.69" y="142.15" width="8.53" height="7.9" rx="1.05"/><rect class="cls-4" x="41.41" y="142.15" width="48.18" height="7.9" rx="1.05"/><rect class="cls-5" x="48.44" y="153.3" width="32.12" height="12.54" rx="2.17"/><rect class="cls-1" x="367.12" y="42.73" width="128.49" height="118.93" rx="2.64"/><rect class="cls-2" x="372.65" y="47.84" width="117.44" height="66.9"/><path class="cls-3" d="M367.12,114.74H495.61a0,0,0,0,1,0,0v51.49a3.79,3.79,0,0,1-3.79,3.79H370.92a3.79,3.79,0,0,1-3.79-3.79V114.74A0,0,0,0,1,367.12,114.74Z"/><rect class="cls-4" x="372.65" y="120.78" width="8.53" height="7.9" rx="1.05"/><rect class="cls-4" x="383.54" y="120.78" width="8.53" height="7.9" rx="1.05"/><rect class="cls-4" x="394.43" y="120.78" width="8.53" height="7.9" rx="1.05"/><rect class="cls-4" x="405.32" y="120.78" width="8.53" height="7.9" rx="1.05"/><rect class="cls-4" x="416.21" y="120.78" width="8.53" height="7.9" rx="1.05"/><rect class="cls-4" x="427.1" y="120.78" width="8.53" height="7.9" rx="1.05"/><rect class="cls-4" x="437.99" y="120.78" width="8.53" height="7.9" rx="1.05"/><rect class="cls-4" x="448.88" y="120.78" width="8.53" height="7.9" rx="1.05"/><rect class="cls-4" x="459.77" y="120.78" width="8.53" height="7.9" rx="1.05"/><rect class="cls-4" x="470.67" y="120.78" width="8.53" height="7.9" rx="1.05"/><rect class="cls-4" x="481.56" y="120.78" width="8.53" height="7.9" rx="1.05"/><rect class="cls-4" x="383.54" y="131.47" width="8.53" height="7.9" rx="1.05"/><rect class="cls-4" x="394.43" y="131.47" width="8.53" height="7.9" rx="1.05"/><rect class="cls-4" x="405.32" y="131.47" width="8.53" height="7.9" rx="1.05"/><rect class="cls-4" x="416.21" y="131.47" width="8.53" height="7.9" rx="1.05"/><rect class="cls-4" x="427.1" y="131.47" width="8.53" height="7.9" rx="1.05"/><rect class="cls-4" x="437.99" y="131.47" width="8.53" height="7.9" rx="1.05"/><rect class="cls-4" x="448.88" y="131.47" width="8.53" height="7.9" rx="1.05"/><rect class="cls-4" x="459.77" y="131.47" width="8.53" height="7.9" rx="1.05"/><rect class="cls-4" x="470.67" y="131.47" width="8.53" height="7.9" rx="1.05"/><rect class="cls-4" x="372.65" y="142.15" width="8.53" height="7.9" rx="1.05"/><rect class="cls-4" x="383.54" y="142.15" width="8.53" height="7.9" rx="1.05"/><rect class="cls-4" x="394.43" y="142.15" width="8.53" height="7.9" rx="1.05"/><rect class="cls-4" x="405.32" y="142.15" width="8.53" height="7.9" rx="1.05"/><rect class="cls-4" x="416.21" y="142.15" width="8.53" height="7.9" rx="1.05"/><rect class="cls-4" x="427.1" y="142.15" width="8.53" height="7.9" rx="1.05"/><rect class="cls-4" x="437.99" y="142.15" width="8.53" height="7.9" rx="1.05"/><rect class="cls-4" x="448.88" y="142.15" width="8.53" height="7.9" rx="1.05"/><rect class="cls-4" x="459.77" y="142.15" width="8.53" height="7.9" rx="1.05"/><rect class="cls-4" x="470.67" y="142.15" width="8.53" height="7.9" rx="1.05"/><rect class="cls-4" x="481.56" y="142.15" width="8.53" height="7.9" rx="1.05"/><rect class="cls-4" x="407.28" y="142.15" width="48.18" height="7.9" rx="1.05"/><rect class="cls-5" x="414.3" y="153.3" width="32.12" height="12.54" rx="2.17"/><rect class="cls-11" x="382.19" y="57" width="97.08" height="48.03" rx="2.23"/><path class="cls-3" d="M384.42,57H477a2.23,2.23,0,0,1,2.23,2.23v9.52a0,0,0,0,1,0,0H382.19a0,0,0,0,1,0,0V59.23A2.23,2.23,0,0,1,384.42,57Z"/><line class="cls-12" x1="479.28" y1="92.94" x2="382.2" y2="92.94"/><line class="cls-12" x1="479.28" y1="80.84" x2="382.2" y2="80.84"/><line class="cls-12" x1="430.74" y1="68.75" x2="430.74" y2="105.04"/><line class="cls-12" x1="406.47" y1="68.75" x2="406.47" y2="105.04"/><line class="cls-12" x1="455.01" y1="68.75" x2="455.01" y2="105.04"/></svg>