<svg id="Layer_1" data-name="Layer 1" xmlns="http://www.w3.org/2000/svg" width="494.89" height="142.49" viewBox="0 0 494.89 142.49"><defs><style>.cls-1{fill:#37c5fd;}.cls-2{fill:#63d9ea;}.cls-3{fill:#c3eefe;opacity:0.5;isolation:isolate;}.cls-4{fill:#10a7e3;}.cls-5{fill:#0a2a66;}.cls-6{fill:#ccfbf0;}.cls-7{fill:#14bf96;}</style></defs><title>certificates</title><rect class="cls-1" x="118.28" width="79.05" height="122.49" rx="7.56"/><rect class="cls-2" x="118.28" y="11.53" width="79.05" height="88.09"/><rect class="cls-2" x="118.28" y="11.53" width="79.05" height="88.09"/><rect class="cls-3" x="118.28" y="11.53" width="79.05" height="88.09"/><ellipse class="cls-4" cx="157.81" cy="109.63" rx="6.14" ry="5.41"/><rect class="cls-1" x="262.33" width="86.1" height="123.58" rx="2.01"/><rect class="cls-5" x="271.55" y="25.48" width="70.95" height="7.49"/><rect class="cls-5" x="271.55" y="41.41" width="70.95" height="7.49"/><rect class="cls-5" x="272.17" y="57.34" width="70.95" height="7.49"/><rect class="cls-5" x="272.17" y="73.26" width="70.95" height="7.49"/><rect class="cls-5" x="272.17" y="89.2" width="70.95" height="7.49"/><circle class="cls-6" cx="335.72" cy="12.09" r="6.09"/><rect class="cls-5" x="272.17" y="105.12" width="70.95" height="7.49"/><path class="cls-5" d="M296.48,9.34,283,9.49a6.06,6.06,0,1,0-2.33,8.25,6.14,6.14,0,0,0,2-1.78,3.23,3.23,0,0,0,.27-.44h1.82l.13-1.15h1.37l.6-1.22h1.12l1,1.68.87-.07.66-1.32h1.12l.48.89h.66l.48-.89.88-.06.7,1.32h.81l1.85-3.36-12.5.11.1-.9,12.58-.11ZM280.6,8.23a5.17,5.17,0,1,1-7.2,1.22A5.17,5.17,0,0,1,280.6,8.23Zm-.48.49a4.61,4.61,0,1,0,1.08,6.42h0A4.61,4.61,0,0,0,280.12,8.72ZM277,10.94a1.8,1.8,0,1,1-2.51.42h0A1.79,1.79,0,0,1,277,10.94Z"/><path d="M262.68,138.72a.24.24,0,0,1,.16.07l.41.45a3.22,3.22,0,0,1-1.14.86,4.14,4.14,0,0,1-1.63.3,3.81,3.81,0,0,1-1.5-.28,3.47,3.47,0,0,1-1.16-.81,3.72,3.72,0,0,1-.74-1.24,4.63,4.63,0,0,1-.26-1.6,4.3,4.3,0,0,1,.28-1.59,3.79,3.79,0,0,1,.79-1.25,3.54,3.54,0,0,1,1.22-.8,4,4,0,0,1,1.57-.29,3.54,3.54,0,0,1,1.47.26,3.94,3.94,0,0,1,1.09.71l-.34.48-.09.09h-.14a.24.24,0,0,1-.14-.05l-.19-.13-.25-.16a2.6,2.6,0,0,0-.34-.16,2.75,2.75,0,0,0-.47-.13,3.11,3.11,0,0,0-.61,0,3,3,0,0,0-1.14.22,2.65,2.65,0,0,0-.88.6,2.93,2.93,0,0,0-.57,1,3.83,3.83,0,0,0-.21,1.26,4.05,4.05,0,0,0,.21,1.29,2.77,2.77,0,0,0,.56,1,2.4,2.4,0,0,0,.84.6,2.77,2.77,0,0,0,1,.15,2.46,2.46,0,0,0,1.12-.12,2.58,2.58,0,0,0,.44-.22,3.9,3.9,0,0,0,.4-.31A.27.27,0,0,1,262.68,138.72Z"/><path d="M266.62,134.79a2.48,2.48,0,0,1,.9.17,2,2,0,0,1,.71.46,1.87,1.87,0,0,1,.47.77,3,3,0,0,1,.18,1,.61.61,0,0,1-.05.3.24.24,0,0,1-.19.08H265a3.39,3.39,0,0,0,.15.9,1.7,1.7,0,0,0,.35.63,1.36,1.36,0,0,0,.54.38,1.8,1.8,0,0,0,.69.13,2,2,0,0,0,.59-.12,2.75,2.75,0,0,0,.45-.17l.31-.19a.54.54,0,0,1,.21-.08.25.25,0,0,1,.19.09l.26.35a1.64,1.64,0,0,1-.42.37,2.4,2.4,0,0,1-.53.27,3.8,3.8,0,0,1-.58.15,3,3,0,0,1-.6,0,2.81,2.81,0,0,1-1-.19,2.18,2.18,0,0,1-.82-.56,2.64,2.64,0,0,1-.55-.91,3.73,3.73,0,0,1-.18-1.24,3.19,3.19,0,0,1,.16-1.07,2.64,2.64,0,0,1,.51-.85,2.17,2.17,0,0,1,.8-.57A2.58,2.58,0,0,1,266.62,134.79Zm0,.7a1.52,1.52,0,0,0-1.09.4A1.94,1.94,0,0,0,265,137H268a1.87,1.87,0,0,0-.1-.62,1.25,1.25,0,0,0-.26-.48,1.23,1.23,0,0,0-.44-.3,1.58,1.58,0,0,0-.53-.12Z"/><path d="M270.09,140.31v-5.43h.55a.29.29,0,0,1,.22.06.5.5,0,0,1,.08.2l.06.85a2.49,2.49,0,0,1,.69-.89,1.49,1.49,0,0,1,1-.32,1.84,1.84,0,0,1,.41.05,2.07,2.07,0,0,1,.34.15l-.12.71a.17.17,0,0,1-.17.13.85.85,0,0,1-.23,0,1.09,1.09,0,0,0-.44-.06,1.21,1.21,0,0,0-.83.29,2.32,2.32,0,0,0-.57.84v3.46Z"/><path d="M276.12,140.4a1.32,1.32,0,0,1-1-.36,1.4,1.4,0,0,1-.34-1v-3.33h-.65a.25.25,0,0,1-.15-.05.23.23,0,0,1-.06-.16v-.39l.89-.1.22-1.68a.21.21,0,0,1,.07-.14h.63V135h1.56v.7h-1.56V139a.69.69,0,0,0,.17.51.63.63,0,0,0,.43.17,1.13,1.13,0,0,0,.26,0l.19-.1.14-.09H277a.19.19,0,0,1,.14.1l.27.45a1.71,1.71,0,0,1-.59.36A2,2,0,0,1,276.12,140.4Z"/><path d="M279.7,133.17a.58.58,0,0,1-.06.26.72.72,0,0,1-.36.37.57.57,0,0,1-.26,0,.61.61,0,0,1-.27,0,.8.8,0,0,1-.21-.15.86.86,0,0,1-.15-.22.59.59,0,0,1,0-.52.57.57,0,0,1,.15-.23.6.6,0,0,1,.21-.14.65.65,0,0,1,.27,0,.8.8,0,0,1,.26,0,1.1,1.1,0,0,1,.21.14,1.14,1.14,0,0,1,.15.23A.58.58,0,0,1,279.7,133.17Zm-.22,1.71v5.43h-1v-5.43Z"/><path d="M281.39,140.31V135.7l-.61-.08a.37.37,0,0,1-.18-.08.17.17,0,0,1-.07-.16V135h.86v-.35a2.35,2.35,0,0,1,.15-.91A2.11,2.11,0,0,1,282,133a2.37,2.37,0,0,1,.78-.46,3.34,3.34,0,0,1,1.08-.17h.41a2.57,2.57,0,0,1,.38.08V133a.12.12,0,0,1-.07.07.22.22,0,0,1-.16,0h-.26a2.09,2.09,0,0,0-1.39.4,1.58,1.58,0,0,0-.43,1.18v.28h3.28v5.32h-1v-4.63h-2.3v4.63Z"/><path d="M291,135.84a.38.38,0,0,1-.09.09.15.15,0,0,1-.13,0,.36.36,0,0,1-.17-.07,1.88,1.88,0,0,0-.24-.14,1.19,1.19,0,0,0-.35-.15,1.7,1.7,0,0,0-.51-.07,1.86,1.86,0,0,0-.7.14,1.38,1.38,0,0,0-.52.41,2.29,2.29,0,0,0-.31.65,3.53,3.53,0,0,0-.1.85,3.72,3.72,0,0,0,.11.88,2.14,2.14,0,0,0,.32.64,1.22,1.22,0,0,0,.5.4,1.51,1.51,0,0,0,.66.14,1.39,1.39,0,0,0,.57-.09,1.27,1.27,0,0,0,.37-.18,2.48,2.48,0,0,0,.26-.19.37.37,0,0,1,.18-.08.25.25,0,0,1,.19.09l.27.35a2.1,2.1,0,0,1-.89.64,3.31,3.31,0,0,1-1.12.2,2.51,2.51,0,0,1-1-.18,2.32,2.32,0,0,1-.76-.55,2.75,2.75,0,0,1-.5-.88,3.2,3.2,0,0,1-.19-1.19,3.54,3.54,0,0,1,.17-1.12,2.5,2.5,0,0,1,.49-.89,2.26,2.26,0,0,1,.8-.57,2.61,2.61,0,0,1,1.1-.22,2.7,2.7,0,0,1,1,.19,2.42,2.42,0,0,1,.78.52Z"/><path d="M296.29,140.31h-.42a.45.45,0,0,1-.23,0,.25.25,0,0,1-.12-.18l-.1-.51c-.14.14-.29.24-.41.35a2.67,2.67,0,0,1-.43.25,1.76,1.76,0,0,1-.49.16,2.76,2.76,0,0,1-.57.06,2,2,0,0,1-.58-.09,1.29,1.29,0,0,1-.49-.26,1.32,1.32,0,0,1-.32-.46A1.73,1.73,0,0,1,292,139a1.15,1.15,0,0,1,.18-.62,1.61,1.61,0,0,1,.56-.54,5.39,5.39,0,0,1,1-.38,7.36,7.36,0,0,1,1.56-.14v-.42a1.48,1.48,0,0,0-.27-1,1,1,0,0,0-.8-.33,1.49,1.49,0,0,0-.59.09,2.22,2.22,0,0,0-.41.2l-.3.2a.58.58,0,0,1-.26.09.33.33,0,0,1-.28-.18l-.17-.3a3.38,3.38,0,0,1,1-.66,3,3,0,0,1,1.15-.21,1.88,1.88,0,0,1,.81.15,1.56,1.56,0,0,1,.6.42,2,2,0,0,1,.37.65,2.62,2.62,0,0,1,.11.84Zm-2.48-.58a2.59,2.59,0,0,0,.47,0,2.08,2.08,0,0,0,.39-.15,2.32,2.32,0,0,0,.36-.22c.11-.1.22-.2.32-.31v-1.13a7,7,0,0,0-1.12.09,3.23,3.23,0,0,0-.75.22,1,1,0,0,0-.42.32.67.67,0,0,0-.13.41.81.81,0,0,0,.07.37.68.68,0,0,0,.18.26,1,1,0,0,0,.29.14,1.27,1.27,0,0,0,.34,0Z"/><path d="M299.39,140.4a1.32,1.32,0,0,1-1-.36,1.49,1.49,0,0,1-.34-1v-3.33h-.65a.25.25,0,0,1-.15-.05.23.23,0,0,1-.06-.16v-.39l.89-.1.22-1.68a.27.27,0,0,1,.07-.14H299V135h1.55v.7H299V139a.68.68,0,0,0,.16.51.63.63,0,0,0,.43.17,1.22,1.22,0,0,0,.27,0l.18-.1.14-.09h.09a.19.19,0,0,1,.14.1l.28.45a1.71,1.71,0,0,1-.59.36A2,2,0,0,1,299.39,140.4Z"/><path d="M303.9,134.79a2.47,2.47,0,0,1,.89.17,2,2,0,0,1,.72.46,2.11,2.11,0,0,1,.47.77,3,3,0,0,1,.17,1,.76.76,0,0,1,0,.3.19.19,0,0,1-.19.08h-3.61a3.07,3.07,0,0,0,.14.9,2.16,2.16,0,0,0,.35.63,1.6,1.6,0,0,0,.54.38,1.68,1.68,0,0,0,.7.13,2.16,2.16,0,0,0,.62-.09,2.35,2.35,0,0,0,.44-.17,3.37,3.37,0,0,0,.32-.19.53.53,0,0,1,.22-.08.21.21,0,0,1,.18.09l.27.35a1.69,1.69,0,0,1-.43.37,2.4,2.4,0,0,1-.53.27,3.8,3.8,0,0,1-.58.15,3,3,0,0,1-.6,0,2.81,2.81,0,0,1-1-.19,2.18,2.18,0,0,1-.82-.56,2.47,2.47,0,0,1-.54-.91,3.52,3.52,0,0,1-.19-1.25,3,3,0,0,1,.17-1.06,2.61,2.61,0,0,1,.5-.85,2.26,2.26,0,0,1,.8-.57A2.73,2.73,0,0,1,303.9,134.79Zm0,.7a1.53,1.53,0,0,0-1.1.4,1.94,1.94,0,0,0-.49,1.12h2.93a1.65,1.65,0,0,0-.1-.62,1.25,1.25,0,0,0-.26-.48,1.28,1.28,0,0,0-.43-.3,1.63,1.63,0,0,0-.54-.12Z"/><path d="M315.92,140.31h-.78a.29.29,0,0,1-.22-.07.37.37,0,0,1-.13-.17l-.72-1.86h-3.44l-.72,1.86a.51.51,0,0,1-.13.16.27.27,0,0,1-.23.08h-.81l3.08-7.69h1.06Zm-5.05-2.85h2.88l-1.21-3.13a6,6,0,0,1-.23-.72,1.25,1.25,0,0,1-.12.4,1.73,1.73,0,0,1-.11.32Z"/><path d="M317.56,134.88v3.46a1.44,1.44,0,0,0,.29,1,1.06,1.06,0,0,0,.86.34,1.61,1.61,0,0,0,.79-.21,2.31,2.31,0,0,0,.67-.54v-4h1v5.43h-.57a.23.23,0,0,1-.25-.19l-.08-.59a2.82,2.82,0,0,1-.79.63,2.09,2.09,0,0,1-1,.24,1.75,1.75,0,0,1-.78-.15,1.39,1.39,0,0,1-.57-.42,1.54,1.54,0,0,1-.35-.64,2.72,2.72,0,0,1-.11-.85V134.9Z"/><path d="M324.35,140.4a1.3,1.3,0,0,1-1-.36,1.4,1.4,0,0,1-.35-1v-3.33h-.66a.24.24,0,0,1-.13-.05.2.2,0,0,1-.07-.16v-.39l.9-.1.21-1.68a.27.27,0,0,1,.07-.14h.59V135h1.56v.7h-1.56V139a.68.68,0,0,0,.16.51.63.63,0,0,0,.43.17,1.13,1.13,0,0,0,.26,0l.2-.1.14-.09h.09a.19.19,0,0,1,.14.1l.27.45a1.71,1.71,0,0,1-.59.36A2,2,0,0,1,324.35,140.4Z"/><path d="M326.71,140.31v-7.9h1v3.21a3,3,0,0,1,.77-.6,2.1,2.1,0,0,1,1-.22,2.13,2.13,0,0,1,.79.15,1.57,1.57,0,0,1,.57.42,1.92,1.92,0,0,1,.34.65,2.62,2.62,0,0,1,.11.84v3.46h-1v-3.46a1.56,1.56,0,0,0-.28-1,1.11,1.11,0,0,0-.87-.34,1.56,1.56,0,0,0-.79.21,2.42,2.42,0,0,0-.68.55v4Z"/><path d="M334.87,134.79A2.51,2.51,0,0,1,336,135a2.28,2.28,0,0,1,.82.55,2.55,2.55,0,0,1,.51.89,3.8,3.8,0,0,1,0,2.31,2.67,2.67,0,0,1-.51.88,2.33,2.33,0,0,1-.82.57,3.07,3.07,0,0,1-1.08.19,2.81,2.81,0,0,1-1.07-.19,2.33,2.33,0,0,1-.82-.57,2.72,2.72,0,0,1-.53-.88,4,4,0,0,1,0-2.31,2.77,2.77,0,0,1,.53-.89,2.28,2.28,0,0,1,.82-.55A2.49,2.49,0,0,1,334.87,134.79Zm0,4.88a1.39,1.39,0,0,0,1.2-.54,3,3,0,0,0,0-3,1.39,1.39,0,0,0-1.2-.55,1.76,1.76,0,0,0-.71.14,1.39,1.39,0,0,0-.5.41,1.88,1.88,0,0,0-.3.64,3.69,3.69,0,0,0-.1.87,3.55,3.55,0,0,0,.1.86,1.88,1.88,0,0,0,.3.64,1.31,1.31,0,0,0,.5.4,1.58,1.58,0,0,0,.71.11Z"/><path d="M338.64,140.31v-5.43h.55a.27.27,0,0,1,.21.06.3.3,0,0,1,.08.2l.07.85a2.49,2.49,0,0,1,.69-.89,1.5,1.5,0,0,1,1-.32,1.83,1.83,0,0,1,.4.05,2.17,2.17,0,0,1,.35.15l-.13.71a.15.15,0,0,1-.17.13.93.93,0,0,1-.23,0,1,1,0,0,0-.43-.06,1.23,1.23,0,0,0-.84.29,2.27,2.27,0,0,0-.55.84v3.46Z"/><path d="M344.24,133.17a.58.58,0,0,1-.06.26.54.54,0,0,1-.15.22.8.8,0,0,1-.21.15.57.57,0,0,1-.26,0,.63.63,0,0,1-.27,0,.72.72,0,0,1-.36-.37.59.59,0,0,1,0-.52,1.14,1.14,0,0,1,.15-.23,1.53,1.53,0,0,1,.21-.14.65.65,0,0,1,.27,0,.59.59,0,0,1,.47.19.57.57,0,0,1,.15.23A.58.58,0,0,1,344.24,133.17Zm-.21,1.71v5.43h-1v-5.43Z"/><path d="M347.34,140.4a1.29,1.29,0,0,1-1-.36,1.4,1.4,0,0,1-.34-1v-3.33h-.64a.3.3,0,0,1-.15-.05.18.18,0,0,1-.05-.16v-.39l.88-.1.23-1.68a.17.17,0,0,1,.07-.14H347V135h1.55v.7H347V139a.65.65,0,0,0,.17.51.61.61,0,0,0,.43.17,1,1,0,0,0,.25,0l.19-.1.14-.09h.1a.21.21,0,0,1,.14.1l.28.45a1.79,1.79,0,0,1-.61.36A1.89,1.89,0,0,1,347.34,140.4Z"/><path d="M351.31,141.92a.52.52,0,0,1-.12.17.33.33,0,0,1-.23.07h-.69l1-2.16L349,134.88h.82a.25.25,0,0,1,.2.06.64.64,0,0,1,.1.13l1.46,3.43a1.55,1.55,0,0,1,.07.23,1,1,0,0,1,.06.25,1,1,0,0,0,.08-.25l.09-.23,1.41-3.43a.28.28,0,0,1,.11-.13.27.27,0,0,1,.17-.06h.76Z"/><path d="M149.94,138.72a.29.29,0,0,1,.16.07l.41.45a3.34,3.34,0,0,1-1.15.86,4.12,4.12,0,0,1-1.62.3,3.89,3.89,0,0,1-1.51-.28,3.62,3.62,0,0,1-1.16-.81,3.72,3.72,0,0,1-.74-1.24,4.63,4.63,0,0,1-.26-1.6,4.34,4.34,0,0,1,.28-1.59,3.79,3.79,0,0,1,.79-1.25,3.54,3.54,0,0,1,1.22-.8,4,4,0,0,1,1.57-.29,3.54,3.54,0,0,1,1.47.26,3.94,3.94,0,0,1,1.09.71l-.34.48a.28.28,0,0,1-.23.13.34.34,0,0,1-.14-.05l-.19-.13-.25-.16a1.5,1.5,0,0,0-.34-.16,2.64,2.64,0,0,0-.46-.13,3.11,3.11,0,0,0-.61,0,3.14,3.14,0,0,0-1.13.21,2.69,2.69,0,0,0-.89.6,2.93,2.93,0,0,0-.57,1,3.83,3.83,0,0,0-.21,1.26,4,4,0,0,0,.21,1.28,2.73,2.73,0,0,0,.56,1,2.4,2.4,0,0,0,.85.6,2.88,2.88,0,0,0,1.05.2,2.3,2.3,0,0,0,1.13-.13,2.44,2.44,0,0,0,.43-.21c.14-.1.28-.2.41-.31A.24.24,0,0,1,149.94,138.72Z"/><path d="M152.78,132.41v7.9h-1v-7.9Z"/><path d="M155.75,133.17a.58.58,0,0,1-.06.26,1.07,1.07,0,0,1-.15.22.86.86,0,0,1-.22.15.87.87,0,0,1-.52,0,.8.8,0,0,1-.21-.15.48.48,0,0,1-.15-.22.59.59,0,0,1,0-.52.51.51,0,0,1,.15-.23.6.6,0,0,1,.21-.14.75.75,0,0,1,.26,0,.6.6,0,0,1,.26,0,.64.64,0,0,1,.37.37A.58.58,0,0,1,155.75,133.17Zm-.22,1.71v5.43h-1v-5.43Z"/><path d="M159.37,134.79a2.58,2.58,0,0,1,.91.17,2.07,2.07,0,0,1,.71.46,2.42,2.42,0,0,1,.47.77,3,3,0,0,1,.16,1,.61.61,0,0,1-.05.3.17.17,0,0,1-.17.08h-3.62a2.76,2.76,0,0,0,.13.9,2,2,0,0,0,.36.63,1.66,1.66,0,0,0,.53.38,1.89,1.89,0,0,0,.7.13,2.16,2.16,0,0,0,.62-.09,2.75,2.75,0,0,0,.45-.17l.32-.19a.54.54,0,0,1,.21-.08.21.21,0,0,1,.18.09l.27.35a1.86,1.86,0,0,1-.42.37,2.4,2.4,0,0,1-.53.27,5.47,5.47,0,0,1-.58.15,2.91,2.91,0,0,1-.59,0,2.87,2.87,0,0,1-1.05-.19,2.32,2.32,0,0,1-1.35-1.47,3.76,3.76,0,0,1-.2-1.25,3.19,3.19,0,0,1,.18-1.06,2.58,2.58,0,0,1,.49-.85,2.49,2.49,0,0,1,.8-.57A2.61,2.61,0,0,1,159.37,134.79Zm0,.7a1.52,1.52,0,0,0-1.09.4,1.94,1.94,0,0,0-.49,1.12h2.92a1.86,1.86,0,0,0-.08-.62,1.29,1.29,0,0,0-.28-.48,1.19,1.19,0,0,0-.34-.29,1.47,1.47,0,0,0-.62-.13Z"/><path d="M162.84,140.31v-5.43h.57a.25.25,0,0,1,.26.19l.07.6a3.26,3.26,0,0,1,.79-.64,2,2,0,0,1,1-.24,2,2,0,0,1,.8.15,1.53,1.53,0,0,1,.56.42,1.78,1.78,0,0,1,.35.65,3,3,0,0,1,.12.84v3.46h-1v-3.46a1.45,1.45,0,0,0-.28-1,1.06,1.06,0,0,0-.86-.34,1.62,1.62,0,0,0-.8.21,2.53,2.53,0,0,0-.67.55v4Z"/><path d="M170.45,140.4a1.29,1.29,0,0,1-1-.36,1.41,1.41,0,0,1-.35-1v-3.33h-.66a.24.24,0,0,1-.14-.05.18.18,0,0,1-.05-.16v-.39l.88-.1.22-1.68a.16.16,0,0,1,.08-.14h.62V135h1.56v.7h-1.56V139a.73.73,0,0,0,.17.51.61.61,0,0,0,.43.17,1.13,1.13,0,0,0,.26,0l.19-.1.14-.09h.1a.21.21,0,0,1,.14.1l.27.45a1.75,1.75,0,0,1-.6.36A2,2,0,0,1,170.45,140.4Z"/><rect class="cls-1" x="408.79" width="86.1" height="123.58" rx="2.01"/><rect class="cls-5" x="418.01" y="25.48" width="70.95" height="7.49"/><rect class="cls-5" x="418.01" y="41.41" width="70.95" height="7.49"/><rect class="cls-5" x="418.63" y="57.34" width="70.95" height="7.49"/><rect class="cls-5" x="418.63" y="73.26" width="70.95" height="7.49"/><rect class="cls-5" x="418.63" y="89.2" width="70.95" height="7.49"/><circle class="cls-6" cx="482.19" cy="12.09" r="6.09"/><rect class="cls-5" x="418.63" y="105.12" width="70.95" height="7.49"/><path d="M441.25,135.9a.25.25,0,0,1-.11.12.19.19,0,0,1-.13,0,.44.44,0,0,1-.22-.1l-.3-.19a1.93,1.93,0,0,0-.46-.16,2.16,2.16,0,0,0-.62-.09,2.28,2.28,0,0,0-.63.09,1.66,1.66,0,0,0-.45.25,1.22,1.22,0,0,0-.26.38,1.1,1.1,0,0,0-.1.47,1,1,0,0,0,.16.54,1.61,1.61,0,0,0,.42.36,4.41,4.41,0,0,0,.59.26l.68.23a5.46,5.46,0,0,1,.67.26,2.35,2.35,0,0,1,.6.38,1.75,1.75,0,0,1,.42.55,1.86,1.86,0,0,1,.15.81,2.48,2.48,0,0,1-.17,1,2.09,2.09,0,0,1-.5.77,2.49,2.49,0,0,1-.81.52,3.27,3.27,0,0,1-1.12.08,3.34,3.34,0,0,1-1.36-.27,3,3,0,0,1-1.05-.74l.3-.49a.27.27,0,0,1,.11-.1h.13a.42.42,0,0,1,.26.12,2.42,2.42,0,0,0,.36.27,2.11,2.11,0,0,0,.52.26,2,2,0,0,0,.76.12,1.86,1.86,0,0,0,.66-.1,1.36,1.36,0,0,0,.49-.29,1.14,1.14,0,0,0,.31-.44,1.6,1.6,0,0,0,.11-.57,1,1,0,0,0-.16-.57,1.18,1.18,0,0,0-.42-.38,2.48,2.48,0,0,0-.58-.25l-.68-.22a5.54,5.54,0,0,1-.68-.25,2.78,2.78,0,0,1-.59-.37,2,2,0,0,1-.42-.58,2.34,2.34,0,0,1,0-1.65,2.14,2.14,0,0,1,1.21-1.15,2.78,2.78,0,0,1,1-.18,3.32,3.32,0,0,1,1.17.21,2.59,2.59,0,0,1,.93.59Z"/><path d="M445,136.87a2.51,2.51,0,0,1,.9.16,2.3,2.3,0,0,1,.72.47,2.48,2.48,0,0,1,.47.76,3.09,3.09,0,0,1,.16,1,.51.51,0,0,1,0,.3.18.18,0,0,1-.18.08h-3.61a2.76,2.76,0,0,0,.13.9,2.16,2.16,0,0,0,.35.63,1.83,1.83,0,0,0,.54.38,2.11,2.11,0,0,0,.7.13,2.16,2.16,0,0,0,.62-.09,2.82,2.82,0,0,0,.45-.18,1.92,1.92,0,0,0,.31-.18.45.45,0,0,1,.22-.08.21.21,0,0,1,.18.09l.27.35a1.53,1.53,0,0,1-.43.37,2.11,2.11,0,0,1-.52.26,3.83,3.83,0,0,1-.58.16,4,4,0,0,1-.59.05,2.88,2.88,0,0,1-1.05-.2,2.28,2.28,0,0,1-.82-.55,2.45,2.45,0,0,1-.53-.91,3.52,3.52,0,0,1-.2-1.25,3.19,3.19,0,0,1,.18-1.06,2.42,2.42,0,0,1,.49-.85,2.53,2.53,0,0,1,.8-.58A2.76,2.76,0,0,1,445,136.87Zm0,.7a1.44,1.44,0,0,0-1.08.4,1.8,1.8,0,0,0-.5,1.11h2.92a1.83,1.83,0,0,0-.08-.61A1.44,1.44,0,0,0,446,138a1.22,1.22,0,0,0-.43-.31,1.4,1.4,0,0,0-.53-.11Z"/><path d="M448.47,142.39V137H449a.31.31,0,0,1,.21,0,.32.32,0,0,1,.08.21l.07.85a2.41,2.41,0,0,1,.69-.89,1.5,1.5,0,0,1,1-.32,1.41,1.41,0,0,1,.41,0,2.07,2.07,0,0,1,.34.15l-.13.71a.15.15,0,0,1-.16.13.69.69,0,0,1-.24,0A1.49,1.49,0,0,0,450,138a2.16,2.16,0,0,0-.55.84v3.46Z"/><path d="M452.11,137h.78a.26.26,0,0,1,.19,0,.45.45,0,0,1,.1.14l1.39,3.5a3.3,3.3,0,0,1,.12.38,2.26,2.26,0,0,0,.07.39,1,1,0,0,1,.09-.39,1.23,1.23,0,0,1,.13-.38l1.39-3.5a.49.49,0,0,1,.11-.14.27.27,0,0,1,.18,0h.75l-2.23,5.43h-.85Z"/><path d="M460.31,136.87a2.46,2.46,0,0,1,.89.16,2.19,2.19,0,0,1,.72.47,2.15,2.15,0,0,1,.47.76,3.11,3.11,0,0,1,.17,1,.76.76,0,0,1,0,.3.25.25,0,0,1-.18.08h-3.62a3.07,3.07,0,0,0,.14.9,1.7,1.7,0,0,0,.35.63,1.36,1.36,0,0,0,.54.38,2.06,2.06,0,0,0,.69.13,2.28,2.28,0,0,0,.63-.09,2.14,2.14,0,0,0,.39-.16l.31-.18a.54.54,0,0,1,.21-.08.22.22,0,0,1,.19.09l.26.35a1.64,1.64,0,0,1-.42.37,2.11,2.11,0,0,1-.52.26,3.34,3.34,0,0,1-1.18.21,2.83,2.83,0,0,1-1-.2,2.28,2.28,0,0,1-.82-.55,2.47,2.47,0,0,1-.54-.91,3.52,3.52,0,0,1-.2-1.25,3.19,3.19,0,0,1,.18-1.06,2.41,2.41,0,0,1,1.3-1.43A2.68,2.68,0,0,1,460.31,136.87Zm0,.7a1.53,1.53,0,0,0-1.1.4,1.86,1.86,0,0,0-.48,1.11h2.92a2.1,2.1,0,0,0-.09-.61,1.42,1.42,0,0,0-.27-.48,1.25,1.25,0,0,0-.44-.31,1.51,1.51,0,0,0-.52-.11Z"/><path d="M463.77,142.39V137h.56a.31.31,0,0,1,.21,0,.42.42,0,0,1,.08.21l.06.85a2.52,2.52,0,0,1,.69-.89,1.5,1.5,0,0,1,1-.32,1.41,1.41,0,0,1,.41,0,1.61,1.61,0,0,1,.33.15l-.12.71a.16.16,0,0,1-.17.13.59.59,0,0,1-.23,0,1.3,1.3,0,0,0-.44-.05,1.21,1.21,0,0,0-.83.29,2.18,2.18,0,0,0-.56.84v3.46Z"/><path class="cls-4" d="M40.21,60.81a17.25,17.25,0,0,1-22.44.2C7.7,62.77,0,72.21,0,83.59,0,96.24,9.47,88,21.17,88H38.25c11.7,0,21.17,8.23,21.17-4.42C59.42,71.67,51,61.88,40.21,60.81Z"/><path class="cls-4" d="M28.87,62.4c8.78,0,15.91-7.72,15.91-17.2S37.64,28,28.87,28,13,35.72,13,45.2,20.1,62.4,28.87,62.4Z"/><path d="M22.44,139.52a2.11,2.11,0,0,0,.86-.15,1.91,1.91,0,0,0,.63-.45,2,2,0,0,0,.4-.7,2.89,2.89,0,0,0,.13-.88v-4.68h1v4.68a3.51,3.51,0,0,1-.21,1.24,2.9,2.9,0,0,1-.61,1,2.7,2.7,0,0,1-1,.66,3.68,3.68,0,0,1-2.56,0,2.7,2.7,0,0,1-1-.66,2.75,2.75,0,0,1-.61-1,3.3,3.3,0,0,1-.21-1.24v-4.68h1v4.67a2.89,2.89,0,0,0,.14.88,1.88,1.88,0,0,0,.4.7,2,2,0,0,0,.63.46A2.21,2.21,0,0,0,22.44,139.52Z"/><path d="M30.25,135.78a.21.21,0,0,1-.2.11.3.3,0,0,1-.18-.06l-.25-.13a2,2,0,0,0-.35-.08,1.61,1.61,0,0,0-.49-.07,1.19,1.19,0,0,0-.49.07,1,1,0,0,0-.33.17.64.64,0,0,0-.21.25.63.63,0,0,0-.07.3.55.55,0,0,0,.12.35,1.31,1.31,0,0,0,.32.25,2.2,2.2,0,0,0,.45.17l.52.17.52.19a2.6,2.6,0,0,1,.45.28,1.07,1.07,0,0,1,.31.39,1.1,1.1,0,0,1,.13.56,1.86,1.86,0,0,1-.14.7,1.45,1.45,0,0,1-.4.55,2,2,0,0,1-.64.36,2.62,2.62,0,0,1-.88.14,2.73,2.73,0,0,1-1.81-.66l.22-.37a.27.27,0,0,1,.11-.1.2.2,0,0,1,.15,0,.32.32,0,0,1,.21.08l.25.16a3,3,0,0,0,.37.17,2,2,0,0,0,.55.08,1.62,1.62,0,0,0,.49-.08,1.37,1.37,0,0,0,.35-.2.69.69,0,0,0,.2-.28.8.8,0,0,0,.07-.34.57.57,0,0,0-.11-.38,1.59,1.59,0,0,0-.33-.25,1.83,1.83,0,0,0-.46-.18l-.51-.17a4.6,4.6,0,0,1-.52-.19,1.67,1.67,0,0,1-.46-.28,1.42,1.42,0,0,1-.32-.41,1.43,1.43,0,0,1,.38-1.69,1.79,1.79,0,0,1,.61-.36,2.79,2.79,0,0,1,.81-.12,2.5,2.5,0,0,1,1,.17,2.32,2.32,0,0,1,.73.46Z"/><path d="M33.91,134.79a2.37,2.37,0,0,1,.91.17,2,2,0,0,1,.71.46,2.11,2.11,0,0,1,.47.77,2.79,2.79,0,0,1,.17,1,.51.51,0,0,1,0,.3.18.18,0,0,1-.18.08H32.32a3.07,3.07,0,0,0,.14.9,1.88,1.88,0,0,0,.36.63,1.36,1.36,0,0,0,.54.38,1.8,1.8,0,0,0,.69.13,2.28,2.28,0,0,0,.63-.09,3.34,3.34,0,0,0,.44-.17l.32-.19a.49.49,0,0,1,.21-.08.25.25,0,0,1,.19.09l.26.32a1.64,1.64,0,0,1-.42.37,2.4,2.4,0,0,1-.53.27,5.47,5.47,0,0,1-.58.15,3,3,0,0,1-.6,0,2.86,2.86,0,0,1-1-.19,2.44,2.44,0,0,1-.82-.56,2.62,2.62,0,0,1-.54-.91,3.74,3.74,0,0,1-.19-1.24,3.2,3.2,0,0,1,.17-1.07,2.61,2.61,0,0,1,.5-.85,2.39,2.39,0,0,1,.8-.57A2.56,2.56,0,0,1,33.91,134.79Zm0,.7a1.52,1.52,0,0,0-1.09.4,2,2,0,0,0-.5,1.12h2.93a2.16,2.16,0,0,0-.09-.62,1.25,1.25,0,0,0-.26-.48,1.23,1.23,0,0,0-.44-.3,1.52,1.52,0,0,0-.52-.12Z"/><path d="M37.39,140.31v-5.43h.54a.29.29,0,0,1,.22.06.3.3,0,0,1,.08.2l.07.85a2.49,2.49,0,0,1,.69-.89,1.49,1.49,0,0,1,1-.32,1.75,1.75,0,0,1,.4.05,2.17,2.17,0,0,1,.35.15l-.13.71a.15.15,0,0,1-.17.13.85.85,0,0,1-.22,0,1.09,1.09,0,0,0-.44-.06,1.21,1.21,0,0,0-.83.29,2.2,2.2,0,0,0-.57.84v3.46Z"/><rect class="cls-7" x="62.49" y="56.04" width="39.41" height="3.28"/><polygon class="cls-7" points="104.8 58 101.67 54.59 101.67 61.42 104.8 58"/><path class="cls-7" d="M71.09,49.16a1.33,1.33,0,0,1-1-.36,1.44,1.44,0,0,1-.36-1V44.44H69.1a.2.2,0,0,1-.15-.06.17.17,0,0,1-.06-.15v-.38l.89-.11L70,42.05a.13.13,0,0,1,.06-.12.2.2,0,0,1,.15,0h.48V43.8h1.56v.69H70.7v3.26a.64.64,0,0,0,.17.51.58.58,0,0,0,.43.16.57.57,0,0,0,.26,0l.19-.08.14-.09H72a.14.14,0,0,1,.13.09l.28.45a1.69,1.69,0,0,1-.6.36A1.88,1.88,0,0,1,71.09,49.16Z"/><path class="cls-7" d="M73.44,49.08V43.64H74a.27.27,0,0,1,.21.06.32.32,0,0,1,.08.21l.07.84a2.28,2.28,0,0,1,.69-.88,1.51,1.51,0,0,1,1-.33h.41a2.07,2.07,0,0,1,.34.15l-.13.71a.15.15,0,0,1-.17.14.86.86,0,0,1-.23-.06,1.55,1.55,0,0,0-.43,0,1.28,1.28,0,0,0-.84.29,2.05,2.05,0,0,0-.55.84v3.47Z"/><path class="cls-7" d="M78.59,43.64v3.47a1.53,1.53,0,0,0,.28,1,1.08,1.08,0,0,0,.86.34,1.66,1.66,0,0,0,.79-.2,2.62,2.62,0,0,0,.69-.55v-4h1v5.44h-.56a.27.27,0,0,1-.27-.2l-.08-.58a2.82,2.82,0,0,1-.79.62,2.17,2.17,0,0,1-1.76.1,1.73,1.73,0,0,1-.58-.42,2,2,0,0,1-.34-.66,2.92,2.92,0,0,1-.12-.83V43.64Z"/><path class="cls-7" d="M86.84,44.54a.22.22,0,0,1-.21.12.49.49,0,0,1-.17-.06l-.26-.14a2.09,2.09,0,0,0-.35-.13,1.32,1.32,0,0,0-.48-.06,1.12,1.12,0,0,0-.44.06,1.29,1.29,0,0,0-.33.17.91.91,0,0,0-.2.24.72.72,0,0,0-.08.32.51.51,0,0,0,.13.35.9.9,0,0,0,.32.23,2.25,2.25,0,0,0,.45.19l.51.16.52.2a1.7,1.7,0,0,1,.45.26,1.18,1.18,0,0,1,.44,1,1.68,1.68,0,0,1-.14.7,1.53,1.53,0,0,1-.39.55A2.06,2.06,0,0,1,86,49a2.65,2.65,0,0,1-.88.13,2.88,2.88,0,0,1-1-.18,2.53,2.53,0,0,1-.78-.48l.23-.36a.27.27,0,0,1,.25-.15.38.38,0,0,1,.21.07,2.4,2.4,0,0,0,.26.18,2.43,2.43,0,0,0,.37.16,1.67,1.67,0,0,0,.54.07,1.44,1.44,0,0,0,.5-.07,1.14,1.14,0,0,0,.34-.19.94.94,0,0,0,.21-.28,1.13,1.13,0,0,0,.06-.36.63.63,0,0,0-.12-.37A1.11,1.11,0,0,0,85.8,47a3,3,0,0,0-.45-.18l-.47-.16-.51-.2a1.48,1.48,0,0,1-.45-.28,1.07,1.07,0,0,1-.32-.41,1.29,1.29,0,0,1-.13-.58,1.43,1.43,0,0,1,.14-.61A1.39,1.39,0,0,1,84,44a2,2,0,0,1,.6-.35,2.62,2.62,0,0,1,.83-.13,3,3,0,0,1,1,.17,2.51,2.51,0,0,1,.74.47Z"/><path class="cls-7" d="M90,49.16a1.3,1.3,0,0,1-1-.36,1.44,1.44,0,0,1-.36-1V44.44h-.65a.2.2,0,0,1-.15-.06.15.15,0,0,1-.06-.15v-.38l.9-.11L89,42.05a.19.19,0,0,1,.07-.12.15.15,0,0,1,.16,0h.48V43.8h1.56v.69H89.66v3.26a.68.68,0,0,0,.16.51.56.56,0,0,0,.43.16.57.57,0,0,0,.26,0l.19-.08.14-.09h.1s.09,0,.13.09l.28.45a1.57,1.57,0,0,1-.59.36A1.94,1.94,0,0,1,90,49.16Z"/><path class="cls-7" d="M95.51,44.54a.24.24,0,0,1-.21.12.49.49,0,0,1-.17-.06l-.25-.14a2.6,2.6,0,0,0-.36-.13,1.32,1.32,0,0,0-.48-.06,1,1,0,0,0-.43.06.8.8,0,0,0-.33.17.79.79,0,0,0-.21.24.72.72,0,0,0-.08.32.51.51,0,0,0,.13.35,1.19,1.19,0,0,0,.31.23,2.53,2.53,0,0,0,.45.19l.52.16.52.2a1.66,1.66,0,0,1,.45.26,1.52,1.52,0,0,1,.32.4,1.11,1.11,0,0,1,.12.56,1.85,1.85,0,0,1-.13.7,1.69,1.69,0,0,1-.4.55,2,2,0,0,1-.65.37,2.61,2.61,0,0,1-.88.13,2.69,2.69,0,0,1-1-.18A2.46,2.46,0,0,1,92,48.5l.22-.36a.38.38,0,0,1,.11-.11h.16a.48.48,0,0,1,.2.07l.25.18c.1.06.24.1.37.16a1.73,1.73,0,0,0,.55.07,1.35,1.35,0,0,0,.49-.07,1.08,1.08,0,0,0,.35-.19.72.72,0,0,0,.2-.29.71.71,0,0,0,.07-.35.56.56,0,0,0-.11-.37,1.59,1.59,0,0,0-.33-.25,3.38,3.38,0,0,0-.44-.18l-.53-.16-.52-.2a1.83,1.83,0,0,1-.46-.28,1.3,1.3,0,0,1-.44-1,1.79,1.79,0,0,1,.13-.6,1.55,1.55,0,0,1,.38-.5,1.94,1.94,0,0,1,.61-.35,2.51,2.51,0,0,1,.82-.13,2.68,2.68,0,0,1,1,.17,2.51,2.51,0,0,1,.74.47Z"/><rect class="cls-7" x="210.63" y="56.26" width="39.41" height="3.28"/><polygon class="cls-7" points="252.94 58.23 249.8 54.81 249.8 61.63 252.94 58.23"/><path class="cls-7" d="M219.23,49.38a1.36,1.36,0,0,1-1-.35,1.48,1.48,0,0,1-.34-1.05V44.66h-.66a.18.18,0,0,1-.2-.17v-.42l.89-.12.22-1.67a.17.17,0,0,1,.07-.13.2.2,0,0,1,.15-.06h.48V44h1.56v.7h-1.57v3.27a.66.66,0,0,0,.16.5.63.63,0,0,0,.43.17h.25l.2-.09.14-.09a.14.14,0,0,1,.09,0,.19.19,0,0,1,.14.09l.28.46a1.75,1.75,0,0,1-.6.36A1.9,1.9,0,0,1,219.23,49.38Z"/><path class="cls-7" d="M221.58,49.3V43.91h.54a.33.33,0,0,1,.22.05.49.49,0,0,1,.08.21l.06.85a2.43,2.43,0,0,1,.7-.89,1.54,1.54,0,0,1,1-.31,1.34,1.34,0,0,1,.4,0,1.26,1.26,0,0,1,.34.13l-.12.72a.16.16,0,0,1-.17.13.59.59,0,0,1-.22,0h-.44a1.26,1.26,0,0,0-.83.29,2.16,2.16,0,0,0-.57.85v3.46Z"/><path class="cls-7" d="M226.73,43.91v3.47a1.41,1.41,0,0,0,.28,1,1.08,1.08,0,0,0,.86.34,1.66,1.66,0,0,0,.79-.2,2.42,2.42,0,0,0,.68-.55v-4h1v5.44h-.57a.25.25,0,0,1-.26-.2l-.07-.59a3.05,3.05,0,0,1-.8.63,2,2,0,0,1-1,.24,2.13,2.13,0,0,1-.79-.15,1.46,1.46,0,0,1-.57-.41,1.78,1.78,0,0,1-.35-.65,3,3,0,0,1-.12-.84V43.91Z"/><path class="cls-7" d="M235,44.75a.18.18,0,0,1-.19.12.33.33,0,0,1-.19-.06l-.25-.12a1.51,1.51,0,0,0-.35-.14,2,2,0,0,0-.48-.06,1.61,1.61,0,0,0-.44.06,1,1,0,0,0-.54.42.66.66,0,0,0-.06.31.45.45,0,0,0,.11.34,1,1,0,0,0,.32.25,4.22,4.22,0,0,0,.45.18l.52.17a4.6,4.6,0,0,1,.52.19,2.07,2.07,0,0,1,.45.27,1.16,1.16,0,0,1,.32.4,1.3,1.3,0,0,1,.12.55,1.85,1.85,0,0,1-.13.7,1.56,1.56,0,0,1-.4.55,2,2,0,0,1-.65.37,3,3,0,0,1-2-.06,2.47,2.47,0,0,1-.78-.46l.23-.38a.43.43,0,0,1,.09-.1h.16a.32.32,0,0,1,.21.08l.26.16a2.48,2.48,0,0,0,.37.17,2,2,0,0,0,.55.08,1.55,1.55,0,0,0,.48-.07,1.31,1.31,0,0,0,.36-.21,1,1,0,0,0,.2-.28,1,1,0,0,0,.07-.34.54.54,0,0,0-.13-.37,1,1,0,0,0-.32-.26,4.22,4.22,0,0,0-.45-.18l-.52-.16a4.65,4.65,0,0,1-.52-.2,1.48,1.48,0,0,1-.45-.28,1.07,1.07,0,0,1-.32-.41,1.2,1.2,0,0,1-.12-.59,1.47,1.47,0,0,1,.5-1.1,1.86,1.86,0,0,1,.61-.35,2.27,2.27,0,0,1,.82-.12,2.52,2.52,0,0,1,1,.16,2.39,2.39,0,0,1,.74.47Z"/><path class="cls-7" d="M238.17,49.38a1.32,1.32,0,0,1-1-.35,1.44,1.44,0,0,1-.35-1.05V44.66h-.66a.18.18,0,0,1-.2-.17v-.42l.9-.12.21-1.67a.21.21,0,0,1,.07-.13.22.22,0,0,1,.15-.06h.48V44h1.56v.7H237.8v3.27a.71.71,0,0,0,.17.5.61.61,0,0,0,.43.17.57.57,0,0,0,.26,0l.2-.09.13-.09a.17.17,0,0,1,.1,0s.09,0,.13.09l.28.46a1.71,1.71,0,0,1-.59.36A2,2,0,0,1,238.17,49.38Z"/><path class="cls-7" d="M243.65,44.75a.21.21,0,0,1-.21.12.27.27,0,0,1-.17-.06l-.26-.12a1.51,1.51,0,0,0-.35-.14,1.91,1.91,0,0,0-.48-.06,1.72,1.72,0,0,0-.44.06,1.15,1.15,0,0,0-.33.17.82.82,0,0,0-.2.25.68.68,0,0,0-.08.31.43.43,0,0,0,.13.34,1,1,0,0,0,.31.25,3.66,3.66,0,0,0,.46.18l.51.17a4.6,4.6,0,0,1,.52.19,2.07,2.07,0,0,1,.45.27,1,1,0,0,1,.32.4,1.3,1.3,0,0,1,.12.55,1.54,1.54,0,0,1-.14.7,1.42,1.42,0,0,1-.39.55,2.06,2.06,0,0,1-.64.37,2.7,2.7,0,0,1-.89.13,2.5,2.5,0,0,1-1-.19,2.41,2.41,0,0,1-.79-.46l.23-.38a.47.47,0,0,1,.1-.1.19.19,0,0,1,.15,0,.32.32,0,0,1,.21.08l.26.16a2.48,2.48,0,0,0,.37.17,2,2,0,0,0,.54.08,1.66,1.66,0,0,0,.49-.07.84.84,0,0,0,.35-.21.63.63,0,0,0,.2-.28.8.8,0,0,0,.07-.34.53.53,0,0,0-.12-.37.82.82,0,0,0-.32-.26,3,3,0,0,0-.45-.18l-.52-.16a4.65,4.65,0,0,1-.52-.2,1.48,1.48,0,0,1-.45-.28,1.07,1.07,0,0,1-.32-.41,1.21,1.21,0,0,1-.13-.59,1.39,1.39,0,0,1,.14-.6,1.31,1.31,0,0,1,.37-.5,2,2,0,0,1,.6-.35,2.55,2.55,0,0,1,.82-.12,2.33,2.33,0,0,1,1.72.63Z"/><rect class="cls-7" x="358.61" y="57.23" width="39.41" height="3.28"/><polygon class="cls-7" points="400.93 59.2 397.8 55.79 397.8 62.61 400.93 59.2"/><path class="cls-7" d="M367.21,50.35a1.27,1.27,0,0,1-1-.35,1.41,1.41,0,0,1-.35-1V45.63h-.65a.18.18,0,0,1-.21-.16v-.42l.9-.12.21-1.68a.24.24,0,0,1,.07-.12.23.23,0,0,1,.16-.06h.5v1.87h1.56v.69h-1.56V48.9a.67.67,0,0,0,.16.51.58.58,0,0,0,.43.16.57.57,0,0,0,.26,0l.19-.08.14-.09h.1a.15.15,0,0,1,.13.09l.28.46a1.87,1.87,0,0,1-.59.36A1.9,1.9,0,0,1,367.21,50.35Z"/><path class="cls-7" d="M369.57,50.28v-5.4h.54a.29.29,0,0,1,.22.06.39.39,0,0,1,.08.2l.07.85a2.43,2.43,0,0,1,.68-.88,1.49,1.49,0,0,1,1-.32,1.41,1.41,0,0,1,.41,0,1.51,1.51,0,0,1,.35.14l-.13.71c0,.1-.08.14-.17.14l-.23-.05a1.55,1.55,0,0,0-.43,0,1.29,1.29,0,0,0-.84.28,2.29,2.29,0,0,0-.56.85v3.47Z"/><path class="cls-7" d="M374.72,44.88v3.47a1.43,1.43,0,0,0,.28,1,1,1,0,0,0,.86.33,1.65,1.65,0,0,0,.79-.19,2.64,2.64,0,0,0,.68-.56v-4h1v5.45h-.57a.24.24,0,0,1-.25-.21l-.08-.58a2.85,2.85,0,0,1-.79.63,2.16,2.16,0,0,1-1,.23,1.86,1.86,0,0,1-.78-.14,1.58,1.58,0,0,1-.58-.41,1.8,1.8,0,0,1-.34-.66,2.94,2.94,0,0,1-.12-.84V44.88Z"/><path class="cls-7" d="M383,45.73a.24.24,0,0,1-.2.12.64.64,0,0,1-.18-.06l-.25-.13a2.09,2.09,0,0,0-.35-.13,1.35,1.35,0,0,0-.49-.06,1.07,1.07,0,0,0-.43.06,1,1,0,0,0-.33.16,1,1,0,0,0-.2.25.61.61,0,0,0-.08.32.47.47,0,0,0,.12.34,1.08,1.08,0,0,0,.32.24,3.43,3.43,0,0,0,.44.19l.52.16a4.81,4.81,0,0,1,.53.2,2,2,0,0,1,.45.26,1.52,1.52,0,0,1,.32.4,1.38,1.38,0,0,1,.12.56,1.81,1.81,0,0,1-.14.69,1.6,1.6,0,0,1-.4.56,2.27,2.27,0,0,1-.64.37,2.64,2.64,0,0,1-.88.12,2.6,2.6,0,0,1-1-.18,2.27,2.27,0,0,1-.79-.47l.23-.37.11-.11h.15a.49.49,0,0,1,.21.08l.25.17a2.43,2.43,0,0,0,.37.16,1.7,1.7,0,0,0,.55.08,1.3,1.3,0,0,0,.48-.07,1.07,1.07,0,0,0,.36-.2.66.66,0,0,0,.2-.29.77.77,0,0,0,.07-.34.63.63,0,0,0-.12-.37,1.11,1.11,0,0,0-.32-.25l-.45-.19-.53-.15-.51-.21a1.33,1.33,0,0,1-.46-.27,1.14,1.14,0,0,1-.31-.41,1.25,1.25,0,0,1-.13-.6,1.53,1.53,0,0,1,.13-.59,1.48,1.48,0,0,1,.38-.51,1.7,1.7,0,0,1,.6-.34,2.79,2.79,0,0,1,1.8,0,2.51,2.51,0,0,1,.74.47Z"/><path class="cls-7" d="M386.16,50.35a1.3,1.3,0,0,1-1-.35,1.41,1.41,0,0,1-.34-1V45.63h-.66a.18.18,0,0,1-.2-.16v-.42l.89-.12.22-1.68a.14.14,0,0,1,.07-.12.17.17,0,0,1,.15-.06h.48v1.87h1.55v.69h-1.57V48.9a.72.72,0,0,0,.17.51.56.56,0,0,0,.43.16.57.57,0,0,0,.26,0l.19-.08.13-.09h.1a.17.17,0,0,1,.14.09l.28.46a2.08,2.08,0,0,1-.59.36A2,2,0,0,1,386.16,50.35Z"/><path class="cls-7" d="M391.63,45.73a.21.21,0,0,1-.2.12.55.55,0,0,1-.18-.06l-.25-.13a2.09,2.09,0,0,0-.35-.13,1.32,1.32,0,0,0-.48-.06,1,1,0,0,0-.43.06,1.06,1.06,0,0,0-.34.16.82.82,0,0,0-.21.25.71.71,0,0,0-.07.32.54.54,0,0,0,.12.34,1.08,1.08,0,0,0,.32.24A4.32,4.32,0,0,0,390,47l.52.16a5.38,5.38,0,0,1,.51.2,1.43,1.43,0,0,1,.45.26,1.11,1.11,0,0,1,.32.4,1.1,1.1,0,0,1,.13.56,1.64,1.64,0,0,1-.14.69,1.38,1.38,0,0,1-.4.56,2.14,2.14,0,0,1-.64.37,3.1,3.1,0,0,1-1.95-.06,2.58,2.58,0,0,1-.78-.47l.22-.37a.57.57,0,0,1,.11-.11h.16a.41.41,0,0,1,.19.08l.26.17a2.54,2.54,0,0,0,.38.16,1.64,1.64,0,0,0,.54.08,1.35,1.35,0,0,0,.49-.07.94.94,0,0,0,.35-.2.86.86,0,0,0,.21-.29.93.93,0,0,0,.06-.34.57.57,0,0,0-.12-.37,1.07,1.07,0,0,0-.31-.25,4.47,4.47,0,0,0-.46-.19l-.52-.15-.53-.21a1.74,1.74,0,0,1-.45-.27,1.3,1.3,0,0,1-.32-.41,1.48,1.48,0,0,1,0-1.19,1.48,1.48,0,0,1,.38-.51,1.73,1.73,0,0,1,.62-.38,2.51,2.51,0,0,1,.82-.13,2.68,2.68,0,0,1,1,.17,2.34,2.34,0,0,1,.73.47Z"/></svg>