<svg id="Layer_1" data-name="Layer 1" xmlns="http://www.w3.org/2000/svg" viewBox="0 0 407.57 222.24"><defs><style>.cls-1{fill:#e6451d;}.cls-2{fill:#aac0c8;}.cls-3{fill:#10a7e3;}.cls-4{fill:#93dbf7;}.cls-5{fill:#fff;stroke:#10a7e3;stroke-miterlimit:10;stroke-width:0.5px;}.cls-6{font-size:13px;}.cls-6,.cls-7{font-family:Monaco, Monaco;}.cls-7{font-size:14.55px;}.cls-8{fill:#f2c200;}.cls-9{fill:#fff3c2;}</style></defs><title>network path down</title><rect class="cls-1" x="89.2" y="105.42" width="182.41" height="4.05"/><rect class="cls-2" x="78.89" y="161.97" width="288.33" height="6.63" transform="translate(43.31 -46.29) rotate(13.11)"/><rect class="cls-2" x="70.1" y="54.96" width="285.95" height="6.05" transform="translate(-6.78 37.28) rotate(-9.84)"/><path class="cls-3" d="M102.16,109.67h0l0-6.89H16.5v6.61a42.83,42.83,0,1,0,85.66.28Z"/><circle class="cls-4" cx="59.23" cy="100.69" r="42.92"/><circle class="cls-4" cx="59.23" cy="100.69" r="18.59"/><polygon class="cls-5" points="57.8 96.22 64.22 85.58 58.48 87.48 50.95 64.75 44.3 66.96 51.82 89.69 46.29 91.52 57.8 96.22"/><polygon class="cls-5" points="74.06 134.16 66.53 111.43 72.06 109.6 60.55 104.9 54.13 115.54 59.87 113.64 67.4 136.37 74.06 134.16"/><polygon class="cls-5" points="93.9 89.23 83.26 82.81 85.16 88.55 62.43 96.08 64.63 102.73 87.36 95.21 89.2 100.74 93.9 89.23"/><polygon class="cls-5" points="53.69 98.63 30.96 106.16 29.12 100.63 24.42 112.13 35.06 118.56 33.16 112.82 55.89 105.29 53.69 98.63"/><path class="cls-3" d="M407.57,192.08h0l0-4.85H347.19v4.66a30.19,30.19,0,1,0,60.38.19Z"/><circle class="cls-4" cx="377.31" cy="185.76" r="30.25"/><circle class="cls-4" cx="377.31" cy="185.76" r="13.11"/><polygon class="cls-5" points="376.3 182.6 380.83 175.1 376.78 176.44 371.48 160.43 366.78 161.98 372.09 178 368.19 179.29 376.3 182.6"/><polygon class="cls-5" points="387.76 209.35 382.45 193.33 386.36 192.03 378.25 188.72 373.72 196.22 377.76 194.88 383.07 210.9 387.76 209.35"/><polygon class="cls-5" points="401.75 177.68 394.25 173.15 395.59 177.2 379.57 182.51 381.12 187.2 397.14 181.89 398.43 185.79 401.75 177.68"/><polygon class="cls-5" points="373.4 184.31 357.38 189.61 356.09 185.71 352.78 193.82 360.28 198.35 358.94 194.3 374.96 189 373.4 184.31"/><path class="cls-3" d="M407.57,114.33h0l0-4.86H347.19v4.66a30.19,30.19,0,1,0,60.38.2Z"/><circle class="cls-4" cx="377.31" cy="108.01" r="30.25"/><circle class="cls-4" cx="377.31" cy="108.01" r="13.11"/><polygon class="cls-5" points="376.3 104.85 380.83 97.35 376.78 98.69 371.48 82.67 366.78 84.23 372.09 100.25 368.19 101.54 376.3 104.85"/><polygon class="cls-5" points="387.76 131.59 382.45 115.58 386.36 114.28 378.25 110.97 373.72 118.47 377.76 117.13 383.07 133.15 387.76 131.59"/><polygon class="cls-5" points="401.75 99.93 394.25 95.4 395.59 99.45 379.57 104.75 381.12 109.44 397.14 104.14 398.43 108.04 401.75 99.93"/><polygon class="cls-5" points="373.4 106.55 357.38 111.86 356.09 107.96 352.78 116.07 360.28 120.6 358.94 116.55 374.96 111.24 373.4 106.55"/><path class="cls-3" d="M407.57,36.58h0l0-4.86H347.19v4.66a30.19,30.19,0,1,0,60.38.2Z"/><circle class="cls-4" cx="377.31" cy="30.25" r="30.25"/><circle class="cls-4" cx="377.31" cy="30.25" r="13.11"/><polygon class="cls-5" points="376.3 27.1 380.83 19.6 376.78 20.94 371.48 4.92 366.78 6.47 372.09 22.49 368.19 23.79 376.3 27.1"/><polygon class="cls-5" points="387.76 53.84 382.45 37.82 386.36 36.53 378.25 33.22 373.72 40.72 377.76 39.38 383.07 55.4 387.76 53.84"/><polygon class="cls-5" points="401.75 22.18 394.25 17.65 395.59 21.69 379.57 27 381.12 31.69 397.14 26.39 398.43 30.29 401.75 22.18"/><polygon class="cls-5" points="373.4 28.8 357.38 34.11 356.09 30.2 352.78 38.32 360.28 42.84 358.94 38.8 374.96 33.49 373.4 28.8"/><text class="cls-6" transform="translate(96.9 70.75)">1</text><text class="cls-6" transform="translate(107.98 102.22)">2</text><text class="cls-7" transform="translate(105.98 132.72) scale(0.92 1)">3</text><path class="cls-8" d="M268.38,119.64c-1.24-.43-6.92-7.26-5.4-16.22,0,0,.74,2.23,1.83,2.71,0,0-2.44-9.46,9.94-20.27,12.66,10.51,10.38,20,10.38,20,1.08-.47,1.78-2.72,1.78-2.72,1.71,8.94-3.78,15.87-5,16.38Z"/><path class="cls-9" d="M271.18,118.71c-1.12-1.85-5.4-15.46,3.67-24.79,9.25,9.12,5.28,22.82,4.19,24.7Z"/></svg>