<?xml version="1.0" encoding="utf-8"?>
<svg version="1.1" id="Syntax of an HTTP URL" xmlns="http://www.w3.org/2000/svg" xmlns:xlink="http://www.w3.org/1999/xlink" x="0px" y="0px"
preserveAspectRatio="xMidYMid meet" viewBox="0 0 572.8020559787751 66.0763897895813" 
xml:space="preserve">
<defs><style type="text/css" >
.arrow, .syntaxarrow { fill: none; stroke: black; }
.arrowheadStartEnd, .arrowheadRepSep, .arrowheadRepSepReturn { stroke: black; fill: black; }
.arrowheadSeq, .arrowheadStartChoice, .arrowheadAfterChoice, .arrowheadStartRepGroup, .arrowheadEndRepGroup, .arrowheadRev { stroke: none; fill: none; }
rect { fill: none; stroke: none; }
rect.fragref,rect.syntaxfragref { fill: none; stroke: black; }
text {
fill: #000000;
fill-opacity: 1;
font-family: IBM Plex Sans,Arial Unicode MS,Arial,Helvetica;
font-style: normal;
font-weight: normal;
font-size: 8pt;
stroke: #000000;
stroke-width: 0.1;
}
text.var, text.syntaxvar {font-style:italic;}
</style></defs><g transform="translate(5,5)" class="diagram" base="..//"><g transform="translate(10,26.809027671813965)" class="boxed syntaxkwd"><g class="text" transform="translate(4,3)"><text class="syntaxkwd">http://</text></g><rect rx="3" x="0" width="35.29834775924682" height="18.04513931274414" y="-8.774305820465088" class="syntaxkwd"></rect></g>
<g transform="translate(60.29834775924682,26.809027671813965)" class="groupchoice"><g transform="translate(20.43003921508789,0)" class="boxed syntaxvar"><g class="text" transform="translate(4,3)"><text class="syntaxvar">host name</text></g><rect rx="3" x="0" width="59.76795921325684" height="16.02083396911621" y="-8.774305820465088" class="syntaxvar"></rect></g><g transform="translate(20,22.02083396911621)" class="boxed syntaxvar"><g class="text" transform="translate(4,3)"><text class="syntaxvar">IP address</text></g><rect rx="3" x="0" width="60.62803764343262" height="16.02083396911621" y="-8.774305820465088" class="syntaxvar"></rect></g><line y2="0" x1="0" x2="20.43003921508789" class="syntaxarrow" y1="0"></line><polygon class="arrowheadStartChoice" points="20.43003921508789,0 15.430039215087891,2.5 15.430039215087891,-2.5" transform="rotate(0,20.43003921508789,0)"></polygon><line y2="0" x1="80.19799842834473" x2="100.62803764343262" class="syntaxarrow" y1="0"></line><polygon class="arrowheadAfterChoice" points="95.62803764343262,0 90.62803764343262,2.5 90.62803764343262,-2.5" transform="rotate(0,95.62803764343262,0)"></polygon><path class="syntaxarrow" d="M0 0 Q5 0 5 5 L5 17.02083396911621 Q5 22.02083396911621 10 22.02083396911621 L20 22.02083396911621"></path><polygon class="arrowheadStartChoice" points="20,22.02083396911621 15,24.52083396911621 15,19.52083396911621" transform="rotate(0,20,22.02083396911621)"></polygon><path class="syntaxarrow" d="M80.62803764343262 22.02083396911621 L90.62803764343262 22.02083396911621 Q95.62803764343262 22.02083396911621 95.62803764343262 17.02083396911621 L95.62803764343262 5 Q95.62803764343262 0 100.62803764343262 0"></path><polygon class="arrowheadAfterChoice" points="95.62803764343262,5 90.62803764343262,7.5 90.62803764343262,2.5" transform="rotate(-90,95.62803764343262,5)"></polygon></g>
<g transform="translate(175.92638540267944,26.809027671813965)" class="groupchoice"><g></g><g transform="translate(35.28721393346787,-18.246527671813965)" class="boxed syntaxkwd"><g class="text" transform="translate(4,3)"><text class="syntaxkwd">:80</text></g><rect rx="3" x="0" width="21.786555194854735" height="15.809027671813965" y="-8.5625" class="syntaxkwd"></rect></g><g transform="translate(20,19.125)" class="groupseq"><g transform="translate(0,0)" class="boxed syntaxsep"><g class="text" transform="translate(4,3)"><text class="syntaxsep">:</text></g><rect rx="3" x="0" width="9.163020777702332" height="13.590278148651123" y="-6.590278148651123" class="syntaxsep"></rect></g><g transform="translate(24.163020777702332,0)" class="boxed syntaxvar"><g class="text" transform="translate(4,3)"><text class="syntaxvar">port</text></g><rect rx="3" x="0" width="28.197962284088135" height="17.39583396911621" y="-8.125" class="syntaxvar"></rect></g><line y2="0" x1="9.163020777702332" x2="24.163020777702332" class="syntaxarrow" y1="0"></line><polygon class="arrowheadSeq" points="24.163020777702332,0 19.163020777702332,2.5 19.163020777702332,-2.5" transform="rotate(0,24.163020777702332,0)"></polygon></g><line y2="0" x1="0" x2="46.18049153089523" class="syntaxarrow" y1="0"></line><line y2="0" x1="46.18049153089523" x2="92.36098306179048" class="syntaxarrow" y1="0"></line><polygon class="arrowheadAfterChoice" points="87.36098306179048,0 82.36098306179048,2.5 82.36098306179048,-2.5" transform="rotate(0,87.36098306179048,0)"></polygon><path class="syntaxarrow" d="M0 0 Q5 0 5 -5 L5 -13.246527671813965 Q5 -18.246527671813965 10 -18.246527671813965 L35.28721393346787 -18.246527671813965"></path><polygon class="arrowheadStartChoice" points="35.28721393346787,-18.246527671813965 30.287213933467868,-15.746527671813965 30.287213933467868,-20.746527671813965" transform="rotate(0,35.28721393346787,-18.246527671813965)"></polygon><path class="syntaxarrow" d="M57.073769128322596 -18.246527671813965 L82.36098306179046 -18.246527671813965 Q87.36098306179046 -18.246527671813965 87.36098306179046 -13.246527671813965 L87.36098306179046 -5 Q87.36098306179046 0 92.36098306179046 0"></path><polygon class="arrowheadAfterChoice" points="87.36098306179046,-5 82.36098306179046,-2.5 82.36098306179046,-7.5" transform="rotate(90,87.36098306179046,-5)"></polygon><path class="syntaxarrow" d="M0 0 Q5 0 5 5 L5 14.125 Q5 19.125 10 19.125 L20 19.125"></path><polygon class="arrowheadStartChoice" points="20,19.125 15,21.625 15,16.625" transform="rotate(0,20,19.125)"></polygon><path class="syntaxarrow" d="M72.36098306179046 19.125 L82.36098306179046 19.125 Q87.36098306179046 19.125 87.36098306179046 14.125 L87.36098306179046 5 Q87.36098306179046 0 92.36098306179046 0"></path><polygon class="arrowheadAfterChoice" points="87.36098306179046,5 82.36098306179046,7.5 82.36098306179046,2.5" transform="rotate(-90,87.36098306179046,5)"></polygon></g><g transform="translate(283.2873684644699,26.809027671813965)" class="boxed syntaxsep"><g class="text" transform="translate(4,3)"><text class="syntaxsep">/</text></g><rect rx="3" x="0" width="11.270312666893005" height="15.986111164093018" y="-8.774305820465088" class="syntaxsep"></rect></g><g transform="translate(309.5576811313629,26.809027671813965)" class="boxed syntaxvar"><g class="text" transform="translate(4,3)"><text class="syntaxvar">path component</text></g><rect rx="3" x="0" width="89.20143661499024" height="18.04513931274414" y="-8.774305820465088" class="syntaxvar"></rect></g><g transform="translate(413.7591177463532,26.809027671813965)" class="groupseq"><g></g><g transform="translate(20,19.902778148651123)" class="groupseq"><g transform="translate(0,0)" class="boxed syntaxsep"><g class="text" transform="translate(4,3)"><text class="syntaxsep">?</text></g><rect rx="3" x="0" width="12.838021278381348" height="15.902778148651123" y="-8.902778148651123" class="syntaxsep"></rect></g><g transform="translate(27.838021278381348,0)" class="boxed syntaxvar"><g class="text" transform="translate(4,3)"><text class="syntaxvar">query string</text></g><rect rx="3" x="0" width="66.20491695404053" height="18.10069465637207" y="-8.774305820465088" class="syntaxvar"></rect></g><line y2="0" x1="12.838021278381348" x2="27.838021278381348" class="syntaxarrow" y1="0"></line><polygon class="arrowheadSeq" points="27.838021278381348,0 22.838021278381348,2.5 22.838021278381348,-2.5" transform="rotate(0,27.838021278381348,0)"></polygon></g><line y2="0" x1="0" x2="67.02146911621094" class="syntaxarrow" y1="0"></line><line y2="0" x1="67.02146911621094" x2="134.04293823242188" class="syntaxarrow" y1="0"></line><polygon class="arrowheadAfterChoice" points="129.04293823242188,0 124.04293823242188,2.5 124.04293823242188,-2.5" transform="rotate(0,129.04293823242188,0)"></polygon><path class="syntaxarrow" d="M0 0 Q5 0 5 5 L5 14.902778148651123 Q5 19.902778148651123 10 19.902778148651123 L20 19.902778148651123"></path><polygon class="arrowheadStartChoice" points="20,19.902778148651123 15,22.402778148651123 15,17.402778148651123" transform="rotate(0,20,19.902778148651123)"></polygon><path class="syntaxarrow" d="M114.04293823242188 19.902778148651123 L124.04293823242188 19.902778148651123 Q129.04293823242188 19.902778148651123 129.04293823242188 14.902778148651123 L129.04293823242188 5 Q129.04293823242188 0 134.04293823242188 0"></path><polygon class="arrowheadAfterChoice" points="129.04293823242188,5 124.04293823242188,7.5 124.04293823242188,2.5" transform="rotate(-90,129.04293823242188,5)"></polygon></g><polygon class="arrowheadStartEnd" points="0,26.809027671813965 -5,29.309027671813965 -5,24.309027671813965" transform="rotate(0,0,26.809027671813965)"></polygon><polygon class="arrowheadStartEnd" points="5,26.809027671813965 0,29.309027671813965 0,24.309027671813965" transform="rotate(0,5,26.809027671813965)"></polygon><line y2="26.809027671813965" x1="0" x2="10" class="syntaxarrow" y1="26.809027671813965"></line><line y2="26.809027671813965" x1="45.29834775924682" x2="60.29834775924682" class="syntaxarrow" y1="26.809027671813965"></line><polygon class="arrowheadSeq" points="60.29834775924682,26.809027671813965 55.29834775924682,29.309027671813965 55.29834775924682,24.309027671813965" transform="rotate(0,60.29834775924682,26.809027671813965)"></polygon><line y2="26.809027671813965" x1="160.92638540267944" x2="175.92638540267944" class="syntaxarrow" y1="26.809027671813965"></line><polygon class="arrowheadSeq" points="175.92638540267944,26.809027671813965 170.92638540267944,29.309027671813965 170.92638540267944,24.309027671813965" transform="rotate(0,175.92638540267944,26.809027671813965)"></polygon><line y2="26.809027671813965" x1="268.2873684644699" x2="283.2873684644699" class="syntaxarrow" y1="26.809027671813965"></line><polygon class="arrowheadSeq" points="283.2873684644699,26.809027671813965 278.2873684644699,29.309027671813965 278.2873684644699,24.309027671813965" transform="rotate(0,283.2873684644699,26.809027671813965)"></polygon><line y2="26.809027671813965" x1="294.5576811313629" x2="309.5576811313629" class="syntaxarrow" y1="26.809027671813965"></line><polygon class="arrowheadSeq" points="309.5576811313629,26.809027671813965 304.5576811313629,29.309027671813965 304.5576811313629,24.309027671813965" transform="rotate(0,309.5576811313629,26.809027671813965)"></polygon><line y2="26.809027671813965" x1="398.7591177463532" x2="413.7591177463532" class="syntaxarrow" y1="26.809027671813965"></line><polygon class="arrowheadSeq" points="413.7591177463532,26.809027671813965 408.7591177463532,29.309027671813965 408.7591177463532,24.309027671813965" transform="rotate(0,413.7591177463532,26.809027671813965)"></polygon><line y2="26.809027671813965" x1="547.8020559787751" x2="557.8020559787751" class="syntaxarrow" y1="26.809027671813965"></line><polygon class="arrowheadStartEnd" points="557.8020559787751,26.809027671813965 552.8020559787751,29.309027671813965 552.8020559787751,24.309027671813965" transform="rotate(0,557.8020559787751,26.809027671813965)"></polygon><polygon class="arrowheadStartEnd" points="557.8020559787751,26.809027671813965 552.8020559787751,29.309027671813965 552.8020559787751,24.309027671813965" transform="rotate(180,557.8020559787751,26.809027671813965)"></polygon></g></svg>