<svg id="Layer_1" data-name="Layer 1" xmlns="http://www.w3.org/2000/svg" viewBox="0 0 407.57 222.24"><defs><style>.cls-1{fill:#aac0c8;}.cls-2{fill:#10a7e3;}.cls-3{fill:#93dbf7;}.cls-4{fill:#fff;stroke:#10a7e3;stroke-miterlimit:10;stroke-width:0.5px;}.cls-5{font-size:13px;}.cls-5,.cls-6{font-family:Monaco, Monaco;}.cls-6{font-size:14.55px;}</style></defs><title>router -&amp;gt; router copy</title><rect class="cls-1" x="89.2" y="104.75" width="263.58" height="4.72"/><rect class="cls-1" x="78.89" y="161.97" width="288.33" height="6.63" transform="translate(43.31 -46.29) rotate(13.11)"/><rect class="cls-1" x="70.1" y="54.96" width="285.95" height="6.05" transform="translate(-6.78 37.28) rotate(-9.84)"/><path class="cls-2" d="M102.16,109.67h0l0-6.89H16.5v6.61a42.83,42.83,0,1,0,85.66.28Z"/><circle class="cls-3" cx="59.23" cy="100.69" r="42.92"/><circle class="cls-3" cx="59.23" cy="100.69" r="18.59"/><polygon class="cls-4" points="57.8 96.22 64.22 85.58 58.48 87.48 50.95 64.75 44.3 66.96 51.82 89.69 46.29 91.52 57.8 96.22"/><polygon class="cls-4" points="74.06 134.16 66.53 111.43 72.06 109.6 60.55 104.9 54.13 115.54 59.87 113.64 67.4 136.37 74.06 134.16"/><polygon class="cls-4" points="93.9 89.23 83.26 82.81 85.16 88.55 62.43 96.08 64.63 102.73 87.36 95.21 89.2 100.74 93.9 89.23"/><polygon class="cls-4" points="53.69 98.63 30.96 106.16 29.12 100.63 24.42 112.13 35.06 118.56 33.16 112.82 55.89 105.29 53.69 98.63"/><path class="cls-2" d="M407.57,192.08h0l0-4.85H347.19v4.66a30.19,30.19,0,1,0,60.38.19Z"/><circle class="cls-3" cx="377.31" cy="185.76" r="30.25"/><circle class="cls-3" cx="377.31" cy="185.76" r="13.11"/><polygon class="cls-4" points="376.3 182.6 380.83 175.1 376.78 176.44 371.48 160.43 366.78 161.98 372.09 178 368.19 179.29 376.3 182.6"/><polygon class="cls-4" points="387.76 209.35 382.45 193.33 386.36 192.03 378.25 188.72 373.72 196.22 377.76 194.88 383.07 210.9 387.76 209.35"/><polygon class="cls-4" points="401.75 177.68 394.25 173.15 395.59 177.2 379.57 182.51 381.12 187.2 397.14 181.89 398.43 185.79 401.75 177.68"/><polygon class="cls-4" points="373.4 184.31 357.38 189.61 356.09 185.71 352.78 193.82 360.28 198.35 358.94 194.3 374.96 189 373.4 184.31"/><path class="cls-2" d="M407.57,114.33h0l0-4.86H347.19v4.66a30.19,30.19,0,1,0,60.38.2Z"/><circle class="cls-3" cx="377.31" cy="108.01" r="30.25"/><circle class="cls-3" cx="377.31" cy="108.01" r="13.11"/><polygon class="cls-4" points="376.3 104.85 380.83 97.35 376.78 98.69 371.48 82.67 366.78 84.23 372.09 100.25 368.19 101.54 376.3 104.85"/><polygon class="cls-4" points="387.76 131.59 382.45 115.58 386.36 114.28 378.25 110.97 373.72 118.47 377.76 117.13 383.07 133.15 387.76 131.59"/><polygon class="cls-4" points="401.75 99.93 394.25 95.4 395.59 99.45 379.57 104.75 381.12 109.44 397.14 104.14 398.43 108.04 401.75 99.93"/><polygon class="cls-4" points="373.4 106.55 357.38 111.86 356.09 107.96 352.78 116.07 360.28 120.6 358.94 116.55 374.96 111.24 373.4 106.55"/><path class="cls-2" d="M407.57,36.58h0l0-4.86H347.19v4.66a30.19,30.19,0,1,0,60.38.2Z"/><circle class="cls-3" cx="377.31" cy="30.25" r="30.25"/><circle class="cls-3" cx="377.31" cy="30.25" r="13.11"/><polygon class="cls-4" points="376.3 27.1 380.83 19.6 376.78 20.94 371.48 4.92 366.78 6.47 372.09 22.49 368.19 23.79 376.3 27.1"/><polygon class="cls-4" points="387.76 53.84 382.45 37.82 386.36 36.53 378.25 33.22 373.72 40.72 377.76 39.38 383.07 55.4 387.76 53.84"/><polygon class="cls-4" points="401.75 22.18 394.25 17.65 395.59 21.69 379.57 27 381.12 31.69 397.14 26.39 398.43 30.29 401.75 22.18"/><polygon class="cls-4" points="373.4 28.8 357.38 34.11 356.09 30.2 352.78 38.32 360.28 42.84 358.94 38.8 374.96 33.49 373.4 28.8"/><text class="cls-5" transform="translate(96.9 70.75)">1</text><text class="cls-5" transform="translate(107.98 102.22)">2</text><text class="cls-6" transform="translate(105.98 132.72) scale(0.92 1)">3</text><path d="M233.61,28a10,10,0,0,1,.85-.65,6.33,6.33,0,0,1,1-.53,5.41,5.41,0,0,1,1.16-.36,6.54,6.54,0,0,1,1.36-.13,5.73,5.73,0,0,1,1.81.27,4,4,0,0,1,1.4.78,3.44,3.44,0,0,1,.9,1.23,3.8,3.8,0,0,1,.32,1.61,4,4,0,0,1-.25,1.5,4.34,4.34,0,0,1-.63,1.1,4.83,4.83,0,0,1-.82.81l-.86.65a7,7,0,0,0-.69.59,1.11,1.11,0,0,0-.34.66l-.27,1.66h-1.93l-.19-1.86a1.61,1.61,0,0,1,.15-.94,2.79,2.79,0,0,1,.6-.74A7,7,0,0,1,238,33a7.11,7.11,0,0,0,.85-.69,3.35,3.35,0,0,0,.67-.83,2.16,2.16,0,0,0,.27-1.1,1.61,1.61,0,0,0-.16-.74,1.65,1.65,0,0,0-.42-.56,2.33,2.33,0,0,0-.66-.36,2.78,2.78,0,0,0-.83-.12,3.55,3.55,0,0,0-1.1.14,4,4,0,0,0-.76.32c-.21.12-.39.22-.53.32a.81.81,0,0,1-.39.14.63.63,0,0,1-.6-.34Zm2.16,13.46a1.67,1.67,0,0,1,.13-.67,1.64,1.64,0,0,1,.36-.55,1.66,1.66,0,0,1,.55-.37,1.72,1.72,0,0,1,.68-.13,1.68,1.68,0,0,1,.68.13,1.9,1.9,0,0,1,.55.37,1.53,1.53,0,0,1,.37.55,1.67,1.67,0,0,1,.14.67,1.72,1.72,0,0,1-.14.68,1.58,1.58,0,0,1-.37.54,1.87,1.87,0,0,1-.55.36,1.68,1.68,0,0,1-.68.13,1.72,1.72,0,0,1-.68-.13,1.64,1.64,0,0,1-.55-.36,1.69,1.69,0,0,1-.49-1.22Z"/><path d="M233.61,83.54a7,7,0,0,1,.85-.65,6.37,6.37,0,0,1,1-.54,6.83,6.83,0,0,1,1.16-.36,7.3,7.3,0,0,1,1.36-.13,5.46,5.46,0,0,1,1.81.28,4,4,0,0,1,1.4.78,3.44,3.44,0,0,1,.9,1.23,3.75,3.75,0,0,1,.32,1.6,4.08,4.08,0,0,1-.25,1.51,4.52,4.52,0,0,1-.63,1.1,4.83,4.83,0,0,1-.82.81l-.86.64a7.08,7.08,0,0,0-.69.6,1.12,1.12,0,0,0-.34.65l-.27,1.67h-1.93l-.19-1.86a1.61,1.61,0,0,1,.15-.94,3,3,0,0,1,.6-.75,8.26,8.26,0,0,1,.83-.65,7,7,0,0,0,.85-.68,3.76,3.76,0,0,0,.67-.83,2.17,2.17,0,0,0,.27-1.11,1.57,1.57,0,0,0-.16-.73,1.65,1.65,0,0,0-.42-.56,1.92,1.92,0,0,0-.66-.36,2.77,2.77,0,0,0-.83-.13,3.52,3.52,0,0,0-1.1.15,3.41,3.41,0,0,0-.76.32,4.6,4.6,0,0,0-.53.32.81.81,0,0,1-.39.14.65.65,0,0,1-.6-.34ZM235.77,97a1.75,1.75,0,0,1,.13-.68,1.7,1.7,0,0,1,.36-.54,1.53,1.53,0,0,1,.55-.37,1.72,1.72,0,0,1,.68-.14,1.69,1.69,0,0,1,.68.14,1.72,1.72,0,0,1,.55.37,1.58,1.58,0,0,1,.37.54,1.76,1.76,0,0,1,.14.68,1.72,1.72,0,0,1-.14.68,1.58,1.58,0,0,1-.37.54,1.74,1.74,0,0,1-1.23.49,1.91,1.91,0,0,1-.68-.13,1.64,1.64,0,0,1-.55-.36,1.69,1.69,0,0,1-.49-1.22Z"/><path d="M233.61,145.42a7,7,0,0,1,.85-.65,5.64,5.64,0,0,1,1-.54,6.83,6.83,0,0,1,1.16-.36,6.54,6.54,0,0,1,1.36-.13,5.73,5.73,0,0,1,1.81.27,4.13,4.13,0,0,1,1.4.78,3.44,3.44,0,0,1,.9,1.23,3.83,3.83,0,0,1,.32,1.61,4,4,0,0,1-.25,1.5,4.34,4.34,0,0,1-.63,1.1,4.83,4.83,0,0,1-.82.81l-.86.65a8.74,8.74,0,0,0-.69.59,1.11,1.11,0,0,0-.34.66l-.27,1.66h-1.93l-.19-1.86a1.62,1.62,0,0,1,.15-.94,2.79,2.79,0,0,1,.6-.74,8.26,8.26,0,0,1,.83-.65,7.11,7.11,0,0,0,.85-.69,3.35,3.35,0,0,0,.67-.83,2.14,2.14,0,0,0,.27-1.1,1.64,1.64,0,0,0-.16-.74,1.76,1.76,0,0,0-.42-.56,2.33,2.33,0,0,0-.66-.36,2.78,2.78,0,0,0-.83-.12,3.87,3.87,0,0,0-1.1.14,4,4,0,0,0-.76.32l-.53.32a.71.71,0,0,1-.39.14.63.63,0,0,1-.6-.34Zm2.16,13.45a1.7,1.7,0,0,1,.13-.67,1.75,1.75,0,0,1,.36-.55,1.64,1.64,0,0,1,.55-.36,1.56,1.56,0,0,1,.68-.14,1.53,1.53,0,0,1,.68.14,1.87,1.87,0,0,1,.55.36,1.62,1.62,0,0,1,.37.55,1.71,1.71,0,0,1,.14.67,1.69,1.69,0,0,1-.14.68,1.58,1.58,0,0,1-.37.54,1.54,1.54,0,0,1-.55.36,1.68,1.68,0,0,1-.68.13,1.72,1.72,0,0,1-.68-.13,1.39,1.39,0,0,1-.55-.36,1.7,1.7,0,0,1-.36-.54A1.68,1.68,0,0,1,235.77,158.87Z"/></svg>