<svg id="Layer_1" data-name="Layer 1" xmlns="http://www.w3.org/2000/svg" viewBox="0 0 432.07 144.07"><defs><style>.cls-1{fill:#e0e0e0;}.cls-2{fill:#0a2a66;}.cls-3{fill:#fff;}.cls-4{fill:#37c5fd;}.cls-5{fill:#10a7e3;}.cls-6{fill:#65d0fa;}.cls-7{fill:#e6ecef;}.cls-8{fill:#789ba8;}.cls-9{font-size:4px;}.cls-10,.cls-9{font-family:Monaco, Monaco;}.cls-10{font-size:13px;}</style></defs><title>computer IP think</title><ellipse class="cls-1" cx="328.29" cy="40.81" rx="103.79" ry="34.87"/><rect class="cls-2" width="138.02" height="134.6" rx="2.68" ry="2.68"/><rect class="cls-3" x="5.93" y="5.78" width="126.16" height="75.71"/><path class="cls-4" d="M0,81.5H138a0,0,0,0,1,0,0v58.73a3.84,3.84,0,0,1-3.84,3.84H3.84A3.84,3.84,0,0,1,0,140.23V81.5A0,0,0,0,1,0,81.5Z"/><rect class="cls-5" x="5.93" y="88.33" width="9.17" height="8.94" rx="1.06" ry="1.06"/><rect class="cls-5" x="17.63" y="88.33" width="9.17" height="8.94" rx="1.06" ry="1.06"/><rect class="cls-5" x="29.33" y="88.33" width="9.17" height="8.94" rx="1.06" ry="1.06"/><rect class="cls-5" x="41.03" y="88.33" width="9.17" height="8.94" rx="1.06" ry="1.06"/><rect class="cls-5" x="52.73" y="88.33" width="9.17" height="8.94" rx="1.06" ry="1.06"/><rect class="cls-5" x="64.43" y="88.33" width="9.17" height="8.94" rx="1.06" ry="1.06"/><rect class="cls-5" x="76.13" y="88.33" width="9.17" height="8.94" rx="1.06" ry="1.06"/><rect class="cls-5" x="87.83" y="88.33" width="9.17" height="8.94" rx="1.06" ry="1.06"/><rect class="cls-5" x="99.53" y="88.33" width="9.17" height="8.94" rx="1.06" ry="1.06"/><rect class="cls-5" x="111.23" y="88.33" width="9.17" height="8.94" rx="1.06" ry="1.06"/><rect class="cls-5" x="122.92" y="88.33" width="9.17" height="8.94" rx="1.06" ry="1.06"/><rect class="cls-5" x="17.63" y="100.43" width="9.17" height="8.94" rx="1.06" ry="1.06"/><rect class="cls-5" x="29.33" y="100.43" width="9.17" height="8.94" rx="1.06" ry="1.06"/><rect class="cls-5" x="41.03" y="100.43" width="9.17" height="8.94" rx="1.06" ry="1.06"/><rect class="cls-5" x="52.73" y="100.43" width="9.17" height="8.94" rx="1.06" ry="1.06"/><rect class="cls-5" x="64.43" y="100.43" width="9.17" height="8.94" rx="1.06" ry="1.06"/><rect class="cls-5" x="76.13" y="100.43" width="9.17" height="8.94" rx="1.06" ry="1.06"/><rect class="cls-5" x="87.83" y="100.43" width="9.17" height="8.94" rx="1.06" ry="1.06"/><rect class="cls-5" x="99.53" y="100.43" width="9.17" height="8.94" rx="1.06" ry="1.06"/><rect class="cls-5" x="111.23" y="100.43" width="9.17" height="8.94" rx="1.06" ry="1.06"/><rect class="cls-5" x="5.93" y="112.52" width="9.17" height="8.94" rx="1.06" ry="1.06"/><rect class="cls-5" x="17.63" y="112.52" width="9.17" height="8.94" rx="1.06" ry="1.06"/><rect class="cls-5" x="29.33" y="112.52" width="9.17" height="8.94" rx="1.06" ry="1.06"/><rect class="cls-5" x="41.03" y="112.52" width="9.17" height="8.94" rx="1.06" ry="1.06"/><rect class="cls-5" x="52.73" y="112.52" width="9.17" height="8.94" rx="1.06" ry="1.06"/><rect class="cls-5" x="64.43" y="112.52" width="9.17" height="8.94" rx="1.06" ry="1.06"/><rect class="cls-5" x="76.13" y="112.52" width="9.17" height="8.94" rx="1.06" ry="1.06"/><rect class="cls-5" x="87.83" y="112.52" width="9.17" height="8.94" rx="1.06" ry="1.06"/><rect class="cls-5" x="99.53" y="112.52" width="9.17" height="8.94" rx="1.06" ry="1.06"/><rect class="cls-5" x="111.23" y="112.52" width="9.17" height="8.94" rx="1.06" ry="1.06"/><rect class="cls-5" x="122.92" y="112.52" width="9.17" height="8.94" rx="1.06" ry="1.06"/><rect class="cls-5" x="43.13" y="112.52" width="51.76" height="8.94" rx="1.06" ry="1.06"/><rect class="cls-6" x="50.68" y="125.14" width="34.51" height="14.2" rx="2.19" ry="2.19"/><rect class="cls-7" x="10" y="16" width="118.57" height="60.52" rx="2.17" ry="2.17"/><path class="cls-8" d="M10,20.05V15.17c0-2.38,2.49-4.31,5.56-4.31H122.93c3.07,0,5.56,1.93,5.56,4.31v4.88"/><ellipse class="cls-3" cx="15.77" cy="15.92" rx="1.81" ry="1.82"/><ellipse class="cls-3" cx="20.89" cy="15.92" rx="1.81" ry="1.82"/><ellipse class="cls-3" cx="26.02" cy="15.92" rx="1.81" ry="1.82"/><rect class="cls-3" x="30.55" y="12.7" width="89.55" height="5.33"/><text class="cls-9" transform="translate(32.47 16.77)">www.wikipedia.org</text><rect class="cls-3" x="12.36" y="21.98" width="113.61" height="51.71" rx="2.14" ry="2.14"/><text class="cls-10" transform="translate(246.55 43.9)">www.wikipedia.org = ?</text><circle class="cls-1" cx="159.26" cy="88.89" r="7.12"/><circle class="cls-1" cx="184.22" cy="76.26" r="9"/><circle class="cls-1" cx="212.07" cy="64" r="10.1"/></svg>