<svg id="Layer_1" data-name="Layer 1" xmlns="http://www.w3.org/2000/svg" viewBox="0 0 407.57 222.24"><defs><style>.cls-1{fill:#14bf96;}.cls-2{fill:#e6451d;}.cls-3{fill:#10a7e3;}.cls-4{fill:#93dbf7;}.cls-5{fill:#fff;stroke:#10a7e3;stroke-width:0.5px;}.cls-5,.cls-8{stroke-miterlimit:10;}.cls-6{fill:#f2c200;}.cls-7{fill:#fff3c2;}.cls-8{fill:none;stroke:#14bf96;stroke-width:2px;}.cls-9{fill:#aac0c8;}</style></defs><title>5 routers 1 down</title><rect class="cls-1" x="259.51" y="143.09" width="85.56" height="5.77" transform="translate(579.85 -42.83) rotate(120)"/><rect class="cls-1" x="188.17" y="129.37" width="60.44" height="5.77" transform="translate(111.14 -99.44) rotate(33.96)"/><rect class="cls-2" x="203.98" y="92.53" width="67.37" height="5.77" transform="translate(-14.54 50.92) rotate(-11.87)"/><rect class="cls-1" x="54.07" y="104.6" width="91.74" height="5.77"/><path class="cls-3" d="M308.82,178.82h0l0-4.86H248.44v4.66a30.19,30.19,0,1,0,60.38.2Z"/><circle class="cls-4" cx="278.56" cy="172.49" r="30.25"/><circle class="cls-4" cx="278.56" cy="172.49" r="13.11"/><polygon class="cls-5" points="277.55 169.34 282.08 161.84 278.03 163.18 272.72 147.16 268.03 148.71 273.34 164.74 269.44 166.03 277.55 169.34"/><polygon class="cls-5" points="289.01 196.08 283.7 180.06 287.61 178.77 279.49 175.46 274.97 182.96 279.01 181.62 284.32 197.64 289.01 196.08"/><polygon class="cls-5" points="303 164.42 295.5 159.89 296.83 163.94 280.81 169.24 282.37 173.93 298.39 168.63 299.68 172.53 303 164.42"/><polygon class="cls-5" points="274.65 171.04 258.63 176.35 257.34 172.45 254.03 180.56 261.53 185.09 260.19 181.04 276.2 175.73 274.65 171.04"/><path class="cls-3" d="M216.12,108h0l0-4.85H155.74v4.66a30.19,30.19,0,1,0,60.38.19Z"/><circle class="cls-4" cx="185.86" cy="101.64" r="30.25"/><circle class="cls-4" cx="185.86" cy="101.64" r="13.11"/><polygon class="cls-5" points="184.85 98.48 189.38 90.98 185.33 92.32 180.02 76.3 175.33 77.86 180.64 93.88 176.74 95.17 184.85 98.48"/><polygon class="cls-5" points="196.31 125.23 191 109.21 194.91 107.92 186.79 104.6 182.27 112.1 186.31 110.76 191.62 126.78 196.31 125.23"/><polygon class="cls-5" points="210.3 93.56 202.79 89.03 204.14 93.08 188.12 98.39 189.67 103.08 205.69 97.77 206.98 101.67 210.3 93.56"/><polygon class="cls-5" points="181.95 100.19 165.93 105.49 164.64 101.59 161.32 109.7 168.83 114.23 167.49 110.18 183.51 104.88 181.95 100.19"/><path class="cls-3" d="M74.18,108h0l0-4.85H13.81v4.66a30.19,30.19,0,1,0,60.37.19Z"/><circle class="cls-4" cx="43.93" cy="101.64" r="30.25"/><circle class="cls-4" cx="43.93" cy="101.64" r="13.11"/><polygon class="cls-5" points="42.92 98.48 47.45 90.98 43.4 92.32 38.09 76.3 33.4 77.86 38.71 93.88 34.81 95.17 42.92 98.48"/><polygon class="cls-5" points="54.38 125.23 49.07 109.21 52.97 107.92 44.86 104.6 40.33 112.1 44.38 110.76 49.69 126.78 54.38 125.23"/><polygon class="cls-5" points="68.36 93.56 60.86 89.03 62.2 93.08 46.18 98.39 47.74 103.08 63.76 97.77 65.05 101.67 68.36 93.56"/><polygon class="cls-5" points="40.02 100.19 24 105.49 22.71 101.59 19.39 109.7 26.89 114.23 25.55 110.18 41.57 104.88 40.02 100.19"/><path class="cls-3" d="M375.12,74h0l0-4.85H314.74v4.66a30.19,30.19,0,1,0,60.38.19Z"/><circle class="cls-4" cx="344.87" cy="67.64" r="30.25"/><circle class="cls-4" cx="344.87" cy="67.64" r="13.11"/><polygon class="cls-5" points="343.85 64.49 348.38 56.98 344.33 58.33 339.03 42.3 334.34 43.86 339.64 59.88 335.74 61.17 343.85 64.49"/><polygon class="cls-5" points="355.31 91.23 350.01 75.21 353.91 73.92 345.8 70.6 341.27 78.1 345.32 76.76 350.62 92.78 355.31 91.23"/><polygon class="cls-5" points="369.3 59.56 361.8 55.03 363.14 59.08 347.12 64.39 348.67 69.08 364.69 63.77 365.99 67.67 369.3 59.56"/><polygon class="cls-5" points="340.95 66.19 324.94 71.49 323.64 67.59 320.33 75.7 327.83 80.23 326.49 76.18 342.51 70.88 340.95 66.19"/><path d="M28.82,59.79a5.44,5.44,0,0,1-.34,1.91,4.35,4.35,0,0,1-1,1.52,4.27,4.27,0,0,1-1.5,1,5.43,5.43,0,0,1-3.89,0,4.4,4.4,0,0,1-1.51-1,4.35,4.35,0,0,1-1-1.52,5.56,5.56,0,0,1,0-3.83,4.41,4.41,0,0,1,2.48-2.53A5,5,0,0,1,24.06,55a5.31,5.31,0,0,1,1.35.17,4.34,4.34,0,0,1,1.15.47,4.24,4.24,0,0,1,1.66,1.7,4.83,4.83,0,0,1,.45,1.15A5.68,5.68,0,0,1,28.82,59.79Zm-1.79,0a4.27,4.27,0,0,0-.21-1.39,2.86,2.86,0,0,0-.59-1,2.47,2.47,0,0,0-.93-.66,3.46,3.46,0,0,0-2.48,0,2.47,2.47,0,0,0-.93.66,2.87,2.87,0,0,0-.6,1,4.67,4.67,0,0,0,0,2.77,2.87,2.87,0,0,0,.6,1,2.47,2.47,0,0,0,.93.66,3.6,3.6,0,0,0,2.48,0,2.47,2.47,0,0,0,.93-.66,2.86,2.86,0,0,0,.59-1A4.25,4.25,0,0,0,27,59.79Z"/><path d="M29.79,58.75a3.93,3.93,0,0,1,2.77-1.06,2.89,2.89,0,0,1,1,.19,2.18,2.18,0,0,1,.78.54,2.35,2.35,0,0,1,.48.81,3.19,3.19,0,0,1,.17,1v4.22h-.73a.8.8,0,0,1-.35-.07.52.52,0,0,1-.2-.28l-.14-.48c-.17.15-.33.28-.49.4a3.6,3.6,0,0,1-.5.29,2.62,2.62,0,0,1-.56.18,3.27,3.27,0,0,1-.65.06,2.77,2.77,0,0,1-.78-.11,1.64,1.64,0,0,1-.62-.35,1.51,1.51,0,0,1-.4-.56,2,2,0,0,1-.15-.79,1.47,1.47,0,0,1,.09-.5,1.31,1.31,0,0,1,.28-.48,2.35,2.35,0,0,1,.49-.43,3.74,3.74,0,0,1,.75-.35,6.4,6.4,0,0,1,1-.24,10.1,10.1,0,0,1,1.35-.12v-.39a1.48,1.48,0,0,0-.28-1,1.08,1.08,0,0,0-.83-.32,2,2,0,0,0-.65.09,2.35,2.35,0,0,0-.45.21l-.35.2a.74.74,0,0,1-.36.09.45.45,0,0,1-.28-.09.61.61,0,0,1-.19-.2Zm3.68,2.89a8.47,8.47,0,0,0-1.17.12,3.33,3.33,0,0,0-.76.22,1,1,0,0,0-.41.32.7.7,0,0,0-.12.4.68.68,0,0,0,.25.6,1.09,1.09,0,0,0,.65.18,2.06,2.06,0,0,0,.86-.17,2.45,2.45,0,0,0,.7-.55Z"/><path d="M38.15,54.83v5.53h.3a.83.83,0,0,0,.26,0,.62.62,0,0,0,.19-.18l1.66-2a.65.65,0,0,1,.23-.21.62.62,0,0,1,.33-.07h1.46l-2.07,2.47a1.68,1.68,0,0,1-.48.45,1.31,1.31,0,0,1,.24.23,2.92,2.92,0,0,1,.21.28l2.22,3.24H41.25a.79.79,0,0,1-.32-.07.49.49,0,0,1-.23-.22L39,61.67a.49.49,0,0,0-.19-.19.72.72,0,0,0-.29,0h-.37v3.06h-1.6V54.83Z"/><path d="M45.12,54.83v9.66H43.51V54.83Z"/><path d="M46.57,58.75a3.93,3.93,0,0,1,2.77-1.06,2.79,2.79,0,0,1,1,.19,2.18,2.18,0,0,1,.78.54,2.23,2.23,0,0,1,.49.81,3.19,3.19,0,0,1,.17,1v4.22h-.73a.8.8,0,0,1-.35-.07.48.48,0,0,1-.2-.28l-.14-.48c-.17.15-.34.28-.5.4a3.1,3.1,0,0,1-.5.29,2.53,2.53,0,0,1-.55.18,3.37,3.37,0,0,1-.66.06,2.77,2.77,0,0,1-.78-.11,1.68,1.68,0,0,1-.61-.35,1.54,1.54,0,0,1-.41-.56,2.14,2.14,0,0,1-.14-.79,1.47,1.47,0,0,1,.09-.5,1.29,1.29,0,0,1,.27-.48,2.43,2.43,0,0,1,.5-.43,3.28,3.28,0,0,1,.75-.35,6.17,6.17,0,0,1,1-.24,10.1,10.1,0,0,1,1.35-.12v-.39a1.48,1.48,0,0,0-.29-1,1,1,0,0,0-.82-.32,2,2,0,0,0-.65.09,2.35,2.35,0,0,0-.45.21l-.36.2a.68.68,0,0,1-.35.09.48.48,0,0,1-.29-.09.58.58,0,0,1-.18-.2Zm3.68,2.89a8.15,8.15,0,0,0-1.17.12,3.19,3.19,0,0,0-.76.22,1,1,0,0,0-.41.32.77.77,0,0,0,.12,1,1.12,1.12,0,0,0,.66.18,2,2,0,0,0,.85-.17,2.48,2.48,0,0,0,.71-.55Z"/><path d="M54.82,58.64a5.08,5.08,0,0,1,.43-.38,3.31,3.31,0,0,1,.47-.29,3.13,3.13,0,0,1,.54-.19,2.48,2.48,0,0,1,.63-.07,2.25,2.25,0,0,1,1,.19,1.77,1.77,0,0,1,.71.52,2.28,2.28,0,0,1,.43.8,3.31,3.31,0,0,1,.14,1v4.25h-1.6V60.24a1.39,1.39,0,0,0-.28-.94A1,1,0,0,0,56.4,59a1.61,1.61,0,0,0-.78.19,2.74,2.74,0,0,0-.69.51v4.83H53.32V57.82h1a.38.38,0,0,1,.41.29Z"/><path d="M66.45,54.83v9.66h-1a.38.38,0,0,1-.4-.3l-.13-.64a3.34,3.34,0,0,1-.93.75,2.53,2.53,0,0,1-1.22.28,2.22,2.22,0,0,1-1-.22A2.35,2.35,0,0,1,61,63.7a3.22,3.22,0,0,1-.51-1.07,5.4,5.4,0,0,1-.18-1.46,4.75,4.75,0,0,1,.2-1.38,3.49,3.49,0,0,1,.58-1.1A2.64,2.64,0,0,1,62,58a2.6,2.6,0,0,1,1.19-.27,2.27,2.27,0,0,1,.95.18,2.44,2.44,0,0,1,.71.47V54.83Zm-1.61,4.69a1.59,1.59,0,0,0-.59-.47,1.82,1.82,0,0,0-.7-.13,1.51,1.51,0,0,0-.65.13,1.31,1.31,0,0,0-.5.41,1.94,1.94,0,0,0-.32.71,3.68,3.68,0,0,0-.11,1,4.64,4.64,0,0,0,.09,1,1.82,1.82,0,0,0,.27.66,1,1,0,0,0,.43.38,1.48,1.48,0,0,0,.57.11,1.65,1.65,0,0,0,.85-.21,2.55,2.55,0,0,0,.66-.59Z"/><path d="M324.31,21.4v9.4h-.9a.73.73,0,0,1-.35-.07.79.79,0,0,1-.27-.23l-4.91-6.27a7.64,7.64,0,0,1,0,.8V30.8h-1.54V21.4h1.11l.14,0a.36.36,0,0,1,.12.08,1,1,0,0,1,.13.15L322.81,28l0-.45c0-.14,0-.28,0-.41V21.4Z"/><path d="M327.18,27.67a3.5,3.5,0,0,0,.18.88,1.81,1.81,0,0,0,.38.62,1.57,1.57,0,0,0,.55.37,2.09,2.09,0,0,0,.72.12,1.93,1.93,0,0,0,.67-.1,2.5,2.5,0,0,0,.49-.2l.37-.2a.64.64,0,0,1,.31-.09.32.32,0,0,1,.3.15l.46.58a2.47,2.47,0,0,1-.59.53,4.1,4.1,0,0,1-.7.34,3.68,3.68,0,0,1-.73.17,4.59,4.59,0,0,1-.73.06,3.65,3.65,0,0,1-1.29-.23,3,3,0,0,1-1-.69,3.29,3.29,0,0,1-.7-1.11,4.58,4.58,0,0,1-.25-1.55A3.63,3.63,0,0,1,325.8,26a3.12,3.12,0,0,1,.64-1.05,2.87,2.87,0,0,1,1-.7,3.25,3.25,0,0,1,1.35-.26,3.14,3.14,0,0,1,1.16.2,2.55,2.55,0,0,1,.92.59,2.76,2.76,0,0,1,.6.95,3.62,3.62,0,0,1,.21,1.28,1.09,1.09,0,0,1-.07.49.36.36,0,0,1-.3.13Zm3.06-1a1.87,1.87,0,0,0-.09-.59,1.18,1.18,0,0,0-.26-.48,1.31,1.31,0,0,0-.44-.33,1.54,1.54,0,0,0-.63-.12,1.51,1.51,0,0,0-1.1.39,2,2,0,0,0-.51,1.13Z"/><path d="M342.32,24.13,340.2,30.8h-1.29c-.15,0-.25-.1-.3-.29l-1.2-3.85c0-.13-.07-.26-.11-.39s-.06-.25-.08-.38a2.74,2.74,0,0,1-.09.39c0,.13-.06.26-.1.39l-1.22,3.84a.33.33,0,0,1-.34.29h-1.24l-2.11-6.67h1.28a.56.56,0,0,1,.3.08.38.38,0,0,1,.16.22l1,3.56c0,.2.09.39.12.57s.07.38.1.56l.15-.56c.05-.18.11-.37.17-.57l1.11-3.57a.37.37,0,0,1,.15-.22.51.51,0,0,1,.28-.08h.71a.55.55,0,0,1,.29.08.37.37,0,0,1,.15.22L339.13,28c.05.2.11.39.16.58s.09.37.14.56q.09-.55.24-1.14l1-3.56a.46.46,0,0,1,.17-.22.49.49,0,0,1,.28-.08Z"/><path d="M349.88,27.16V30.8h-1.74V27.16l-3.42-5.76h1.54a.57.57,0,0,1,.36.11.88.88,0,0,1,.22.28l1.72,3.14c.1.19.19.36.26.53A5.16,5.16,0,0,1,349,26a4.94,4.94,0,0,1,.19-.49c.07-.17.16-.34.26-.53l1.7-3.14a.9.9,0,0,1,.22-.27.54.54,0,0,1,.36-.12h1.55Z"/><path d="M355.5,24a3.68,3.68,0,0,1,1.35.24A2.9,2.9,0,0,1,358.56,26a4.53,4.53,0,0,1,0,2.85,3.08,3.08,0,0,1-.67,1.09,3,3,0,0,1-1,.69,3.95,3.95,0,0,1-2.71,0,3,3,0,0,1-1-.69,3.08,3.08,0,0,1-.67-1.09,4.35,4.35,0,0,1,0-2.85,2.9,2.9,0,0,1,1.71-1.76A3.7,3.7,0,0,1,355.5,24Zm0,5.63a1.38,1.38,0,0,0,1.23-.56,2.78,2.78,0,0,0,.4-1.64,2.82,2.82,0,0,0-.4-1.64,1.38,1.38,0,0,0-1.23-.57,1.43,1.43,0,0,0-1.25.57,2.82,2.82,0,0,0-.41,1.64,2.79,2.79,0,0,0,.41,1.64A1.45,1.45,0,0,0,355.5,29.66Z"/><path d="M361.53,25.29a3,3,0,0,1,.74-.94,1.59,1.59,0,0,1,1-.34,1.22,1.22,0,0,1,.74.2l-.11,1.2a.34.34,0,0,1-.09.17.29.29,0,0,1-.17.05l-.29,0a2.31,2.31,0,0,0-.37,0,1.32,1.32,0,0,0-.47.08,1.3,1.3,0,0,0-.38.22,1.76,1.76,0,0,0-.29.36,5.09,5.09,0,0,0-.24.47V30.8H360V24.13H361a.5.5,0,0,1,.34.09.47.47,0,0,1,.13.31Z"/><path d="M366.47,21.14v5.53h.3a.62.62,0,0,0,.26,0,.7.7,0,0,0,.19-.17l1.66-2.05a.76.76,0,0,1,.23-.21.62.62,0,0,1,.33-.07h1.46l-2.07,2.48a2,2,0,0,1-.48.45,1.26,1.26,0,0,1,.24.22,2.92,2.92,0,0,1,.21.28L371,30.8h-1.45a.79.79,0,0,1-.32-.06.51.51,0,0,1-.23-.23L367.32,28a.57.57,0,0,0-.19-.19.72.72,0,0,0-.29-.05h-.37V30.8h-1.6V21.14Z"/><path d="M178.14,64.49h-1.35a.57.57,0,0,1-.37-.12.58.58,0,0,1-.21-.28l-.71-1.92h-3.89l-.7,1.92a.64.64,0,0,1-.2.27.59.59,0,0,1-.37.13H169l3.7-9.4h1.78Zm-3.08-3.55-1.15-3.13c0-.14-.11-.3-.17-.49s-.13-.4-.19-.62c-.05.22-.11.43-.17.62s-.12.36-.18.5l-1.13,3.12Z"/><path d="M184.46,57.82v6.67h-1a.37.37,0,0,1-.4-.3l-.11-.53a3.62,3.62,0,0,1-.91.67,2.51,2.51,0,0,1-1.16.26,2.27,2.27,0,0,1-1-.19,1.81,1.81,0,0,1-.7-.52,2.13,2.13,0,0,1-.43-.8,3.33,3.33,0,0,1-.15-1V57.82h1.61v4.23a1.42,1.42,0,0,0,.28,1,1.06,1.06,0,0,0,.85.34,1.79,1.79,0,0,0,.78-.19,2.67,2.67,0,0,0,.69-.51V57.82Z"/><path d="M190.12,59.12a.46.46,0,0,1-.14.14.34.34,0,0,1-.18,0,.61.61,0,0,1-.25-.06l-.31-.15a3.09,3.09,0,0,0-.4-.14,1.7,1.7,0,0,0-.53-.07,1.26,1.26,0,0,0-.75.2.64.64,0,0,0-.27.53.52.52,0,0,0,.14.36,1.52,1.52,0,0,0,.37.26,4.55,4.55,0,0,0,.53.2c.19,0,.39.12.59.19s.4.15.6.24a2,2,0,0,1,.52.33,1.48,1.48,0,0,1,.37.49,1.6,1.6,0,0,1,.14.69,2.35,2.35,0,0,1-.17.89,2,2,0,0,1-.51.7,2.43,2.43,0,0,1-.84.46,3.6,3.6,0,0,1-1.14.17,3.82,3.82,0,0,1-.68-.06,4.16,4.16,0,0,1-.63-.17,4.79,4.79,0,0,1-.56-.26,2.61,2.61,0,0,1-.45-.33l.37-.61a.69.69,0,0,1,.17-.17.51.51,0,0,1,.53,0l.31.18a4.14,4.14,0,0,0,.41.18,1.74,1.74,0,0,0,.6.08,1.73,1.73,0,0,0,.49-.06,1.2,1.2,0,0,0,.34-.18A.7.7,0,0,0,189,63a.8.8,0,0,0,.06-.3.54.54,0,0,0-.14-.38,1.16,1.16,0,0,0-.37-.26,2.94,2.94,0,0,0-.53-.2l-.6-.19a6.5,6.5,0,0,1-.61-.25,2.06,2.06,0,0,1-.52-.35,1.54,1.54,0,0,1-.37-.53,1.73,1.73,0,0,1-.14-.75,1.85,1.85,0,0,1,.16-.78,1.81,1.81,0,0,1,.48-.65,2.44,2.44,0,0,1,.78-.44,3.33,3.33,0,0,1,1.09-.17,3.4,3.4,0,0,1,1.26.23,2.81,2.81,0,0,1,.94.6Z"/><path d="M198.49,64.49h-1.61V59h-3.09v3.61a.74.74,0,0,0,.15.49.52.52,0,0,0,.42.18.87.87,0,0,0,.25,0l.18-.07.13-.08a.28.28,0,0,1,.12,0,.21.21,0,0,1,.11,0,.36.36,0,0,1,.1.11l.48.78a2.49,2.49,0,0,1-.8.44,3,3,0,0,1-1,.15,1.73,1.73,0,0,1-1.33-.49,1.9,1.9,0,0,1-.47-1.36V59h-.68a.29.29,0,0,1-.22-.09.32.32,0,0,1-.09-.25V58l1.07-.18.34-1.81a.31.31,0,0,1,.12-.2.36.36,0,0,1,.24-.07h.83v2.1h4.7Zm.28-8.64a.86.86,0,0,1-.09.39,1,1,0,0,1-.22.32,1.06,1.06,0,0,1-.33.22,1.15,1.15,0,0,1-.41.08,1,1,0,0,1-.71-.3,1.21,1.21,0,0,1-.22-.32,1,1,0,0,1-.08-.39,1,1,0,0,1,.08-.4,1.27,1.27,0,0,1,.22-.33,1.21,1.21,0,0,1,.32-.22,1,1,0,0,1,.39-.08,1.15,1.15,0,0,1,.41.08,1.27,1.27,0,0,1,.33.22,1.06,1.06,0,0,1,.22.33A.87.87,0,0,1,198.77,55.85Z"/><path d="M201.63,58.64a3.79,3.79,0,0,1,.42-.38,2.92,2.92,0,0,1,.48-.29,2.76,2.76,0,0,1,.53-.19,2.48,2.48,0,0,1,.63-.07,2.33,2.33,0,0,1,1,.19,1.81,1.81,0,0,1,.7.52,2.28,2.28,0,0,1,.43.8,3.31,3.31,0,0,1,.15,1v4.25h-1.61V60.24a1.39,1.39,0,0,0-.28-.94,1,1,0,0,0-.85-.34,1.61,1.61,0,0,0-.78.19,2.93,2.93,0,0,0-.69.51v4.83h-1.6V57.82h1a.39.39,0,0,1,.41.29Z"/><path d="M262.32,126.59h-2.84v8h-1.74v-8H254.9v-1.43h7.42Z"/><path d="M261.71,128.82a4,4,0,0,1,2.77-1.06,2.68,2.68,0,0,1,1,.2,2,2,0,0,1,.78.53,2.38,2.38,0,0,1,.49.81,3.19,3.19,0,0,1,.16,1v4.22h-.73a.8.8,0,0,1-.35-.07.51.51,0,0,1-.19-.28l-.15-.48a4.31,4.31,0,0,1-.49.4,2.82,2.82,0,0,1-.5.29,2.45,2.45,0,0,1-.56.18,3.2,3.2,0,0,1-.65.06,2.77,2.77,0,0,1-.78-.11,1.86,1.86,0,0,1-.62-.34,1.68,1.68,0,0,1-.4-.57,2.1,2.1,0,0,1-.14-.79,1.74,1.74,0,0,1,.08-.5,1.47,1.47,0,0,1,.28-.48,2.43,2.43,0,0,1,.5-.43,3.28,3.28,0,0,1,.75-.35,6,6,0,0,1,1-.24,12.52,12.52,0,0,1,1.36-.12v-.39a1.48,1.48,0,0,0-.29-1,1.07,1.07,0,0,0-.83-.32,1.93,1.93,0,0,0-.64.09,2.35,2.35,0,0,0-.45.21l-.36.2a.7.7,0,0,1-.35.09.52.52,0,0,1-.29-.08.76.76,0,0,1-.19-.21Zm3.68,2.89a8.15,8.15,0,0,0-1.17.12,3.44,3.44,0,0,0-.77.22,1.17,1.17,0,0,0-.41.32.72.72,0,0,0-.12.4.68.68,0,0,0,.25.6,1,1,0,0,0,.65.19,1.91,1.91,0,0,0,.86-.18,2.62,2.62,0,0,0,.71-.55Z"/><path d="M268.46,134.56v-6.67h1a.39.39,0,0,1,.41.29l.1.49a3,3,0,0,1,.37-.35,2.71,2.71,0,0,1,.41-.28,2.43,2.43,0,0,1,.47-.19,2.36,2.36,0,0,1,.55-.07,1.58,1.58,0,0,1,1,.35,1.94,1.94,0,0,1,.6.9,2.39,2.39,0,0,1,.39-.57,2.1,2.1,0,0,1,.52-.38,2,2,0,0,1,.59-.22,2.78,2.78,0,0,1,1.62.09,2,2,0,0,1,.72.5,2.16,2.16,0,0,1,.44.79,3.21,3.21,0,0,1,.16,1.07v4.25h-1.61v-4.25a1.43,1.43,0,0,0-.28-1,1,1,0,0,0-.82-.32,1.18,1.18,0,0,0-.46.09,1,1,0,0,0-.37.24,1.24,1.24,0,0,0-.25.4,1.55,1.55,0,0,0-.09.55v4.25h-1.61v-4.25a1.44,1.44,0,0,0-.27-1,1,1,0,0,0-.79-.31,1.34,1.34,0,0,0-.65.17,2.27,2.27,0,0,0-.56.48v4.88Z"/><path d="M280.87,128.8a3.34,3.34,0,0,1,.93-.75,2.47,2.47,0,0,1,1.22-.29,2.17,2.17,0,0,1,1.78.89,3,3,0,0,1,.5,1.07,5.27,5.27,0,0,1,.18,1.45,4.34,4.34,0,0,1-.2,1.38,3.24,3.24,0,0,1-.57,1.11,2.61,2.61,0,0,1-2.09,1,2.32,2.32,0,0,1-1-.17A2.23,2.23,0,0,1,281,134v2.73h-1.6v-8.84h1a.4.4,0,0,1,.41.29Zm.08,4a1.64,1.64,0,0,0,.6.47,1.75,1.75,0,0,0,.7.13,1.51,1.51,0,0,0,.65-.13,1.34,1.34,0,0,0,.5-.42,2.12,2.12,0,0,0,.32-.71,4.13,4.13,0,0,0,.11-1,4.58,4.58,0,0,0-.1-1,1.82,1.82,0,0,0-.27-.66,1.13,1.13,0,0,0-.42-.37,1.32,1.32,0,0,0-.57-.12,1.6,1.6,0,0,0-.85.21,2.48,2.48,0,0,0-.67.6Z"/><path d="M286.57,128.82a4,4,0,0,1,2.77-1.06,2.69,2.69,0,0,1,1.05.2,2,2,0,0,1,.78.53,2.35,2.35,0,0,1,.48.81,3,3,0,0,1,.17,1v4.22h-.73a.8.8,0,0,1-.35-.07.47.47,0,0,1-.19-.28l-.15-.48a4.31,4.31,0,0,1-.49.4,2.82,2.82,0,0,1-.5.29,2.45,2.45,0,0,1-.56.18,3.2,3.2,0,0,1-.65.06,2.77,2.77,0,0,1-.78-.11,1.86,1.86,0,0,1-.62-.34,1.55,1.55,0,0,1-.4-.57,1.92,1.92,0,0,1-.14-.79,1.45,1.45,0,0,1,.08-.5,1.47,1.47,0,0,1,.28-.48,2.35,2.35,0,0,1,.49-.43,3.59,3.59,0,0,1,.76-.35,6,6,0,0,1,1-.24,12.55,12.55,0,0,1,1.35-.12v-.39a1.48,1.48,0,0,0-.28-1,1.07,1.07,0,0,0-.83-.32,1.93,1.93,0,0,0-.64.09,2.19,2.19,0,0,0-.46.21l-.35.2a.7.7,0,0,1-.35.09.52.52,0,0,1-.29-.08.76.76,0,0,1-.19-.21Zm3.68,2.89a8.47,8.47,0,0,0-1.17.12,3.33,3.33,0,0,0-.76.22,1.17,1.17,0,0,0-.41.32.72.72,0,0,0-.12.4.68.68,0,0,0,.25.6,1,1,0,0,0,.65.19,1.91,1.91,0,0,0,.86-.18,2.45,2.45,0,0,0,.7-.55Z"/><path class="cls-6" d="M259.52,93.75c-1.3-.18-8.18-5.8-8.41-14.88,0,0,1.15,2,2.31,2.31,0,0-4.21-8.82,5.87-21.8,14.44,7.88,14,17.66,14,17.66,1-.67,1.23-3,1.23-3,3.38,8.44-.67,16.3-1.78,17Z"/><path class="cls-7" d="M262.09,92.3c-1.45-1.6-8.26-14.13-1.16-25,10.83,7.18,9.57,21.39,8.86,23.44Z"/><line class="cls-8" x1="105.88" y1="107.21" x2="145.84" y2="107.21"/><polygon class="cls-1" points="141.41 113.06 143.89 107.21 141.41 101.36 155.28 107.21 141.41 113.06"/><line class="cls-9" x1="209.88" y1="126.09" x2="253.48" y2="155.58"/><line class="cls-8" x1="209.88" y1="126.09" x2="245.66" y2="150.3"/><polygon class="cls-1" points="238.71 152.66 244.05 149.2 245.27 142.96 253.48 155.58 238.71 152.66"/><line class="cls-9" x1="299.28" y1="150.45" x2="328.45" y2="100.18"/><line class="cls-8" x1="299.28" y1="150.45" x2="323.72" y2="108.34"/><polygon class="cls-1" points="326.55 115.12 322.74 110.03 316.43 109.24 328.45 100.19 326.55 115.12"/></svg>