<svg id="Layer_1" data-name="Layer 1" xmlns="http://www.w3.org/2000/svg" width="445.91" height="220.8" viewBox="0 0 445.91 220.8"><defs><style>.cls-1{fill:none;stroke:#14bf96;stroke-width:2.97px;}.cls-1,.cls-3{stroke-miterlimit:10;}.cls-2,.cls-3{fill:#14bf96;}.cls-3{stroke:#00e5ae;stroke-width:1.22px;}.cls-4{isolation:isolate;}.cls-5{fill:#fff;}.cls-6{fill:#37c5fd;}.cls-7{fill:#0a2a66;}.cls-8{fill:#ccfbf0;}.cls-9{fill:#e0e0e0;}</style></defs><title>protocol_confusion</title><line class="cls-1" x1="115.41" y1="175.92" x2="324.18" y2="175.92"/><polygon class="cls-2" points="319.76 181.75 322.24 175.92 319.76 170.08 333.59 175.92 319.76 181.75"/><path class="cls-3" d="M157.39,127.7H302.9c4.29,0,5.5,1.66,5.5,3.71v24.9c0,2.05-1.21,3.72-5.5,3.72H157.39c-4.28,0-5.49-1.67-5.49-3.72v-24.9C151.9,129.36,153.11,127.7,157.39,127.7Z"/><g class="cls-4"><g class="cls-4"><path class="cls-5" d="M164.88,138.63a3,3,0,0,1,2.68,1.48,9.09,9.09,0,0,1,0,8,3.18,3.18,0,0,1-5.36,0,9,9,0,0,1,0-8A3,3,0,0,1,164.88,138.63Zm-2,7.66,3.56-5.58a2,2,0,0,0-.73-.83,1.63,1.63,0,0,0-.82-.22,1.81,1.81,0,0,0-1.68,1.23,7.32,7.32,0,0,0-.58,3.13q0,.42,0,.93A8.48,8.48,0,0,0,162.86,146.29Zm4-4.35-3.53,5.62a2,2,0,0,0,.65.72,1.5,1.5,0,0,0,.83.25,1.85,1.85,0,0,0,1.79-1.42,8.9,8.9,0,0,0,.53-3.13A7.66,7.66,0,0,0,166.87,141.94Z"/><path class="cls-5" d="M172.73,148.21v-7.94a10.61,10.61,0,0,1-1.08.75,7.82,7.82,0,0,1-1.44.63v-1.11a8.88,8.88,0,0,0,2.52-1.6H174v9.27h2.48v1h-6.23v-1Z"/><path class="cls-5" d="M181.19,138.63a3,3,0,0,1,2.69,1.48,9.09,9.09,0,0,1,0,8,3.19,3.19,0,0,1-5.37,0,9.09,9.09,0,0,1,0-8A3,3,0,0,1,181.19,138.63Zm-2,7.66,3.56-5.58a2,2,0,0,0-.73-.83,1.66,1.66,0,0,0-.82-.22,1.81,1.81,0,0,0-1.68,1.23,7.32,7.32,0,0,0-.58,3.13q0,.42,0,.93A7.45,7.45,0,0,0,179.18,146.29Zm4-4.35-3.54,5.62a2.11,2.11,0,0,0,.66.72,1.5,1.5,0,0,0,.83.25,1.86,1.86,0,0,0,1.79-1.42,8.9,8.9,0,0,0,.53-3.13A7.66,7.66,0,0,0,183.19,141.94Z"/><path class="cls-5" d="M189.35,138.63a3,3,0,0,1,2.68,1.48,9,9,0,0,1,0,8,3.18,3.18,0,0,1-5.36,0,9.09,9.09,0,0,1,0-8A3,3,0,0,1,189.35,138.63Zm-2,7.66,3.56-5.58a2,2,0,0,0-.73-.83,1.66,1.66,0,0,0-.82-.22,1.83,1.83,0,0,0-1.69,1.23,7.48,7.48,0,0,0-.57,3.13c0,.28,0,.59,0,.93A8.72,8.72,0,0,0,187.34,146.29Zm4-4.35-3.53,5.62a2.11,2.11,0,0,0,.66.72,1.48,1.48,0,0,0,.83.25,1.87,1.87,0,0,0,1.79-1.42,8.9,8.9,0,0,0,.53-3.13A7.67,7.67,0,0,0,191.34,141.94Z"/><path class="cls-5" d="M197.21,148.21v-7.94a11.92,11.92,0,0,1-1.09.75,7.82,7.82,0,0,1-1.44.63v-1.11a8.94,8.94,0,0,0,2.53-1.6h1.23v9.27h2.48v1h-6.24v-1Z"/><path class="cls-5" d="M205.67,138.63a3,3,0,0,1,2.68,1.48,9.09,9.09,0,0,1,0,8,3.18,3.18,0,0,1-5.36,0,9,9,0,0,1,0-8A3,3,0,0,1,205.67,138.63Zm-2,7.66,3.56-5.58a2,2,0,0,0-.74-.83,1.59,1.59,0,0,0-.81-.22,1.83,1.83,0,0,0-1.69,1.23,7.48,7.48,0,0,0-.57,3.13c0,.28,0,.59,0,.93A7.64,7.64,0,0,0,203.66,146.29Zm4-4.35-3.53,5.62a2.19,2.19,0,0,0,.65.72,1.53,1.53,0,0,0,.83.25,1.85,1.85,0,0,0,1.79-1.42,8.68,8.68,0,0,0,.53-3.13A7.66,7.66,0,0,0,207.66,141.94Z"/><path class="cls-5" d="M213.83,138.63a3,3,0,0,1,2.68,1.48,9.09,9.09,0,0,1,0,8,3.18,3.18,0,0,1-5.36,0,9,9,0,0,1,0-8A3,3,0,0,1,213.83,138.63Zm-2,7.66,3.55-5.58a1.9,1.9,0,0,0-.73-.83,1.6,1.6,0,0,0-.82-.22,1.83,1.83,0,0,0-1.68,1.23,7.47,7.47,0,0,0-.58,3.13q0,.42,0,.93A7.64,7.64,0,0,0,211.82,146.29Zm4-4.35-3.53,5.62a2.19,2.19,0,0,0,.65.72,1.53,1.53,0,0,0,.83.25,1.85,1.85,0,0,0,1.79-1.42,8.68,8.68,0,0,0,.53-3.13A7.66,7.66,0,0,0,215.82,141.94Z"/><path class="cls-5" d="M222,138.63a3,3,0,0,1,2.68,1.48,9.09,9.09,0,0,1,0,8,3.18,3.18,0,0,1-5.36,0,9,9,0,0,1,0-8A3,3,0,0,1,222,138.63Zm-2,7.66,3.56-5.58a2,2,0,0,0-.73-.83,1.63,1.63,0,0,0-.82-.22,1.81,1.81,0,0,0-1.68,1.23,7.47,7.47,0,0,0-.58,3.13q0,.42,0,.93A8.48,8.48,0,0,0,220,146.29Zm4-4.35-3.53,5.62a2,2,0,0,0,.65.72,1.53,1.53,0,0,0,.83.25,1.85,1.85,0,0,0,1.79-1.42,8.9,8.9,0,0,0,.53-3.13A7.66,7.66,0,0,0,224,141.94Z"/><path class="cls-5" d="M238.3,138.63a3,3,0,0,1,2.69,1.48,9.09,9.09,0,0,1,0,8,3,3,0,0,1-2.69,1.47,3,3,0,0,1-2.67-1.47,9,9,0,0,1,0-8A3,3,0,0,1,238.3,138.63Zm-2,7.66,3.56-5.58a2,2,0,0,0-.73-.83,1.66,1.66,0,0,0-.82-.22,1.81,1.81,0,0,0-1.68,1.23A7.32,7.32,0,0,0,236,144q0,.42,0,.93A7.45,7.45,0,0,0,236.29,146.29Zm4-4.35-3.54,5.62a2.11,2.11,0,0,0,.66.72,1.5,1.5,0,0,0,.83.25,1.86,1.86,0,0,0,1.79-1.42,8.9,8.9,0,0,0,.53-3.13A7.66,7.66,0,0,0,240.3,141.94Z"/><path class="cls-5" d="M246.16,148.21v-7.94a11.85,11.85,0,0,1-1.08.75,7.66,7.66,0,0,1-1.45.63v-1.11a8.94,8.94,0,0,0,2.53-1.6h1.23v9.27h2.48v1h-6.24v-1Z"/><path class="cls-5" d="M254.32,148.21v-7.94a11.92,11.92,0,0,1-1.09.75,7.82,7.82,0,0,1-1.44.63v-1.11a8.94,8.94,0,0,0,2.53-1.6h1.23v9.27H258v1h-6.24v-1Z"/><path class="cls-5" d="M262.78,138.63a3,3,0,0,1,2.68,1.48,9.09,9.09,0,0,1,0,8,3.18,3.18,0,0,1-5.36,0,9.09,9.09,0,0,1,0-8A3,3,0,0,1,262.78,138.63Zm-2,7.66,3.56-5.58a2,2,0,0,0-.74-.83,1.59,1.59,0,0,0-.81-.22,1.83,1.83,0,0,0-1.69,1.23,7.48,7.48,0,0,0-.57,3.13c0,.28,0,.59,0,.93A8.72,8.72,0,0,0,260.77,146.29Zm4-4.35-3.53,5.62a2.11,2.11,0,0,0,.66.72,1.47,1.47,0,0,0,.82.25,1.85,1.85,0,0,0,1.79-1.42A8.68,8.68,0,0,0,265,144,7.66,7.66,0,0,0,264.77,141.94Z"/><path class="cls-5" d="M270.63,148.21v-7.94a10.61,10.61,0,0,1-1.08.75,7.82,7.82,0,0,1-1.44.63v-1.11a8.74,8.74,0,0,0,2.52-1.6h1.24v9.27h2.47v1h-6.23v-1Z"/><path class="cls-5" d="M279.1,138.63a3,3,0,0,1,2.68,1.48,9.09,9.09,0,0,1,0,8,3.18,3.18,0,0,1-5.36,0,9,9,0,0,1,0-8A3,3,0,0,1,279.1,138.63Zm-2,7.66,3.55-5.58a2,2,0,0,0-.73-.83,1.6,1.6,0,0,0-.82-.22,1.83,1.83,0,0,0-1.68,1.23,7.47,7.47,0,0,0-.58,3.13q0,.42,0,.93A7.64,7.64,0,0,0,277.09,146.29Zm4-4.35-3.53,5.62a2.19,2.19,0,0,0,.65.72,1.53,1.53,0,0,0,.83.25,1.85,1.85,0,0,0,1.79-1.42,8.9,8.9,0,0,0,.53-3.13A7.66,7.66,0,0,0,281.09,141.94Z"/><path class="cls-5" d="M287.26,138.63a3,3,0,0,1,2.68,1.48,9.09,9.09,0,0,1,0,8,3.18,3.18,0,0,1-5.36,0,9,9,0,0,1,0-8A3,3,0,0,1,287.26,138.63Zm-2,7.66,3.56-5.58a2,2,0,0,0-.73-.83,1.63,1.63,0,0,0-.82-.22,1.81,1.81,0,0,0-1.68,1.23A7.32,7.32,0,0,0,285,144q0,.42,0,.93A8.48,8.48,0,0,0,285.24,146.29Zm4-4.35-3.53,5.62a2,2,0,0,0,.65.72,1.5,1.5,0,0,0,.83.25,1.85,1.85,0,0,0,1.79-1.42,8.9,8.9,0,0,0,.53-3.13A7.66,7.66,0,0,0,289.25,141.94Z"/><path class="cls-5" d="M295.11,148.21v-7.94A10.61,10.61,0,0,1,294,141a7.82,7.82,0,0,1-1.44.63v-1.11a8.74,8.74,0,0,0,2.52-1.6h1.23v9.27h2.48v1h-6.23v-1Z"/></g></g><rect class="cls-6" y="93.99" width="99.99" height="126.81" rx="2.35"/><rect class="cls-7" x="5.39" y="117.84" width="88.45" height="7.69"/><rect class="cls-7" x="5.39" y="134.18" width="88.45" height="7.69"/><rect class="cls-7" x="6.15" y="150.53" width="88.45" height="7.69"/><rect class="cls-7" x="6.15" y="166.87" width="88.45" height="7.69"/><rect class="cls-7" x="6.15" y="183.21" width="88.45" height="7.69"/><circle class="cls-8" cx="87.69" cy="104.76" r="4.61"/><rect class="cls-7" x="6.15" y="199.56" width="88.45" height="7.69"/><rect class="cls-6" x="343.69" y="93.74" width="99.99" height="126.81" rx="2.35"/><rect class="cls-7" x="349.08" y="117.59" width="88.45" height="7.69"/><rect class="cls-7" x="349.08" y="133.93" width="88.45" height="7.69"/><rect class="cls-7" x="349.85" y="150.27" width="88.45" height="7.69"/><rect class="cls-7" x="349.85" y="166.62" width="88.45" height="7.69"/><rect class="cls-7" x="349.85" y="182.96" width="88.45" height="7.69"/><circle class="cls-8" cx="431.38" cy="104.51" r="4.61"/><rect class="cls-7" x="349.85" y="199.31" width="88.45" height="7.69"/><ellipse class="cls-9" cx="54.51" cy="26.52" rx="48.41" ry="26.52"/><path d="M56.42,18.19V32.52H54.48V26H46.75v6.52H44.81V18.19h1.94v6.39h7.73V18.19Z"/><path d="M61.77,19.21a1.13,1.13,0,0,1-.1.49,1.6,1.6,0,0,1-.28.4,1.39,1.39,0,0,1-.41.27,1.21,1.21,0,0,1-.5.1,1.12,1.12,0,0,1-.48-.1,1.34,1.34,0,0,1-.4-.27,1.56,1.56,0,0,1-.27-.4,1.13,1.13,0,0,1-.1-.49,1.16,1.16,0,0,1,.1-.49,1.33,1.33,0,0,1,.27-.41A1.38,1.38,0,0,1,60,18a1.29,1.29,0,0,1,.48-.1,1.39,1.39,0,0,1,.5.1,1.42,1.42,0,0,1,.41.28,1.35,1.35,0,0,1,.28.41A1.16,1.16,0,0,1,61.77,19.21Zm-.38,3.18V32.52H59.61V22.39Z"/><circle class="cls-9" cx="15.41" cy="81.31" r="7.12"/><circle class="cls-9" cx="31.45" cy="64.93" r="9"/><ellipse class="cls-9" cx="397.49" cy="26.52" rx="48.41" ry="26.52"/><circle class="cls-9" cx="358.39" cy="81.31" r="7.12"/><circle class="cls-9" cx="374.43" cy="64.93" r="9"/><path d="M380.69,30.6V32H373V30.6h3.07V20.83c0-.3,0-.59,0-.89l-2.55,2.19a.53.53,0,0,1-.26.13.66.66,0,0,1-.24,0,.7.7,0,0,1-.2-.08.5.5,0,0,1-.15-.13l-.56-.77,4.27-3.69h1.45v13Z"/><path d="M390,24.49A3.89,3.89,0,0,1,392,25.76a3.5,3.5,0,0,1,.72,2.28,4,4,0,0,1-.35,1.69,3.91,3.91,0,0,1-1,1.29,4.66,4.66,0,0,1-1.53.81,6.77,6.77,0,0,1-3.92,0,4.66,4.66,0,0,1-1.53-.81,3.66,3.66,0,0,1-1-1.29,4,4,0,0,1-.35-1.69,3.5,3.5,0,0,1,.72-2.28,3.89,3.89,0,0,1,2.06-1.27,3.43,3.43,0,0,1-1.7-1.26,3.38,3.38,0,0,1-.58-2,3.51,3.51,0,0,1,.31-1.48,3.59,3.59,0,0,1,.88-1.2,4.12,4.12,0,0,1,1.37-.8,5.55,5.55,0,0,1,3.54,0,4.12,4.12,0,0,1,1.37.8,3.59,3.59,0,0,1,.88,1.2,3.51,3.51,0,0,1,.31,1.48,3.45,3.45,0,0,1-.57,2A3.5,3.5,0,0,1,390,24.49Zm-2,6.21a3.78,3.78,0,0,0,1.26-.2,2.65,2.65,0,0,0,.94-.55,2.55,2.55,0,0,0,.59-.85,2.94,2.94,0,0,0,.2-1.09,3,3,0,0,0-.24-1.27,2.46,2.46,0,0,0-.66-.85,2.73,2.73,0,0,0-1-.49,4.33,4.33,0,0,0-2.26,0,2.6,2.6,0,0,0-.95.49,2.24,2.24,0,0,0-.66.85,2.88,2.88,0,0,0-.25,1.27,2.75,2.75,0,0,0,.21,1.09,2.29,2.29,0,0,0,.59.85,2.57,2.57,0,0,0,.94.55A3.72,3.72,0,0,0,387.91,30.7Zm0-11.85a3,3,0,0,0-1.12.19,2.1,2.1,0,0,0-.81.52,2.07,2.07,0,0,0-.49.77,2.62,2.62,0,0,0-.17.94,3.41,3.41,0,0,0,.14.95,2.09,2.09,0,0,0,.45.81,2.19,2.19,0,0,0,.81.57,2.84,2.84,0,0,0,1.19.22,2.89,2.89,0,0,0,1.2-.22,2.16,2.16,0,0,0,.8-.57,2.09,2.09,0,0,0,.45-.81,3.41,3.41,0,0,0,.14-.95,2.61,2.61,0,0,0-.16-.94,2.2,2.2,0,0,0-.49-.77A2.26,2.26,0,0,0,389,19,3,3,0,0,0,387.91,18.85Z"/><path d="M397.33,23a9.89,9.89,0,0,1,2.06-.24,5.48,5.48,0,0,1,2,.33,3.94,3.94,0,0,1,1.43.91,3.57,3.57,0,0,1,.87,1.37,4.78,4.78,0,0,1,.3,1.72,5.25,5.25,0,0,1-.39,2.06,4.75,4.75,0,0,1-1.09,1.57,4.91,4.91,0,0,1-1.64,1,5.85,5.85,0,0,1-2,.35,6,6,0,0,1-1.21-.13,5.68,5.68,0,0,1-1.08-.33,6.37,6.37,0,0,1-.94-.48,5.19,5.19,0,0,1-.76-.57l.55-.76a.54.54,0,0,1,.47-.26.92.92,0,0,1,.45.15c.17.11.37.22.61.35a5.36,5.36,0,0,0,.85.34,3.55,3.55,0,0,0,1.15.16,3.61,3.61,0,0,0,1.35-.24,2.92,2.92,0,0,0,1-.69A3,3,0,0,0,402,28.6a4.09,4.09,0,0,0,.23-1.39A3.53,3.53,0,0,0,402,26a2.41,2.41,0,0,0-.6-.92,2.6,2.6,0,0,0-1-.59,4.09,4.09,0,0,0-1.38-.21,7.34,7.34,0,0,0-1.12.09,6.75,6.75,0,0,0-1.2.29l-1.12-.33,1.15-6.7h6.79v.78a.88.88,0,0,1-.23.62,1.12,1.12,0,0,1-.81.25H398Z"/><path d="M406.61,21.51a5.08,5.08,0,0,1,.54-1.74,4.22,4.22,0,0,1,1-1.26,4.36,4.36,0,0,1,1.4-.78,5.63,5.63,0,0,1,1.72-.26,5,5,0,0,1,1.68.26,4,4,0,0,1,1.33.74,3.32,3.32,0,0,1,.86,1.16,3.52,3.52,0,0,1,.31,1.51,4.06,4.06,0,0,1-.17,1.21,3.13,3.13,0,0,1-.5.94A3.26,3.26,0,0,1,414,24a5.1,5.1,0,0,1-1,.46,3.9,3.9,0,0,1,2.11,1.23,3.44,3.44,0,0,1,.7,2.19,3.93,3.93,0,0,1-1.4,3.12,4.48,4.48,0,0,1-1.51.85,5.67,5.67,0,0,1-1.86.3,5.89,5.89,0,0,1-1.95-.29,4.06,4.06,0,0,1-1.37-.78,4.31,4.31,0,0,1-.92-1.19,9.36,9.36,0,0,1-.61-1.48l.77-.32a.92.92,0,0,1,.58-.07.57.57,0,0,1,.42.33c.09.18.19.41.32.67a3.08,3.08,0,0,0,.54.75,2.87,2.87,0,0,0,.87.61,3.61,3.61,0,0,0,2.64,0,2.82,2.82,0,0,0,.95-.63,2.7,2.7,0,0,0,.56-.87,2.51,2.51,0,0,0,.19-1,3.53,3.53,0,0,0-.15-1.06,1.78,1.78,0,0,0-.56-.83,2.78,2.78,0,0,0-1.13-.55,6.62,6.62,0,0,0-1.83-.2V24a6.23,6.23,0,0,0,1.56-.2,3,3,0,0,0,1.05-.52,2.08,2.08,0,0,0,.6-.79,2.8,2.8,0,0,0,.18-1,2.54,2.54,0,0,0-.2-1.08,2,2,0,0,0-.53-.76,2.21,2.21,0,0,0-.81-.45,3.22,3.22,0,0,0-1-.15,3,3,0,0,0-1,.16,2.7,2.7,0,0,0-.82.44,2.75,2.75,0,0,0-.59.68,2.71,2.71,0,0,0-.34.86.9.9,0,0,1-.33.46.86.86,0,0,1-.56.07Z"/><path d="M427.72,17.63v.8a1.82,1.82,0,0,1-.07.56c-.06.14-.1.27-.15.37l-5.94,12a1.39,1.39,0,0,1-.36.44.91.91,0,0,1-.61.19h-1.28l6-11.82c.09-.17.18-.32.27-.46a3,3,0,0,1,.3-.4h-7.48a.42.42,0,0,1-.3-.14.41.41,0,0,1-.13-.3V17.63Z"/></svg>