<svg id="Layer_1" data-name="Layer 1" xmlns="http://www.w3.org/2000/svg" viewBox="0 0 426.29 211.16"><defs><style>.cls-1{fill:#bfcdd1;}.cls-2{fill:#0a2a66;}.cls-3{fill:#fff;}.cls-13,.cls-4,.cls-5,.cls-6{fill:none;stroke-miterlimit:10;}.cls-4{stroke:#37c5fd;}.cls-4,.cls-5,.cls-6{stroke-linecap:round;}.cls-4,.cls-6{stroke-width:1px;}.cls-5{stroke:#10a7e3;stroke-width:1.63px;}.cls-6{stroke:#c3eefe;}.cls-7{fill:#37c5fd;}.cls-8{fill:#10a7e3;}.cls-9{fill:#65d0fa;}.cls-10{fill:#ccfbf0;}.cls-11{fill:#63d9ea;}.cls-12{fill:#c3eefe;opacity:0.5;}.cls-13{stroke:#14bf96;stroke-width:2px;}.cls-14{fill:#14bf96;}</style></defs><title>world</title><path class="cls-1" d="M41.7,14.14s.06,0,.06,0S41.74,14.07,41.7,14.14ZM143.08,132.52s-1.91-.4-2-.63a29.06,29.06,0,0,0-3.42-3c-.08.08-1.36-1.28-1.52-.88s-2.63.4-2.63.4l-2.63-.64s-1.11.8-.87.48.08-2.23,0-1.91-4-1.67-4-1.67l-1.35,1.19v-1.51L122.61,123l.24-1.67-1-.8s-.16.24-.24.08-.63-3.34-.63-3.34l-3-2.47-3.67-.16L111,112.84l-.72-1.67s-1.91-.87-1.91-1.11-.56-.08-.72-.17-.07-.87-.07-.87l-.89-.72-.31-.21-.78-.24-.48-.67s1.73-.77,1.56-.71-3.89.6-3.89.6l-.35.71-1.74-.89-2.92-.18s-2.1-.84-2-1.08-.66-1.13-.66-1.13a11,11,0,0,1-.59,1.25c-.12.12-1.61,1.38-1.61,1.38L93,109,92,108l.72-1v-1.44c0-.18.89-.59.89-.59l-.36-.78s-1.07.3-1.07.48-1.43,1-1.43,1l-1.74.66H88.2a8,8,0,0,1-1,1.31c-.18.07-.12,1.2-.12,1.2s-1.91,2.15-2,1.91a27.55,27.55,0,0,0-2.15-1.91l-2.4.3-1.37.72-1.67-1.14-1.31-2,.12-2.39.71-2.63.3-1.73-1.79-1.32a24.75,24.75,0,0,1-3.65.12c0-.18-2,.06-1.91-.12s.72-1.31.72-1.49.48-1.56.48-1.56L72,94l1-3,.6-1-3-.18-1.79.72-1,3-5.08,1.37-1.25-.95s-.12.53-.06.23a13,13,0,0,0-1.55-2.39L59,88.85s2-6,2-5.92.06-2.21.06-2.21l6.39-4.18,2.45.35.6.6,1.5-.24,1.49-1.49,1.91.24,1.85-.36L78.4,76.9l1.66-.66.9,1,.54.59v1l-.41,1,.41,2.16,1.2,1.67.77.3,1-2.63-.18-2.45-.42-2V75.4l2.45-3,3.17-2.27L92,68.71l2.21-2.39-.12-2.27,1-.18.95-2,1,.12,1.86-2.33,3.1-1.07,1.92-.36.6-.66-.72-.59,1.49-2.22,4.72-1.85,2.87-.84-2.33,1.5.48,1.13,1.73-.48,1.26-.77,3.28-.9s.78-1.31.66-1,1.67-.3,1.67-.3l-.35-.72.12-1-1,.36-1.44,1.55-2.33-.11-1.07-1.62,1-1.37,1-1.91a7.14,7.14,0,0,1-1.61-.48l-2.33.83c-.24,0-2.45,1.32-2.39,1.14s-1.14.66-1.14.66l3-2.45,1.25-.18,1.44-1.32h6.87l2.33-.48L126,42.48l.24.3L124.94,44l-1.61,1.67-1.56,1.67-.77,1,2.45.12s1.91,0,2.09,0,.3.83.3.83l1-.71.54,1.37,1.8-1.37-.54-1.56.48-1.44-2.1.07v-.78s-.77-.9-.83-.78,1.19-1,1.13-.89-.54-.6-.54-.6l1.44-1.8-.72-2-.24-1-1.85-.89-.66-.9-.84-.66.66-1.55-.3-1.14s-.53-3.7-.59-3.58-2.52,2-2.52,2l-2.5,1.26-1.32-1.14.12-1.5,1.14-1.07-1.86-.6-.12-.48s-1.67-1.67-1.79-1.55l-.53.54-4-.36L109,28.62l-.3,1.25s-2.16,2.16-2.42,2.33c.15,0,1.16,1,1.16,1l-.89,2.15-3.41,2-1.67.24s-1,3.71-1,3.95-1.37.89-1.37.89l-1,.72-.42-1.31a11.54,11.54,0,0,0-.64-1.26,9.12,9.12,0,0,0,1.24.24l.18-.84-1,.06.42-1.37.9-1.5-3.11-.24L95,36l-1.56-.24-.12-.66-1.07-.66-1.32-.59-1.43.17-.06-1.25.35-1.19-1.43-.24s2.51-2.57,2.45-2.45,7.05-3.53,7.05-3.53l.84-.89,1.37-.13,3-1.37,2.27-1.55.24.12-1.73,1.61-.48.6-1.37.65,1.25.18-.18.72,1.38-.24L105.82,24l1.08.36.48.53,1.49-.06-.06-1.13L106.48,22l-.54-.54-.24-.6,1,.12.85.72.89-.9,1.79-.23L112,19.3l-.11-.78,1.37-1.31-.9-1,2.39-.06,2.09.06s1-.47,1.2-.18a14.48,14.48,0,0,0,1.73,1.44l-.6.53-2.45.31-.6,1.19,1.8.24,1.37-1.43,1.49-.13.24,1.44s-1.67.95-1.9,1-1.26.54-1.26.54l-.06,1.08-1.61.18-1.68-.3-.77.06-1.26,1,1,.9a18.11,18.11,0,0,0,1.73-.78c.24-.18,1-.54,1.19-.24a9.55,9.55,0,0,0,1.2,1.14l.84,1.62.77.23,2.39.78a9.11,9.11,0,0,1,1.68.54c0,.12-.18-1-.18-1l-1.26-1.49s-.06-.42.36-.31a7,7,0,0,1,1.44,1c.17.06,1.37.78,1.37.78l.48-1.32,1.07-.65-.41-.78-.6-.66-.66-.77.06-.9.36-.24c.18-.11.71-.53.83-.3s1.32,1.8,1.32,1.8l1.13.23.54-.89a12.47,12.47,0,0,1,1.49-.12c0,.06.12-.72.12-.72l1.38-.35-2-1.74-1.08-.54-.84.24-.77-.9.84-.77.36-1.08-1-.95-1.49-.3-.37-.78a5.34,5.34,0,0,0-1.43-.06c-.18.12-1.07-1.08-1.07-1.08l-.78-1c-.12-.06-.54-.48-.78-.42s-2.75.12-2.75.12l-.59.18-.78-.6-3.11.78L113,13.08s-.12-.71,0-.89a11.89,11.89,0,0,1,1.43-1c.18-.12-1.37-.18-1.37-.18a27.19,27.19,0,0,0-3,1.14c-.12.18-2.33,1.91-2.33,1.91l.06,1.43,2,.3.78.18-.54.48-.42.89-1.31.72-1.62,1.19-1.37.54-.24-.95,1.2-.72s-.24-1.49-.36-1.37-1.37-.06-1.43.12a8.49,8.49,0,0,1,.06-1.14l-.06-1.25-.3-1a12.13,12.13,0,0,1,1.19-.9c.18-.06,2.09-.18,2.09-.18l3.05-1.73L108,10.64a9.07,9.07,0,0,0-2.45.29c-.12.24-1.67,1.85-1.67,1.85l-1,.72-3.16,2-.12,1.37-1.32-.24-.95-.18-2.39,1V18.7l-4.37.24s-2.09-.3-2.09-.6-.77-.89-1-.89-2.93.83-2.93.83l-.12.84-3.11-.18s-2.56.48-2.5.24-1.38-.12-1.38-.12l2.15-1-1.49-.71L75.47,17l-1.91-.6-2.15.3-.24-.89-1.92.77-.53-1.26-1.32.6L62.26,17a5.8,5.8,0,0,1-1.43-.48l-1.5.72-2.86.17-1.14-.83L53,16.07l-2.57.12-4.78-.78a24.72,24.72,0,0,1-2.57-.48c.18-.06-1.49-.48-1.49-.48s.07-.2.12-.31c-.58.25-5.26,1-5.26,1l-6.27,2L26.06,18s.12,1.07.17,1.25.42,1.38.42,1.38l-1.13.24h-1.2l.6-.84-6.1,1.67.13.66-.42.78,1.91.18,1.61.18s.9-.54.9-.36-.48,1.55-.48,1.55l-1.85.12c-.12-.18-1.08.06-1.08.06s-1.25.77-1.31.6a11.55,11.55,0,0,0-2.51.42l-2.81,1.61-1.07,1.61-.12,1.2L13.81,30l-1.2,1.62L14,31.54s1.61,0,1.73.25.83.12.83.23S2.33,37.64,2.21,37.46s-2.21,1-2.21,1,2.75-.48,2.93-.48,4.24-1,4.24-1l1.91-.54a41.5,41.5,0,0,0,4.18-1.37,19.33,19.33,0,0,1,3.11-1.67c.18,0,1.14-.42,1.2-.18s4.12-1.07,4.12-1.07,1.43-1,1.32-1.2-1-.66-.72-.72,2.39-.36,2.39-.36a24.73,24.73,0,0,1,3.17-1.13c-.06.18-3.29,2.33-3.29,2.33l4.6-.9L31,29.39s1.55-.71,1.43-.53,1.79.71,1.79.89a31.37,31.37,0,0,0,4,.78l1.2,1.79-.24,2.33-.12,2.93,2.15-.24-.54,1.91.13,3.17s.11,1.14.11,1.31-1.67-.35-1.67-.35-.24,1.37-.06,1.55l2.15,2.15-.66.84-1.49,3.7-3.53,4.06-.59,2.22-1.74,1.91.3,1.37s-.48,1-.35,1.08.83,6.63.83,6.63l2.51,1.55.66,1.2.36,4.9,1.07,2.21-1.19.83,1.37,1.91.54.07,1.08,1.25-.42,1.67,1.13.9,1.08,1.67.18.84,1-1-1-2.09a7.89,7.89,0,0,1-.66-1.91,20.61,20.61,0,0,0-.95-3.05A10.6,10.6,0,0,1,40,77.61c.12-.18-.72-1.37-.72-1.37l.42-2.45,1.73.36s.3,2.26.3,2.51.42,1.67.42,1.67l2.27,3.16-.36,1.62,4.36,5.19-.06,2.1-.66,1,.36,1.44,3.65,2.69.6-.12,1.07,1.07,3.94,2,2,.48,2.34-.72,1.49.72,2.27,2.62,2.33.6,2.39.84h1.14l.3,1.37a18.47,18.47,0,0,0,1.31,1.55c.24.18.06,1.74.06,1.74l1,.53,1.19,1.26.78.72.84.95.53-.35,1.08.29L80,112.51l1-.6-.3-1.13,1-1h.84l.9.72-.06.83,1.07,1.73.06,4.84-1,1.56-1.32.9-.06,1.43-1.37.53-.54,1.92L79.35,126l.18,1.43,1.2,1.08-1.08,1.14-.77,1.13.71,2.27a8.89,8.89,0,0,0,.35,1c0-.11,1.15.79,1.15.79L83.18,139l2,2.94s3,5.94,3,6c.9.66,7.4,5.34,7.4,5.34l1.11,5.81L97,171.32l.95,3.51-.4,7.09-.31,1.43a18.88,18.88,0,0,1,1.27,2.55c0,.32.24,3.11.24,3.11l.87,3,1-.08-.64-1.75.8.08.55,2.78.08,1.11-.63-.55-.56.55-.4.48.8.72-.4,1.11-.16,1.44,1.12.16.79.64-.79,1.35s4.93,8.69,9.08,9.72l5.34,1.35,1.75-1,.55-.72-3.66-1.27-2.79-3-.56-1.59.88-.64-.16-1.2s0-.87.32-1.11a7.32,7.32,0,0,0,1-1.43l-1-.48-1.59-1.59.16-1.84,1-.55a3.74,3.74,0,0,0-.08-1.28,2,2,0,0,1,.48-1.51c.24-.09.87-1,.87-1h-1.11l-.63-.24-.8-1.27v-1l1.35.4,1.28-.24.72-1s-.24-.63-.32-.87.16-1.28.4-1.36a11.41,11.41,0,0,1,1.67.08l2.71-.71a9.26,9.26,0,0,0,1-2.15,9.82,9.82,0,0,1-.08-1.36s0-.71-.63-.8-.64-.31-.8-1a5.36,5.36,0,0,0-.64-1.35l-.8.16.72-.71,1.6,1.19,2.38.4,1.84-1.83,1.27-3.11.56-2.31h1.19l1.28-2.31.48-2.15-.4-2.64.56-.95,4.14-2.79,3.11-1,1-.8a20.64,20.64,0,0,0,1.58-2.39c0-.24.64-3.35.64-3.35s.72-3.66.64-3.9.16-3.42,0-3.5.08-1,.08-1l3-4.3,1.43-3.27s1-1.67.88-2-1-3-1-3ZM174.59,15.89s.48-2.39.12-2.63,1.44-1.67,1.44-1.67,2.62-1.2,2.74-1.55-.71-.25-.71-.25L178.41,8l1.68-.6a13.59,13.59,0,0,1-1.2-2.15c-.23-.71,2.87-1.07,2.87-1.07l5.5-2.51-6.57.72-.24-.84L173.51,0,159.66.48l-1.56.83h-4.78l-6.69.6s-6.33.84-6.69,1.07.71.6.71.6l-.11.84-7.78,1-.47.83,1,1c.12.12,3.35.83,3.35.83l3.82.48a17.76,17.76,0,0,1,2.51,1.31c.36.36.25,1.44.12,2s-.47.72-.95,1.43.95.36.95.36l1.68.84a8.08,8.08,0,0,0-1.2.12c-.72.12-1.67.35-1.67.35l-.12,1.32,2.39-.47-.24.83-1.67.36-1.67,2-.13,3.82.36,3.23,1,2.63,1.55.24,1.8,1.07,2.39-.12,2.38-3.23,2.51-2.39.72-1.31,1.2-.72,2.62-.59,3.35-.72,3.47-2.27c.35-.24,9-2.87,9-2.87l1.91.12ZM177,24.61l3.35-1.07.71-1.31-1.31-1.08-6.1.72-1.79-1.08L169.69,22s1.08.48,1.44.71,1.07-.23,1.07-.23v1.07s1.91,1.07,1.67,1.44,3.11-.37,3.11-.37Zm5.9,16.29-.68.45-.2.75.6.36,1,.2,1-.24.84-.48.23-.23,1.4-.09.16-.59.32-.6V38.72l.76-.44L188,37.16l-1.19-.27-.95-.16-.64.19-.36.52-.48.52c.13-.12.44-.12.37.08a1.28,1.28,0,0,1-.41.4h-.47l-.41-.24-.59.08-.2.36.24.55-.4.4.48.4.47.12-.07.56Zm4.74-4.69c.28.11.39.28.35.39s.6.2.6.2l.52-.11-.36.55a1.78,1.78,0,0,0,.2.52c.12.16.52,0,.52,0a7.39,7.39,0,0,1,1.08-.12c.11,0,0,.4,0,.4l.36.56s.19.79.23,1-.32.16-.32.16a5.09,5.09,0,0,1-.91.08c-.16,0-.48.28-.76.6s0,.2,0,.2h.6s0,.39.08.56-.48.31-.63.27a3.5,3.5,0,0,0-.88.32l0,.6.88.08.88.12.16.28s-.56.12-.72,0-.64.64-.64.64l-.43.47-.92.72.51.24.32-.4.8,0,.87-.12s.53-.64.65-.64l1.35,0a4.57,4.57,0,0,1,1.12-.12,8.83,8.83,0,0,0,1,.28c.11,0,1.67-.44,1.67-.44s.31-.52.39-.68-.43-.32-.55-.44.39-.27.64-.39.31-.56.43-.76-.16-.6-.2-.72-.59-.08-.75-.12a4.87,4.87,0,0,0-.84,0l0-.8s-1.87-2.55-1.83-2.67a1.78,1.78,0,0,0-.64-.91,1.23,1.23,0,0,1-.68-.52c-.24-.32.32-.72.32-.72s.67-.71.76-.87a.81.81,0,0,0-.2-.68c-.12,0-1.51,0-1.51,0s-.4-.32-.36-.44.43-.16.56-.16.83-1.39,1-1.43-.12-.4-.12-.4l-.56.23-.51.77s-.49.12-.68,0-.6,0-.76,0-.52.47-.52.47a3.69,3.69,0,0,1-.72.64,2.32,2.32,0,0,0-.67.72,3.14,3.14,0,0,1,.08.56.56.56,0,0,1-.32.23c-.2,0,.16.72.16.72l.48.24s-.28.28-.44.24-.52.4-.24.52ZM375,27.56s0,0-.05,0S375,27.59,375,27.56ZM326.07,97.87c.08-.12,1.2-.68,1.24-1a20.39,20.39,0,0,1,.83,2.59l.57,2a17.92,17.92,0,0,0,.59,1.72,12.87,12.87,0,0,1,.39,2.27c0,.16.53,1.23.29,1.35s-.64,0-.56.2a6.3,6.3,0,0,1,.27,1.2,9.38,9.38,0,0,1-.19,1.43,3.69,3.69,0,0,0-.12,1c0,.24.15.68.15.8a.84.84,0,0,0,.13.32s.16.08.23-.12.68-.28.77-.2a8.24,8.24,0,0,1,1.07,1.47,16.14,16.14,0,0,0,1.19,2c.12.16.64.67.32,1.11s-.32.52-.28.76a3.65,3.65,0,0,0,.56,1.59c.4.48,1.23,1.39,1.23,1.39a14.07,14.07,0,0,1,1.2.92c.16.2,1.31.32,1.44.8a3.58,3.58,0,0,0,.43,1s.92.27.92.4a9.16,9.16,0,0,0-.12-1.68c-.12-.2-1.07-2.15-1.2-2.27a.94.94,0,0,1-.19-.91,8,8,0,0,0-.08-1.88l-1.88-2.23a18.07,18.07,0,0,0-1.67-1.51c0,.07-1.28-.48-1.23-1a3.3,3.3,0,0,0-.48-2c-.36-.28-.68-.72-1-.88s-.07-1.67,0-1.87a17.76,17.76,0,0,0,.68-2.07c0-.12.16-1.75.16-1.75s.52-.68.64-.44.67,0,.51.71a3.32,3.32,0,0,0-.07,1.16l1.43-.28,1,1,.72,1,.91.56a5.17,5.17,0,0,0,.36,1.15c.12.09.72-.23.72-.23l.91.64s-.52.95-.39,1.19a6.85,6.85,0,0,1,.23,1.08l.88-.72,1.12-.84.55-.8.2-.59,1.59-.68,1.52-1.4,0-2.94-.48-1.83-1.35-1.92-2.63-2.62-1-1.28s-.72-.91-.69-1.15.2-1.52.2-1.52l.72-.67,1.4-1.4s.95-.64,1.11-.48,1.43.12,1.47.24.21.08.12.32a3.27,3.27,0,0,0,.16,1.43,1.66,1.66,0,0,0,.52.28c.11,0,.52-.12.56-.36s0-1.07,0-1.27.12-.2.24-.24a4.14,4.14,0,0,1,.71,0l.64-.64,1.12.4,1.19-1s.64-.11.72,0,1.12-.8,1.12-.8l1.07-.24.95-.4s.4-.92.4-.8,2.32-2.3,2.32-2.3l.75-1.88.92-2.67.55-3.31,0-1s-.87.72-1,.76a3.92,3.92,0,0,1-.84-.16l.56-1s.32-.71.16-.75l-1-.28s.34-.78.4-.84-1.39-1.35-1.39-1.35-1.75-2.51-1.83-2.31-1.44-1-1.56-1-.2,0-.27-.2,1.19-1.91,1.23-2,1.15-1.36,1.36-1.31.87.07.87.07-.16-.79-.28-.83-2.83-.28-2.83-.28a5.86,5.86,0,0,0-1.11.8c0,.16-.91.08-.91.08l-.13-.92-1.08-.52-1.23-.43,0-.84s.76-.28.88-.36,1.07-.56,1.15-1,.72-1,.8-1.15.59-.56.71-.48.89.64.8.68-.59.87-.48,1.11.68,1,.6,1.08l-.32.56.6-.08s.76-.6.72-.68.6-.76.71-.76,1.44-.28,1.48-.16a6.62,6.62,0,0,0,1.35.44l.24,2.39a19.35,19.35,0,0,1,3.19,1c0,.2-.36.51-.36.51s0,.64.12.72a4.25,4.25,0,0,1,.8.68,7.79,7.79,0,0,1,.36,1.24s-.44.95-.36,1.07.87.84.87.84l2.28-.88A10.68,10.68,0,0,0,364,67.72c0-.13-1.32-3.31-1.32-3.31l-3-2.08-1.31-1.07,1.83-1.79L360,57.92a11.11,11.11,0,0,1,.48-1.52,13.88,13.88,0,0,0,1.2-.8l1.27.88,1.91-1.19,1.08-3.86,0-5-1.71-3.06a13.46,13.46,0,0,0-.92-1.87,16.51,16.51,0,0,1-1.27-1.8l-2.67-1.19-1.16,0-.71,1.19-.76-.91-1-1.84.11,1.12a4.12,4.12,0,0,1,.12.87c0,.16-.8-1-.8-1s-1.27-.24-1.35-.24a6,6,0,0,1-.72-.36s1.88-2.19,1.72-2.11a17.56,17.56,0,0,1,.32-2.79,9.55,9.55,0,0,1,.71-1.27c0,.08,2.63-.28,2.63-.28s4.74-.08,4.7,0,2.31-.16,2.31-.16.08.68.28.76a17.65,17.65,0,0,0,2.11,0l1.39-.32.68-.08a6.86,6.86,0,0,0-1-.84,7.31,7.31,0,0,1-1-.4c-.08,0,.6-1.55.56-1.79s-.12-1.07.2-1,2.47.08,2.47.08.87.83.87,1.07,1.4,1.08,1.4,1.08a11.55,11.55,0,0,0,.83-1,2.76,2.76,0,0,1,.63-.65,10.51,10.51,0,0,1-.82-1s.67-.76,1-.36a15.35,15.35,0,0,1,1.16,2.11s-.72,1.79-.72,1.95-.28,1.8-.28,1.92-.8.83-.8.83-.39,0-.39.2a8,8,0,0,0,.55,1.27A6.72,6.72,0,0,0,375,35.8c.12.09,4.1,3.55,4.1,3.55l2.59,2.56,1.68,1.39.47-.12s.4-2,.24-1.88-.79-.59-.71-.71.23-.68.43-.64l.8.16-1.19-1.52.39-.83.92.28-1.23-1.31-.64-1.28s.68.16.72.27.76-.51.52-.55a6.51,6.51,0,0,1-1.68-.68c0-.12-.83-.32-.88-.48s.16-.79.05-.79-1.36-.56-1.36-.56l-.8.12L379,31.9l.24-.67s-.76-1.09-.83-1.16a15.73,15.73,0,0,0,1.86-.63s.77-.07.84.23a1.73,1.73,0,0,0,.44.64l.84-.8s.6-.52.84-.4a14.06,14.06,0,0,1,1.55.52c.15.15.87.35,1,.48,0-.16,0-.68,0-.68l0-.44,1.12-1.51s.44-.64.84-.72,1.23-.79,1.39-.67,1.48.08,1.64.44.87-.12.87-.12-.68-.84-.71-.76-2.24-.88-2.35-.84a11.23,11.23,0,0,1-1.59-.87s-.77-.28-.8-.28a5.42,5.42,0,0,1,.83-.4c.24-.08.8-.84.8-.84a4.47,4.47,0,0,0-.44-.67c-.16-.16.88,0,1.23.12s2.16.23,2.12.35,1.19.12,1.15.44.44.4.6.56a11.2,11.2,0,0,0,1.75.44c.08,0,1.59-.12,1.59.11s.48,0,.48,0-.24-1.16-.52-1.08-.8-.32-.44-.4,1-.47.84-.55a8.63,8.63,0,0,0-1-.68,10.86,10.86,0,0,0-2.59-.56c-.2.08-3.19-.64-3.38-.64a11.85,11.85,0,0,1-1.24-.27l-10.2-2.75s-6.33-.68-6.3-.8a36.23,36.23,0,0,0-3.66-.44L370,17.4l-2.2-.31a26.32,26.32,0,0,1-2.78-.56c-.09-.12-7.58-.16-7.58-.16l-1.11-1.2s-3.59-.59-3.71-.63-4.58,0-4.58,0L344.33,14a12.23,12.23,0,0,0-3.08-1,45.75,45.75,0,0,1-6.37-.52,11.55,11.55,0,0,0-2.5.16L334.16,14l-2.94-.08-3,0-1.12-.56L327.2,15s-.84.16-.84,0a14.43,14.43,0,0,0-2.59-1.11A23.85,23.85,0,0,0,321.58,12a33.81,33.81,0,0,1-3.5-.68l-2.16-.4s-.64.28-.56.44.92.72.8.84a5.74,5.74,0,0,1-1.43-.12L311.34,12l-.6-.64-4.46,0a16.87,16.87,0,0,0-1.71-1.24,8.3,8.3,0,0,1-1.28.29l-1,1-2.71.2,2.91-1.56,1-.75c.07-.2-.73-1.4-.88-1.24a13.81,13.81,0,0,1-2.55-.56l-3.55-.08c-.24,0-1.31,0-1.31,0s-.4-1.11-.6-1.07-2.79,0-2.79,0a10.27,10.27,0,0,0-2.4.72c-.07.24.45.47.45.47s-1.24.92-1.36.84-3.7-.08-3.7-.08-5,1.07-5,.95a11.31,11.31,0,0,0-1.84.69c.3.26,1.34.85,1.2,1a11,11,0,0,1-3.62.08c-.11-.22-1.43.29-1.64.32a13.81,13.81,0,0,1,1.91,1.51.65.65,0,0,0,.8.32c.4-.16.76-.32.84-.16a1.08,1.08,0,0,1,0,.52s-1,.2-1.11.2-1.32-.68-1.44-.72-1.71-.4-1.91-.4-1.08.12-1.08.12-.68.6-.52.68.56.84.68.76.84-.4.88,0-.84.64-.84.64a7.75,7.75,0,0,1-1.24-.6c0-.13-.59-.8-.59-1.16s-.72-1.63-.92-1.43a2.22,2.22,0,0,1-.91.28l.87.79s.76.64.56.68a1.84,1.84,0,0,0-.79.48c0,.12-.48.79,0,.79s1.36.8,1.36.8a8,8,0,0,0,.12,1.24,11.27,11.27,0,0,0,1.31,1,10.12,10.12,0,0,0,.87-.6c.13-.12,1.16-.31,1.4-.08s-.48.84-.67.72a1.29,1.29,0,0,0-.84-.16l-.2.08s-.28.6,0,.72.64.51.6.71-.8,1.56-.8,1.56l-1.12.23a6.19,6.19,0,0,1-1-.35l1.19-.92.16-1.23s.05-.08-.27-.36-1.44-1.27-1.44-1.27a11.53,11.53,0,0,1-.68-1.24,4.28,4.28,0,0,0-.31-.72,6.73,6.73,0,0,0-.92-.55c-.16,0-.16-.48,0-.72s-.12-1.31-.16-1.16-1.4,0-1.56-.08-.51-.47-.51-.47-.2-.68-.52-.4a2.32,2.32,0,0,1-.88.4l-.55,1.47.16.6-1.12.75,1,.88a3.7,3.7,0,0,0,.09,1c0,.2,1.71.64,1.71.64s.87.35.95.71a1.22,1.22,0,0,1-.24.8l-1.71-.8-3.79-1.19a33.89,33.89,0,0,1-3.58-.36c.08-.12-1.39-1-1.39-1l-.84.44a10.64,10.64,0,0,0,.92.6l1.31.48a1,1,0,0,1,.44.52c.08.31-.68.71-.68.71a3.54,3.54,0,0,1-.51-.67c0-.12-.13-.6-.28-.52l-1.64.83a8.52,8.52,0,0,0-1.87.2c-.2.16-1.27.92-1.35.72s.15-1,.12-1.2-1.68.28-1.68.28a11.92,11.92,0,0,0-2.19.88c-.08.2-1,.4-1.2.44a1.63,1.63,0,0,1-.35,0s-.83.52-.68.79-1.15.44-1.15.44a5.89,5.89,0,0,1-.88-.63c0-.11.91-.75,1-.8-.12.08-1-1-1.12-1.08s-2.27,0-2.65,0a3.51,3.51,0,0,1,1,.95c0,.12.12,1.27.12,1.27s.63.41.75.36-.12.68-.12.68l-1.07-.12s-.44-.64-.8-.28-1.55,1.28-1.63,1.16-.76.12-.72.36a2.75,2.75,0,0,0,.56.75s-.75.64-.68.4-2.07-.8-2.23-.75-1.08.31-1.08.31l.4.68s1.2.08,1.36.32-.28.71-.4.71-2.91-1.31-2.91-1.31-.91-1-.64-1.23.52-.72,0-.72a1.46,1.46,0,0,1-1.11-.56,21.43,21.43,0,0,1,3.14.32l1.84.2s-.24.24.48,0,1.91-.84,2.07-.87.36-.8.36-.8l-.24-.68-6.85-1.63a19.87,19.87,0,0,1-2.31-.8,12.55,12.55,0,0,0-2-.32l-1,.12.8-1a26.56,26.56,0,0,0-3.19-.8,13.1,13.1,0,0,1-1.35.72l-2.39-.4-3.07.71-3.11.76-4.5,1.91,1.67.16L211,19.6l-2,1.47-1.11,1.83-.16,1-1.07,1.15a6.78,6.78,0,0,1-.92-.55,14.22,14.22,0,0,0-2.79.75l-1.59,1.52s-.4.75-.48.95A19.88,19.88,0,0,0,201,30s1,0,.68.27-.24,1.56-.24,1.56l1.11.75a10.88,10.88,0,0,0,1.68.44,6.79,6.79,0,0,0,1-.6c.12-.07,1-.95,1.28-.91s1-.76,1.07-.48a9,9,0,0,0,.4,1.51,6.1,6.1,0,0,1,.95,1.24c.24.56.57,1.11.48,1.23s-.64.68-.64.68a5,5,0,0,0-1.35.32c-.16.16-.36.24-.48.16s.4-.64.52-.8-.28-.8-.44-.76-.31-.36-.16-.48.12-.87.12-.87-.24-.12-.35-.08l-1.52.6a7.07,7.07,0,0,0-.79,1,2.79,2.79,0,0,0-.16,1.59,15.54,15.54,0,0,0,.67,1.56s.52.36.32.52a5.27,5.27,0,0,0-.6.75l-1,0s-1.71.21-1.88.28-1.82.6-1.75.76a10.18,10.18,0,0,1-.36,1.87,18.14,18.14,0,0,1-2,1.24c-.2,0-1.43.32-1.43.32a11.17,11.17,0,0,1-.6,1.39,15.88,15.88,0,0,0-1.87.87s-1.4-.39-1.44-.56-.51-.51-.55-.39.47,1.36.47,1.6.08.71-.08.55a6.59,6.59,0,0,0-1.11-.47,10.14,10.14,0,0,0-1.51,0h-.56s-.68.6-.72.48-.08.52-.08.52l.4.4,1.44.6,1.35.83.52,1.28.59,1.19s-.4,2.47-.47,2.59a10.06,10.06,0,0,1-.92.68l-2.59,0s-1.28-.28-1.4-.32-1.91.24-1.94.08-.6-.12-.6-.12l-.29-.32h-.71l-.6.68-.88,0v.71s.36,1.64.32,1.52-.16,1.91-.16,1.91-.86,1.73-.94,1.86-.05,1.17-.05,1.17l.52.84.08,1s-.4.91-.24.83,1.44,0,1.47-.12.8-.51.92-.24.56,0,.68.49a6.69,6.69,0,0,0,.6,1.27c0,.12.35.24.35.24l.12.32-.24.2-1,2.23L182.39,71l-1.31.83-.36,1-.55.64L180,74.68a9.63,9.63,0,0,1,.07,1.64c-.07.08-3,2.83-3,2.83l-1.6.35L174.62,81a12.64,12.64,0,0,0-1.27,1.32,9.83,9.83,0,0,1-.68,1s0,1.59,0,1.35S171,86,171,86s-.31,1.83-.39,1.91-.88,1.47-1,1.43-.24,1-.24,1.12.4.63.4.63.56,1.08.6,1,0,.36,0,.36l-.55.56a8,8,0,0,1,.6,1v2.46l-.64,1.36-.32,1.75-1,.76,0,.48.84.67.12.76-.24.83v.84l.6,1.4s.6.48.72.36,1.31.75,1.47,1,1.63,2,1.63,2.11a2.66,2.66,0,0,0,.24.48l.71,2.43s3.47,2.87,3.55,2.75,3.71,2.58,3.71,2.58,2.91-1.43,2.87-1.3a18.79,18.79,0,0,0,2.46-.13l1.52.24,1.11.52,4.07-1.87.79-.6,3.15-.12,1.51.59a10.89,10.89,0,0,1,1,1.72c0,.24.6,1.31.68,1.15a23.4,23.4,0,0,1,3.67-.27c.11,0,1.63,1.51,1.63,1.51l-.08,1.4-.24,2.47-.48,1.19-.48,1.08-.12.76s3.58,5.25,3.58,5.29.92,2.19.92,2.19l1.08,2.75.64,1.55-.64.88,1,2.67-.36,2.63-1.56,3.39-.67,2.5.2,3.35,1.86,3.86,2,4.43.2,4.86,1.55,2.9,1.12,2.35,1.07,2.55.56.76s.08,1.28,0,1.28-.72,0-.56.27,1.08,1.84,1.08,1.84l0,.71,1.27.72,1.12-.52a9.21,9.21,0,0,1,1.24-.16,14.19,14.19,0,0,0,1.66-.52l2.39.36,1.68-.87,1.83-.12s3.15-3.07,3.15-3,2.9-3.74,2.9-3.74l1.48-1.28.83-2.51-.11-1.63s.28-.84.55-1l3-1.75.56-2.63-.52-2.59a9.33,9.33,0,0,1-.4-1.15,5.78,5.78,0,0,1,.28-.88l2.63-2.35s.6-.76.88-1a26.06,26.06,0,0,1,2.74-1.35l1.68-1.63.28-6s-.6-2.23-.64-2.43-1.19-4-1.19-4.14-.4-2.47-.45-2.67.92-2.87.92-2.87l1.32-2.59,5.38-6.17,3-2.43,4.57-7.49,1.48-3.47.31-3.5-1-.16a6.45,6.45,0,0,1-.6.63c-.12.09-2.87.25-2.87.25l-3.34,1-1.64.6-1.59-1.67.24-1.2L251,101.85l-3-3s-1.52-1.16-1.43-1.28a21.73,21.73,0,0,0-.84-2.83c0,.08-1.52-1.39-1.52-1.39l0-2.67L242.46,88l-1.79-3.27S239.16,81,239,80.78s-.76-1.19-.56-1.15a15,15,0,0,0,1.63-.16s2.67,3.15,2.67,3.3,1.6,2.83,1.6,2.83a17.41,17.41,0,0,0,1.19,1.55,13.2,13.2,0,0,1,.24,1.68,18.25,18.25,0,0,0,.71,2l2.28,2,.47,1.48,2.07,2.27.41,1.43-1.4-1.28s-.44.72-.28.84,1.55,1.6,1.55,1.6l.69,2,.51,1.92.76.64,2.23-.44.4-.88h2.19l.95-.72,1.19-.16s.92-.91,1-1L265.13,99s.07-1.16.24-1.16,3.7-1.12,3.7-1.12l.36-1.35,1.27-.08.36-.91,1.24-.76.15-2,.92.27.28-.68-.32-.43,1.4-2,0-.72-1.36-1.23-.63-.68a12,12,0,0,1-2.24-.4c-.08-.16-.91-2.07-.91-2.07,0-.6,0-1.68-.08-1.6s-.8.84-.8.84l-2.46,2.27-2.16.56s-.71-.2-.75-.32-.12-2-.12-2a12.31,12.31,0,0,1-1-1.24c0-.16-.72,1.4-.72,1.4a8.54,8.54,0,0,1-.92-1.44c.12,0-.47-1.39-.47-1.39l-2.07-2.39L258,77.15A10.31,10.31,0,0,1,259.15,76c.16,0,1.59-.24,1.76.28s1.35,2.27,1.35,2.51a7.2,7.2,0,0,0,2,1.79,3.34,3.34,0,0,1,1.16.52,8.26,8.26,0,0,1,.91.64c.2.19.72.08.72.08l1.31-.2s1.08-1,1.12-.84,1.27.28,1.11.56a2.17,2.17,0,0,0,.16,1.31,49.32,49.32,0,0,0,5.5,1.08l2.47.32s2.62-.24,2.78-.24,1.84.16,2,.11a34.53,34.53,0,0,1,2.55,2.6l2.23,1.12.51-.05-1.27.56a11,11,0,0,1,.44,1.12A27.65,27.65,0,0,0,290.22,91a6.13,6.13,0,0,1,.91-.52c.12,0,.68-.2.72-.48s-.12-1.07.08-1.15.48-.32.52,0,.52,3.78.44,3.82.68,2.59.68,2.71,1,3.23,1,3.35,1.67,3.62,1.79,3.74,1.72,4.26,1.72,4.26a10.36,10.36,0,0,1,.87,2,4,4,0,0,0,.56,1.79,12.54,12.54,0,0,0,1.31.56,3.91,3.91,0,0,0,.64-.68,7.91,7.91,0,0,1,.64-1.11c.16-.25.88-.32.92-.17s.87.56.87.56l-.08,2s.16,1.27.28,1.76,1.12.87,1.12.87l1.19-1.07.52-1.84-1.19-1.79-1-1.11a3.26,3.26,0,0,0-.88-.24,3.26,3.26,0,0,0,.16.56c.08.16-.16.2-.16.2l-.92-.36.16-1s.69-.12.81-.12a7.69,7.69,0,0,0-.05-1.59s.24-2.83.32-2.91-.12-2.87-.44-3,0-1,.17-1.08,1.71-.6,1.71-.6l.87-1.71,1.68-1.16a15.29,15.29,0,0,0,1.9-2.23c0-.23.21-.83.68-.92a4.69,4.69,0,0,0,1.36-.71V90.3s.16-.63.52-.79a6.66,6.66,0,0,1,1.27-.28s.2.52.08.6,2-.6,2-.6,1,0,1.12,0,.64-.75.64-.75-.21-.65.07-.49,1,.88.88,1,.4.92.28,1.23,1.83,2.48,1.83,2.48.95-.44.88-.12-.28,1.31-.28,1.31a4,4,0,0,0,.83.44c.24,0,.92,1.35.92,1.35S323,96.83,323,97a15.1,15.1,0,0,1,0,1.52c0,.2,1.63.56,1.63.56s1.33-1.08,1.41-1.2ZM208,38.68l1.32-1.12.28-1.08s1.23.21,1.27.36.32-.36.64-.07.72.23.76.47.28.52.32.36a6.53,6.53,0,0,0,0-.68s-.35-.19-.55-.32a.37.37,0,0,1,0-.59c.19-.12.75-.44.91-.32s.88-.16.88-.16.12-.24.2-.36.48-1.2.48-1.2a.66.66,0,0,1-.36-.47,2.66,2.66,0,0,1,.56-1.44c.11,0,1.67-1,1.67-1s.6-.64.36-.84-2-1.08-2-1.28a6.79,6.79,0,0,1-.08-1.63,6.85,6.85,0,0,1,1-1.31c.12-.16,1-1.24,1.16-1.2a2.4,2.4,0,0,0,.91-.16c.17-.08,1.56-.71,1.32-.75s.08-.76,0-.72.12-.92.4-1,.75-.44.88-.44,1.07,0,1.31.08,1.07-.36,1.19,0,.44.43.16.55a8.15,8.15,0,0,0-1.31,1,11.34,11.34,0,0,1-1.76,1.19,2.38,2.38,0,0,0-.56.32c-.31.2-.31-.27-.39.48a4.93,4.93,0,0,0,0,1.87c.16.28.27.72.12.92s0,.32,0,.68.52.51.56.67.67.48.67.48c.32,0,.69-.08.76.08a.18.18,0,0,0,.24.08l.67-.16s.68-.4.93-.36.55-.08.83,0a15.9,15.9,0,0,0,1.64-.28c.15.05,1.27-.43,1.35-.27s.68.12.68.12l.47.35a2,2,0,0,1-.59.88c-.12.08-.52.4-.76.32s-.4,0-.72-.08a5.39,5.39,0,0,0-1.08-.28c-.15,0-2,.44-2,.44l-1,.28-.16.56.12.12,1,.59c0,.2.4.08.31.56a3,3,0,0,1-.23.92c-.13.24-.6.67-.72.39a3.83,3.83,0,0,0-.88-.91c-.15-.12-.63,0-.92,0a1,1,0,0,0-.83.84c0,.43-.28,1-.16,1.43s.64,1,.4,1.28a3.52,3.52,0,0,1-1,.59c-.24.12-.8.52-1,.6s-.8.32-.92,0-.36-.72-.36-.72-.2-.39-.28-.27-.51.16-.51.16l-1,.39-.67.48c-.13.08-.72.08-1,.2s-1,.72-1.16.44-.31.2-.56-.24-.16-.92-.44-.84-.91.24-1,.4-.16.16-.31.32a4.89,4.89,0,0,1-1.32.28v-.08Zm33,29.49a20.1,20.1,0,0,1-.72,2.57c-.42.78-.6,1.19-.9,1.68s-.3,1.13-.77,1.43-1.2.72-1.61.42a5.14,5.14,0,0,0-2.28-.18c-.18.06-2.2-.06-2.45.35s-1.78.13-2,0-3.16-1.31-3.4-1.37a14.37,14.37,0,0,1-2-.89c-.24-.18-1.73-.36-1.79-.54s.12-.42-.12-.36a16.61,16.61,0,0,0-2.21.77c-.24.19-.77.66-.77.66s-.72.72-.66,1.26.71,1,.48,1.25a3.92,3.92,0,0,1-1.08.66,8.61,8.61,0,0,0-1.19-1c-.3-.12-3.11-.53-3.11-.53l-1.13-1.32s-1.8-1.19-2-1.25a12.07,12.07,0,0,1-2.45-.24c-.3-.24-1.25-1.5-1.73-1.44s-.3-.71-.12-.83a3,3,0,0,0,.66-1.32c-.06-.18.3-1.19-.3-1.49s-.18-1.32-.18-1.32.6-.12.36-.12-1.14.06-1.38-.23-.3-.42-.53-.3a7.56,7.56,0,0,1-1.92.3c-.18-.06-1.61.11-1.85.11s.06.07-.24,0a2.74,2.74,0,0,0-1.55.72c-.06.24-1.25,0-1.43,0s-1.92.06-1.92.06l-2.87.48s-1.91,1-2,1.26-.66.78-.83.89-1.26,0-1.32-.18-2,.07-2,.07-.78-.43-1-.24-.23-.78-.23-.78l.29-.71,1.08-.72,2.57-.49,1.26-.83.77-.3.47-1.25s.9-.18.84-.36-.29-1-.29-1l1.73-2.68,2.45-1.2.41-.84s-.23-1.07-.05-1.25A9.41,9.41,0,0,1,199.8,55l2,.66s1.07-.72,1.31-.84,1.38-.78,1.38-.78.11-.53.36-.47,1.25-.18,1.37.3a14.62,14.62,0,0,0,1,2l1.37,1.43,1.32,1,1.61.59a10.59,10.59,0,0,0,1.13.9,9.12,9.12,0,0,1,1.08,1.08l.47.83a5.76,5.76,0,0,1-.53,1c-.24.3-1,1.08-1.14,1S211,63.4,211,63.4l-1.5.18a.47.47,0,0,0,.19.65c.41.3.89.24,1.31.48s1.5.72,1.5.72.72.12.72.29.23-.47.17-.89-.12-.95.3-1.07,1.07,0,1.07-.19a1,1,0,0,1,.19-.42l.53-.65-.06-.41.55-.43-.55-.65c-.23-.3-.47-.48-.3-.78s.78-.72,1.08-.48,1.19.36,1.13.66,0,.71.13.48a4.82,4.82,0,0,0,.06-1.2s-.48-.65-.9-.71a13.77,13.77,0,0,1-1.8-.72c-.29-.12-.83-.42-.83-.42s.24-.66-.12-.6-1.43-.12-1.43-.29-1.08-1-1.13-1.2-1-1.5-1-1.5a4,4,0,0,1-.6-.71c-.06-.18-.12-.48-.24-1s1.19-1.67,1.13-1.49.3.42.55.95,1.19,1.44,1.31,1.8a6,6,0,0,0,1.73,1.49c.3.12.47.48,1.07.72s.55.35,1.32.71.9.48,1,.66.6.12.78.42.42.36.42.66.24.29.12.89-.3.78-.24.9,1.14,2.33,1.56,2.33,1.67.48,1.49,1.19.77,1.67.77,1.67.8.06,1.35.15c0-.42-.06-1.09.39-1.34s1.31-.6,1.19-.9a2.38,2.38,0,0,0-.72-1.19c-.47-.36-1-.54-1.07-1.13s-.3-1.38.24-1.14,1,1.38,1.26.59.83-1.31,1.25-1.13,1.2.48,1.14.72a13.24,13.24,0,0,0,.53,2.15s.24.18.36,1.07.89,1.14.78,1.44-.48.47.48.59,1.85.3,1.85.54.77.36.89.54.84.54,1,.18.36-1.08.54-1,1.67.13,1.79.61,1.14.47,1.14.59.89-.29.89-.29,1.26-1,1.62-.78,1.37-.66,1.25.11.66,1.5.36,2.27Zm6-10.51c-.17.18-1.31,1.31-1.31,1.31l-2.27-.3H241.8l-1.31-.47a5,5,0,0,1-1.08-.48,7.7,7.7,0,0,0-1.31-.6l-2.39.54-1.86.54-.65.59L231,58.25l-1.31-.65-.72-.78h.65l-.23-1,.11-.65.6-.36.42-1.73.72-.3.18-.9s.6-.54.78-.72.77-1,.77-1l1.43.6s1.5.18,1.26.24-1,.89-1,.89.54.3.79.48.77.48.65.84.89.3.89.3l.36-.6,1.67-.42.6-.3-1-.29s-.83-.31-.71-.49l.9-1.37s2-.6,2.15-.6,1.37-.24,1.37-.24-1,1-1.08,1.14.07.77-.23,1a4.31,4.31,0,0,1-.9.54c-.18,0-.06.65.12.71l.78.3,2.63,1.37,1.61,1.62,1.26,1s.53.53.35.71Zm15.18,7.88-1.5.18s-1.31-.54-1.37-.77-.36-.78-.54-.66a1.74,1.74,0,0,1-.95.12c-.18-.06-.84-.6-.84-.84s-.18-.77.12-1,.9-.66.77-.84a4,4,0,0,1-.18-1.08c0-.12,0-.23.37-.29l.35-.06s.12-.36-.06-.54-1.26-1-1.37-1.14-1.44-1.43-1.62-1.61a10.8,10.8,0,0,0-1-.71l-.42-.9.36-1.14L253.22,54l-.24-.77v-.18l1.13-1.31s.78-.42,1-.31.59-.35.66-.53a6.3,6.3,0,0,1,1.43-1.08c.24-.12.65-.66.9-.36a6.59,6.59,0,0,0,1.72.78s.55.12.48.35-.54,1.8-.54,1.8a5.94,5.94,0,0,0-1.19-.24c-.11.06-.95.36-.77.84s-.66.18-.6.42a1.37,1.37,0,0,0,.36.71c.18.12,1.19.66,1.31,1s1.79,1.43,1.79,1.43a.33.33,0,0,1,.12.36c-.05.24-.18,1.5,0,1.5s.6-.06.6-.06.54-1.14.72-1a3.67,3.67,0,0,1,1.08,1.08c.17.41.53.83.35,1a4.27,4.27,0,0,1-1.25.06c-.24,0-.66-.3-.78-.18a.66.66,0,0,0-.18.77,3.8,3.8,0,0,0,.72,1,2.44,2.44,0,0,1,.9.53c.53.48.71.72.53,1.26a1.92,1.92,0,0,0,0,1.19,4.17,4.17,0,0,0,.3.78.83.83,0,0,1,.12.41ZM240.56,17.77h-.05S240.51,17.77,240.56,17.77ZM385.74,30.15s0,0,0,0S385.73,30.18,385.74,30.15ZM278,10a.13.13,0,0,0,.07,0S278,9.9,278,9.88,278,10,278,10ZM261.06,143.43a16.08,16.08,0,0,0-1.35,1.68c-.09.24-1.12,1.51-1.28,1.91s-1.43,1.27-1.43,1.27l-2.31,1s-.8.08-.56.4a4.09,4.09,0,0,1-.72,1.35,1.61,1.61,0,0,0,0,1.67l.32,1.6v1.51s-.48,1.68-.72,1.75a2.22,2.22,0,0,0-.87,1.36,3.43,3.43,0,0,0-.16,1.35s.16,1.2-.08,1.44.4,1.43.64,1.83a2,2,0,0,0,.87.64s.56.48.8.63,1.43-.31,1.43-.31.88-.4,1.12-.56.4-.24.87-1,.17-.56.24-.8a12.8,12.8,0,0,0,.8-2.63,18.06,18.06,0,0,1,.64-2.47,15.59,15.59,0,0,0,.79-2.47,10,10,0,0,1,.24-1.68,10.93,10.93,0,0,0,1-2.31,3,3,0,0,0-.08-1.51c-.16-.32,1-.08,1.11-.56s0,0,.08-.23a18.76,18.76,0,0,0,.17-2.63,7.18,7.18,0,0,0-1-2.47c-.07-.24-.55.31-.55.31Zm79.59-11.55c.24-.63,0-.71-.16-1a3.25,3.25,0,0,1,.95-2.31c.64-.56-.31-.64-.31-.64l-1,.16-.88-1.68s-1.51-1.19-2-1.51.71-1,.71-1a25.21,25.21,0,0,0-3-2.55,19.57,19.57,0,0,1-2.15-1.36,15.69,15.69,0,0,1-1.51-2.23l-5.42-2.71s-.72.64-.72,1,1,.48,1,.48a5.92,5.92,0,0,0,.63.39c.32.16,1.28,1,1.36,1.52a1.86,1.86,0,0,0,.8,1.35,4.4,4.4,0,0,0,1.51.72s.4,1.35.72,1.51.56.88.71,1.28,1.68,2.87,1.59,3.74,1.12,3,1.12,3a24.77,24.77,0,0,1,2.79,2.47c.08.32,2.07.88,2.07.88a4.9,4.9,0,0,0,1.2-1.44Zm18.48-16.33c0-.32-.88-1-1.12-1.35a21.68,21.68,0,0,0-2-1.84c-.31-.23,0,0-.47.88a7.61,7.61,0,0,1-1.28,2A12.36,12.36,0,0,0,351.8,117c-.48.56-1.43,2-1.75,1.76s-1.68,1-1.68,1l-.71,1.75-2.23-.47.15.72s-.71,1.11-.55,1.35,0,1.12.24,1.59a3,3,0,0,0,.87,1.12,2.35,2.35,0,0,1,.24,2.15c-.24.8.32,1,.64,1.28a1.23,1.23,0,0,0,1.35.15,1.37,1.37,0,0,1,1.36-.07c.39.23,1.43.23,1.75.63s1.59.16,1.83.4,1.52-.24,1.83-.56,0-.95,0-2,.16-1,.72-1.35,1-.72,1-1.28a19.17,19.17,0,0,0,.24-2c0-.48,1.27-.4,1.51-.56s-.16-.48-.16-.71-1-1.36-1.27-1.76a4.29,4.29,0,0,1,.79-2.71,4.78,4.78,0,0,0,1.12-1.91ZM348,137c.23.08.79.08,2,.4s2.32.4,2.48.72,1.19,0,1.67-.08,1.6-1.12,2.31-.32,2.15.24,2.39.4,1-.4,1.83-.32,1,.32,1.2.32a6.47,6.47,0,0,0,1.43.15c.4-.08.88-.55,1.6-.47a10.57,10.57,0,0,0,2.62-.56s0,.08-.47.4-2.07,1.51-2.07,1.51-.24-.16-.33.32-.55,1.43-.07,1,2.15-1.83,2.55-2.15a6.7,6.7,0,0,1,.95-.71,6.94,6.94,0,0,1,1.28-.48l.56-.4s-.48-.32-.72-.24-.64-.32-1.2-.08a13.42,13.42,0,0,1-2.07.48,3.38,3.38,0,0,1-1.51-.08c-.56-.24-1.2-.64-1.44-.32a4.33,4.33,0,0,1-1.83.72,9.69,9.69,0,0,1-1.75-.24,3.6,3.6,0,0,0-1.12-.16c-.31,0-.31-.23-1.19-.32s-1.12-.31-1.35-.24a6.47,6.47,0,0,0-1,.33,2,2,0,0,1-1.51-.09,14.64,14.64,0,0,0-2.64-.71s-.31-.4.41-.64.56-.24.47-.55-1.27-.33-1.59-.24-1.12.24-1.44-.09-1.27-1.12-1.59-.64-.16,1.12-.48,1-2.47.16-2.47-.07a1.93,1.93,0,0,0-.8-1c-.23-.07-.15-.31-.55-.48a2.57,2.57,0,0,0-1.2.09l-.79.08-1,1.11a8.24,8.24,0,0,1,2.47.56,14.79,14.79,0,0,0,1.44,1.27s1.59.4,2,.48,2.23.16,2.47.24Zm-2.63-44.69a2.26,2.26,0,0,0-.88-.16l-.8.32-.39-.16-.88,1.2s.24,1.35.48,1.35H344l.88-.64.48-1.19S345.58,92.45,345.35,92.29Zm12.9-3.19.48-.95s.24-1,.32-1.2.39-1,.16-1.35-.08-1-.24-1.28a3.27,3.27,0,0,1-.24-.79l-.8.31a8,8,0,0,0-.79,1.76s-.32,1.43-.08,1.75l.87,1.19Zm10,24c.72.24,1,.09.87-.24s-.31-2-.47-2.62.95-1.12-.24-2.08-1.11-.87-1.19-1a3.51,3.51,0,0,1-.08-.87s.23-.8.08-1-.32-.72-.48-1-.16-.32-.64-.32-.48-.56-.8-.48-1.11.72-.56-.23.25-1.12.25-1.28-.41-.4-.8-.48-.72-.56-1.28-.4-.79-.23-1.11-.23-.48-.4-.56-.88a10.1,10.1,0,0,1,.08-1.67,3.52,3.52,0,0,1,.48-1,1.29,1.29,0,0,0,0-.88,10.87,10.87,0,0,1-.48-1.91c0-.39-.88-.79-.88-.79l-1,.39-.39,3.51s-.72.24-.64.55.08,1.84.48,2.16,1,.71,1,.71c.15.4-.24,1.2-.24,1.2a9.06,9.06,0,0,1,1,1.44c.07.31.55.15.55.15s-.23-2.15.24-1.75,1.75.32,1.83.8,1,1,1.11,1.43,1.2.64,1.13,1-.73.4-1.13.48-1.67-.87-1.67-.87-.31-.08-.39.39a3.83,3.83,0,0,0,.47,2.07c.32.41.64,0,.8.24s0,.8.24,1.12a1,1,0,0,0,1.12.24c.24-.16,1-.56,1-.56s-.08-1-.4-1.12-.79-.63-.55-.87.71-.72.95-.64a2.27,2.27,0,0,1,.72,1.36c-.08.23,0,.32.32,1.19s.48.72.08.88a5.87,5.87,0,0,0-1,.8c-.05,0-.06.06-.05.07a2.74,2.74,0,0,0-.59-.07c-1-.08-.8-.56-1-.08s-.47.87-.47.87l-.56.24a6.12,6.12,0,0,0-.32,1.67l.08.4s.8-1.51,1-1.51.23.4.55.16a.65.65,0,0,1,.65-.08s.47-.24.39.39a2.15,2.15,0,0,0,.16,1.36c.24.64.88,1,1.12,1.2s.55.39.71.55.24-.71.16-1.35-.4-1.12.32-.88Zm-5.57,9.64a12.22,12.22,0,0,0,2.14,1c.73.24,1.44-.48,1.6-.32s.88-.56.88-.56.55-.8.47-1-.16-1-.32-.72a8,8,0,0,1-2,1.19c-.31.08-1.11-.24-1.83-.24s-2.47-.56-2.71-.32-.95,1.2-.88,1.6a2.83,2.83,0,0,1,0,.88c0,.24-.23,1.35-.23,1l-1.12,2.95a13,13,0,0,1,.8,2.63c-.08.4-.24,2.63,0,2.39a4.35,4.35,0,0,1,1.43-.4,8.23,8.23,0,0,0,.33-2.07c-.09-.64-.81-2.63-.17-2.47a3.13,3.13,0,0,1,1.28.95s-.48.49-.32.8.72.72.64,1.44.24,1,.24.79.79.16.87.32.83-.52.94-.52c0-.24.13-1.21-.06-1.47a7,7,0,0,0-.8-1.43c-.56-.65.16-.8-.4-1.52s-.79-.48-.55-.72a6.44,6.44,0,0,1,1.11-.63,2.54,2.54,0,0,0,.72-.88c.08-.24.24-.16-.4-.32s-1.2-.32-1.59.16a1.57,1.57,0,0,1-.8.56l-.32.08c-.32.08-.24-.48-.48-.56s-.24-.16-.39-.71a1.92,1.92,0,0,1,.24-1.6,1.38,1.38,0,0,1,1.67-.24Zm2.06,9.32s0,0,0,0S364.77,132.09,364.78,132ZM396,132a4.21,4.21,0,0,0-.39-1.43,47.94,47.94,0,0,0-6.06-3.35c-.64-.24-4-1.27-4-1.27s-1.6.63-1.6.87a5.36,5.36,0,0,1-1.11,1.44c-.32.32-.24.64-.72.56s-.55,0-.8-.24-.47-1-.79-1.28-1-.55-.8-1.19.39-1.51-.08-1.51-1.19.32-1.35.07-1.12-.15-1.12-.15l-2,.56-.24.08s.88,1.67,1.44,1.51,1.59,1.11,1.59,1.11-.32.72-.16,1,.8,1.43.8,1.43l1.27-.08,1.27.56,3.43,1.12,1,1.11.56,2.39s-1.44,1-1.36,1.35,1.84-.07,1.84-.07l1.43.71,1.75.88,2,.07L393,136.9s1.75-1.51,1.75-1.19,1.6.95,1.84,1.67a7.86,7.86,0,0,0,1.68,2l2.22.71c.24.08.8.16,1.36.32s-.56-1.44-.56-1.44-1.75-1-1.83-1.43-1.51-1.59-1.43-2-.65-.87-.32-.87,1.59-.16,1.43-.41-1-1.75-1.43-1.75-1.59,0-1.68-.48ZM398.72,159s-.87-.4-1-.24-.4-1.51-.4-1.51l.16-.88s-2.4-3-2.47-2.79a13.85,13.85,0,0,1-.88-2.47l-.24-2.94-.55-1.76-1.44.16-.32-2.87-.8-2.7-.39-.16-.8,1.83s-.4,2.55-.56,3.43a9.59,9.59,0,0,1-.71,2.94c-.48.8-1.6,2.71-1.6,2.71s-1.27,0-1.43-.24a9.29,9.29,0,0,0-1.59-1l-.88-1.35-1.43-1.11s-1-1.2-1-1.12a7.79,7.79,0,0,1,1-1.27c.25-.16.32-1,.32-1l1.28-1s.23-.39,0-.63-.24-.64-.56-.72a9.36,9.36,0,0,0-2.15.8l-1.52-.72a4.75,4.75,0,0,1-1.35-1c-.24-.39-.88-.63-1-.48s0,1,0,1,.33.7.45.92c-.15-.12-.69.28-.69.28l-1.51.15-1,.88-.71,1.36-.48,1s.4.64.24.56a16.3,16.3,0,0,0-2.31.56,10.49,10.49,0,0,0-.8-1.44,2.75,2.75,0,0,0-1.28-.63c-.31,0-1.11.71-1.11.71l-.32,1.67-1.19-.31-1,1.75-1,.4-.56,1.19-.32-1.27-1.19,1.11-.4,1.83a18.57,18.57,0,0,0-1.68,1.76,22.06,22.06,0,0,1-3.51,1.52l-2.14.71s-1.12.24-1.36.24a19.3,19.3,0,0,0-2.31,1.51l-.71.72-.24-.64-.88,1v2l-.88,1.19.48,1.83-.71.25-.64.48.72,1.43.24,2.62a2.87,2.87,0,0,1,.31,1.28c-.07.48-.4,1-.4,1.27s.24,1.52.24,1.83a22.59,22.59,0,0,1-.72,2.4l-.87,1.43-.71.08s.15,1.52.39,1.52a8.58,8.58,0,0,1,1.59.56,3.39,3.39,0,0,0,1.92-.25c.24-.08,2-1,2-1s1-.72,1.35-.64,1.76-.16,2,0a9.54,9.54,0,0,0,2.08.08l1.11-1.19,3-1.36,1.52-.16,3.65-1,3.11.32a25,25,0,0,0,2.63,1.75c0-.16.56,1,.56,1l-.16,1.51s.88.71,1,.48a9.54,9.54,0,0,1,1.2-1.44c.23-.24,1-.55,1.51-1a3.1,3.1,0,0,0,.71-.64s-.55,1.59-.79,1.59-.72.48-1,.8-.63.56-.63.72.47.15.71,0a10.16,10.16,0,0,1,1-.8c.32-.16.48-.08.39.32s-.07.79-.39.95-.72.4-1.28.72-.95.08-1.19.32.15.48.31.64.57.64.88.08a3.56,3.56,0,0,1,1-1.12c.24-.15.71-.64.71-.24a5.08,5.08,0,0,0,.32,1.12c.09.32-.55.95-.48,1.11s.89,1.92.89,1.92a1.58,1.58,0,0,0,1,.63,9.07,9.07,0,0,1,2,.48c.23.08,1.35,0,1.52-.32s1.11-.95,1-.72a1.18,1.18,0,0,0,.32,1,7.83,7.83,0,0,1,.63.88l2.95-2.31s2.23-.48,2.31-.24,1.51-1.59,1.51-1.59l4.54-5.58,1.76-1.2,1.27-1.83,1.75-3.19,1-3.58.72-2.71-1.75-2.63-.72-2.23ZM381,188.69a8.76,8.76,0,0,1-1.28-1v-.24L379,190l-.72,2.63a15.52,15.52,0,0,1,1.59.24,8.56,8.56,0,0,0,2.63-1.67c.08-.32,1.68-2.95,1.68-2.95A21,21,0,0,1,381,188.69Zm43.18-4.62-.8-.81s.08-1.11-.16-1.11a4.31,4.31,0,0,0-.64.08l.4-2.79-1.44-.87-.31,4.3-1,2.39-2.07.8s.88.87,1.2.87-.24,1-.24,1l-1.36,1.2a1,1,0,0,1-.47-.88c0-.64-1.28.63-1.28.63l-.87-.55-2.4,2.06L409.48,192l-7.65,4.7,1,.56a4.46,4.46,0,0,1,1,.56,12.71,12.71,0,0,0,2.39-1l2.63-1.91,1.27-1.12s2.32-.63,2.23-.31a13.33,13.33,0,0,0,.72-1.52l2.23-1.19,1.36-1.35,1.11.31,1.6-.56,2.7-1.75.48-1.44.88.09,1.67-1.2,1.11-1.91-2.06,1.12ZM103.16,9.36a7.07,7.07,0,0,0,2.39.39c1.35.08,1.51-.08,2.15.16s1.19.64,1.43.08.56-.56.8-.88,0-.63.39-.79,1.12.64,1.12.64-.88.55-.48.63,1.51.32,2.08.4.08.24,1,.32,1.35-.08,2.55-.08,1.91-.56,2.31-.4a6.48,6.48,0,0,0,2.15.08c.4-.08,1.36-.95,1-.95s-1.92-.4-2.55-.48a10,10,0,0,0-3.11.08A1.76,1.76,0,0,1,115,8.8c-.32-.16,1.35-1.44,2.47-1.28s2.78-.16,3.34-.08,1.92.32,1.92.32a.88.88,0,0,0,.39-.4l.16-.47.8.71s5.25-2.15,5.5-2.55a11.58,11.58,0,0,1,4.06-1.35c.48.08,3.74-1.36,4.3-1.12s3.5-.71,3.5-.71,2.16-.48,2.64-.48.71-.56,0-.48-6.7.08-8.13,0-4.94,0-5.5.08a30.27,30.27,0,0,1-5.1.88c-1.35-.08-5.73.55-6,.47s-2-.15-1.83-.15-2.32,2-2.71,1.43,0-1-.4-.56-.32,2.23-.32,2.23c.48.32,1.51,1.44,2.23,1a1.23,1.23,0,0,1,1.35-.16c.24.08-1.11,1.11-1.91,1.11a18.15,18.15,0,0,0-3.35,1,10.27,10.27,0,0,0-1.35-1.11,14.13,14.13,0,0,0-1.83-.16c-.24,0-.56-.24-.64.47s.08,1.83-.71,1.68-1,.15-1.44-.08.56-1.44-.56-1.52-1.75-.87-2.39.4S102.52,9.11,103.16,9.36ZM74.32,14.29c-.24.4,2.07.56,2.22.24s1.6-.08,1.92-.55,1.91-1.44,2.15-1.28-.48,1-.72,1,.8.15-.24.95-.79,1.52-.79,1.52-.88.4-.24.56a14.64,14.64,0,0,1,1.83.71s.08.56.08.72.4.64,1.27.08,2.63-1.19,2.87-1,.8-.08,1.6-.16a6.06,6.06,0,0,0,1.43-.31l1,.16c.48.23.88-.32,1.68.15a4.23,4.23,0,0,0,1.9.48,12.63,12.63,0,0,1,1.36-.95c.24-.08.71-.16.47-.72s-1.11-1.43-.87-1.6.79-.32.72-1.83.15-1.27-.24-1.19a8.84,8.84,0,0,0-1.36.56l-.31-.08c-.16.47-.88.79-1,1.27s-.62.72-.62.32-.56-.48-.65-.8-.79-.24-1.19-.16-1.52-.71-1.92-.39-.79-.16-1.11-.88-.72-1.28-1.19-1.2-3.43,0-3.43,0l-1.75.16s-1,.24-1,.72a.88.88,0,0,1-.63,1c-.48.16-4,1.43-4,1.43S74.56,13.89,74.32,14.29Zm25-1.91-.87-.16s-.08-.63-.32-.63-1,.87-1,.87,1,.4,1.2.72.56.71.56,1,2.62-.8,2.62-.8l1.44-.72s.08.16.16-.24-.16-.71,0-.79.8-1.12.16-1-2,0-2.63.24-1.43-.32-1.35.32A5.3,5.3,0,0,1,99.33,12.38ZM86.59,8.72s.31,1.35,1,.95,2.47,1,2.47,1.12.64.08.64.08l2.79-1L95,9.67a6.44,6.44,0,0,1,1.7.08c.24.16,1.44-.39,1.44-.39l.48-.8-1-.32.24-.8s-.32-.48-1,.08A10.45,10.45,0,0,1,94.23,9c.16-.24-.79.07-1.19-.4a1.68,1.68,0,0,0-1-.56S91,7.6,90.57,7.76s.72-.8.72-.8.23-.87-.25-.79-4.38,1-4.38,1-1.67,1-2,.72S83.16,8,83.16,8l.8.48C84.2,8.24,86.59,8.72,86.59,8.72Zm17.76-3.27,2.39.72a3.29,3.29,0,0,0,1.27.16c.32-.08,1.6-.72,1.12-1s-2-.56-2.31-.72a6.89,6.89,0,0,0-1.51-.23l-.72.15C104.43,4.81,104.11,5.37,104.35,5.45ZM96.7,6.81c.33-.16,1.44-.64,1.44-.64l1-.8.32-.4s-.71-.63-1-.4a20.71,20.71,0,0,1-2,1l-.08.56L95,6.65a5.36,5.36,0,0,0,1.7.16Zm14.35-.24c.31.08,1.27.08,1.35-.16a13.59,13.59,0,0,0-.08-1.92S112,4,111.6,4.1a12.9,12.9,0,0,0-1.67.71A3.44,3.44,0,0,0,111.05,6.57ZM90.92,91.47c0-.18-1-.47-1.43-.47a6.36,6.36,0,0,1-2.32-2c-.13-.36-4-1.31-4-1.31s-4.24-.24-4.24-.36a23.81,23.81,0,0,0-2,1.61v.18s.17.84.24,1,1.37-1,1.49-1.44,1.07-.6,1.31-.72.36.49.6.49a10,10,0,0,1,1.32.35L84,89.5l.83.77s.36,1.91.36,2.16,1.61.11,1.61.11L90,92.25S91,91.65,90.92,91.47Zm-.11,4c.29.12.77-.06,1-.06a8,8,0,0,0,1-.18,3.29,3.29,0,0,1,.24.72c0,.18,1.25-.06,1.25-.24a2.3,2.3,0,0,1,.3-.66l1.49-.29,2.22.06c.18,0,.3-.36-.07-1S96.9,93,96.66,92.54s-1.37-.17-1.67,0-2-.41-2.45-.41,0,.53,0,.53l-.18,1.74h-2l-.06.17s-.54.18-.54.54S90.51,95.35,90.81,95.47Z"/><rect class="cls-2" x="117.47" y="126.63" width="29.44" height="29.44" rx="2.79" ry="2.79"/><rect class="cls-3" x="118.73" y="127.9" width="26.91" height="16.56"/><line class="cls-4" x1="126.05" y1="131.89" x2="129.43" y2="131.89"/><line class="cls-5" x1="123.85" y1="131.89" x2="123.85" y2="131.89"/><line class="cls-4" x1="126.05" y1="135.48" x2="129.43" y2="135.48"/><line class="cls-5" x1="123.85" y1="135.48" x2="123.85" y2="135.48"/><line class="cls-4" x1="126.05" y1="139.07" x2="129.43" y2="139.07"/><line class="cls-5" x1="123.85" y1="139.07" x2="123.85" y2="139.07"/><line class="cls-6" x1="131.45" y1="131.89" x2="140.92" y2="131.89"/><line class="cls-6" x1="131.45" y1="133.68" x2="138.85" y2="133.68"/><line class="cls-6" x1="131.45" y1="137.28" x2="138.85" y2="137.28"/><line class="cls-6" x1="131.45" y1="140.87" x2="138.85" y2="140.87"/><line class="cls-6" x1="131.45" y1="135.48" x2="140.92" y2="135.48"/><line class="cls-6" x1="131.45" y1="139.07" x2="140.92" y2="139.07"/><path class="cls-7" d="M117.47,144.46h29.44a0,0,0,0,1,0,0v9.68a4,4,0,0,1-4,4H121.47a4,4,0,0,1-4-4v-9.68A0,0,0,0,1,117.47,144.46Z"/><rect class="cls-8" x="118.73" y="145.95" width="1.96" height="1.96" rx="0.98" ry="0.98"/><rect class="cls-8" x="121.23" y="145.95" width="1.96" height="1.96" rx="0.98" ry="0.98"/><rect class="cls-8" x="123.72" y="145.95" width="1.96" height="1.96" rx="0.98" ry="0.98"/><rect class="cls-8" x="126.22" y="145.95" width="1.96" height="1.96" rx="0.98" ry="0.98"/><rect class="cls-8" x="128.71" y="145.95" width="1.96" height="1.96" rx="0.98" ry="0.98"/><rect class="cls-8" x="131.21" y="145.95" width="1.96" height="1.96" rx="0.98" ry="0.98"/><rect class="cls-8" x="133.71" y="145.95" width="1.96" height="1.96" rx="0.98" ry="0.98"/><rect class="cls-8" x="136.2" y="145.95" width="1.96" height="1.96" rx="0.98" ry="0.98"/><rect class="cls-8" x="138.7" y="145.95" width="1.96" height="1.96" rx="0.98" ry="0.98"/><rect class="cls-8" x="141.19" y="145.95" width="1.96" height="1.96" rx="0.98" ry="0.98"/><rect class="cls-8" x="143.69" y="145.95" width="1.96" height="1.96" rx="0.98" ry="0.98"/><rect class="cls-8" x="121.23" y="148.6" width="1.96" height="1.96" rx="0.98" ry="0.98"/><rect class="cls-8" x="123.72" y="148.6" width="1.96" height="1.96" rx="0.98" ry="0.98"/><rect class="cls-8" x="126.22" y="148.6" width="1.96" height="1.96" rx="0.98" ry="0.98"/><rect class="cls-8" x="128.71" y="148.6" width="1.96" height="1.96" rx="0.98" ry="0.98"/><rect class="cls-8" x="131.21" y="148.6" width="1.96" height="1.96" rx="0.98" ry="0.98"/><rect class="cls-8" x="133.71" y="148.6" width="1.96" height="1.96" rx="0.98" ry="0.98"/><rect class="cls-8" x="136.2" y="148.6" width="1.96" height="1.96" rx="0.98" ry="0.98"/><rect class="cls-8" x="138.7" y="148.6" width="1.96" height="1.96" rx="0.98" ry="0.98"/><rect class="cls-8" x="141.19" y="148.6" width="1.96" height="1.96" rx="0.98" ry="0.98"/><rect class="cls-8" x="118.73" y="151.24" width="1.96" height="1.96" rx="0.98" ry="0.98"/><rect class="cls-8" x="121.23" y="151.24" width="1.96" height="1.96" rx="0.98" ry="0.98"/><rect class="cls-8" x="123.72" y="151.24" width="1.96" height="1.96" rx="0.98" ry="0.98"/><rect class="cls-8" x="126.22" y="151.24" width="1.96" height="1.96" rx="0.98" ry="0.98"/><rect class="cls-8" x="128.71" y="151.24" width="1.96" height="1.96" rx="0.98" ry="0.98"/><rect class="cls-8" x="131.21" y="151.24" width="1.96" height="1.96" rx="0.98" ry="0.98"/><rect class="cls-8" x="133.71" y="151.24" width="1.96" height="1.96" rx="0.98" ry="0.98"/><rect class="cls-8" x="136.2" y="151.24" width="1.96" height="1.96" rx="0.98" ry="0.98"/><rect class="cls-8" x="138.7" y="151.24" width="1.96" height="1.96" rx="0.98" ry="0.98"/><rect class="cls-8" x="141.19" y="151.24" width="1.96" height="1.96" rx="0.98" ry="0.98"/><rect class="cls-8" x="143.69" y="151.24" width="1.96" height="1.96" rx="0.98" ry="0.98"/><rect class="cls-8" x="126.67" y="151.24" width="11.04" height="1.96" rx="0.98" ry="0.98"/><rect class="cls-9" x="128.28" y="154" width="7.36" height="3.11" rx="1.55" ry="1.55"/><rect class="cls-7" x="164.32" y="76.71" width="27.85" height="30.84" rx="3.05" ry="3.05"/><rect class="cls-2" x="165.82" y="83.35" width="24.63" height="2.14"/><rect class="cls-2" x="165.82" y="87.9" width="24.63" height="2.14"/><rect class="cls-2" x="166.03" y="92.45" width="24.63" height="2.14"/><rect class="cls-2" x="166.03" y="97" width="24.63" height="2.14"/><rect class="cls-2" x="166.03" y="101.55" width="24.63" height="2.14"/><circle class="cls-10" cx="188.73" cy="79.7" r="1.29"/><rect class="cls-7" x="84.07" y="39.71" width="20.29" height="35.67" rx="4.79" ry="4.79"/><rect class="cls-11" x="84.07" y="43.07" width="20.29" height="25.66"/><rect class="cls-11" x="84.07" y="43.07" width="20.29" height="25.66"/><rect class="cls-12" x="84.07" y="43.07" width="20.29" height="25.66"/><circle class="cls-8" cx="94.22" cy="71.64" r="1.58"/><rect class="cls-2" x="342.41" y="43.22" width="29.44" height="29.44" rx="2.79" ry="2.79"/><rect class="cls-3" x="343.68" y="44.48" width="26.91" height="16.56"/><line class="cls-4" x1="351" y1="48.47" x2="354.37" y2="48.47"/><line class="cls-5" x1="348.8" y1="48.47" x2="348.8" y2="48.47"/><line class="cls-4" x1="351" y1="52.06" x2="354.37" y2="52.06"/><line class="cls-5" x1="348.8" y1="52.06" x2="348.8" y2="52.06"/><line class="cls-4" x1="351" y1="55.66" x2="354.37" y2="55.66"/><line class="cls-5" x1="348.8" y1="55.66" x2="348.8" y2="55.66"/><line class="cls-6" x1="356.39" y1="48.47" x2="365.87" y2="48.47"/><line class="cls-6" x1="356.39" y1="50.27" x2="363.79" y2="50.27"/><line class="cls-6" x1="356.39" y1="53.86" x2="363.79" y2="53.86"/><line class="cls-6" x1="356.39" y1="57.45" x2="363.79" y2="57.45"/><line class="cls-6" x1="356.39" y1="52.06" x2="365.87" y2="52.06"/><line class="cls-6" x1="356.39" y1="55.66" x2="365.87" y2="55.66"/><path class="cls-7" d="M342.41,61h29.44a0,0,0,0,1,0,0v9.68a4,4,0,0,1-4,4H346.41a4,4,0,0,1-4-4V61A0,0,0,0,1,342.41,61Z"/><rect class="cls-8" x="343.68" y="62.54" width="1.96" height="1.96" rx="0.98" ry="0.98"/><rect class="cls-8" x="346.17" y="62.54" width="1.96" height="1.96" rx="0.98" ry="0.98"/><rect class="cls-8" x="348.67" y="62.54" width="1.96" height="1.96" rx="0.98" ry="0.98"/><rect class="cls-8" x="351.16" y="62.54" width="1.96" height="1.96" rx="0.98" ry="0.98"/><rect class="cls-8" x="353.66" y="62.54" width="1.96" height="1.96" rx="0.98" ry="0.98"/><rect class="cls-8" x="356.16" y="62.54" width="1.96" height="1.96" rx="0.98" ry="0.98"/><rect class="cls-8" x="358.65" y="62.54" width="1.96" height="1.96" rx="0.98" ry="0.98"/><rect class="cls-8" x="361.15" y="62.54" width="1.96" height="1.96" rx="0.98" ry="0.98"/><rect class="cls-8" x="363.64" y="62.54" width="1.96" height="1.96" rx="0.98" ry="0.98"/><rect class="cls-8" x="366.14" y="62.54" width="1.96" height="1.96" rx="0.98" ry="0.98"/><rect class="cls-8" x="368.63" y="62.54" width="1.96" height="1.96" rx="0.98" ry="0.98"/><rect class="cls-8" x="346.17" y="65.18" width="1.96" height="1.96" rx="0.98" ry="0.98"/><rect class="cls-8" x="348.67" y="65.18" width="1.96" height="1.96" rx="0.98" ry="0.98"/><rect class="cls-8" x="351.16" y="65.18" width="1.96" height="1.96" rx="0.98" ry="0.98"/><rect class="cls-8" x="353.66" y="65.18" width="1.96" height="1.96" rx="0.98" ry="0.98"/><rect class="cls-8" x="356.16" y="65.18" width="1.96" height="1.96" rx="0.98" ry="0.98"/><rect class="cls-8" x="358.65" y="65.18" width="1.96" height="1.96" rx="0.98" ry="0.98"/><rect class="cls-8" x="361.15" y="65.18" width="1.96" height="1.96" rx="0.98" ry="0.98"/><rect class="cls-8" x="363.64" y="65.18" width="1.96" height="1.96" rx="0.98" ry="0.98"/><rect class="cls-8" x="366.14" y="65.18" width="1.96" height="1.96" rx="0.98" ry="0.98"/><rect class="cls-8" x="343.68" y="67.83" width="1.96" height="1.96" rx="0.98" ry="0.98"/><rect class="cls-8" x="346.17" y="67.83" width="1.96" height="1.96" rx="0.98" ry="0.98"/><rect class="cls-8" x="348.67" y="67.83" width="1.96" height="1.96" rx="0.98" ry="0.98"/><rect class="cls-8" x="351.16" y="67.83" width="1.96" height="1.96" rx="0.98" ry="0.98"/><rect class="cls-8" x="353.66" y="67.83" width="1.96" height="1.96" rx="0.98" ry="0.98"/><rect class="cls-8" x="356.16" y="67.83" width="1.96" height="1.96" rx="0.98" ry="0.98"/><rect class="cls-8" x="358.65" y="67.83" width="1.96" height="1.96" rx="0.98" ry="0.98"/><rect class="cls-8" x="361.15" y="67.83" width="1.96" height="1.96" rx="0.98" ry="0.98"/><rect class="cls-8" x="363.64" y="67.83" width="1.96" height="1.96" rx="0.98" ry="0.98"/><rect class="cls-8" x="366.14" y="67.83" width="1.96" height="1.96" rx="0.98" ry="0.98"/><rect class="cls-8" x="368.63" y="67.83" width="1.96" height="1.96" rx="0.98" ry="0.98"/><rect class="cls-8" x="351.61" y="67.83" width="11.04" height="1.96" rx="0.98" ry="0.98"/><rect class="cls-9" x="353.22" y="70.59" width="7.36" height="3.11" rx="1.55" ry="1.55"/><rect class="cls-7" x="388.33" y="150.35" width="20.29" height="35.67" rx="4.79" ry="4.79"/><rect class="cls-11" x="388.33" y="153.71" width="20.29" height="25.66"/><rect class="cls-11" x="388.33" y="153.71" width="20.29" height="25.66"/><rect class="cls-12" x="388.33" y="153.71" width="20.29" height="25.66"/><circle class="cls-8" cx="398.47" cy="182.28" r="1.58"/><line x1="109.24" y1="58.97" x2="159.77" y2="89.93"/><line class="cls-13" x1="114.33" y1="62.09" x2="159.77" y2="89.93"/><polygon class="cls-14" points="114.79 66.71 115.38 62.73 118.66 60.4 109.24 58.97 114.79 66.71"/><line x1="182" y1="110.33" x2="151.5" y2="143.06"/><line class="cls-13" x1="177.93" y1="114.7" x2="151.5" y2="143.06"/><polygon class="cls-14" points="173.31 114.23 177.09 115.6 178.72 119.28 182 110.33 173.31 114.23"/><line x1="337.07" y1="54.9" x2="196.81" y2="86.9"/><line class="cls-13" x1="337.07" y1="54.9" x2="202.63" y2="85.57"/><polygon class="cls-14" points="204.55 81.33 203.84 85.3 206.19 88.56 196.81 86.9 204.55 81.33"/><line x1="196.81" y1="99.14" x2="384.15" y2="168.19"/><line class="cls-13" x1="196.81" y1="99.14" x2="378.55" y2="166.13"/><polygon class="cls-14" points="374.63 168.63 377.39 165.7 377.19 161.68 384.15 168.19 374.63 168.63"/></svg>